<?xml version="1.0" encoding="UTF-8"?>

<svg version="1.2" baseProfile="tiny" width="100mm" height="25mm" viewBox="0 0 10000 2500" preserveAspectRatio="xMidYMid" fill-rule="evenodd" stroke-width="28.222" stroke-linejoin="round" xmlns="http://www.w3.org/2000/svg" xmlns:xlink="http://www.w3.org/1999/xlink" xml:space="preserve">
 <g visibility="visible" id="MasterSlide_1_Domyślnie">
  <desc>Master slide
  </desc>
  <rect fill="none" stroke="none" x="0" y="0" width="10000" height="2500"/>
 </g>
 <g visibility="visible" id="Slide_1_page1">
  <g>
   <path fill="rgb(144,199,237)" stroke="none" d="M 4698,658 C 4730,658 4756,684 4756,716 4756,747 4730,774 4698,774 4667,774 4641,747 4641,716 4641,684 4667,658 4698,658 Z M 4698,827 C 4759,827 4808,777 4808,716 4808,655 4759,606 4698,606 4638,606 4587,655 4587,716 4587,777 4638,827 4698,827 Z"/>
   <rect fill="none" stroke="none" x="4587" y="606" width="222" height="223"/>
  </g>
  <g>
   <path fill="rgb(144,199,237)" stroke="none" d="M 5436,1184 C 5433,1197 5422,1208 5409,1206 L 5193,1161 5192,1161 C 5191,1161 5191,1161 5190,1161 L 5189,1161 5188,1161 C 5187,1161 5187,1161 5187,1161 5186,1161 5186,1161 5185,1161 L 5184,1161 5183,1161 C 5182,1161 5182,1162 5181,1162 L 5180,1162 5179,1162 C 5178,1162 5178,1163 5178,1163 5177,1163 5177,1163 5176,1163 5176,1164 5176,1164 5176,1164 L 5006,1250 C 4993,1257 4984,1268 4980,1283 4977,1298 4980,1313 4989,1324 L 5101,1471 C 5108,1480 5114,1490 5117,1499 L 5193,1698 C 5198,1712 5191,1727 5178,1733 5164,1738 5149,1731 5143,1718 L 5064,1515 C 5064,1514 5064,1514 5064,1514 5064,1513 5064,1513 5063,1512 L 5063,1511 C 5062,1511 5062,1510 5062,1510 L 5061,1509 C 5061,1508 5061,1508 5061,1508 L 5060,1508 4947,1359 C 4933,1340 4914,1325 4893,1313 L 4892,1313 4881,1307 C 4858,1295 4839,1275 4829,1250 L 4743,1041 C 4738,1028 4726,1018 4712,1016 4697,1015 4683,1021 4674,1033 L 4545,1207 C 4539,1214 4529,1215 4521,1210 4514,1204 4512,1194 4517,1186 L 4704,932 C 4713,918 4727,908 4742,902 L 4811,874 C 4826,868 4842,866 4859,868 L 5000,889 C 5000,889 5001,889 5002,889 5003,890 5005,890 5007,890 5017,890 5027,886 5034,880 5035,880 5036,880 5036,879 L 5143,788 C 5150,782 5161,783 5168,791 5174,798 5173,809 5166,815 L 5055,910 C 5040,923 5020,928 5001,925 L 4933,915 4932,915 C 4918,913 4904,918 4895,930 4886,942 4884,958 4889,971 L 4963,1151 C 4968,1163 4978,1173 4992,1178 4997,1180 5003,1181 5009,1181 5016,1181 5023,1180 5030,1176 L 5031,1176 5163,1109 C 5172,1105 5181,1103 5191,1105 L 5419,1153 C 5432,1157 5439,1171 5436,1184 Z M 5434,1103 C 5434,1102 5433,1102 5433,1102 5432,1102 5432,1102 5432,1102 5431,1102 5431,1102 5431,1102 L 5202,1054 C 5180,1049 5159,1052 5139,1062 L 5010,1128 4946,971 4993,978 C 4999,979 5005,980 5011,980 5040,980 5067,970 5089,951 L 5200,855 5201,855 5201,854 C 5229,829 5232,786 5208,757 5183,728 5139,723 5110,747 L 5109,747 5109,748 5005,837 4866,816 C 4841,812 4815,815 4792,825 4791,825 4791,825 4791,825 L 4722,853 C 4698,863 4677,879 4661,900 L 4474,1155 4474,1156 4473,1156 C 4452,1187 4460,1229 4490,1252 4503,1261 4518,1266 4532,1266 4553,1266 4573,1257 4586,1240 4587,1240 4587,1239 4587,1239 L 4703,1082 4781,1270 C 4795,1306 4822,1336 4856,1354 L 4857,1354 4868,1360 C 4883,1368 4896,1378 4905,1391 L 5017,1537 5094,1737 C 5094,1738 5094,1738 5094,1738 5107,1769 5136,1787 5168,1787 5177,1787 5187,1785 5197,1782 5237,1766 5257,1722 5243,1680 L 5166,1480 C 5161,1466 5153,1452 5143,1439 L 5033,1295 5191,1215 5399,1258 5400,1258 C 5404,1259 5408,1259 5411,1259 5447,1259 5480,1232 5487,1195 5496,1155 5473,1115 5434,1103 Z"/>
   <rect fill="none" stroke="none" x="4460" y="732" width="1030" height="1057"/>
  </g>
  <g>
   <path fill="rgb(144,199,237)" stroke="none" d="M 4928,1750 C 4863,1747 4798,1709 4751,1645 4732,1617 4727,1596 4736,1581 4745,1567 4762,1555 4788,1546 4813,1537 4840,1530 4874,1525 4876,1525 4879,1526 4880,1527 4881,1529 4880,1532 4879,1534 4869,1544 4858,1557 4847,1573 4840,1583 4836,1592 4833,1600 4825,1622 4827,1643 4839,1658 4875,1703 4934,1713 4982,1722 L 4986,1722 C 4991,1723 4996,1724 5001,1725 5006,1726 5011,1727 5016,1728 5018,1729 5020,1731 5020,1733 5020,1735 5019,1737 5016,1738 4989,1744 4959,1751 4928,1750 Z M 5023,1693 C 5022,1693 5022,1693 5022,1693 5018,1692 5013,1691 5009,1690 5003,1689 4998,1688 4992,1687 L 4989,1686 C 4945,1678 4895,1669 4868,1636 4864,1630 4865,1619 4868,1613 4870,1607 4873,1601 4878,1593 4888,1579 4897,1567 4906,1558 4918,1545 4920,1525 4911,1510 4903,1495 4886,1486 4868,1489 4832,1495 4803,1502 4776,1512 4742,1524 4718,1541 4705,1562 4688,1591 4693,1626 4722,1666 4775,1739 4849,1783 4927,1786 4930,1786 4933,1786 4936,1786 4968,1786 4998,1779 5025,1773 L 5026,1773 5027,1773 C 5045,1767 5057,1750 5056,1732 5056,1713 5041,1696 5023,1693 Z"/>
   <rect fill="none" stroke="none" x="4694" y="1487" width="363" height="300"/>
  </g>
  <g>
   <path fill="rgb(144,199,237)" stroke="none" d="M 4812,1637 C 4803,1630 4797,1620 4797,1608 4796,1597 4801,1586 4809,1579 4814,1574 4815,1566 4810,1561 4806,1556 4798,1556 4793,1560 4778,1573 4770,1590 4771,1609 4772,1629 4781,1646 4798,1657 4800,1659 4802,1659 4805,1659 4809,1659 4812,1658 4815,1654 4819,1649 4817,1641 4812,1637 Z"/>
   <rect fill="none" stroke="none" x="4771" y="1557" width="48" height="103"/>
  </g>
  <g>
   <path fill="rgb(144,199,237)" stroke="none" d="M 6863,1458 C 6853,1453 6849,1442 6854,1433 L 6935,1270 C 6935,1269 6935,1268 6935,1268 6936,1267 6936,1267 6936,1267 6936,1266 6936,1266 6936,1265 6936,1264 6937,1264 6937,1264 6937,1263 6937,1263 6937,1262 L 6937,1261 C 6937,1260 6937,1260 6937,1260 6937,1259 6937,1258 6937,1258 L 6937,1257 C 6937,1256 6937,1255 6937,1254 6937,1253 6937,1253 6937,1252 L 6904,1117 6904,1116 C 6900,1100 6886,1087 6870,1084 6854,1080 6837,1087 6827,1101 L 6754,1200 C 6749,1207 6742,1211 6734,1212 6726,1213 6718,1211 6711,1206 L 6585,1100 C 6578,1093 6578,1081 6584,1074 6590,1066 6601,1065 6609,1071 L 6708,1154 C 6708,1154 6708,1155 6709,1155 L 6710,1155 C 6710,1156 6710,1156 6710,1156 6711,1156 6711,1156 6711,1157 6712,1157 6712,1157 6712,1157 6713,1157 6713,1157 6713,1158 6714,1158 6714,1158 6714,1158 6715,1158 6715,1158 6715,1158 6716,1159 6716,1159 6716,1159 6717,1159 6717,1159 6718,1159 6719,1160 6719,1160 6720,1160 6721,1160 6722,1160 6722,1160 L 6723,1160 C 6723,1160 6724,1160 6725,1160 6726,1160 6727,1160 6728,1160 L 6729,1160 C 6729,1160 6730,1160 6731,1160 6731,1159 6731,1159 6732,1159 L 6733,1159 C 6734,1159 6734,1158 6734,1158 6735,1158 6736,1158 6736,1158 6737,1157 6737,1157 6737,1157 6738,1157 6738,1156 6739,1156 L 6740,1155 C 6740,1155 6741,1155 6741,1154 6742,1154 6742,1154 6742,1154 6743,1153 6743,1153 6743,1152 6744,1152 6744,1152 6744,1151 6745,1151 6745,1151 6745,1151 6745,1150 6745,1150 6746,1150 L 6746,1149 6806,1068 6953,868 C 6962,856 6964,841 6960,828 6955,815 6944,805 6930,801 L 6728,744 C 6726,744 6720,742 6718,736 6717,732 6718,728 6721,725 6724,722 6731,723 6734,724 L 6996,796 C 7000,798 7004,800 7010,803 L 7117,869 C 7127,876 7137,884 7145,893 L 7206,968 7207,969 C 7207,970 7208,970 7208,970 7208,971 7209,971 7209,971 7210,972 7210,972 7210,972 7211,972 7211,973 7212,973 7212,974 7213,974 7213,974 7213,974 7214,974 7215,975 7216,975 7217,976 7217,976 L 7218,976 C 7219,976 7219,976 7220,977 L 7221,977 C 7221,977 7222,977 7223,977 7224,977 7225,977 7226,977 7227,977 7228,977 7228,977 L 7347,967 C 7353,968 7357,972 7358,978 7358,983 7354,990 7349,991 L 7214,1003 C 7208,1003 7202,1001 7198,995 L 7137,921 C 7128,911 7117,906 7105,906 7092,907 7080,913 7073,923 L 6955,1092 C 6946,1105 6943,1122 6947,1138 L 6973,1245 C 6976,1258 6975,1272 6969,1284 L 6887,1449 C 6882,1458 6872,1462 6863,1458 Z M 7410,973 C 7408,940 7380,915 7347,915 L 7346,915 7345,915 7344,915 7238,924 7186,859 C 7175,846 7161,834 7146,824 7145,824 7145,824 7145,824 L 7038,759 C 7030,754 7021,749 7010,746 L 6748,673 C 6724,666 6701,671 6685,686 6668,703 6661,727 6667,750 6673,772 6691,789 6714,795 L 6902,848 6763,1036 6720,1096 6642,1030 6641,1030 C 6641,1029 6641,1029 6641,1029 6640,1029 6640,1029 6640,1028 6609,1007 6568,1012 6544,1040 6520,1069 6522,1111 6548,1137 6549,1138 6549,1138 6549,1138 6549,1138 6549,1139 6550,1139 L 6677,1246 C 6692,1258 6711,1265 6731,1265 6734,1265 6737,1265 6741,1264 6763,1262 6783,1250 6797,1231 L 6857,1149 6883,1255 6807,1410 C 6790,1445 6804,1487 6839,1505 6849,1510 6860,1512 6871,1512 6896,1512 6920,1498 6933,1474 L 6934,1473 7016,1308 C 7027,1284 7030,1258 7024,1233 L 6998,1126 C 6998,1124 6998,1123 6998,1122 L 7106,967 7157,1030 C 7171,1046 7191,1055 7212,1055 7214,1055 7216,1055 7218,1055 L 7355,1044 7356,1044 C 7357,1044 7357,1044 7357,1044 L 7358,1044 C 7390,1038 7413,1008 7410,973 Z"/>
   <rect fill="none" stroke="none" x="6527" y="669" width="885" height="845"/>
  </g>
  <g>
   <path fill="rgb(144,199,237)" stroke="none" d="M 7181,657 C 7206,657 7228,678 7228,703 7228,728 7206,749 7181,749 7155,749 7135,728 7135,703 7135,678 7155,657 7181,657 Z M 7181,802 C 7236,802 7280,757 7280,703 7280,648 7236,603 7181,603 7126,603 7082,648 7082,703 7082,757 7126,802 7181,802 Z"/>
   <rect fill="none" stroke="none" x="7082" y="603" width="199" height="201"/>
  </g>
  <g>
   <path fill="rgb(144,199,237)" stroke="none" d="M 7151,1368 L 7052,1326 C 7042,1322 7030,1327 7025,1337 7021,1348 7026,1360 7036,1364 L 7095,1389 7019,1431 C 7013,1435 7009,1440 7009,1447 7008,1453 7010,1459 7014,1464 L 7065,1515 6970,1521 C 6964,1522 6959,1524 6956,1528 6952,1534 6950,1539 6951,1545 L 6957,1622 6914,1604 6914,1571 C 6914,1557 6902,1545 6887,1545 L 6721,1545 6721,1372 C 6721,1357 6709,1346 6694,1346 L 6528,1346 6528,1173 C 6528,1159 6516,1147 6502,1147 L 6310,1147 C 6295,1147 6283,1159 6283,1173 6283,1188 6295,1200 6310,1200 L 6476,1200 6476,1372 C 6476,1386 6487,1398 6502,1398 L 6668,1398 6668,1571 C 6668,1586 6680,1598 6694,1598 L 6861,1598 6861,1761 C 6861,1775 6873,1787 6887,1787 6902,1787 6914,1775 6914,1761 L 6914,1648 6972,1674 C 6975,1675 6978,1675 6980,1675 6985,1675 6989,1674 6992,1671 6998,1667 7002,1660 7001,1653 L 6993,1562 7114,1554 C 7122,1554 7129,1548 7132,1541 7135,1533 7133,1524 7128,1518 L 7063,1454 7153,1405 C 7160,1401 7164,1394 7163,1386 7163,1378 7158,1371 7151,1368 Z"/>
   <rect fill="none" stroke="none" x="6282" y="1147" width="883" height="641"/>
  </g>
  <g>
   <path fill="rgb(144,199,237)" stroke="none" d="M 8257,744 L 8408,744 8408,1734 8257,1734 8257,744 Z M 8434,692 L 8231,692 C 8216,692 8205,703 8205,718 L 8205,1761 C 8205,1775 8216,1787 8231,1787 L 8434,1787 C 8450,1787 8461,1775 8461,1761 L 8461,718 C 8461,703 8450,692 8434,692 Z"/>
   <rect fill="none" stroke="none" x="8205" y="692" width="257" height="1096"/>
  </g>
  <g>
   <path fill="rgb(144,199,237)" stroke="none" d="M 8902,803 C 8937,803 8965,832 8965,866 8965,902 8937,930 8902,930 8867,930 8839,902 8839,866 8839,832 8867,803 8902,803 Z M 8902,983 C 8966,983 9019,931 9019,866 9019,803 8966,751 8902,751 8838,751 8786,803 8786,866 8786,931 8838,983 8902,983 Z"/>
   <rect fill="none" stroke="none" x="8786" y="751" width="234" height="233"/>
  </g>
  <g>
   <path fill="rgb(144,199,237)" stroke="none" d="M 9314,1722 L 9113,1722 C 9087,1722 9066,1704 9063,1678 L 9042,1512 C 9065,1505 9087,1492 9104,1474 L 9125,1633 C 9125,1634 9125,1634 9125,1634 9125,1635 9125,1635 9125,1636 L 9125,1637 9126,1638 C 9126,1639 9126,1639 9126,1640 L 9127,1640 C 9127,1641 9127,1642 9128,1643 9128,1644 9129,1644 9129,1645 9130,1646 9130,1646 9130,1647 9131,1647 9131,1647 9131,1647 9131,1648 9132,1648 9132,1649 L 9133,1649 C 9133,1650 9133,1650 9134,1650 9134,1650 9134,1651 9135,1651 L 9136,1652 9137,1652 C 9137,1653 9137,1653 9138,1653 L 9139,1654 9140,1654 C 9140,1654 9141,1654 9141,1655 L 9142,1655 C 9143,1655 9143,1655 9143,1655 9144,1656 9144,1656 9145,1656 L 9146,1656 C 9146,1656 9147,1656 9148,1656 9149,1656 9150,1657 9151,1657 L 9314,1657 C 9333,1657 9347,1671 9347,1689 9347,1707 9332,1722 9314,1722 Z M 8771,1722 C 8753,1722 8738,1708 8738,1692 L 8738,1461 C 8738,1437 8754,1417 8777,1411 L 8922,1377 C 8927,1376 8940,1373 8950,1362 8955,1355 8961,1343 8957,1327 L 8915,1143 C 8911,1124 8897,1109 8878,1104 8860,1099 8841,1105 8827,1119 L 8745,1204 C 8738,1212 8730,1217 8721,1219 L 8572,1257 C 8565,1259 8559,1257 8554,1251 8549,1246 8547,1238 8549,1231 8552,1220 8559,1218 8562,1218 L 8706,1181 8707,1181 8708,1181 C 8708,1180 8709,1180 8709,1180 8710,1180 8710,1180 8711,1180 8711,1179 8711,1179 8712,1179 L 8713,1178 8714,1178 C 8714,1177 8715,1177 8715,1177 L 8716,1176 C 8716,1176 8717,1176 8717,1175 8717,1175 8718,1175 8718,1174 L 8719,1174 8811,1077 C 8820,1067 8833,1062 8848,1062 L 8977,1062 C 9008,1062 9035,1083 9042,1113 L 9095,1342 C 9098,1357 9098,1372 9095,1387 9091,1402 9085,1416 9075,1428 9055,1453 9025,1468 8994,1468 L 8830,1468 C 8815,1468 8803,1479 8803,1494 L 8803,1692 C 8803,1709 8789,1722 8771,1722 Z M 9375,1629 C 9358,1613 9337,1604 9314,1604 L 9174,1604 9148,1394 C 9152,1373 9152,1351 9147,1330 L 9093,1101 C 9087,1075 9072,1052 9051,1034 9030,1017 9004,1008 8977,1008 L 8848,1008 C 8819,1008 8792,1020 8773,1040 L 8686,1132 8549,1167 C 8524,1173 8505,1191 8498,1217 8491,1242 8498,1270 8516,1288 8531,1303 8548,1310 8567,1310 8573,1310 8579,1309 8585,1308 L 8734,1270 C 8752,1265 8769,1255 8783,1241 L 8864,1156 8903,1327 8765,1360 C 8718,1371 8685,1413 8685,1461 L 8685,1692 C 8685,1738 8723,1775 8771,1775 8818,1775 8856,1738 8856,1692 L 8856,1520 8990,1520 9011,1684 C 9017,1736 9061,1775 9113,1775 L 9314,1775 C 9361,1775 9400,1736 9400,1689 9400,1666 9391,1645 9375,1629 Z"/>
   <rect fill="none" stroke="none" x="8495" y="1008" width="906" height="768"/>
  </g>
  <g>
   <path fill="rgb(144,199,237)" stroke="none" d="M 8525,1107 C 8529,1107 8533,1106 8536,1103 L 8599,1059 C 8599,1058 8599,1058 8599,1058 8610,1051 8617,1038 8617,1025 8618,1012 8611,999 8601,990 L 8587,979 C 8587,979 8586,979 8586,977 8586,977 8586,976 8588,975 L 8649,931 C 8658,925 8660,912 8653,904 8647,895 8635,893 8626,899 L 8565,943 C 8553,951 8546,963 8546,976 8545,989 8551,1002 8561,1010 L 8562,1010 8576,1021 C 8577,1022 8578,1023 8578,1024 8578,1025 8577,1026 8576,1026 L 8514,1070 C 8505,1076 8503,1090 8509,1099 8513,1104 8519,1107 8525,1107 Z"/>
   <rect fill="none" stroke="none" x="8506" y="896" width="153" height="213"/>
  </g>
  <g>
   <path fill="rgb(144,199,237)" stroke="none" d="M 8615,1549 L 8559,1499 C 8559,1498 8559,1497 8559,1495 8559,1494 8559,1494 8560,1493 L 8574,1484 8575,1484 C 8586,1477 8593,1464 8595,1451 8596,1438 8590,1425 8580,1416 L 8523,1366 C 8515,1358 8503,1358 8496,1368 8488,1376 8489,1388 8497,1395 L 8554,1446 C 8555,1447 8555,1447 8555,1448 8555,1449 8554,1450 8554,1451 L 8538,1460 C 8527,1467 8520,1479 8518,1492 8517,1506 8522,1519 8532,1528 L 8589,1578 C 8593,1581 8597,1584 8602,1584 8607,1584 8613,1581 8617,1576 8624,1568 8623,1556 8615,1549 Z"/>
   <rect fill="none" stroke="none" x="8490" y="1360" width="133" height="225"/>
  </g>
  <g>
   <path fill="rgb(144,199,237)" stroke="none" d="M 8381,1219 C 8379,1217 8377,1216 8374,1216 L 8345,1216 C 8344,1216 8342,1215 8342,1214 8341,1213 8341,1212 8341,1211 L 8355,1167 C 8356,1165 8356,1163 8354,1161 8353,1159 8351,1158 8348,1158 L 8318,1158 C 8315,1158 8312,1160 8311,1163 L 8281,1252 C 8280,1255 8280,1257 8281,1259 8283,1261 8285,1262 8287,1262 L 8311,1262 C 8312,1262 8313,1263 8314,1263 8314,1264 8315,1265 8314,1267 L 8303,1326 C 8303,1328 8304,1330 8306,1331 8307,1331 8307,1331 8308,1331 8309,1331 8311,1330 8312,1329 L 8380,1227 C 8382,1224 8382,1221 8381,1219 Z"/>
   <rect fill="none" stroke="none" x="8280" y="1158" width="103" height="174"/>
  </g>
  <g>
   <path fill="rgb(144,199,237)" stroke="none" d="M 1039,718 C 1071,718 1096,743 1096,775 1096,806 1071,831 1039,831 1008,831 983,806 983,775 983,743 1008,718 1039,718 Z M 1039,884 C 1100,884 1149,835 1149,775 1149,714 1100,666 1039,666 979,666 931,714 931,775 931,835 979,884 1039,884 Z"/>
   <rect fill="none" stroke="none" x="931" y="666" width="220" height="219"/>
  </g>
  <g>
   <path fill="rgb(144,199,237)" stroke="none" d="M 1348,1650 C 1348,1650 1349,1650 1349,1649 1349,1648 1349,1648 1349,1648 L 1370,1504 1451,1504 C 1462,1533 1489,1551 1519,1552 L 1487,1650 1348,1650 Z M 1372,1396 C 1372,1395 1372,1395 1372,1395 L 1330,1242 C 1330,1241 1331,1240 1332,1239 1333,1238 1333,1239 1334,1239 L 1398,1296 1437,1451 1377,1451 C 1378,1432 1377,1414 1372,1396 Z M 1256,1644 C 1253,1640 1253,1636 1254,1635 L 1254,1634 1281,1439 C 1281,1438 1281,1437 1281,1436 1281,1435 1281,1434 1281,1434 1281,1433 1281,1432 1281,1432 L 1281,1431 C 1281,1430 1281,1429 1280,1428 L 1240,1275 C 1237,1264 1233,1255 1228,1246 L 1121,1066 1121,1065 C 1111,1048 1092,1038 1073,1039 L 887,1044 C 872,1044 856,1038 845,1027 L 751,935 C 745,929 745,918 751,912 757,906 767,906 774,912 L 868,1003 C 868,1004 869,1004 869,1005 870,1005 870,1005 870,1006 871,1006 871,1006 872,1006 872,1007 872,1007 873,1007 873,1007 873,1008 874,1008 L 875,1008 876,1009 877,1009 C 878,1009 878,1010 878,1010 879,1010 879,1010 879,1010 880,1010 880,1010 881,1010 L 882,1010 883,1011 C 884,1011 885,1011 886,1011 L 887,1011 983,1008 C 1002,1007 1021,1002 1037,992 L 1191,902 C 1198,898 1204,893 1210,888 L 1300,806 C 1301,805 1301,805 1301,805 1301,804 1302,804 1302,804 L 1303,803 C 1303,803 1303,802 1304,802 L 1304,801 C 1305,800 1305,800 1305,800 1305,799 1305,799 1306,799 1306,798 1306,798 1306,797 1306,797 1307,797 1307,796 L 1307,795 1307,794 C 1308,793 1308,793 1308,793 1308,792 1308,792 1308,791 L 1308,790 1308,789 C 1308,788 1308,788 1308,788 1308,787 1308,787 1308,787 L 1311,671 C 1311,670 1311,670 1311,670 1311,664 1314,659 1319,656 1325,653 1331,653 1336,656 1341,659 1344,664 1344,671 L 1341,788 C 1341,804 1334,821 1322,831 L 1253,894 C 1233,912 1229,940 1242,962 L 1313,1083 C 1320,1094 1329,1105 1340,1115 L 1386,1156 C 1387,1157 1388,1158 1388,1158 L 1470,1232 C 1479,1240 1485,1250 1488,1261 L 1492,1276 C 1492,1278 1493,1281 1494,1283 L 1542,1473 C 1545,1484 1538,1495 1526,1498 1515,1501 1504,1495 1500,1484 L 1447,1276 C 1447,1275 1447,1275 1447,1275 L 1446,1275 C 1446,1274 1446,1273 1446,1273 L 1446,1272 C 1445,1271 1445,1271 1445,1270 L 1444,1269 1444,1268 C 1443,1268 1443,1267 1443,1267 L 1442,1266 C 1442,1266 1442,1265 1441,1265 L 1441,1264 C 1440,1264 1440,1263 1439,1263 L 1439,1262 1370,1200 C 1351,1184 1325,1181 1304,1194 1284,1207 1273,1232 1280,1255 L 1320,1410 C 1324,1424 1325,1438 1323,1452 L 1323,1453 1320,1472 C 1320,1473 1319,1474 1319,1476 L 1297,1639 C 1295,1649 1284,1655 1273,1654 1266,1653 1260,1649 1256,1644 Z M 1446,1096 L 1665,1096 1617,1247 1539,1247 C 1533,1226 1521,1208 1505,1193 L 1435,1130 1446,1096 Z M 1731,891 L 1682,1043 1463,1043 1512,891 1731,891 Z M 1573,1381 L 1552,1299 1600,1299 1573,1381 Z M 1587,1511 C 1591,1503 1594,1494 1595,1485 L 1660,1283 C 1661,1282 1661,1280 1662,1279 L 1725,1080 C 1726,1078 1727,1076 1727,1074 L 1792,875 C 1792,874 1792,872 1793,871 L 1846,705 C 1851,692 1843,677 1829,672 1815,668 1801,675 1796,689 L 1748,839 1528,839 1571,705 C 1575,692 1568,677 1554,672 1540,668 1525,675 1521,689 L 1468,854 C 1467,856 1467,858 1466,860 L 1403,1056 C 1402,1059 1401,1063 1400,1066 L 1392,1091 1376,1076 C 1368,1070 1362,1063 1358,1056 L 1287,936 C 1287,935 1287,934 1288,933 L 1357,870 C 1381,850 1395,820 1395,789 L 1397,672 C 1398,647 1385,623 1363,611 1342,597 1315,597 1294,610 1272,622 1258,645 1258,669 L 1258,670 1256,775 1175,849 C 1172,852 1168,854 1165,856 L 1011,947 C 1002,952 992,955 982,955 L 896,958 810,873 809,873 C 781,848 739,849 713,875 686,902 686,944 713,971 713,972 713,972 713,972 L 808,1065 C 829,1085 857,1096 886,1096 887,1096 888,1096 889,1096 L 1074,1091 C 1075,1091 1075,1092 1076,1092 L 1183,1273 C 1185,1277 1187,1282 1189,1288 L 1189,1289 1228,1437 1202,1627 1201,1627 C 1200,1640 1201,1652 1207,1664 L 1178,1753 C 1174,1767 1181,1781 1195,1786 1198,1787 1201,1787 1203,1787 1214,1787 1225,1780 1228,1769 L 1250,1702 C 1255,1704 1260,1705 1266,1706 1269,1706 1273,1707 1276,1707 1284,1707 1292,1705 1300,1703 L 1470,1703 1454,1753 C 1449,1766 1457,1781 1471,1786 1473,1787 1476,1787 1479,1787 1490,1787 1500,1780 1504,1769 L 1531,1686 C 1531,1685 1531,1684 1531,1683 L 1587,1511 Z"/>
   <rect fill="none" stroke="none" x="693" y="600" width="1156" height="1188"/>
  </g>
  <g>
   <path fill="rgb(144,199,237)" stroke="none" d="M 3360,917 C 3392,917 3418,943 3418,975 3418,1008 3392,1034 3360,1034 3327,1034 3300,1008 3300,975 3300,943 3327,917 3360,917 Z M 3360,1087 C 3421,1087 3471,1037 3471,975 3471,913 3421,863 3360,863 3297,863 3247,913 3247,975 3247,1037 3297,1087 3360,1087 Z"/>
   <rect fill="none" stroke="none" x="3247" y="862" width="225" height="226"/>
  </g>
  <g>
   <path fill="rgb(144,199,237)" stroke="none" d="M 3370,1250 L 3217,1183 C 3201,1177 3184,1178 3170,1187 L 3028,1281 C 3009,1294 3002,1319 3011,1340 L 3068,1471 C 3073,1482 3074,1494 3072,1506 L 3027,1719 C 3025,1730 3014,1737 3003,1734 2992,1732 2985,1722 2987,1711 L 3027,1522 3027,1521 3027,1520 3027,1519 C 3027,1518 3027,1518 3027,1517 L 3027,1516 3027,1515 C 3027,1514 3027,1514 3027,1514 3027,1513 3027,1513 3027,1512 L 3027,1511 3027,1510 C 3026,1510 3026,1509 3026,1509 3026,1508 3026,1508 3026,1508 3026,1507 3025,1507 3025,1506 L 2952,1342 C 2952,1341 2952,1341 2952,1341 2943,1321 2922,1309 2901,1313 2879,1316 2862,1333 2859,1355 L 2845,1472 C 2844,1479 2842,1485 2840,1490 L 2731,1725 C 2726,1734 2715,1738 2705,1733 2696,1729 2691,1718 2694,1708 L 2802,1474 C 2803,1474 2803,1473 2803,1473 2803,1472 2803,1472 2803,1472 2804,1471 2804,1471 2804,1470 L 2804,1469 2804,1468 2805,1467 2828,1273 C 2830,1254 2840,1238 2856,1227 L 3093,1073 3093,1072 C 3111,1060 3119,1037 3112,1016 L 3087,940 C 3083,926 3086,911 3096,900 L 3199,786 C 3205,780 3214,779 3220,785 3226,790 3226,799 3221,806 L 3124,912 3124,913 3123,913 C 3122,914 3122,914 3122,915 3121,915 3121,915 3121,916 L 3120,917 3120,918 C 3119,918 3119,919 3119,919 3119,919 3119,920 3118,920 3118,921 3118,921 3118,921 3118,922 3118,922 3118,923 3118,923 3117,923 3117,924 L 3117,925 3117,926 C 3117,927 3117,927 3117,927 3117,928 3117,928 3116,929 L 3116,930 3116,931 C 3116,932 3117,932 3117,933 L 3117,934 3117,935 C 3117,936 3117,936 3117,936 3117,937 3117,938 3118,938 L 3118,939 3144,1019 C 3149,1035 3158,1049 3169,1061 L 3258,1158 C 3270,1171 3283,1180 3298,1187 L 3374,1219 C 3375,1219 3375,1219 3375,1219 3376,1220 3376,1220 3377,1220 L 3378,1220 3379,1221 C 3380,1221 3381,1221 3381,1221 3382,1221 3382,1221 3382,1221 3383,1221 3384,1221 3385,1221 3385,1221 3386,1221 3387,1221 3388,1221 3388,1221 3389,1221 L 3390,1221 3391,1221 C 3391,1221 3391,1220 3392,1220 L 3393,1220 3394,1220 3394,1219 C 3395,1219 3395,1219 3395,1219 3396,1219 3396,1219 3396,1219 3397,1218 3397,1218 3397,1218 3398,1218 3398,1218 3398,1217 3399,1217 3399,1217 3399,1217 3400,1217 3400,1216 3401,1216 L 3516,1128 C 3523,1123 3532,1124 3537,1130 3542,1136 3540,1146 3534,1151 L 3412,1245 C 3400,1254 3384,1256 3370,1250 Z M 3485,1086 L 3381,1165 3318,1138 C 3311,1135 3304,1130 3297,1123 L 3207,1025 C 3201,1018 3197,1011 3194,1003 L 3173,937 3260,841 C 3260,840 3260,840 3260,840 3285,813 3283,770 3256,746 3228,721 3186,723 3161,750 L 3057,864 C 3034,889 3027,925 3037,957 L 3061,1030 2827,1183 C 2798,1202 2780,1233 2775,1267 L 2753,1456 2646,1687 C 2646,1688 2645,1688 2645,1688 L 2645,1689 C 2632,1725 2648,1765 2683,1781 2693,1786 2704,1788 2714,1788 2740,1788 2764,1774 2777,1750 2778,1750 2778,1750 2778,1750 2778,1749 2778,1749 2778,1749 2778,1749 2778,1748 2779,1748 L 2888,1513 C 2893,1502 2896,1491 2897,1479 L 2910,1376 2974,1519 2935,1701 C 2927,1740 2953,1778 2992,1786 2997,1787 3003,1787 3008,1787 3021,1787 3035,1784 3047,1776 3063,1766 3074,1750 3079,1731 L 3123,1517 C 3128,1494 3126,1471 3117,1450 L 3061,1323 3197,1232 3350,1298 C 3362,1303 3374,1306 3387,1306 3407,1306 3427,1299 3444,1286 L 3566,1193 C 3595,1170 3601,1127 3579,1098 3556,1069 3514,1064 3485,1086 Z"/>
   <rect fill="none" stroke="none" x="2641" y="728" width="953" height="1061"/>
  </g>
  <g>
   <path fill="rgb(144,199,237)" stroke="none" d="M 3578,905 L 3537,869 3575,836 3610,846 3578,905 Z M 3666,824 C 3663,817 3658,812 3651,810 L 3576,787 C 3569,785 3561,787 3555,792 L 3486,851 C 3481,856 3478,862 3478,868 3478,875 3481,881 3486,886 L 3568,959 C 3573,962 3578,964 3584,964 3585,964 3586,964 3587,964 3594,963 3600,959 3604,953 L 3664,843 C 3668,837 3668,830 3666,824 Z"/>
   <rect fill="none" stroke="none" x="3477" y="786" width="192" height="179"/>
  </g>
  <g>
   <path fill="rgb(144,199,237)" stroke="none" d="M 2877,867 L 2903,898 2860,943 2826,905 2877,867 Z M 2842,993 C 2846,998 2852,1001 2858,1001 2859,1001 2859,1001 2859,1001 2865,1001 2871,998 2875,994 L 2952,915 C 2960,906 2961,893 2953,884 L 2898,820 C 2891,811 2877,809 2867,817 L 2778,884 C 2773,887 2770,893 2769,900 2769,906 2771,912 2775,917 L 2842,993 Z"/>
   <rect fill="none" stroke="none" x="2768" y="812" width="192" height="191"/>
  </g>
  <g>
   <path fill="rgb(144,199,237)" stroke="none" d="M 2797,821 C 2808,821 2818,812 2818,801 L 2818,657 C 2818,645 2808,636 2797,636 2785,636 2776,645 2776,657 L 2776,801 C 2776,812 2785,821 2797,821 Z"/>
   <rect fill="none" stroke="none" x="2775" y="636" width="44" height="187"/>
  </g>
  <g>
   <path fill="rgb(144,199,237)" stroke="none" d="M 2927,788 C 2938,788 2948,779 2948,768 L 2948,687 C 2948,676 2938,666 2927,666 2915,666 2906,676 2906,687 L 2906,768 C 2906,779 2915,788 2927,788 Z"/>
   <rect fill="none" stroke="none" x="2906" y="666" width="43" height="124"/>
  </g>
  <g>
   <path fill="rgb(144,199,237)" stroke="none" d="M 3507,780 C 3519,780 3528,771 3528,759 L 3528,623 C 3528,612 3519,602 3507,602 3495,602 3486,612 3486,623 L 3486,759 C 3486,771 3495,780 3507,780 Z"/>
   <rect fill="none" stroke="none" x="3486" y="602" width="43" height="179"/>
  </g>
  <g>
   <path fill="rgb(144,199,237)" stroke="none" d="M 3638,768 C 3649,768 3658,759 3658,748 L 3658,652 C 3658,640 3649,631 3638,631 3625,631 3616,640 3616,652 L 3616,748 C 3616,759 3625,768 3638,768 Z"/>
   <rect fill="none" stroke="none" x="3615" y="631" width="44" height="138"/>
  </g>
 </g>
</svg>