<?xml version="1.0" encoding="UTF-8" standalone="no"?>
<svg
   version="1.2"
   width="100mm"
   height="25mm"
   viewBox="0 0 10000 2500"
   preserveAspectRatio="xMidYMid"
   fill-rule="evenodd"
   stroke-width="28.222"
   stroke-linejoin="round"
   xml:space="preserve"
   id="svg3591"
   sodipodi:docname="1.svg"
   inkscape:version="1.2 (dc2aedaf03, 2022-05-15)"
   xmlns:inkscape="http://www.inkscape.org/namespaces/inkscape"
   xmlns:sodipodi="http://sodipodi.sourceforge.net/DTD/sodipodi-0.dtd"
   xmlns="http://www.w3.org/2000/svg"
   xmlns:svg="http://www.w3.org/2000/svg"><defs
   id="defs3595" /><sodipodi:namedview
   id="namedview3593"
   pagecolor="#ffffff"
   bordercolor="#000000"
   borderopacity="0.25"
   inkscape:showpageshadow="2"
   inkscape:pageopacity="0.0"
   inkscape:pagecheckerboard="0"
   inkscape:deskcolor="#d1d1d1"
   inkscape:document-units="mm"
   showgrid="false"
   inkscape:zoom="2.2768691"
   inkscape:cx="223.333"
   inkscape:cy="-3.5135968"
   inkscape:window-width="1920"
   inkscape:window-height="1057"
   inkscape:window-x="-8"
   inkscape:window-y="-8"
   inkscape:window-maximized="1"
   inkscape:current-layer="svg3591" />
 <g
   visibility="visible"
   id="MasterSlide_1_Domyślnie">
  <desc
   id="desc3447">Master slide
  </desc>
  <rect
   fill="none"
   stroke="none"
   x="0"
   y="0"
   width="10000"
   height="2500"
   id="rect3449" />
 </g>
 
<g
   id="g7200"
   transform="matrix(16.415569,0,0,-17.106268,693.00272,7798.8863)"><path
     d="m 396.882,356.234 c -18.081,-0.582 -35.686,-3.554 -44.847,12.257 -9.16,15.812 -3.934,35.96 11.674,45.002 10.538,6.106 40.65,6.124 39.706,-15.955 -0.85,-19.859 10.021,-12.827 14.067,-17.17 9.589,-10.29 0.447,-23.456 -20.6,-24.134"
     style="fill:#e7f4fa;fill-opacity:1;fill-rule:nonzero;stroke:none;stroke-width:0.1"
     id="path94" /><path
     d="m 420.237,395.756 c 2.139,-4.124 0.878,-9.02 -2.815,-10.936 -3.694,-1.916 -8.423,-0.125 -10.562,3.999 -2.139,4.124 -2.673,11.608 1.021,13.524 3.694,1.915 10.217,-2.462 12.356,-6.587"
     style="fill:#e7f4fa;fill-opacity:1;fill-rule:nonzero;stroke:none;stroke-width:0.1"
     id="path96" /><path
     d="m 367.878,377.411 12.966,9.146 -0.255,1.873 -12.328,0.935 -0.383,-11.954"
     style="fill:#af75e1;fill-opacity:1;fill-rule:nonzero;stroke:none;stroke-width:0.1"
     id="path98" /><path
     d="m 385.015,396.115 c 1.03,2.601 -2.009,5.233 -4.862,6.902 -1.924,1.125 -3.476,1.459 -5.396,-0.528 -1.224,-1.266 -7.419,-8.766 -6.635,-14.703 0,0 5.177,-1.701 11.813,-0.169 0,0 2.88,2.939 5.08,8.498"
     style="fill:#56a0fd;fill-opacity:1;fill-rule:nonzero;stroke:none;stroke-width:0.1"
     id="path100" /><path
     d="m 382.657,405.559 c 0,0 2.163,-2.677 1.845,-2.773 -0.319,-0.096 -0.412,-0.733 -0.743,-1.156 -0.357,-0.459 -0.444,-1.181 -0.41,-1.964 0.024,-0.548 -0.786,-0.525 -1.3,-0.248 -2.214,1.191 -2.847,2.889 -1.938,3.183 2.042,0.66 2.546,2.958 2.546,2.958"
     style="fill:#ffbe9e;fill-opacity:1;fill-rule:nonzero;stroke:none;stroke-width:0.1"
     id="path102" /><path
     d="m 383.759,401.63 c 0.331,0.423 0.424,1.06 0.743,1.156 0.318,0.096 -2.017,2.984 -2.017,2.984 0,0 0.074,-0.785 -0.385,-1.503 -0.072,-1.695 0.782,-2.927 1.268,-3.776 0.021,0.395 0.262,0.973 0.391,1.139"
     style="fill:#ff9c81;fill-opacity:1;fill-rule:nonzero;stroke:none;stroke-width:0.1"
     id="path104" /><path
     d="m 387.729,406.449 c 0.401,-1.611 -0.892,-5.009 -3.004,-5.419 -1.161,-0.225 -2.711,2.262 -2.485,4.609 0.029,0.306 0.627,1.704 2.168,2.512 0.696,0.367 2.904,-0.028 3.321,-1.702"
     style="fill:#ffbe9e;fill-opacity:1;fill-rule:nonzero;stroke:none;stroke-width:0.1"
     id="path106" /><path
     d="m 387.208,403.371 c -0.134,-0.164 1.083,1.813 0.174,2.748 -0.37,0.38 -0.626,-0.126 -1.13,0.223 -0.43,0.298 -0.987,2.097 -2.472,-0.699 -0.071,-0.134 -0.292,-0.182 -0.43,-0.243 -0.17,-0.075 -0.201,-0.536 -0.32,-0.677 -0.116,-0.137 -0.189,0.629 -0.293,0.483 -0.158,-0.221 -0.268,-1.103 -0.636,-0.939 -0.179,0.079 -0.167,0.46 -0.21,0.627 -0.123,0.47 -0.336,0.9 -0.361,1.395 -0.027,0.546 0.15,1.087 0.416,1.565 0.263,0.473 0.626,0.906 1.106,1.155 0.502,0.26 1.113,0.298 1.642,0.101 0.312,-0.116 0.599,-0.334 0.925,-0.409 0.288,-0.065 0.535,-0.222 0.826,-0.289 0.231,-0.053 0.373,-10e-4 0.594,0.05 0.479,0.11 1.015,-0.002 1.382,-0.33 0.368,-0.327 0.541,-0.871 0.39,-1.34 -0.085,-0.265 -0.264,-0.544 -0.147,-0.796 0.042,-0.092 0.12,-0.165 0.153,-0.26 0.032,-0.091 0.019,-0.19 -0.003,-0.284 -0.111,-0.492 -0.437,-0.918 -0.84,-1.221 -0.161,-0.121 -0.34,-0.228 -0.457,-0.397 -0.107,-0.152 -0.189,-0.317 -0.309,-0.463"
     style="fill:#282738;fill-opacity:1;fill-rule:nonzero;stroke:none;stroke-width:0.1"
     id="path108" /><path
     d="m 383.547,404.84 c 0,0 -0.215,1.255 -0.777,1.398 -0.564,0.142 -0.89,-1.44 0.082,-1.969 0.969,-0.529 0.781,0.21 0.695,0.571"
     style="fill:#ffbe9e;fill-opacity:1;fill-rule:nonzero;stroke:none;stroke-width:0.1"
     id="path110" /><path
     d="m 380.469,356.07 c 0,0 0.497,-0.582 1.082,-1.368 0.585,-0.787 1.024,-1.608 0.205,-1.984 -0.819,-0.376 -1.813,0.547 -2.135,1.095 -0.322,0.547 -0.687,0.487 -1.129,0.851 -0.449,0.369 -0.21,1.713 -0.21,1.713 l 2.187,-0.307"
     style="fill:#e79e30;fill-opacity:1;fill-rule:nonzero;stroke:none;stroke-width:0.1"
     id="path112" /><path
     d="m 372.951,381.921 c 1.196,-1.513 5.179,-25.897 5.179,-25.897 1.197,-1.006 2.991,0 2.991,0 1.296,12.433 -0.308,30.901 -0.308,30.901 0,0 -9.059,-6.517 -7.862,-5.004"
     style="fill:#af75e1;fill-opacity:1;fill-rule:nonzero;stroke:none;stroke-width:0.1"
     id="path114" /><path
     d="m 378.658,386.574 c 1.475,-10.082 2.781,-20.732 1.717,-30.899 -0.025,-0.236 -0.396,-0.238 -0.371,0 1.06,10.137 -0.233,20.751 -1.703,30.8 -0.034,0.234 0.323,0.334 0.357,0.099"
     style="fill:#9c67d3;fill-opacity:1;fill-rule:nonzero;stroke:none;stroke-width:0.1"
     id="path116" /><path
     d="m 379.669,386.525 c -0.016,-1.012 0.016,-3.845 1.462,-3.845 0.239,0 0.24,-0.371 0,-0.371 -1.77,0 -1.853,2.977 -1.833,4.216 0.004,0.238 0.375,0.239 0.371,0"
     style="fill:#9c67d3;fill-opacity:1;fill-rule:nonzero;stroke:none;stroke-width:0.1"
     id="path118" /><path
     d="m 368.54,355.67 c 0,0 -0.497,-0.582 -1.082,-1.368 -0.585,-0.787 -1.023,-1.608 -0.204,-1.984 0.818,-0.377 1.813,0.547 2.134,1.094 0.322,0.547 0.687,0.488 1.129,0.852 0.449,0.369 0.21,1.712 0.21,1.712 l -2.187,-0.306"
     style="fill:#e79e30;fill-opacity:1;fill-rule:nonzero;stroke:none;stroke-width:0.1"
     id="path120" /><path
     d="m 376.058,381.521 c -1.196,-1.514 -5.179,-25.898 -5.179,-25.898 -1.196,-1.005 -2.991,0 -2.991,0 -1.296,12.434 0.109,31.085 0.109,31.085 0,0 9.258,-6.701 8.061,-5.187"
     style="fill:#af75e1;fill-opacity:1;fill-rule:nonzero;stroke:none;stroke-width:0.1"
     id="path122" /><path
     d="m 370.709,386.075 c -1.47,-10.048 -2.764,-20.664 -1.704,-30.801 0.025,-0.237 -0.346,-0.235 -0.371,0 -1.063,10.168 0.242,20.818 1.717,30.899 0.034,0.236 0.392,0.136 0.358,-0.098"
     style="fill:#9c67d3;fill-opacity:1;fill-rule:nonzero;stroke:none;stroke-width:0.1"
     id="path124" /><path
     d="m 369.711,386.124 c 0.02,-1.239 -0.063,-4.215 -1.833,-4.215 -0.239,0 -0.239,0.371 0,0.371 1.447,0 1.479,2.832 1.462,3.844 -0.004,0.239 0.367,0.239 0.371,0"
     style="fill:#9c67d3;fill-opacity:1;fill-rule:nonzero;stroke:none;stroke-width:0.1"
     id="path126" /><path
     d="m 384.571,404.502 0.019,-0.035 0.078,-0.102 c 0.121,-0.116 0.248,-0.077 0.368,0.008 l 0.078,-0.126 c -0.264,-0.189 -0.552,-0.077 -0.683,0.217 l 0.14,0.038"
     style="fill:#201714;fill-opacity:1;fill-rule:nonzero;stroke:none;stroke-width:0.1"
     id="path128" /><path
     d="m 386.12,403.966 0.052,-0.158 c 0.083,-0.157 0.217,-0.135 0.354,-0.059 l 0.078,-0.126 c -0.162,-0.089 -0.355,-0.131 -0.498,0.029 -0.076,0.086 -0.116,0.203 -0.132,0.314 -0.013,0.092 0.134,0.092 0.146,0"
     style="fill:#201714;fill-opacity:1;fill-rule:nonzero;stroke:none;stroke-width:0.1"
     id="path130" /><path
     d="m 386.799,404.389 c -0.158,0.19 -0.385,0.216 -0.597,0.091 -0.099,-0.058 -0.178,0.101 -0.079,0.159 0.279,0.165 0.598,0.122 0.81,-0.133 l -0.134,-0.117"
     style="fill:#4d2f20;fill-opacity:1;fill-rule:nonzero;stroke:none;stroke-width:0.1"
     id="path132" /><path
     d="m 385.312,404.812 c -0.101,0.226 -0.313,0.312 -0.55,0.249 -0.111,-0.029 -0.144,0.146 -0.034,0.175 0.314,0.083 0.61,-0.045 0.745,-0.348 0.046,-0.104 -0.114,-0.181 -0.161,-0.076"
     style="fill:#4d2f20;fill-opacity:1;fill-rule:nonzero;stroke:none;stroke-width:0.1"
     id="path134" /><path
     d="m 385.769,404.414 c -0.124,-0.106 -0.24,-0.246 -0.286,-0.403 -0.066,-0.23 0.098,-0.454 0.116,-0.69 0.025,-0.323 -0.222,-0.35 -0.535,-0.255 l 0.021,0.1 c 0.702,-0.211 0.204,0.538 0.272,0.845 0.043,0.192 0.174,0.36 0.322,0.487 l 0.09,-0.084"
     style="fill:#7c4930;fill-opacity:1;fill-rule:nonzero;stroke:none;stroke-width:0.1"
     id="path136" /><path
     d="m 384.857,402.058 c 0,0 0.522,0.322 0.227,0.734 -0.296,0.412 -0.772,0.136 -0.772,0.136 l 0.545,-0.87"
     style="fill:#faffff;fill-opacity:1;fill-rule:nonzero;stroke:none;stroke-width:0.1"
     id="path138" /><path
     d="m 383.681,403.781 c -0.046,-0.185 0.066,-0.372 0.252,-0.418 0.185,-0.047 0.372,0.066 0.418,0.251 0.047,0.186 -0.066,0.373 -0.251,0.419 -0.186,0.046 -0.373,-0.067 -0.419,-0.252"
     style="fill:#ff9c81;fill-opacity:1;fill-rule:nonzero;stroke:none;stroke-width:0.1"
     id="path140" /><path
     d="m 386.581,402.936 c -0.061,0.182 -0.26,0.281 -0.443,0.219 -0.183,-0.061 -0.281,-0.26 -0.22,-0.443 0.062,-0.183 0.26,-0.282 0.443,-0.22 0.183,0.062 0.282,0.26 0.22,0.444"
     style="fill:#ff9c81;fill-opacity:1;fill-rule:nonzero;stroke:none;stroke-width:0.1"
     id="path142" /><path
     d="m 406.789,363.762 h -13.217 v 9.413 h 13.217 v -9.413"
     style="fill:#d98853;fill-opacity:1;fill-rule:nonzero;stroke:none;stroke-width:0.1"
     id="path144" /><path
     d="m 387.594,363.762 h 7.439 v 9.413 h -7.439 v -9.413"
     style="fill:#c16d3e;fill-opacity:1;fill-rule:nonzero;stroke:none;stroke-width:0.1"
     id="path146" /><path
     d="m 398.35,366.145 h -2.025 v 6.017 h 2.025 v -6.017"
     style="fill:#f3a277;fill-opacity:1;fill-rule:nonzero;stroke:none;stroke-width:0.1"
     id="path148" /><path
     d="m 405.857,371.626 h -6.256 v 0.536 h 6.256 v -0.536"
     style="fill:#f3a277;fill-opacity:1;fill-rule:nonzero;stroke:none;stroke-width:0.1"
     id="path150" /><path
     d="m 405.857,370.911 h -6.256 v 0.536 h 6.256 v -0.536"
     style="fill:#f3a277;fill-opacity:1;fill-rule:nonzero;stroke:none;stroke-width:0.1"
     id="path152" /><path
     d="m 410.164,352.934 h -17.783 v 11.707 h 17.783 v -11.707"
     style="fill:#d98853;fill-opacity:1;fill-rule:nonzero;stroke:none;stroke-width:0.1"
     id="path154" /><path
     d="m 384.338,352.934 h 10.009 v 11.707 h -10.009 v -11.707"
     style="fill:#c16d3e;fill-opacity:1;fill-rule:nonzero;stroke:none;stroke-width:0.1"
     id="path156" /><path
     d="m 413.023,360.485 h -15.817 l -2.859,4.156 h 15.817 l 2.859,-4.156"
     style="fill:#f3a277;fill-opacity:1;fill-rule:nonzero;stroke:none;stroke-width:0.1"
     id="path158" /><path
     d="m 380.758,360.485 h 10.813 l 2.859,4.156 h -10.813 l -2.859,-4.156"
     style="fill:#f3a277;fill-opacity:1;fill-rule:nonzero;stroke:none;stroke-width:0.1"
     id="path160" /><path
     d="m 409.151,355.451 h -13.285 v 3.813 h 13.285 v -3.813"
     style="fill:#f3a277;fill-opacity:1;fill-rule:nonzero;stroke:none;stroke-width:0.1"
     id="path162" /><path
     d="m 367.995,386.33 c 0,0 7.958,-1.541 12.933,0.833 l -0.339,1.267 c 0,0 -5.677,-2.068 -12.467,-0.644 l -0.127,-1.456"
     style="fill:#9c67d3;fill-opacity:1;fill-rule:nonzero;stroke:none;stroke-width:0.1"
     id="path164" /><path
     d="m 376.896,387.861 0.512,0.161 0.878,-1.944 -1.053,-0.33 -0.337,2.113"
     style="fill:#282738;fill-opacity:1;fill-rule:nonzero;stroke:none;stroke-width:0.1"
     id="path166" /><path
     d="m 395.073,392.87 h -11.301 v 7.818 h 11.301 v -7.818"
     style="fill:#d98853;fill-opacity:1;fill-rule:nonzero;stroke:none;stroke-width:0.1"
     id="path168" /><path
     d="m 378.661,392.87 h 6.36 v 7.818 h -6.36 v -7.818"
     style="fill:#af5b31;fill-opacity:1;fill-rule:nonzero;stroke:none;stroke-width:0.1"
     id="path170" /><path
     d="m 396.89,397.913 h -10.051 l -1.818,2.775 h 10.052 l 1.817,-2.775"
     style="fill:#f3a277;fill-opacity:1;fill-rule:nonzero;stroke:none;stroke-width:0.1"
     id="path172" /><path
     d="m 376.385,397.913 h 6.872 l 1.817,2.775 h -6.871 l -1.818,-2.775"
     style="fill:#f3a277;fill-opacity:1;fill-rule:nonzero;stroke:none;stroke-width:0.1"
     id="path174" /><path
     d="m 394.43,394.55 h -8.443 v 2.547 h 8.443 v -2.547"
     style="fill:#f3a277;fill-opacity:1;fill-rule:nonzero;stroke:none;stroke-width:0.1"
     id="path176" /><path
     d="m 393.826,382.959 h -11.695 v 10.358 h 11.695 v -10.358"
     style="fill:#d98853;fill-opacity:1;fill-rule:nonzero;stroke:none;stroke-width:0.1"
     id="path178" /><path
     d="m 376.842,382.959 h 6.582 v 10.358 h -6.582 v -10.358"
     style="fill:#c16d3e;fill-opacity:1;fill-rule:nonzero;stroke:none;stroke-width:0.1"
     id="path180" /><path
     d="m 386.359,385.581 h -1.792 v 6.621 h 1.792 v -6.621"
     style="fill:#f3a277;fill-opacity:1;fill-rule:nonzero;stroke:none;stroke-width:0.1"
     id="path182" /><path
     d="m 393.001,391.613 h -5.535 v 0.589 h 5.535 v -0.589"
     style="fill:#f3a277;fill-opacity:1;fill-rule:nonzero;stroke:none;stroke-width:0.1"
     id="path184" /><path
     d="m 393.001,390.826 h -5.535 v 0.59 h 5.535 v -0.59"
     style="fill:#f3a277;fill-opacity:1;fill-rule:nonzero;stroke:none;stroke-width:0.1"
     id="path186" /><path
     d="m 367.75,399.762 c 0,0 3.6,3.204 6.104,3.093 2.503,-0.11 2.88,-2.123 2.88,-2.123 0,0 -5.74,-1.134 -7.594,-3.11 -1.854,-1.976 -1.39,2.14 -1.39,2.14"
     style="fill:#ffbe9e;fill-opacity:1;fill-rule:nonzero;stroke:none;stroke-width:0.1"
     id="path188" /><path
     d="m 378.775,403.191 c -2.047,3.114 -8.712,-1.38 -8.712,-1.38 l 1.556,-3.706 c 0,0 9.151,2.05 7.156,5.086"
     style="fill:#3f8fd8;fill-opacity:1;fill-rule:nonzero;stroke:none;stroke-width:0.1"
     id="path190" /><path
     d="m 367.354,399.018 c -0.559,-1.997 -0.039,-7.469 -0.039,-7.469 l 1.322,0.929 1.393,6.724 c 0,0 -2.106,1.849 -2.676,-0.184"
     style="fill:#ffbe9e;fill-opacity:1;fill-rule:nonzero;stroke:none;stroke-width:0.1"
     id="path192" /><path
     d="m 368.85,392.672 c 0.119,-0.13 0.326,-0.196 0.47,-0.291 0.288,-0.188 0.502,-0.459 0.706,-0.73 0.114,-0.151 0.532,-0.334 0.468,-0.569 -0.105,-0.384 -0.717,0.109 -0.886,0.167 -0.155,0.054 -0.353,0.037 -0.448,-0.097 -0.062,-0.088 -0.064,-0.205 -0.059,-0.313 0.019,-0.345 0.093,-0.683 0.147,-1.023 0.028,-0.177 0.044,-0.353 0.061,-0.532 0.013,-0.132 0.082,-0.306 0.06,-0.435 -0.017,-0.103 -0.125,-0.198 -0.232,-0.154 -0.097,0.039 -0.082,0.141 -0.106,0.226 -0.053,0.19 -0.112,0.379 -0.172,0.568 l -0.092,0.256 c -0.22,0.084 -0.137,-0.445 -0.128,-0.529 0.023,-0.213 0.04,-0.436 -0.066,-0.632 l -0.062,-0.057 -0.096,0.084 c -0.101,0.253 -0.108,0.535 -0.215,0.785 l -0.089,0.09 c -0.177,0.014 -0.196,-0.341 -0.212,-0.457 l -0.101,-0.181 -0.124,0.056 -0.048,0.136 c -0.028,0.139 -0.07,0.283 -0.081,0.424 -0.005,0.069 -0.002,0.272 -0.095,0.286 l -0.051,-0.02 -0.085,-0.179 -0.128,-0.14 -0.167,0.159 c -0.097,0.283 -0.093,0.601 -0.102,0.896 -0.01,0.317 -0.006,0.634 0.013,0.95 0.024,0.419 0.074,0.838 0.149,1.251 0.065,0.361 0.163,0.771 0.461,1.016 0.084,0.069 0.181,0.12 0.279,0.168 0.128,0.063 0.261,0.122 0.402,0.144 0.141,0.022 0.294,0.003 0.411,-0.079 l 0.04,-0.042 0.008,-0.073 c -0.017,-0.19 -0.045,-0.38 -0.034,-0.571 0.011,-0.186 0.067,-0.383 0.204,-0.558"
     style="fill:#ffbe9e;fill-opacity:1;fill-rule:nonzero;stroke:none;stroke-width:0.1"
     id="path194" /><path
     d="m 387.863,383.77 c -0.068,0.169 -0.012,0.605 -0.238,0.669 -0.371,0.105 -0.267,-0.647 -0.303,-0.816 -0.033,-0.155 -0.145,-0.311 -0.303,-0.323 -0.104,-0.007 -0.202,0.049 -0.288,0.107 -0.277,0.188 -0.52,0.417 -0.775,0.631 -0.132,0.111 -0.27,0.212 -0.409,0.315 -0.104,0.076 -0.213,0.22 -0.331,0.266 -0.094,0.037 -0.226,-0.005 -0.243,-0.116 -0.016,-0.1 0.076,-0.138 0.134,-0.199 0.132,-0.14 0.259,-0.282 0.385,-0.426 l 0.167,-0.203 c -0.04,-0.224 -0.437,0.107 -0.503,0.157 -0.164,0.125 -0.34,0.249 -0.555,0.259 l -0.078,-0.023 0.022,-0.121 c 0.158,-0.209 0.389,-0.356 0.542,-0.569 l 0.03,-0.118 c -0.076,-0.154 -0.379,0.008 -0.483,0.052 l -0.201,0.006 -0.015,-0.13 0.089,-0.108 c 0.102,-0.092 0.199,-0.198 0.312,-0.278 l 0.188,-0.221 -0.041,-0.032 -0.191,0.019 -0.18,-0.037 0.049,-0.217 c 0.186,-0.221 0.451,-0.375 0.692,-0.53 0.257,-0.166 0.604,-0.3 0.906,-0.349 1.726,-0.277 1.743,2.03 1.621,2.335"
     style="fill:#ffbe9e;fill-opacity:1;fill-rule:nonzero;stroke:none;stroke-width:0.1"
     id="path196" /><path
     d="m 371.955,387.617 h 0.709 l 0.167,-2.12 h -1.167 l 0.291,2.12"
     style="fill:#af75e1;fill-opacity:1;fill-rule:nonzero;stroke:none;stroke-width:0.1"
     id="path198" /><path
     d="m 366.134,389.075 -5.231,0.04 0.987,-2.696 -10.58,2.726 8.025,-0.063 -0.876,2.533 7.675,-2.54"
     style="fill:#ffd500;fill-opacity:1;fill-rule:nonzero;stroke:none;stroke-width:0.1"
     id="path200" /><path
     d="m 366.44,390.65 -2.428,2.351 -0.74,-1.701 -3.734,5.99 3.726,-3.606 0.719,1.575 2.457,-4.609"
     style="fill:#ffd500;fill-opacity:1;fill-rule:nonzero;stroke:none;stroke-width:0.1"
     id="path202" /><path
     d="m 366.213,388.101 -1.047,-3.214 1.853,0.081 -3.746,-5.982 1.607,4.929 -1.731,-0.044 3.064,4.23"
     style="fill:#ffd500;fill-opacity:1;fill-rule:nonzero;stroke:none;stroke-width:0.1"
     id="path204" /><path
     d="m 64.7855,398.921 c 4.2715,2.29 9.3981,1.046 11.4497,-2.78 2.0519,-3.825 0.2523,-8.784 -4.0196,-11.075 -4.2718,-2.291 -12.0711,-2.956 -14.1226,0.87 -2.052,3.826 2.4207,10.694 6.6925,12.985"
     style="fill:#e7f4fa;fill-opacity:1;fill-rule:nonzero;stroke:none;stroke-width:0.1"
     id="path592" /><path
     d="M 49.3121,350.215 C 35.8727,358.808 34.0293,358.926 21.927,353.569 8.81602,347.766 0.985547,353.08 0.0683594,362.192 -1.49336,377.713 24.184,372.714 21.5117,392.511 c -1.9687,14.587 5.0918,21.054 14.5883,22.612 9.3965,1.542 22.55,-1.421 21.8176,-15.257 -0.4055,-7.654 -8.834,-13.859 -1.202,-17.418 7.8949,-3.682 20.025,-2.466 22.4664,-17.085 2.4196,-14.489 -17.3054,-23.182 -29.8699,-15.148"
     style="fill:#e5f2f8;fill-opacity:1;fill-rule:nonzero;stroke:none;stroke-width:0.1"
     id="path594" /><path
     d="m 48.3313,353.052 c -0.1981,-0.05 -5.7438,-2.862 -5.7438,-2.862 l -1.4848,4.148 5.7551,4.417 1.4735,-5.703"
     style="fill:#af75e1;fill-opacity:1;fill-rule:nonzero;stroke:none;stroke-width:0.1"
     id="path596" /><path
     d="m 14.8504,366.536 c 0,0 -1.9059,-0.137 -2.193,0.032 -0.8558,0.501 -0.9597,3.777 -0.3422,4.865 0.0864,0.152 0.3786,0.305 0.7375,-0.032 0.359,-0.336 0.8016,-2.18 1.5918,-2.072 0.7907,0.108 0.2059,-2.793 0.2059,-2.793"
     style="fill:#e8a32b;fill-opacity:1;fill-rule:nonzero;stroke:none;stroke-width:0.1"
     id="path598" /><path
     d="m 27.4508,364.482 c 0,0 4.9496,-10.195 5.7472,-11.779 1.1735,-2.329 5.254,-4.892 7.3125,0.065 1.5981,3.848 -7.6164,16.13 -11.0777,16.438 -4.2461,0.379 -1.982,-4.724 -1.982,-4.724"
     style="fill:#9c67d3;fill-opacity:1;fill-rule:nonzero;stroke:none;stroke-width:0.1"
     id="path600" /><path
     d="m 15.1664,370.308 c 3.3055,0.226 13.0469,0.231 15.0484,-1.39 2.1633,-1.752 -0.0593,-4.995 -3.7105,-4.677 -2.3664,0.205 -10.3711,1.01 -12.5262,1.379 -0.523,0.09 -0.6215,1.507 -0.4711,2.326 0.0035,0.02 0.7039,2.297 1.6594,2.362"
     style="fill:#9c67d3;fill-opacity:1;fill-rule:nonzero;stroke:none;stroke-width:0.1"
     id="path602" /><path
     d="m 45.4652,372.379 c -0.1804,0.309 -2.0558,2.136 -2.7332,3.831 -0.3222,0.807 1.8387,1.621 1.8387,1.621 0,0 0.5813,-1.462 3.1613,-3.377 2.1739,-1.614 -2.2668,-2.075 -2.2668,-2.075"
     style="fill:#946748;fill-opacity:1;fill-rule:nonzero;stroke:none;stroke-width:0.1"
     id="path604" /><path
     d="m 43.4789,374.851 c -1.3769,1.808 -3.1848,8.819 -3.1848,8.819 l 1.2414,-0.432 3.3454,-5.96 c 0,0 -0.1961,-4.011 -1.402,-2.427"
     style="fill:#946748;fill-opacity:1;fill-rule:nonzero;stroke:none;stroke-width:0.1"
     id="path606" /><path
     d="m 41.8316,383.052 c 0.0508,0.13 0.1856,0.239 0.2657,0.351 0.1593,0.222 0.2398,0.485 0.3136,0.744 0.0411,0.145 0.2989,0.4 0.1836,0.556 -0.1886,0.256 -0.5007,-0.286 -0.609,-0.378 -0.1,-0.084 -0.2519,-0.129 -0.3605,-0.057 l -0.1332,0.216 c -0.0855,0.261 -0.1273,0.533 -0.1852,0.801 -0.03,0.14 -0.0691,0.275 -0.1078,0.412 -0.0285,0.102 -0.0269,0.25 -0.0804,0.34 l -0.2168,0.047 -0.0133,-0.197 c 0.0152,-0.157 0.0262,-0.314 0.0355,-0.471 l 0.0055,-0.217 c -0.1391,-0.126 -0.2301,0.291 -0.2473,0.356 -0.0437,0.165 -0.0957,0.334 -0.2304,0.45 l -0.0625,0.024 -0.0465,-0.09 c -0.0031,-0.216 0.073,-0.428 0.0656,-0.644 l -0.0406,-0.092 c -0.127,-0.062 -0.243,0.197 -0.2879,0.278 l -0.1277,0.105 -0.0754,-0.077 0.0039,-0.114 c 0.0187,-0.112 0.0289,-0.231 0.0617,-0.339 l 0.0109,-0.239 h -0.0429 l -0.1149,0.108 -0.1351,0.068 -0.0786,-0.166 c 0.0094,-0.238 0.1043,-0.472 0.1825,-0.695 0.0832,-0.237 0.1773,-0.471 0.282,-0.7 0.1965,-0.43 0.4855,-0.821 0.6422,-1.268 l 0.0844,-0.195 c 0.0753,-0.112 0.207,-0.174 0.3382,-0.206 0.2465,-0.059 0.5317,-0.017 0.7329,0.144 l 0.1992,0.227 -0.1008,0.206 -0.1012,0.239 c -0.0457,0.141 -0.0605,0.303 -0.0094,0.473"
     style="fill:#946748;fill-opacity:1;fill-rule:nonzero;stroke:none;stroke-width:0.1"
     id="path608" /><path
     d="m 52.1012,368.618 c 0.759,-1.163 0.2871,-1.381 -0.6766,-2.084 -0.5465,-0.399 -2.3785,-0.961 -3.0933,-0.432 -1.3735,1.018 -3.5895,4.766 -4.5293,7.554 -0.3446,1.021 1.5218,3.082 2.9265,1.884 1.8445,-1.572 4.3039,-5.285 5.3727,-6.922"
     style="fill:#56a0fd;fill-opacity:1;fill-rule:nonzero;stroke:none;stroke-width:0.1"
     id="path610" /><path
     d="m 49.2195,368.984 c 1.9993,1.39 4.8594,-1.723 6.8418,-3.809 1.3367,-1.405 1.6528,-2.763 -0.5726,-5.472 -0.875,-1.065 -3.0051,-3.55 -5.2074,-5.707 -0.2856,-0.28 -4.0227,-3.614 -4.4196,-3.567 -3.709,0.439 -5.6984,10.176 -4.0308,11.621 0,0 3.1164,3.962 7.3886,6.934"
     style="fill:#56a0fd;fill-opacity:1;fill-rule:nonzero;stroke:none;stroke-width:0.1"
     id="path612" /><path
     d="m 59.4109,358.963 c 0.3438,-0.145 3.4844,-2.767 4.6532,-2.323 0.8468,0.322 0.5589,3.194 0.5589,3.194 0,0 -1.0445,-0.663 -3.3687,1.75 -1.9582,2.032 -1.8434,-2.621 -1.8434,-2.621"
     style="fill:#946748;fill-opacity:1;fill-rule:nonzero;stroke:none;stroke-width:0.1"
     id="path614" /><path
     d="m 64.3863,356.772 c 1.8719,0.896 6.0465,5.512 6.0465,5.512 l -1.348,0.246 -6.0981,-3.685 c 0,0 -0.473,-2.967 1.3996,-2.073"
     style="fill:#946748;fill-opacity:1;fill-rule:nonzero;stroke:none;stroke-width:0.1"
     id="path616" /><path
     d="m 68.7203,362.514 c 0.0211,0.144 -0.0449,0.312 -0.0601,0.454 -0.0309,0.284 0.0316,0.563 0.098,0.837 0.0371,0.152 -0.0648,0.516 0.1195,0.599 0.3024,0.134 0.3067,-0.517 0.3578,-0.656 0.0473,-0.128 0.1622,-0.247 0.2977,-0.237 l 0.232,0.127 c 0.2118,0.193 0.3895,0.418 0.5797,0.631 0.0989,0.111 0.2039,0.213 0.3094,0.318 0.0785,0.078 0.1531,0.214 0.2477,0.268 0.075,0.042 0.1929,0.023 0.2214,-0.069 L 71.0336,364.6 c -0.0945,-0.135 -0.1852,-0.271 -0.2746,-0.409 l -0.116,-0.194 c 0.0613,-0.185 0.3582,0.146 0.4074,0.196 0.1238,0.127 0.2582,0.254 0.4398,0.289 l 0.0692,-0.01 -0.0039,-0.106 c -0.1086,-0.197 -0.2864,-0.35 -0.3907,-0.55 l -0.0105,-0.104 c 0.0832,-0.121 0.3211,0.053 0.4039,0.104 l 0.1699,0.03 0.0289,-0.109 -0.0625,-0.102 c -0.0746,-0.091 -0.1445,-0.194 -0.23,-0.275 l -0.1325,-0.211 0.0383,-0.022 0.1602,0.039 0.1574,-0.009 -0.0145,-0.19 c -0.1304,-0.211 -0.3371,-0.375 -0.5222,-0.537 -0.1977,-0.172 -0.4032,-0.335 -0.616,-0.489 -0.3993,-0.29 -0.8629,-0.496 -1.234,-0.82 l -0.1774,-0.134 c -0.1258,-0.063 -0.2769,-0.051 -0.4121,-0.012 -0.2539,0.073 -0.491,0.257 -0.5906,0.507 l -0.0637,0.308 0.1969,0.135 0.2145,0.165 c 0.114,0.105 0.2109,0.244 0.2515,0.424"
     style="fill:#946748;fill-opacity:1;fill-rule:nonzero;stroke:none;stroke-width:0.1"
     id="path618" /><path
     d="m 56.4734,364.696 c -1.3031,0.63 -3.3019,0.74 -3.9004,-0.35 -0.339,-0.619 0.0563,-1.979 0.6989,-2.647 1.2347,-1.285 4.6738,-3.685 7.6816,-4.285 1.102,-0.22 2.9836,1.984 1.5578,3.277 -1.8718,1.697 -4.2031,3.118 -6.0379,4.005"
     style="fill:#56a0fd;fill-opacity:1;fill-rule:nonzero;stroke:none;stroke-width:0.1"
     id="path620" /><path
     d="m 32.8664,377.782 c 0,0 -1.4078,1.292 -1.4828,1.616 -0.2231,0.967 2.0875,3.291 3.3023,3.59 0.17,0.041 0.4817,-0.067 0.4832,-0.558 0.0024,-0.492 -1.0347,-2.08 -0.4136,-2.581 0.6215,-0.5 -1.8891,-2.067 -1.8891,-2.067"
     style="fill:#e8a32b;fill-opacity:1;fill-rule:nonzero;stroke:none;stroke-width:0.1"
     id="path622" /><path
     d="m 40.0238,367.211 c 0,0 -3.634,-10.389 -4.2472,-12.527 -1.0821,-3.771 2.9601,-7.456 7.1797,-4.231 2.5589,1.956 4.0156,15.832 1.8636,18.56 -2.6398,3.348 -4.7961,-1.802 -4.7961,-1.802"
     style="fill:#af75e1;fill-opacity:1;fill-rule:nonzero;stroke:none;stroke-width:0.1"
     id="path624" /><path
     d="m 35.8258,380.142 c 2.4332,-2.248 9.3555,-9.75 9.5508,-12.319 0.2113,-2.776 -3.9016,-2.962 -6.1778,-0.089 -1.475,1.861 -6.3863,8.233 -7.5972,10.054 -0.2942,0.441 0.6687,1.486 1.3672,1.939 0.0171,0.011 2.1535,1.065 2.857,0.415"
     style="fill:#af75e1;fill-opacity:1;fill-rule:nonzero;stroke:none;stroke-width:0.1"
     id="path626" /><path
     d="m 42.8195,350.307 -0.4492,-0.255 c 1.9828,6.08 1.9856,15.72 1.2113,18.525 -0.8726,3.163 -9.9093,11.333 -10,11.415 l 0.3895,0.138 c 0.3727,-0.335 9.066,-8.188 9.9676,-11.454 0.7843,-2.843 0.8836,-12.228 -1.1192,-18.369"
     style="fill:#9c67d3;fill-opacity:1;fill-rule:nonzero;stroke:none;stroke-width:0.1"
     id="path628" /><path
     d="m 51.4102,369.088 c 0,0 -3.2145,-2.615 -2.0856,-4.512 1.1297,-1.896 4.1621,-2.748 7.3945,-0.001 l -5.1175,4.803 -0.1914,-0.29"
     style="fill:#946748;fill-opacity:1;fill-rule:nonzero;stroke:none;stroke-width:0.1"
     id="path630" /><path
     d="m 55.7152,369.84 c 0,0 -1.3793,-1.964 -2.0492,-1.465 -1.4371,1.071 -1.6812,2.293 -0.7047,3.418 0.9766,1.126 4.1032,2.343 5.6871,1.925 1.584,-0.419 0.995,-1.817 0.995,-1.817 0,0 -3.1153,1.727 -3.9282,-2.061"
     style="fill:#282738;fill-opacity:1;fill-rule:nonzero;stroke:none;stroke-width:0.1"
     id="path632" /><path
     d="m 58.298,368.763 c 0,0 -2.5007,1.669 -2.5695,1.335 -0.068,-0.334 -0.6945,-0.554 -1.0871,-0.966 -0.4273,-0.445 -1.1387,-0.677 -1.9207,-0.802 -0.5473,-0.088 -0.5832,-0.71 -0.2648,-1.16 1.3722,-1.943 3.1777,-2.482 3.3406,-1.574 0.316,1.762 2.5015,3.167 2.5015,3.167"
     style="fill:#946748;fill-opacity:1;fill-rule:nonzero;stroke:none;stroke-width:0.1"
     id="path634" /><path
     d="m 54.6414,369.132 c 0.3926,0.412 1.0191,0.632 1.0871,0.966 0.0688,0.334 2.5692,-1.335 2.5692,-1.335 0,0 -0.7114,-0.133 -1.3875,-0.731 -1.3508,0.145 -2.1739,0.287 -3.059,0.595 0.2476,0.111 0.6355,0.344 0.7902,0.505"
     style="fill:#80533a;fill-opacity:1;fill-rule:nonzero;stroke:none;stroke-width:0.1"
     id="path636" /><path
     d="m 59.3848,373.12 c -1.2918,0.204 -5.2434,-0.507 -5.4473,-2.941 -0.0875,-1.04 2.0641,-2.127 4.148,-1.952 0.8559,0.071 2.1395,1.026 2.8114,2.418 0.3058,0.628 -0.0094,2.255 -1.5121,2.475"
     style="fill:#946748;fill-opacity:1;fill-rule:nonzero;stroke:none;stroke-width:0.1"
     id="path638" /><path
     d="m 57.091,373.05 c -0.1574,-0.369 0.4574,0.234 1.2395,-0.215 0.0953,-0.055 0.184,-0.13 0.2672,-0.204 l 0.1777,-0.218 c 0.0914,-0.182 0.0176,-0.366 -0.1145,-0.508 -0.2875,-0.308 -0.3925,-0.675 -0.4601,-1.08 -0.0735,-0.443 -0.1774,-0.857 -0.4477,-1.227 -0.0801,-0.109 -0.1715,-0.196 -0.2218,-0.32 -0.0614,-0.153 -0.1567,-0.291 -0.279,-0.403 -0.1183,-0.108 -0.2582,-0.189 -0.3843,-0.287 -0.191,-0.15 -0.2754,-0.296 -0.2731,-0.53 4e-4,-0.093 0.0129,-0.186 0.0352,-0.277 0.0441,-0.187 0.1304,-0.365 0.2515,-0.515 0.2821,-0.348 0.7215,-0.492 1.1614,-0.429 0.7519,0.107 1.3922,0.676 1.889,1.213 0.352,0.38 0.6664,0.795 0.9559,1.223 0.2691,0.399 0.3973,0.861 0.3941,1.344 -0.0039,0.634 -0.2328,1.263 -0.591,1.778 -0.1824,0.262 -0.4004,0.501 -0.6519,0.7 -1.8149,1.43 -2.8246,0.245 -2.9481,-0.045"
     style="fill:#282738;fill-opacity:1;fill-rule:nonzero;stroke:none;stroke-width:0.1"
     id="path640" /><path
     d="m 56.868,368.588 c 0,0 -1.8832,-1.2 -1.4621,-1.922 0.4207,-0.721 1.4621,-1.905 2.7707,-1.194 1.3086,0.712 3.1707,3.505 3.1054,5.145 -0.0656,1.64 -1.5558,1.366 -1.5558,1.366 0,0 1.0097,-3.42 -2.8582,-3.395"
     style="fill:#282738;fill-opacity:1;fill-rule:nonzero;stroke:none;stroke-width:0.1"
     id="path642" /><path
     d="m 57.3422,369.334 c 0,0 1.1168,-0.127 1.2586,-0.613 0.1418,-0.487 -1.2496,-0.851 -1.7453,-0.025 -0.4946,0.824 0.164,0.696 0.4867,0.638"
     style="fill:#946748;fill-opacity:1;fill-rule:nonzero;stroke:none;stroke-width:0.1"
     id="path644" /><path
     d="m 57.2547,368.255 c -0.1348,-0.134 -0.3531,-0.134 -0.4875,10e-4 -0.1344,0.135 -0.1336,0.353 0.0012,0.487 0.1347,0.135 0.3531,0.134 0.4871,0 0.1343,-0.136 0.134,-0.354 -8e-4,-0.488"
     style="fill:#f2d23a;fill-opacity:1;fill-rule:nonzero;stroke:none;stroke-width:0.1"
     id="path646" /><path
     d="m 57.1871,370.298 -0.0367,0.013 -0.1117,0.056 c -0.1332,0.094 -0.1203,0.224 -0.0598,0.353 l -0.1348,0.052 c -0.1332,-0.287 0.027,-0.543 0.3325,-0.615 l 0.0105,0.141"
     style="fill:#1e100c;fill-opacity:1;fill-rule:nonzero;stroke:none;stroke-width:0.1"
     id="path648" /><path
     d="m 56.391,371.687 -0.1609,0.021 c -0.166,0.051 -0.1699,0.183 -0.1219,0.328 l -0.1348,0.052 c -0.0562,-0.171 -0.0609,-0.365 0.118,-0.472 0.0965,-0.058 0.2168,-0.075 0.3254,-0.07 0.0914,0.005 0.0645,0.145 -0.0258,0.141"
     style="fill:#1e100c;fill-opacity:1;fill-rule:nonzero;stroke:none;stroke-width:0.1"
     id="path650" /><path
     d="m 56.7617,372.461 c 0.2113,-0.117 0.2774,-0.33 0.1961,-0.556 -0.0375,-0.105 0.1301,-0.152 0.1676,-0.047 0.107,0.298 0.0074,0.596 -0.2754,0.753 -0.098,0.054 -0.1863,-0.095 -0.0883,-0.15"
     style="fill:#552b19;fill-opacity:1;fill-rule:nonzero;stroke:none;stroke-width:0.1"
     id="path652" /><path
     d="m 57.4387,371.112 c 0.2351,-0.056 0.3562,-0.243 0.3394,-0.482 -0.0078,-0.112 0.1664,-0.112 0.1742,-10e-4 0.0219,0.316 -0.1543,0.576 -0.4691,0.651 -0.109,0.025 -0.1535,-0.142 -0.0445,-0.168"
     style="fill:#552b19;fill-opacity:1;fill-rule:nonzero;stroke:none;stroke-width:0.1"
     id="path654" /><path
     d="m 56.8848,371.432 c -0.0793,-0.139 -0.1926,-0.276 -0.3352,-0.348 -0.2078,-0.105 -0.4535,0.011 -0.6824,-0.015 -0.3149,-0.035 -0.2953,-0.276 -0.1477,-0.56 l 0.093,0.038 c -0.3312,0.636 0.4785,0.295 0.7605,0.416 0.1762,0.076 0.3141,0.233 0.4086,0.398 l -0.0968,0.071"
     style="fill:#80533a;fill-opacity:1;fill-rule:nonzero;stroke:none;stroke-width:0.1"
     id="path656" /><path
     d="m 54.9715,370.505 c 0,0 0.4375,0.136 0.5238,-0.233 0.0867,-0.369 -0.3027,-0.501 -0.3027,-0.501 l -0.2211,0.734"
     style="fill:#faffff;fill-opacity:1;fill-rule:nonzero;stroke:none;stroke-width:0.1"
     id="path658" /><path
     d="m 56.6586,369.313 c -0.1691,-0.078 -0.3695,-0.004 -0.4477,0.165 -0.0781,0.169 -0.0043,0.37 0.1653,0.448 0.1691,0.078 0.3695,0.004 0.4476,-0.165 0.0782,-0.17 0.0039,-0.37 -0.1652,-0.448"
     style="fill:#895033;fill-opacity:1;fill-rule:nonzero;stroke:none;stroke-width:0.1"
     id="path660" /><path
     d="m 55.3355,371.804 c 0.1868,-0.025 0.3172,-0.198 0.2915,-0.384 -0.0254,-0.188 -0.1977,-0.318 -0.3848,-0.292 -0.1871,0.025 -0.3176,0.198 -0.2918,0.385 0.0258,0.186 0.198,0.317 0.3851,0.291"
     style="fill:#895033;fill-opacity:1;fill-rule:nonzero;stroke:none;stroke-width:0.1"
     id="path662" /><path
     d="m 34.234,414.671 v -2.812 c 0,0 -4.8813,-5.857 -2.8262,-9.58 2.0555,-3.723 12.2031,-3.09 9.6344,4.75 0,0 -2.1652,-4.483 -4.8629,-3.675 -2.6973,0.809 -3.2301,3.305 -0.9176,6.575 0.4957,0.702 0.8211,1.337 1.0266,1.901 l -0.109,3.188 -1.9453,-0.347"
     style="fill:#464f72;fill-opacity:1;fill-rule:nonzero;stroke:none;stroke-width:0.1"
     id="path664" /><path
     d="M 40.3266,413.714 H 30.2715 l -1.9891,13.782 H 41.984 l -1.6574,-13.782"
     style="fill:#56a0fd;fill-opacity:1;fill-rule:nonzero;stroke:none;stroke-width:0.1"
     id="path666" /><path
     d="m 53.7715,375.904 -36.393,3.888 1.7195,16.093 36.3926,-3.888 -1.7191,-16.093"
     style="fill:#d98853;fill-opacity:1;fill-rule:nonzero;stroke:none;stroke-width:0.1"
     id="path668" /><path
     d="m 29.1297,378.536 -11.7512,1.256 1.7195,16.093 11.7512,-1.255 -1.7195,-16.094"
     style="fill:#c16d3e;fill-opacity:1;fill-rule:nonzero;stroke:none;stroke-width:0.1"
     id="path670" /><path
     d="m 41.984,427.496 -6.0129,-10.1 -5.6996,-3.682 h 10.0551 l 1.6574,13.782"
     style="fill:#3f8fd8;fill-opacity:1;fill-rule:nonzero;stroke:none;stroke-width:0.1"
     id="path672" /><path
     d="m 51.5691,377.591 -19.123,14.872 0.5535,0.711 19.1227,-14.872 -0.5532,-0.711"
     style="fill:#f3a277;fill-opacity:1;fill-rule:nonzero;stroke:none;stroke-width:0.1"
     id="path674" /><path
     d="m 31.4676,379.914 -0.377,0.818 22.0102,10.12 0.3769,-0.819 -22.0101,-10.119"
     style="fill:#f3a277;fill-opacity:1;fill-rule:nonzero;stroke:none;stroke-width:0.1"
     id="path676" /><path
     d="m 47.8227,376.535 -0.5106,0.062 1.9387,15.955 -10.2934,11.667 0.3856,0.34 10.4457,-11.841 -1.966,-16.183"
     style="fill:#464f72;fill-opacity:1;fill-rule:nonzero;stroke:none;stroke-width:0.1"
     id="path678" /><path
     d="m 23.9895,379.086 -0.5106,0.054 1.5191,16.025 0.054,0.062 8.8496,10.211 0.2097,-0.543 -8.6175,-9.942 -1.5043,-15.867"
     style="fill:#464f72;fill-opacity:1;fill-rule:nonzero;stroke:none;stroke-width:0.1"
     id="path680" /><path
     d="m 35.3887,377.868 -0.5114,0.053 1.6762,16.123 -0.0012,9.216 h 0.5137 v -9.242 l -1.6773,-16.15"
     style="fill:#464f72;fill-opacity:1;fill-rule:nonzero;stroke:none;stroke-width:0.1"
     id="path682" /><path
     d="m 58.6109,375.531 5.1743,0.972 -0.4981,-2.846 9.9926,4.583 -7.9363,-1.49 0.4168,2.664 -7.1493,-3.883"
     style="fill:#ffd500;fill-opacity:1;fill-rule:nonzero;stroke:none;stroke-width:0.1"
     id="path684" /><path
     d="m 56.0184,374.334 0.5566,3.355 1.6172,-0.932 -0.568,7.08 -0.8539,-5.147 -1.5242,0.843 0.7723,-5.199"
     style="fill:#ffd500;fill-opacity:1;fill-rule:nonzero;stroke:none;stroke-width:0.1"
     id="path686" /><path
     d="m 61.7023,370.396 3.1954,-1.166 -1.2149,-1.417 7.0633,-0.747 -4.9012,1.788 1.1098,1.343 -5.2524,0.199"
     style="fill:#ffd500;fill-opacity:1;fill-rule:nonzero;stroke:none;stroke-width:0.1"
     id="path688" /><path
     d="m 168.627,353.92 c -18.769,-0.604 -37.045,-3.69 -46.555,12.724 -9.509,16.414 -4.084,37.329 12.119,46.717 10.939,6.337 42.198,6.357 41.218,-16.564 -0.882,-20.616 11.514,-12.492 14.603,-17.824 9.51,-16.413 0.464,-24.349 -21.385,-25.053"
     style="fill:#e7f4fa;fill-opacity:1;fill-rule:nonzero;stroke:none;stroke-width:0.1"
     id="path690" /><path
     d="m 193.497,398.764 c 2.221,-4.282 0.913,-9.364 -2.922,-11.353 -3.834,-1.989 -8.743,-0.13 -10.964,4.152 -2.22,4.281 -2.774,12.05 1.06,14.038 3.835,1.989 10.606,-2.555 12.826,-6.837"
     style="fill:#e7f4fa;fill-opacity:1;fill-rule:nonzero;stroke:none;stroke-width:0.1"
     id="path692" /><path
     d="m 160.91,365.039 c -0.275,-0.105 3.335,-2.353 0.981,-3.825 -2.354,-1.471 -28.642,0.295 -27.661,-2.256 0.981,-2.55 9.515,-1.177 12.163,-3.433 2.648,-2.256 -3.573,-3.187 -5.078,-4.176 -2.197,-1.444 -2.377,-3.867 9.688,-3.474 12.065,0.392 25.208,0 20.794,2.255 -4.414,2.256 -21.811,3.924 -18.36,5.493 1.474,0.67 5.336,0.661 9.219,0.652 5.212,-0.013 10.459,-0.026 10.015,1.604 -0.775,2.845 -7.642,1.569 -8.328,3.237 -0.687,1.668 -0.883,4.904 -3.433,3.923"
     style="fill:#464f72;fill-opacity:1;fill-rule:nonzero;stroke:none;stroke-width:0.1"
     id="path694" /><path
     d="m 133.449,361.736 h 29.173 v 34.9945 h -29.173 z"
     style="fill:#d98853;fill-opacity:1;fill-rule:nonzero;stroke:none;stroke-width:0.1"
     id="path696" /><path
     d="m 162.692,379.78 h -29.243 c -0.626,0 -1.138,0.512 -1.138,1.138 0,0.625 0.512,1.137 1.138,1.137 h 29.243 c 0.626,0 1.138,-0.512 1.138,-1.137 0,-0.626 -0.512,-1.138 -1.138,-1.138"
     style="fill:#c16d3e;fill-opacity:1;fill-rule:nonzero;stroke:none;stroke-width:0.1"
     id="path698" /><path
     d="m 156.082,380.918 c 0,-4.444 -3.603,-8.047 -8.047,-8.047 -4.444,0 -8.046,3.603 -8.046,8.047 0,4.444 3.602,8.046 8.046,8.046 4.444,0 8.047,-3.602 8.047,-8.046"
     style="fill:#ffac3e;fill-opacity:1;fill-rule:nonzero;stroke:none;stroke-width:0.1"
     id="path700" /><path
     d="m 147.082,382.692 c 0.269,0.146 0.595,0.233 0.948,0.233 0.387,0 0.739,-0.107 1.022,-0.28 l 2.386,4.397 c -1.03,0.394 -2.183,0.622 -3.408,0.622 -1.22,0 -2.37,-0.226 -3.397,-0.618 l 2.449,-4.354"
     style="fill:#464f72;fill-opacity:1;fill-rule:nonzero;stroke:none;stroke-width:0.1"
     id="path702" /><path
     d="m 146.99,379.21 c -0.265,0.157 -0.506,0.394 -0.684,0.699 -0.195,0.334 -0.277,0.693 -0.267,1.026 l -5.086,-0.204 c 0.17,-1.092 0.55,-2.206 1.167,-3.264 0.615,-1.054 1.395,-1.931 2.259,-2.616 l 2.611,4.359"
     style="fill:#464f72;fill-opacity:1;fill-rule:nonzero;stroke:none;stroke-width:0.1"
     id="path704" /><path
     d="m 149.166,379.213 c 0.265,0.154 0.508,0.387 0.692,0.688 0.202,0.331 0.295,0.686 0.296,1.017 l 4.969,-0.241 c -0.202,-1.083 -0.611,-2.185 -1.25,-3.23 -0.637,-1.041 -1.428,-1.906 -2.296,-2.578 l -2.411,4.344"
     style="fill:#464f72;fill-opacity:1;fill-rule:nonzero;stroke:none;stroke-width:0.1"
     id="path706" /><path
     d="m 149.121,381.005 c 0,-0.581 -0.47,-1.051 -1.05,-1.051 -0.581,0 -1.051,0.47 -1.051,1.051 0,0.58 0.47,1.05 1.051,1.05 0.58,0 1.05,-0.47 1.05,-1.05"
     style="fill:#464f72;fill-opacity:1;fill-rule:nonzero;stroke:none;stroke-width:0.1"
     id="path708" /><path
     d="m 132.964,395.986 c 0,0 -0.49,-3.77 0.485,-3.933 0.975,-0.163 0.731,1.901 2.032,1.967 1.3,0.065 -0.813,-5.706 0.65,-6.763 1.463,-1.056 0.406,7.397 1.544,7.478 1.138,0.081 0,-2.194 1.138,-2.763 1.138,-0.569 0.4,2.763 1.176,3.007 0.775,0.244 0.746,-0.081 0.964,-1.382 0.217,-1.3 -0.351,-5.12 1.193,-4.633 1.544,0.488 0.244,5.527 0.894,5.852 0.65,0.325 0.644,-0.65 0.931,-1.788 0.288,-1.138 1.995,-1.544 2.564,0.894 0.569,2.439 2.113,1.138 2.113,0.326 0,-0.813 -0.488,-5.284 2.357,-3.902 0,0 0.947,0.325 0.433,4.389 0,0 1.762,1.463 1.843,-0.813 0.081,-2.276 -0.488,-5.608 1.382,-5.445 1.869,0.162 0.156,5.771 1.419,6.177 1.263,0.406 0.45,-1.544 1.669,-2.032 1.22,-0.488 1.22,2.682 2.032,2.357 0.813,-0.325 -0.975,-5.039 0.569,-6.015 1.545,-0.975 2.195,1.707 1.87,3.008 -0.325,1.3 -0.663,3.414 0.4,2.682 1.063,-0.732 0.575,2.357 0.575,2.357 l -30.233,-1.025"
     style="fill:#464f72;fill-opacity:1;fill-rule:nonzero;stroke:none;stroke-width:0.1"
     id="path710" /><path
     d="m 162.692,395.873 h -29.243 c -0.626,0 -1.138,0.512 -1.138,1.138 0,0.626 0.512,1.138 1.138,1.138 h 29.243 c 0.626,0 1.138,-0.512 1.138,-1.138 0,-0.626 -0.512,-1.138 -1.138,-1.138"
     style="fill:#c16d3e;fill-opacity:1;fill-rule:nonzero;stroke:none;stroke-width:0.1"
     id="path712" /><path
     d="m 174.347,396.127 c -0.37,0.055 -4.422,-0.557 -5.191,0.431 -0.557,0.716 1.183,3.025 1.183,3.025 0,0 0.549,-1.111 3.792,-0.254 2.733,0.721 0.216,-3.202 0.216,-3.202"
     style="fill:#7c4930;fill-opacity:1;fill-rule:nonzero;stroke:none;stroke-width:0.1"
     id="path714" /><path
     d="m 169.046,397.786 c 1.008,3.507 7.335,7.62 7.335,7.62 l 0.195,-1.639 -4.893,-7.05 c 0,0 -3.327,-1.333 -2.637,1.069"
     style="fill:#7c4930;fill-opacity:1;fill-rule:nonzero;stroke:none;stroke-width:0.1"
     id="path716" /><path
     d="m 176.528,403.33 c 0.175,0.015 0.372,-0.077 0.542,-0.107 0.338,-0.058 0.679,-0.004 1.013,0.055 0.185,0.033 0.615,-0.117 0.728,0.099 0.185,0.353 -0.598,0.407 -0.761,0.48 -0.15,0.066 -0.284,0.213 -0.262,0.375 0.014,0.107 0.092,0.194 0.17,0.269 0.248,0.24 0.532,0.437 0.803,0.649 0.141,0.111 0.272,0.229 0.405,0.348 0.1,0.088 0.269,0.168 0.341,0.278 0.057,0.087 0.043,0.229 -0.066,0.271 -0.098,0.037 -0.155,-0.048 -0.23,-0.094 -0.169,-0.103 -0.341,-0.202 -0.513,-0.299 l -0.241,-0.125 c -0.219,0.088 0.202,0.419 0.266,0.475 0.161,0.139 0.324,0.291 0.38,0.507 l -0.006,0.084 -0.128,0.003 c -0.245,-0.116 -0.442,-0.318 -0.691,-0.428 l -0.125,-0.005 c -0.14,0.11 0.088,0.382 0.155,0.478 l 0.049,0.202 -0.129,0.043 -0.127,-0.067 c -0.116,-0.083 -0.244,-0.16 -0.348,-0.256 l -0.264,-0.144 -0.024,0.049 0.06,0.189 0.001,0.19 -0.23,-0.003 c -0.263,-0.141 -0.476,-0.377 -0.684,-0.587 -0.223,-0.225 -0.435,-0.46 -0.636,-0.704 -0.378,-0.458 -0.661,-0.999 -1.079,-1.421 l -0.174,-0.203 c -0.085,-0.146 -0.083,-0.329 -0.046,-0.494 0.068,-0.311 0.273,-0.61 0.564,-0.749 0.093,-0.044 0.274,-0.148 0.367,-0.1 l 0.176,0.227 0.215,0.246 c 0.134,0.128 0.309,0.234 0.529,0.269"
     style="fill:#7c4930;fill-opacity:1;fill-rule:nonzero;stroke:none;stroke-width:0.1"
     id="path718" /><path
     d="m 179.678,401.05 c 1.269,0.189 1.956,-0.562 2.186,-1.644 0.131,-0.614 -0.553,-1.663 -1.27,-2.06 -1.377,-0.762 -3.959,-1.52 -6.669,-1.234 -0.993,0.105 -1.543,3.115 0,3.835 2.024,0.944 3.967,0.836 5.753,1.103"
     style="fill:#db8e28;fill-opacity:1;fill-rule:nonzero;stroke:none;stroke-width:0.1"
     id="path720" /><path
     d="m 191.738,357.383 c 0,0 1.332,-1.729 1.352,-2.109 0.062,-1.131 -2.993,-3.294 -4.419,-3.392 -0.199,-0.014 -0.528,0.169 -0.434,0.723 0.094,0.553 1.572,2.137 0.971,2.822 -0.602,0.685 2.53,1.956 2.53,1.956"
     style="fill:#e8a32b;fill-opacity:1;fill-rule:nonzero;stroke:none;stroke-width:0.1"
     id="path722" /><path
     d="m 185.088,372.335 c 0,0 2.244,9.183 2.337,11.208 0.136,2.975 -2.569,5.613 -5.756,4.35 -2.191,-0.869 -4.717,-19.005 -1.4,-21.184 3.009,-1.977 4.819,5.626 4.819,5.626"
     style="fill:#af75e1;fill-opacity:1;fill-rule:nonzero;stroke:none;stroke-width:0.1"
     id="path724" /><path
     d="m 187.705,354.868 c -2.501,2.841 -9.039,12.501 -8.959,15.442 0.086,3.179 4.337,2.583 6.585,-0.947 1.457,-2.289 6.288,-10.106 7.45,-12.316 0.281,-0.536 -0.935,-1.61 -1.782,-2.043 -0.021,-0.01 -2.572,-0.956 -3.294,-0.136"
     style="fill:#af75e1;fill-opacity:1;fill-rule:nonzero;stroke:none;stroke-width:0.1"
     id="path726" /><path
     d="m 177.74,357.646 c 0,0 0.729,-2.057 0.631,-2.424 -0.292,-1.095 -3.868,-2.202 -5.254,-1.852 -0.193,0.048 -0.45,0.324 -0.188,0.821 0.261,0.497 2.158,1.544 1.799,2.382 -0.359,0.838 3.012,1.073 3.012,1.073"
     style="fill:#e8a32b;fill-opacity:1;fill-rule:nonzero;stroke:none;stroke-width:0.1"
     id="path728" /><path
     d="m 176.06,373.925 c 0,0 4.985,8.032 5.701,9.928 1.053,2.786 -0.699,6.133 -4.12,5.922 -2.353,-0.146 -10.385,-16.602 -7.908,-19.703 2.246,-2.813 6.327,3.853 6.327,3.853"
     style="fill:#af75e1;fill-opacity:1;fill-rule:nonzero;stroke:none;stroke-width:0.1"
     id="path730" /><path
     d="m 173.126,356.509 c -1.495,3.475 -4.712,14.689 -3.723,17.459 1.069,2.995 4.925,1.11 5.966,-2.945 0.674,-2.627 2.84,-11.558 3.258,-14.02 0.101,-0.597 -1.388,-1.24 -2.328,-1.388 -0.023,-0.004 -2.741,-0.111 -3.173,0.894"
     style="fill:#af75e1;fill-opacity:1;fill-rule:nonzero;stroke:none;stroke-width:0.1"
     id="path732" /><path
     d="m 182.794,383.188 c 0.556,-0.84 2.04,-2.894 3.24,-2.054 0.161,0.112 0.016,0.386 -0.147,0.272 -0.996,-0.697 -2.352,1.221 -2.82,1.929 -0.109,0.164 -0.383,0.02 -0.273,-0.147"
     style="fill:#9c67d3;fill-opacity:1;fill-rule:nonzero;stroke:none;stroke-width:0.1"
     id="path734" /><path
     d="m 173.671,382.6 c 1.007,0.046 2.08,0.805 2.641,1.74 0.143,0.238 0.498,-0.007 0.356,-0.245 -0.638,-1.063 -1.762,-1.868 -3.029,-1.925 -0.277,-0.012 -0.242,0.418 0.032,0.43"
     style="fill:#9c67d3;fill-opacity:1;fill-rule:nonzero;stroke:none;stroke-width:0.1"
     id="path736" /><path
     d="m 177.008,399.358 c 0.959,2.619 5.689,1.582 8.919,0.931 2.178,-0.438 3.368,-1.502 3.064,-5.506 -0.119,-1.574 -0.252,-6.387 -1.126,-8.776 -0.158,-0.43 -0.824,-0.794 -1.18,-1.081 -2.046,-1.652 -12.575,0.637 -12.041,3.071 0,0 0.315,5.764 2.364,11.361"
     style="fill:#e79e30;fill-opacity:1;fill-rule:nonzero;stroke:none;stroke-width:0.1"
     id="path738" /><path
     d="m 185.348,403.877 c 0,0 -3.386,-0.558 -3.213,-0.841 0.174,-0.282 -0.18,-0.818 -0.214,-1.352 -0.039,-0.579 -0.453,-1.173 -0.998,-1.734 -0.381,-0.392 0.238,-0.912 0.803,-1.047 2.438,-0.582 4.036,0.262 3.554,1.083 -1.082,1.846 0.068,3.891 0.068,3.891"
     style="fill:#7c4930;fill-opacity:1;fill-rule:nonzero;stroke:none;stroke-width:0.1"
     id="path740" /><path
     d="m 181.921,401.684 c 0.034,0.534 0.388,1.07 0.214,1.352 -0.173,0.283 3.48,0.884 3.48,0.884 0,0 -0.576,-0.535 -0.711,-1.374 -1.074,-1.294 -2.495,-1.62 -3.419,-1.93 0.123,0.23 0.422,0.859 0.436,1.068"
     style="fill:#56301b;fill-opacity:1;fill-rule:nonzero;stroke:none;stroke-width:0.1"
     id="path742" /><path
     d="m 182.162,407.904 c -1.367,-0.933 -2.658,-4.32 -1.358,-6.026 0.715,-0.938 3.519,-0.115 4.907,1.782 0.18,0.247 0.663,1.685 0.052,3.308 -0.275,0.735 -2.18,1.905 -3.601,0.936"
     style="fill:#7c4930;fill-opacity:1;fill-rule:nonzero;stroke:none;stroke-width:0.1"
     id="path744" /><path
     d="m 180.508,405.267 c -0.008,-0.211 0.397,2.067 1.694,2.161 0.527,0.037 0.383,-0.509 0.989,-0.584 0.518,-0.063 2.126,0.907 1.376,-2.159 -0.036,-0.147 0.097,-0.329 0.159,-0.466 0.077,-0.169 -0.206,-0.532 -0.211,-0.717 -0.005,-0.179 0.558,0.343 0.538,0.165 -0.028,-0.269 -0.532,-0.999 -0.149,-1.121 0.457,-0.145 1.119,1.366 1.391,2.796 0.07,0.368 0.45,1.794 0.488,2.104 0.081,0.659 -3.124,1.81 -4.552,1.878 -0.843,0.04 -0.664,-1.127 -0.982,-1.832 -0.311,-0.692 -0.709,-1.417 -0.741,-2.225"
     style="fill:#282738;fill-opacity:1;fill-rule:nonzero;stroke:none;stroke-width:0.1"
     id="path746" /><path
     d="m 184.208,403.932 c 0,0 0.993,0.792 1.506,0.525 0.514,-0.268 -0.293,-1.661 -1.368,-1.411 -1.072,0.25 -0.442,0.674 -0.138,0.886"
     style="fill:#7c4930;fill-opacity:1;fill-rule:nonzero;stroke:none;stroke-width:0.1"
     id="path748" /><path
     d="m 181.87,408.1 c -0.012,-0.245 -0.221,-0.434 -0.466,-0.422 -0.245,0.011 -0.434,0.22 -0.422,0.465 0.012,0.245 0.22,0.434 0.465,0.422 0.245,-0.012 0.434,-0.22 0.423,-0.465"
     style="fill:#282738;fill-opacity:1;fill-rule:nonzero;stroke:none;stroke-width:0.1"
     id="path750" /><path
     d="m 182.85,409.031 c -0.022,-0.46 -0.413,-0.815 -0.874,-0.793 -0.46,0.022 -0.815,0.413 -0.793,0.874 0.022,0.46 0.414,0.815 0.874,0.793 0.46,-0.023 0.815,-0.414 0.793,-0.874"
     style="fill:#282738;fill-opacity:1;fill-rule:nonzero;stroke:none;stroke-width:0.1"
     id="path752" /><path
     d="m 184.341,408.311 c -0.461,-0.418 -1.173,-0.384 -1.591,0.077 -0.418,0.46 -0.384,1.173 0.077,1.591 0.46,0.418 1.173,0.384 1.591,-0.077 0.418,-0.461 0.383,-1.173 -0.077,-1.591"
     style="fill:#282738;fill-opacity:1;fill-rule:nonzero;stroke:none;stroke-width:0.1"
     id="path754" /><path
     d="m 185.915,408.7 c -0.022,-0.438 -0.395,-0.777 -0.833,-0.756 -0.439,0.022 -0.778,0.395 -0.757,0.833 0.022,0.439 0.395,0.778 0.833,0.757 0.439,-0.021 0.778,-0.395 0.757,-0.834"
     style="fill:#282738;fill-opacity:1;fill-rule:nonzero;stroke:none;stroke-width:0.1"
     id="path756" /><path
     d="m 187.448,407.634 c -0.026,-0.548 -0.491,-0.97 -1.038,-0.943 -0.547,0.026 -0.969,0.491 -0.943,1.038 0.026,0.548 0.491,0.969 1.039,0.943 0.547,-0.027 0.969,-0.492 0.942,-1.038"
     style="fill:#282738;fill-opacity:1;fill-rule:nonzero;stroke:none;stroke-width:0.1"
     id="path758" /><path
     d="m 187.424,406.452 c -0.02,-0.397 -0.357,-0.702 -0.753,-0.683 -0.397,0.019 -0.703,0.356 -0.683,0.752 0.019,0.397 0.356,0.703 0.752,0.684 0.397,-0.019 0.703,-0.357 0.684,-0.753"
     style="fill:#282738;fill-opacity:1;fill-rule:nonzero;stroke:none;stroke-width:0.1"
     id="path760" /><path
     d="m 186.938,405.759 c -0.019,-0.396 -0.355,-0.7 -0.75,-0.681 -0.395,0.019 -0.7,0.354 -0.681,0.75 0.02,0.395 0.355,0.7 0.75,0.681 0.395,-0.02 0.7,-0.355 0.681,-0.75"
     style="fill:#282738;fill-opacity:1;fill-rule:nonzero;stroke:none;stroke-width:0.1"
     id="path762" /><path
     d="m 181.353,407.474 c -0.013,-0.251 -0.226,-0.444 -0.476,-0.432 -0.251,0.012 -0.444,0.225 -0.432,0.476 0.012,0.25 0.225,0.444 0.476,0.431 0.25,-0.011 0.444,-0.225 0.432,-0.475"
     style="fill:#282738;fill-opacity:1;fill-rule:nonzero;stroke:none;stroke-width:0.1"
     id="path764" /><path
     d="m 186.933,404.855 c -0.016,-0.331 -0.298,-0.587 -0.63,-0.571 -0.332,0.016 -0.588,0.298 -0.572,0.63 0.016,0.332 0.298,0.588 0.63,0.572 0.332,-0.016 0.588,-0.298 0.572,-0.631"
     style="fill:#282738;fill-opacity:1;fill-rule:nonzero;stroke:none;stroke-width:0.1"
     id="path766" /><path
     d="m 183.448,404.532 -0.039,-0.022 -0.134,-0.052 c -0.184,-0.041 -0.284,0.07 -0.349,0.222 -0.04,0.095 -0.188,0.02 -0.148,-0.075 0.143,-0.336 0.485,-0.396 0.783,-0.191 l -0.113,0.118"
     style="fill:#201714;fill-opacity:1;fill-rule:nonzero;stroke:none;stroke-width:0.1"
     id="path768" /><path
     d="m 181.646,404.923 -0.142,-0.121 c -0.171,-0.103 -0.288,-0.004 -0.374,0.149 -0.052,0.09 -0.2,0.016 -0.149,-0.075 0.103,-0.18 0.265,-0.333 0.495,-0.263 0.124,0.037 0.231,0.127 0.311,0.224 l -0.141,0.086"
     style="fill:#201714;fill-opacity:1;fill-rule:nonzero;stroke:none;stroke-width:0.1"
     id="path770" /><path
     d="m 181.271,405.838 c 0.263,0.091 0.496,-0.018 0.627,-0.261 0.061,-0.114 0.23,-0.007 0.169,0.106 -0.172,0.322 -0.504,0.467 -0.856,0.346 -0.122,-0.041 -0.063,-0.233 0.06,-0.191"
     style="fill:#56301b;fill-opacity:1;fill-rule:nonzero;stroke:none;stroke-width:0.1"
     id="path772" /><path
     d="m 182.947,405.375 c 0.229,0.159 0.483,0.117 0.674,-0.082 0.09,-0.093 0.224,0.056 0.135,0.149 -0.253,0.263 -0.612,0.313 -0.918,0.101 -0.106,-0.073 0.003,-0.241 0.109,-0.168"
     style="fill:#56301b;fill-opacity:1;fill-rule:nonzero;stroke:none;stroke-width:0.1"
     id="path774" /><path
     d="m 182.246,405.149 c 0.057,-0.175 0.087,-0.378 0.038,-0.556 -0.07,-0.258 -0.359,-0.379 -0.514,-0.595 -0.212,-0.296 0.009,-0.466 0.365,-0.558 l 0.039,0.109 c -0.799,0.208 0.118,0.637 0.232,0.971 0.071,0.209 0.043,0.448 -0.025,0.657 l -0.135,-0.028"
     style="fill:#56301b;fill-opacity:1;fill-rule:nonzero;stroke:none;stroke-width:0.1"
     id="path776" /><path
     d="m 181.571,402.86 c 0,0 0.279,0.447 0.632,0.192 0.354,-0.257 0.114,-0.665 0.114,-0.665 l -0.746,0.473"
     style="fill:#faffff;fill-opacity:1;fill-rule:nonzero;stroke:none;stroke-width:0.1"
     id="path778" /><path
     d="m 183.883,403.32 c -0.064,-0.205 -0.282,-0.32 -0.487,-0.256 -0.205,0.064 -0.319,0.282 -0.255,0.487 0.064,0.205 0.282,0.319 0.487,0.256 0.204,-0.064 0.319,-0.282 0.255,-0.487"
     style="fill:#56301b;fill-opacity:1;fill-rule:nonzero;stroke:none;stroke-width:0.1"
     id="path780" /><path
     d="m 180.731,404.112 c 0.166,0.14 0.415,0.118 0.555,-0.048 0.139,-0.166 0.118,-0.415 -0.048,-0.555 -0.166,-0.139 -0.415,-0.118 -0.555,0.048 -0.14,0.166 -0.118,0.415 0.048,0.555"
     style="fill:#56301b;fill-opacity:1;fill-rule:nonzero;stroke:none;stroke-width:0.1"
     id="path782" /><path
     d="m 185.032,391.751 c -0.296,-0.229 -2.671,-3.567 -3.916,-3.434 -0.902,0.096 -1.354,2.952 -1.354,2.952 0,0 1.18,-0.376 2.818,2.551 1.38,2.467 2.452,-2.069 2.452,-2.069"
     style="fill:#7c4930;fill-opacity:1;fill-rule:nonzero;stroke:none;stroke-width:0.1"
     id="path784" /><path
     d="m 180.156,389.091 c -1.822,3.162 -0.384,10.57 -0.384,10.57 l 1.314,-0.999 1.672,-8.417 c 0,0 -1.354,-3.32 -2.602,-1.154"
     style="fill:#7c4930;fill-opacity:1;fill-rule:nonzero;stroke:none;stroke-width:0.1"
     id="path786" /><path
     d="m 181.367,398.324 c 0.111,0.136 0.314,0.214 0.453,0.315 0.277,0.203 0.475,0.486 0.665,0.767 0.105,0.157 0.512,0.362 0.436,0.592 -0.126,0.379 -0.709,-0.146 -0.875,-0.214 -0.152,-0.062 -0.35,-0.056 -0.452,0.073 -0.067,0.085 -0.075,0.201 -0.075,0.309 0,0.345 0.055,0.686 0.091,1.028 0.018,0.178 0.024,0.355 0.032,0.534 0.005,0.133 0.065,0.31 0.036,0.437 -0.022,0.102 -0.135,0.191 -0.24,0.141 -0.095,-0.044 -0.074,-0.144 -0.093,-0.23 -0.043,-0.194 -0.091,-0.385 -0.141,-0.577 l -0.078,-0.26 c -0.215,-0.096 -0.161,0.437 -0.156,0.521 0.011,0.213 0.016,0.436 -0.1,0.626 l -0.065,0.054 -0.091,-0.09 c -0.088,-0.256 -0.079,-0.539 -0.173,-0.794 l -0.084,-0.093 c -0.175,-0.025 -0.213,0.328 -0.235,0.443 l -0.112,0.176 -0.12,-0.064 -0.04,-0.138 c -0.021,-0.14 -0.055,-0.285 -0.058,-0.427 -0.001,-0.069 0.012,-0.272 -0.08,-0.29 l -0.051,0.016 -0.095,0.175 -0.135,0.133 -0.159,-0.168 c -0.081,-0.287 -0.059,-0.604 -0.053,-0.9 0.008,-0.316 0.029,-0.631 0.064,-0.946 0.067,-0.59 0.26,-1.169 0.273,-1.763 l 0.025,-0.266 c 0.046,-0.164 0.179,-0.289 0.323,-0.378 0.271,-0.166 0.629,-0.227 0.931,-0.113 0.096,0.036 0.297,0.094 0.327,0.193 l -0.041,0.285 c -0.015,0.108 -0.027,0.216 -0.027,0.325 0.001,0.187 0.045,0.386 0.173,0.568"
     style="fill:#7c4930;fill-opacity:1;fill-rule:nonzero;stroke:none;stroke-width:0.1"
     id="path788" /><path
     d="m 185.196,399.005 c 0.745,1.044 1.763,1.016 2.702,0.43 0.532,-0.333 0.811,-1.553 0.598,-2.344 -0.408,-1.521 -1.657,-3.904 -3.746,-5.655 -0.765,-0.641 -3.312,1.056 -2.758,2.665 0.727,2.112 2.155,3.434 3.204,4.904"
     style="fill:#db8e28;fill-opacity:1;fill-rule:nonzero;stroke:none;stroke-width:0.1"
     id="path790" /><path
     d="m 162.622,362.015 v 0.821 c 0,0 0,0 0,0 v -0.821 0 m 0,2.942 v 0 12.812 c 0,0 0,0 0,0 v -12.812"
     style="fill:#e1f1f9;fill-opacity:1;fill-rule:nonzero;stroke:none;stroke-width:0.1"
     id="path792" /><path
     d="m 162.622,361.736 h -0.149 v 0 h 0.149 v 0.279 0 -0.279 m 0,1.1 c 0,0 0,0 0,0 v 2.121 0 -2.121"
     style="fill:#363d58;fill-opacity:1;fill-rule:nonzero;stroke:none;stroke-width:0.1"
     id="path794" /><path
     d="m 162.622,361.736 h -29.173 v 8.841 c 3.12,-1.589 6.706,-2.497 10.522,-2.497 7.903,0 14.824,3.88 18.651,9.689 v -12.812 -2.121 -0.821 -0.279"
     style="fill:#d06c40;fill-opacity:1;fill-rule:nonzero;stroke:none;stroke-width:0.1"
     id="path796" /><path
     d="m 162.692,361.248 h -29.243 c -0.626,0 -1.138,0.512 -1.138,1.138 0,0.626 0.512,1.138 1.138,1.138 h 29.243 c 0.626,0 1.138,-0.512 1.138,-1.138 0,-0.626 -0.512,-1.138 -1.138,-1.138"
     style="fill:#d98853;fill-opacity:1;fill-rule:nonzero;stroke:none;stroke-width:0.1"
     id="path798" /><path
     d="m 285.989,352.167 c -12.984,8.301 -14.764,8.415 -26.456,3.24 -12.666,-5.606 -20.231,-0.472 -21.117,8.331 -1.509,14.994 23.297,10.164 20.716,29.29 -1.902,14.091 4.918,20.34 14.093,21.845 9.078,1.489 21.785,-1.373 21.077,-14.74 -0.391,-7.394 -8.534,-13.389 -1.161,-16.828 7.627,-3.556 19.346,-2.381 21.704,-16.504 2.337,-13.997 -16.718,-22.396 -28.856,-14.634"
     style="fill:#e5f2f8;fill-opacity:1;fill-rule:nonzero;stroke:none;stroke-width:0.1"
     id="path800" /><path
     d="m 300.937,399.22 c 4.127,2.213 9.079,1.011 11.061,-2.685 1.983,-3.696 0.244,-8.487 -3.883,-10.7 -4.127,-2.213 -11.661,-2.855 -13.644,0.841 -1.982,3.695 2.339,10.33 6.466,12.544"
     style="fill:#e7f4fa;fill-opacity:1;fill-rule:nonzero;stroke:none;stroke-width:0.1"
     id="path802" /><path
     d="m 276.363,395.023 h -2.351 v 10.509 h 2.351 v -10.509"
     style="fill:#64b4d7;fill-opacity:1;fill-rule:nonzero;stroke:none;stroke-width:0.1"
     id="path804" /><path
     d="m 276.363,363.282 h -2.351 v 10.509 h 2.351 v -10.509"
     style="fill:#64b4d7;fill-opacity:1;fill-rule:nonzero;stroke:none;stroke-width:0.1"
     id="path806" /><path
     d="m 249.089,356.613 h -14.515 v 53.443 h 14.515 v -53.443"
     style="fill:#64b4d7;fill-opacity:1;fill-rule:nonzero;stroke:none;stroke-width:0.1"
     id="path808" /><path
     d="m 274.717,356.613 h -25.628 v 53.443 h 25.628 v -53.443"
     style="fill:#c1e4fa;fill-opacity:1;fill-rule:nonzero;stroke:none;stroke-width:0.1"
     id="path810" /><path
     d="m 275.658,356.613 h 15.665 v 53.443 h -15.665 v -53.443"
     style="fill:#c1e4fa;fill-opacity:1;fill-rule:nonzero;stroke:none;stroke-width:0.1"
     id="path812" /><path
     d="m 245.239,359.081 h -6.814 v 11.492 h 6.814 v -11.492"
     style="fill:#848fb7;fill-opacity:1;fill-rule:nonzero;stroke:none;stroke-width:0.1"
     id="path814" /><path
     d="m 244.397,368.849 h -5.13 v 0.5 h 5.13 v -0.5"
     style="fill:#464f72;fill-opacity:1;fill-rule:nonzero;stroke:none;stroke-width:0.1"
     id="path816" /><path
     d="m 244.397,367.977 h -5.13 v 0.5 h 5.13 v -0.5"
     style="fill:#464f72;fill-opacity:1;fill-rule:nonzero;stroke:none;stroke-width:0.1"
     id="path818" /><path
     d="m 244.397,367.083 h -5.13 v 0.501 h 5.13 v -0.501"
     style="fill:#464f72;fill-opacity:1;fill-rule:nonzero;stroke:none;stroke-width:0.1"
     id="path820" /><path
     d="m 244.397,366.211 h -5.13 v 0.499 h 5.13 v -0.499"
     style="fill:#464f72;fill-opacity:1;fill-rule:nonzero;stroke:none;stroke-width:0.1"
     id="path822" /><path
     d="m 244.397,365.323 h -5.13 v 0.499 h 5.13 v -0.499"
     style="fill:#464f72;fill-opacity:1;fill-rule:nonzero;stroke:none;stroke-width:0.1"
     id="path824" /><path
     d="m 244.397,364.45 h -5.13 v 0.5 h 5.13 v -0.5"
     style="fill:#464f72;fill-opacity:1;fill-rule:nonzero;stroke:none;stroke-width:0.1"
     id="path826" /><path
     d="m 244.397,363.557 h -5.13 v 0.5 h 5.13 v -0.5"
     style="fill:#464f72;fill-opacity:1;fill-rule:nonzero;stroke:none;stroke-width:0.1"
     id="path828" /><path
     d="m 244.397,362.684 h -5.13 v 0.5 h 5.13 v -0.5"
     style="fill:#464f72;fill-opacity:1;fill-rule:nonzero;stroke:none;stroke-width:0.1"
     id="path830" /><path
     d="m 244.397,361.623 h -5.13 v 0.5 h 5.13 v -0.5"
     style="fill:#464f72;fill-opacity:1;fill-rule:nonzero;stroke:none;stroke-width:0.1"
     id="path832" /><path
     d="m 244.397,360.73 h -5.13 v 0.5 h 5.13 v -0.5"
     style="fill:#464f72;fill-opacity:1;fill-rule:nonzero;stroke:none;stroke-width:0.1"
     id="path834" /><path
     d="m 244.397,359.857 h -5.13 v 0.5 h 5.13 v -0.5"
     style="fill:#464f72;fill-opacity:1;fill-rule:nonzero;stroke:none;stroke-width:0.1"
     id="path836" /><path
     d="m 245.325,395.642 h -6.986 l 3.493,6.986 z"
     style="fill:#6d76a1;fill-opacity:1;fill-rule:nonzero;stroke:none;stroke-width:0.1"
     id="path838" /><path
     d="m 239.015,396.115 2.817,5.487 2.818,-5.487 z"
     style="fill:#ffcf03;fill-opacity:1;fill-rule:nonzero;stroke:none;stroke-width:0.1"
     id="path840" /><path
     d="m 241.26,396.571 -0.054,2.478 0.638,-0.863 0.173,2.181 0.012,-2.842 -0.517,0.717 -0.252,-1.671"
     style="fill:#6d76a1;fill-opacity:1;fill-rule:nonzero;stroke:none;stroke-width:0.1"
     id="path842" /><path
     d="m 271.837,397.463 h -19.573 v 8.175 h 19.573 v -8.175"
     style="fill:#6d76a1;fill-opacity:1;fill-rule:nonzero;stroke:none;stroke-width:0.1"
     id="path844" /><path
     d="m 270.839,400.585 h -14.181 v 4.087 h 14.181 v -4.087"
     style="fill:#464f72;fill-opacity:1;fill-rule:nonzero;stroke:none;stroke-width:0.1"
     id="path846" /><path
     d="m 271.837,393.231 h -19.573 v 2.219 h 19.573 v -2.219"
     style="fill:#6d76a1;fill-opacity:1;fill-rule:nonzero;stroke:none;stroke-width:0.1"
     id="path848" /><path
     d="m 253.73,382.453 h -1.466 v 8.135 h 1.466 v -8.135"
     style="fill:#6d76a1;fill-opacity:1;fill-rule:nonzero;stroke:none;stroke-width:0.1"
     id="path850" /><path
     d="m 256.337,382.453 h -1.466 v 8.135 h 1.466 v -8.135"
     style="fill:#6d76a1;fill-opacity:1;fill-rule:nonzero;stroke:none;stroke-width:0.1"
     id="path852" /><path
     d="m 258.945,382.453 h -1.467 v 8.135 h 1.467 v -8.135"
     style="fill:#6d76a1;fill-opacity:1;fill-rule:nonzero;stroke:none;stroke-width:0.1"
     id="path854" /><path
     d="m 261.552,382.453 h -1.468 v 8.135 h 1.468 v -8.135"
     style="fill:#6d76a1;fill-opacity:1;fill-rule:nonzero;stroke:none;stroke-width:0.1"
     id="path856" /><path
     d="m 263.751,382.453 h -1.467 v 8.135 h 1.467 v -8.135"
     style="fill:#6d76a1;fill-opacity:1;fill-rule:nonzero;stroke:none;stroke-width:0.1"
     id="path858" /><path
     d="m 266.358,382.453 h -1.466 v 8.135 h 1.466 v -8.135"
     style="fill:#6d76a1;fill-opacity:1;fill-rule:nonzero;stroke:none;stroke-width:0.1"
     id="path860" /><path
     d="m 268.965,382.453 h -1.466 v 8.135 h 1.466 v -8.135"
     style="fill:#6d76a1;fill-opacity:1;fill-rule:nonzero;stroke:none;stroke-width:0.1"
     id="path862" /><path
     d="m 271.572,382.453 h -1.466 v 8.135 h 1.466 v -8.135"
     style="fill:#6d76a1;fill-opacity:1;fill-rule:nonzero;stroke:none;stroke-width:0.1"
     id="path864" /><path
     d="m 270.931,367.083 h -0.184 v 16.252 h 0.184 v -16.252"
     style="fill:#6d76a1;fill-opacity:1;fill-rule:nonzero;stroke:none;stroke-width:0.1"
     id="path866" /><path
     d="m 268.324,367.083 h -0.184 v 16.252 h 0.184 v -16.252"
     style="fill:#6d76a1;fill-opacity:1;fill-rule:nonzero;stroke:none;stroke-width:0.1"
     id="path868" /><path
     d="m 265.717,367.083 h -0.184 v 16.252 h 0.184 v -16.252"
     style="fill:#6d76a1;fill-opacity:1;fill-rule:nonzero;stroke:none;stroke-width:0.1"
     id="path870" /><path
     d="m 263.11,367.083 h -0.184 v 16.252 h 0.184 v -16.252"
     style="fill:#6d76a1;fill-opacity:1;fill-rule:nonzero;stroke:none;stroke-width:0.1"
     id="path872" /><path
     d="m 260.911,367.083 h -0.185 v 16.252 h 0.185 v -16.252"
     style="fill:#6d76a1;fill-opacity:1;fill-rule:nonzero;stroke:none;stroke-width:0.1"
     id="path874" /><path
     d="m 258.303,367.083 h -0.185 v 16.252 h 0.185 v -16.252"
     style="fill:#6d76a1;fill-opacity:1;fill-rule:nonzero;stroke:none;stroke-width:0.1"
     id="path876" /><path
     d="m 255.696,367.083 h -0.185 v 16.252 h 0.185 v -16.252"
     style="fill:#6d76a1;fill-opacity:1;fill-rule:nonzero;stroke:none;stroke-width:0.1"
     id="path878" /><path
     d="m 253.089,367.083 h -0.185 v 16.252 h 0.185 v -16.252"
     style="fill:#6d76a1;fill-opacity:1;fill-rule:nonzero;stroke:none;stroke-width:0.1"
     id="path880" /><path
     d="m 271.837,366.274 h -19.573 v 0.984 h 19.573 v -0.984"
     style="fill:#6d76a1;fill-opacity:1;fill-rule:nonzero;stroke:none;stroke-width:0.1"
     id="path882" /><path
     d="m 252.933,389.607 -0.37,0.003 0.011,1.425 c 0.004,0.547 0.426,0.99 0.943,0.99 h 0.006 l 2.441,-0.018 h 0.004 c 0.135,0 0.264,0.057 0.362,0.161 0.102,0.108 0.159,0.253 0.16,0.409 l 0.013,1.768 0.37,-0.003 -0.013,-1.768 c -0.002,-0.249 -0.095,-0.483 -0.262,-0.66 -0.17,-0.18 -0.415,-0.286 -0.637,-0.276 l -2.441,0.018 h -0.003 c -0.314,0 -0.571,-0.279 -0.574,-0.624 l -0.01,-1.425"
     style="fill:#6d76a1;fill-opacity:1;fill-rule:nonzero;stroke:none;stroke-width:0.1"
     id="path884" /><path
     d="m 258.196,389.609 -0.37,0.003 0.011,1.426 c 0.002,0.264 0.1,0.512 0.277,0.698 0.178,0.188 0.414,0.291 0.665,0.291 h 0.008 l 2.44,-0.017 c 0.138,0.011 0.267,0.056 0.366,0.16 0.103,0.109 0.16,0.254 0.161,0.41 l 0.013,1.768 0.369,-0.003 -0.013,-1.768 c -0.002,-0.25 -0.095,-0.484 -0.261,-0.66 -0.169,-0.178 -0.392,-0.276 -0.63,-0.276 h -0.008 l -2.44,0.017 h -0.004 c -0.15,0 -0.291,-0.062 -0.398,-0.176 -0.112,-0.118 -0.174,-0.277 -0.176,-0.447 l -0.01,-1.426"
     style="fill:#6d76a1;fill-opacity:1;fill-rule:nonzero;stroke:none;stroke-width:0.1"
     id="path886" /><path
     d="m 263.139,389.611 -0.369,0.003 0.011,1.425 c 0.004,0.549 0.386,0.996 0.887,0.99 l 2.238,-0.017 h 0.002 c 0.254,0 0.463,0.256 0.466,0.571 l 0.013,1.769 0.369,-0.003 -0.013,-1.769 c -0.004,-0.518 -0.378,-0.937 -0.835,-0.937 h -0.004 l -2.239,0.017 h -0.004 c -0.279,0 -0.508,-0.28 -0.511,-0.624 l -0.011,-1.425"
     style="fill:#6d76a1;fill-opacity:1;fill-rule:nonzero;stroke:none;stroke-width:0.1"
     id="path888" /><path
     d="m 268.248,389.609 -0.369,0.002 0.01,1.426 c 0.002,0.256 0.079,0.498 0.217,0.682 0.148,0.196 0.355,0.308 0.57,0.308 h 0.006 l 1.938,-0.014 h 0.002 c 0.12,0 0.207,0.091 0.248,0.146 0.082,0.109 0.13,0.264 0.131,0.425 l 0.013,1.768 0.369,-0.003 -0.013,-1.767 c -0.002,-0.242 -0.074,-0.471 -0.205,-0.645 -0.14,-0.187 -0.338,-0.293 -0.543,-0.293 h -0.004 l -1.939,0.014 h -0.002 c -0.135,0 -0.23,-0.101 -0.276,-0.161 -0.089,-0.119 -0.142,-0.288 -0.143,-0.463 l -0.01,-1.425"
     style="fill:#6d76a1;fill-opacity:1;fill-rule:nonzero;stroke:none;stroke-width:0.1"
     id="path890" /><path
     d="m 271.837,361.623 h -19.573 v 3.077 h 19.573 v -3.077"
     style="fill:#6d76a1;fill-opacity:1;fill-rule:nonzero;stroke:none;stroke-width:0.1"
     id="path892" /><path
     d="m 253.73,377.067 h -1.466 v 2.116 h 1.466 v -2.116"
     style="fill:#6d76a1;fill-opacity:1;fill-rule:nonzero;stroke:none;stroke-width:0.1"
     id="path894" /><path
     d="m 256.337,371.071 h -1.466 v 2.117 h 1.466 v -2.117"
     style="fill:#6d76a1;fill-opacity:1;fill-rule:nonzero;stroke:none;stroke-width:0.1"
     id="path896" /><path
     d="m 258.945,376.009 h -1.467 v 2.116 h 1.467 v -2.116"
     style="fill:#6d76a1;fill-opacity:1;fill-rule:nonzero;stroke:none;stroke-width:0.1"
     id="path898" /><path
     d="m 261.551,368.041 h -1.467 v 2.116 h 1.467 v -2.116"
     style="fill:#6d76a1;fill-opacity:1;fill-rule:nonzero;stroke:none;stroke-width:0.1"
     id="path900" /><path
     d="m 263.751,378.125 h -1.466 v 2.116 h 1.466 v -2.116"
     style="fill:#6d76a1;fill-opacity:1;fill-rule:nonzero;stroke:none;stroke-width:0.1"
     id="path902" /><path
     d="m 268.796,377.067 h -1.466 v 2.116 h 1.466 v -2.116"
     style="fill:#6d76a1;fill-opacity:1;fill-rule:nonzero;stroke:none;stroke-width:0.1"
     id="path904" /><path
     d="m 271.572,369.099 h -1.466 v 2.117 h 1.466 v -2.117"
     style="fill:#6d76a1;fill-opacity:1;fill-rule:nonzero;stroke:none;stroke-width:0.1"
     id="path906" /><path
     d="m 248.855,356.628 h 9.356 v 53.443 h -9.356 v -53.443"
     style="fill:#4ca1bf;fill-opacity:1;fill-rule:nonzero;stroke:none;stroke-width:0.1"
     id="path908" /><path
     d="m 249.795,391.981 h -0.94 V 404.9 h 0.94 v -12.919"
     style="fill:#c1e4fa;fill-opacity:1;fill-rule:nonzero;stroke:none;stroke-width:0.1"
     id="path910" /><path
     d="m 249.795,362.357 h -0.94 v 12.919 h 0.94 v -12.919"
     style="fill:#c1e4fa;fill-opacity:1;fill-rule:nonzero;stroke:none;stroke-width:0.1"
     id="path912" /><path
     d="m 270.66,394.719 6.092,4.81 1.297,-4.058 9.914,12.825 -9.345,-7.378 -1.279,3.764 -6.679,-9.963"
     style="fill:#ffd500;fill-opacity:1;fill-rule:nonzero;stroke:none;stroke-width:0.1"
     id="path914" /><path
     d="m 268.648,396.697 1.085,6.543 3.153,-1.818 -1.107,13.807 -1.665,-10.038 -2.973,1.645 1.507,-10.139"
     style="fill:#ffd500;fill-opacity:1;fill-rule:nonzero;stroke:none;stroke-width:0.1"
     id="path916" /><path
     d="m 297.262,392.125 c 0,0 -3.408,4.67 -5.728,5.105 -2.32,0.436 -3.098,-1.33 -3.098,-1.33 0,0 5.003,-2.412 6.28,-4.623 1.277,-2.21 2.546,0.848 2.546,0.848"
     style="fill:#e9b79c;fill-opacity:1;fill-rule:nonzero;stroke:none;stroke-width:0.1"
     id="path918" /><path
     d="m 293.127,390.745 -0.583,-0.186 c -0.635,-0.205 -1.241,-0.509 -1.916,-0.566 -0.317,-0.027 -0.644,0.007 -0.933,0.139 -0.17,0.077 -0.322,0.187 -0.469,0.302 l -0.195,0.062 -0.059,-0.166 c 0.03,-0.157 0.173,-0.263 0.269,-0.391 0.06,-0.08 0.159,-0.226 0.136,-0.334 -0.021,-0.101 -0.15,-0.172 -0.235,-0.208 -0.274,-0.116 -0.572,-0.157 -0.867,-0.19 -0.237,-0.027 -0.517,-0.009 -0.516,-0.319 10e-4,-0.115 -0.049,-0.192 -0.087,-0.296 l -0.006,-0.153 0.042,-0.06 0.071,-0.145 0.034,-0.103 0.118,-0.063 c 0.115,-0.013 0.232,-0.023 0.35,-0.022 0.137,0.002 0.274,-0.018 0.412,-0.007 0.113,0.009 0.217,0.04 0.332,0.048 0.503,0.035 1.567,0.285 1.608,0.296 0.357,0.096 1.243,0.447 1.539,0.617 0.296,0.17 0.955,1.745 0.955,1.745"
     style="fill:#e9b79c;fill-opacity:1;fill-rule:nonzero;stroke:none;stroke-width:0.1"
     id="path920" /><path
     d="m 297.059,390.6 c -1.462,-1.193 -6.426,-2.217 -6.426,-2.217 l 0.415,1.411 5.189,3.049 c 0,0 2.283,-1.048 0.822,-2.243"
     style="fill:#e9b79c;fill-opacity:1;fill-rule:nonzero;stroke:none;stroke-width:0.1"
     id="path922" /><path
     d="m 293.98,396.596 c 0,0 0.755,-0.155 0.535,-0.612 -0.22,-0.457 -0.621,-0.303 -0.621,-0.303 0,0 0.393,-0.358 -0.012,-0.74 -0.284,-0.267 -0.581,0.017 -0.581,0.017 0,0 0.401,-0.29 0.041,-0.724 -0.243,-0.293 -0.609,0.022 -0.609,0.022 0,0 0.473,-0.296 0.147,-0.67 -0.325,-0.375 -0.669,0.174 -0.669,0.174 0,0 0.373,-0.501 0.05,-0.808 -0.323,-0.309 -0.629,0.509 -0.629,0.509 l 2.348,3.135"
     style="fill:#fbfcfb;fill-opacity:1;fill-rule:nonzero;stroke:none;stroke-width:0.1"
     id="path924" /><path
     d="m 294.072,396.564 c 0,0 -4.418,3.585 -5.987,1.65 -1.773,-2.187 3.719,-5.09 3.719,-5.09 0,0 2.119,1.776 2.268,3.44"
     style="fill:#3f8fd8;fill-opacity:1;fill-rule:nonzero;stroke:none;stroke-width:0.1"
     id="path926" /><path
     d="m 305.253,361.581 c 0,0 1.401,-1.551 1.443,-1.914 0.126,-1.083 -2.734,-3.426 -4.122,-3.641 -0.194,-0.03 -0.526,0.117 -0.466,0.658 0.059,0.541 1.412,2.191 0.785,2.8 -0.627,0.607 2.36,2.097 2.36,2.097"
     style="fill:#e8a32b;fill-opacity:1;fill-rule:nonzero;stroke:none;stroke-width:0.1"
     id="path928" /><path
     d="m 291.385,388.164 c 0,0 3.579,0.394 5.038,-3.97 3.268,-9.767 8.996,-20.026 10.348,-22.893 0.131,-0.276 0.114,-0.585 -0.036,-0.851 -0.432,-0.766 -1.619,-2.252 -4.515,-2.867 -0.529,-0.112 -1.074,0.147 -1.312,0.633 l -14.434,28.641 4.911,1.307"
     style="fill:#af75e1;fill-opacity:1;fill-rule:nonzero;stroke:none;stroke-width:0.1"
     id="path930" /><path
     d="m 281.192,358.938 c 0,0 0.306,-1.963 0.157,-2.275 -0.446,-0.931 -3.832,-1.321 -5.013,-0.775 -0.165,0.076 -0.348,0.366 -0.03,0.767 0.317,0.401 2.19,1.019 2.01,1.829 -0.181,0.809 2.876,0.454 2.876,0.454"
     style="fill:#e8a32b;fill-opacity:1;fill-rule:nonzero;stroke:none;stroke-width:0.1"
     id="path932" /><path
     d="m 291.887,386.421 c 0,0 3.526,-3.345 0.732,-6.89 -1.736,-2.203 -5.709,-4.967 -7.21,-8.627 -2.324,-5.669 -1.882,-12.428 -2.504,-14.377 -0.135,-0.423 -0.519,-0.696 -0.95,-0.685 -1.17,0.031 -3.511,0.252 -5.358,1.435 -0.411,0.264 -0.577,0.798 -0.387,1.257 0,0 1.548,12.554 3.19,16.324 1.431,3.288 8.196,11.165 8.196,11.165 l 4.291,0.398"
     style="fill:#af75e1;fill-opacity:1;fill-rule:nonzero;stroke:none;stroke-width:0.1"
     id="path934" /><path
     d="m 280.675,401.707 c 0.031,-1.093 1.106,-5.071 3.076,-4.322 0.84,0.319 1.604,2.475 1.151,4.05 -0.182,0.649 -1.133,1.303 -2.343,1.313 -0.546,0.005 -1.932,0.225 -1.884,-1.041"
     style="fill:#e9b79c;fill-opacity:1;fill-rule:nonzero;stroke:none;stroke-width:0.1"
     id="path936" /><path
     d="m 282.268,398.479 c 0,0 1.69,-0.807 1.08,-2.379 -0.61,-1.571 3.126,0.751 3.126,0.751 l -2.211,3.662 -1.995,-2.034"
     style="fill:#e9b79c;fill-opacity:1;fill-rule:nonzero;stroke:none;stroke-width:0.1"
     id="path938" /><path
     d="m 282.732,395.938 c 1.95,1.519 4.155,2.121 5.897,2.197 3.257,0.14 2.739,-5.43 2.795,-6.261 0.291,-4.325 2.916,-3.147 2.854,-4.18 -0.109,-1.856 -4.375,-4.145 -7.165,-4.398 -1.091,-0.1 -2.134,0.067 -2.09,0.59 0.312,3.725 -1.639,5.124 -2.448,7.123 -0.829,2.048 -1.452,3.676 0.157,4.929"
     style="fill:#56a0fd;fill-opacity:1;fill-rule:nonzero;stroke:none;stroke-width:0.1"
     id="path940" /><path
     d="m 287.475,382.684 c -0.549,-0.916 -2.025,-3.161 -3.335,-2.328 -0.176,0.112 -0.036,0.408 0.142,0.295 1.088,-0.691 2.435,1.404 2.898,2.176 0.107,0.179 0.403,0.039 0.295,-0.143"
     style="fill:#9c67d3;fill-opacity:1;fill-rule:nonzero;stroke:none;stroke-width:0.1"
     id="path942" /><path
     d="m 292.221,381.542 c 0.138,-1.101 -0.248,-2.262 -0.93,-3.116 -0.15,-0.188 0.116,-0.458 0.268,-0.267 0.742,0.93 1.192,2.179 1.04,3.383 -0.03,0.238 -0.409,0.241 -0.378,0"
     style="fill:#9c67d3;fill-opacity:1;fill-rule:nonzero;stroke:none;stroke-width:0.1"
     id="path944" /><path
     d="m 281.463,385.159 c 0,0 3.104,4.877 2.663,7.196 -0.441,2.319 -2.369,2.399 -2.369,2.399 0,0 -0.421,-5.538 -2.013,-7.534 -1.592,-1.995 1.719,-2.061 1.719,-2.061"
     style="fill:#e9b79c;fill-opacity:1;fill-rule:nonzero;stroke:none;stroke-width:0.1"
     id="path946" /><path
     d="m 277.683,387.614 -0.563,0.238 c -0.616,0.258 -1.273,0.421 -1.824,0.818 -0.258,0.185 -0.484,0.424 -0.617,0.712 -0.078,0.17 -0.123,0.352 -0.159,0.535 l -0.108,0.173 -0.153,-0.086 c -0.08,-0.14 -0.04,-0.313 -0.05,-0.472 -0.007,-0.1 -0.027,-0.276 -0.114,-0.343 l -0.314,-0.005 c -0.284,0.091 -0.537,0.254 -0.782,0.42 -0.198,0.135 -0.398,0.33 -0.599,0.094 -0.075,-0.087 -0.163,-0.113 -0.259,-0.168 l -0.104,-0.112 -0.007,-0.073 -0.041,-0.156 -0.041,-0.1 0.048,-0.126 0.252,-0.243 c 0.105,-0.088 0.196,-0.193 0.308,-0.274 0.092,-0.066 0.191,-0.111 0.283,-0.18 0.405,-0.3 1.375,-0.803 1.414,-0.822 0.333,-0.16 1.235,-0.469 1.569,-0.533 0.336,-0.065 1.861,0.703 1.861,0.703"
     style="fill:#e9b79c;fill-opacity:1;fill-rule:nonzero;stroke:none;stroke-width:0.1"
     id="path948" /><path
     d="m 280.574,384.945 c -1.887,0.045 -6.321,2.499 -6.321,2.499 l 1.233,0.801 5.924,-1.063 c 0,0 1.05,-2.282 -0.836,-2.237"
     style="fill:#e9b79c;fill-opacity:1;fill-rule:nonzero;stroke:none;stroke-width:0.1"
     id="path950" /><path
     d="m 284.428,389.846 c 0,0 0.131,-0.759 -0.375,-0.721 -0.506,0.038 -0.509,0.467 -0.509,0.467 0,0 -0.19,-0.496 -0.692,-0.258 -0.353,0.167 -0.197,0.548 -0.197,0.548 0,0 -0.123,-0.48 -0.66,-0.303 -0.361,0.119 -0.201,0.575 -0.201,0.575 0,0 -0.103,-0.548 -0.571,-0.382 -0.467,0.166 -0.081,0.687 -0.081,0.687 0,0 -0.33,-0.53 -0.735,-0.342 -0.404,0.188 0.245,0.771 0.245,0.771 l 3.776,-1.042"
     style="fill:#fbfcfb;fill-opacity:1;fill-rule:nonzero;stroke:none;stroke-width:0.1"
     id="path952" /><path
     d="m 284.431,389.749 c 0,0 1.726,5.422 -0.648,6.176 -2.683,0.853 -3.381,-5.32 -3.381,-5.32 0,0 2.425,-1.324 4.029,-0.856"
     style="fill:#3f8fd8;fill-opacity:1;fill-rule:nonzero;stroke:none;stroke-width:0.1"
     id="path954" /><path
     d="m 281.775,404.272 c -1.451,-1.191 -1.274,-2.904 -0.808,-3.488 1.035,-1.297 0.784,-2.654 1.699,-3.69 1.098,-1.244 2.172,-1.804 2.511,-2.549 0.395,-0.871 0.082,-3.137 0.686,-3.879 0.602,-0.74 1.8,-0.508 2.598,-1.706 0.535,-0.803 1.336,-1.263 2.298,-1.192 0.963,0.07 2.175,0.753 2.708,1.557 0.267,0.404 0.443,0.886 0.391,1.367 -0.057,0.524 -0.369,0.978 -0.637,1.43 -0.45,0.76 -0.126,1.869 -0.372,2.718 -0.263,0.908 -1.435,1.428 -1.766,2.314 -0.497,1.332 -0.613,2.613 -1.944,3.669 -1.036,0.821 -1.758,2.131 -2.81,3.018 -1.16,0.978 -2.87,1.813 -4.554,0.431"
     style="fill:#282738;fill-opacity:1;fill-rule:nonzero;stroke:none;stroke-width:0.1"
     id="path956" /><path
     d="m 273.725,384.988 1.27,-2.804 -1.686,-0.113 3.992,-5.041 -1.949,4.302 1.571,0.134 -3.198,3.522"
     style="fill:#ffd500;fill-opacity:1;fill-rule:nonzero;stroke:none;stroke-width:0.1"
     id="path958" /><g
     id="g6903"
     transform="translate(528.11354,83.700374)"><path
       d="m 0.998006,313.59577 c 2.2203,-4.282 0.9121,-9.365 -2.9223,-11.354 -3.8347,-1.988 -8.7433,-0.129 -10.9636,4.152 -2.2207,4.282 -2.7746,12.05 1.0597,14.039 3.8344,1.989 10.6059,-2.556 12.8262,-6.837"
       style="fill:#e7f4fa;fill-opacity:1;fill-rule:nonzero;stroke:none;stroke-width:0.1"
       id="path960-4" /><path
       d="m -23.246094,272.56777 c -18.7696,-0.605 -37.0461,-3.69 -46.55551,12.724 -9.50937,16.414 -4.08359,37.329 12.11841,46.716 10.9398,6.338 42.1984,6.357 41.2183,-16.563 -0.8816,-20.616 11.5145,-12.492 14.6031,-17.824 9.5094,-16.414 0.4641,-24.349 -21.3843,-25.053"
       style="fill:#e7f4fa;fill-opacity:1;fill-rule:nonzero;stroke:none;stroke-width:0.1"
       id="path962-3" /><path
       d="m -61.130494,288.51377 c -0.0676,0.284 -1.6449,6.99 0.5558,9.663 0.6454,0.784 1.534,1.15 2.6415,1.11 1.2484,-0.053 2.6496,-0.406 4.1328,-0.779 4.9234,-1.242 10.5035,-2.647 14.7738,5.146 4.4293,8.084 8.2555,11.969 12.0402,12.225 2.5114,0.163 4.9547,-1.33 7.2668,-4.457 l -0.8039,-0.595 c -2.0965,2.836 -4.25,4.211 -6.3949,4.054 -3.3656,-0.228 -7.0395,-4.057 -11.2316,-11.707 -4.6411,-8.472 -10.8801,-6.9 -15.8946,-5.636 -1.4324,0.361 -2.7855,0.702 -3.9304,0.75 -0.7875,0.037 -1.3864,-0.21 -1.8278,-0.747 -1.5664,-1.902 -0.7875,-6.993 -0.3551,-8.794 l -0.9726,-0.233"
       style="fill:#6d76a1;fill-opacity:1;fill-rule:nonzero;stroke:none;stroke-width:0.1"
       id="path964-0" /><path
       d="m -44.089894,288.05177 c -0.0629,0.205 -1.5191,5.062 0.2692,7.396 0.6546,0.854 1.6328,1.278 2.916,1.224 0.8691,-0.029 1.7539,-0.117 2.6093,-0.203 4.2672,-0.427 8.6774,-0.867 13.35,5.828 4.2082,6.029 9.2457,9.678 13.8215,10.013 2.9453,0.214 5.5946,-0.907 7.8828,-3.337 l -0.7285,-0.686 c -2.0718,2.199 -4.4543,3.218 -7.0812,3.026 -4.2742,-0.313 -9.0395,-3.807 -13.0742,-9.588 -5.0079,-7.176 -9.927,-6.686 -14.2696,-6.251 -0.8785,0.088 -1.7078,0.17 -2.5433,0.199 -0.9465,0.022 -1.634,-0.241 -2.0883,-0.832 -1.4766,-1.926 -0.1211,-6.452 -0.1074,-6.497 l -0.9563,-0.292"
       style="fill:#6d76a1;fill-opacity:1;fill-rule:nonzero;stroke:none;stroke-width:0.1"
       id="path966-8" /><path
       d="m -27.930494,286.30477 c -0.0613,0.183 -1.4738,4.501 0.1719,6.712 0.6507,0.876 1.6586,1.3 3.0078,1.258 1.2336,-0.038 2.6285,-0.291 4.1054,-0.559 4.9571,-0.899 10.577,-1.918 14.8469,3.691 4.361,5.728 8.1141,8.523 11.8106,8.798 2.5531,0.182 5.0347,-0.886 7.4031,-3.193 l -0.6973,-0.716 c -2.1859,2.128 -4.3625,3.086 -6.6316,2.911 -3.3442,-0.248 -6.9715,-2.997 -11.0887,-8.405 -4.6426,-6.097 -10.841,-4.973 -15.8219,-4.07 -1.439,0.261 -2.7976,0.508 -3.9566,0.543 -1.0176,0.044 -1.7246,-0.249 -2.1762,-0.855 -1.1093,-1.492 -0.3945,-4.691 -0.0254,-5.799 l -0.948,-0.316"
       style="fill:#6d76a1;fill-opacity:1;fill-rule:nonzero;stroke:none;stroke-width:0.1"
       id="path968-7" /><path
       d="m -59.307894,286.46277 h -3.066 c -0.6363,0 -1.157,0.521 -1.157,1.157 v 2.02 c 0,0.637 0.5207,1.158 1.157,1.158 h 3.066 c 0.6364,0 1.1571,-0.521 1.1571,-1.158 v -2.02 c 0,-0.636 -0.5207,-1.157 -1.1571,-1.157"
       style="fill:#56a0fd;fill-opacity:1;fill-rule:nonzero;stroke:none;stroke-width:0.1"
       id="path970-5" /><path
       d="m -42.816794,286.46277 h -3.0664 c -0.6364,0 -1.1571,0.521 -1.1571,1.157 v 2.02 c 0,0.637 0.5207,1.158 1.1571,1.158 h 3.0664 c 0.6363,0 1.157,-0.521 1.157,-1.157 v -2.021 c 0,-0.636 -0.5207,-1.157 -1.157,-1.157"
       style="fill:#56a0fd;fill-opacity:1;fill-rule:nonzero;stroke:none;stroke-width:0.1"
       id="path972-7" /><path
       d="m -25.691794,286.46277 h -3.0664 c -0.6364,0 -1.1571,0.521 -1.1571,1.157 v 2.02 c 0,0.637 0.5207,1.158 1.1571,1.158 h 3.0664 c 0.6363,0 1.157,-0.521 1.157,-1.158 v -2.02 c 0,-0.636 -0.5207,-1.157 -1.157,-1.157"
       style="fill:#56a0fd;fill-opacity:1;fill-rule:nonzero;stroke:none;stroke-width:0.1"
       id="path974-9" /><path
       d="m -57.758994,279.32777 h -5.8836 c -1.3656,0 -2.4832,1.117 -2.4832,2.483 v 4.336 c 0,1.366 1.1176,2.483 2.4832,2.483 h 5.8836 c 1.366,0 2.4832,-1.117 2.4832,-2.483 v -4.336 c 0,-1.365 -1.1172,-2.483 -2.4832,-2.483"
       style="fill:#dc4851;fill-opacity:1;fill-rule:nonzero;stroke:none;stroke-width:0.1"
       id="path976-2" /><path
       d="m -41.268394,279.32777 h -5.8832 c -1.366,0 -2.4836,1.117 -2.4836,2.483 v 4.336 c 0,1.366 1.1176,2.483 2.4836,2.483 h 5.8832 c 1.366,0 2.4836,-1.117 2.4836,-2.483 v -4.336 c 0,-1.365 -1.1176,-2.483 -2.4836,-2.483"
       style="fill:#dc4851;fill-opacity:1;fill-rule:nonzero;stroke:none;stroke-width:0.1"
       id="path978-3" /><path
       d="m -24.143394,279.32777 h -5.8832 c -1.3656,0 -2.4836,1.117 -2.4836,2.483 v 4.336 c 0,1.366 1.118,2.483 2.4836,2.483 h 5.8832 c 1.366,0 2.4836,-1.117 2.4836,-2.483 v -4.336 c 0,-1.365 -1.1176,-2.483 -2.4836,-2.483"
       style="fill:#dc4851;fill-opacity:1;fill-rule:nonzero;stroke:none;stroke-width:0.1"
       id="path980-8" /><path
       d="m -16.186394,280.59577 h -0.9937 v 1.026 c 0,1.265 -1.0356,2.3 -2.3008,2.3 h -49.83438 c -1.26562,0 -2.30078,-1.035 -2.30078,-2.3 v -9.433 h 54.43596 v 2.771 h 0.9937 c 0.8278,0 1.5051,0.677 1.5051,1.505 v 2.626 c 0,0.828 -0.6773,1.505 -1.5051,1.505"
       style="fill:#56a0fd;fill-opacity:1;fill-rule:nonzero;stroke:none;stroke-width:0.1"
       id="path982-0" /><path
       d="m -31.934394,272.18877 h -14.9488 v 0 h 14.9488 v 0 m 14.7543,9.433 c 0,0.004 0,0.008 0,0.012 0,-0.004 0,-0.008 0,-0.012 m -4e-4,0.018 c 0,10e-4 0,0.003 0,0.004 0,-0.001 0,-0.003 0,-0.004"
       style="fill:#e1f1f9;fill-opacity:1;fill-rule:nonzero;stroke:none;stroke-width:0.1"
       id="path984-0" /><path
       d="m -17.180094,272.18877 h -54.43596 v 4.77 c 5.96756,-1.669 13.09066,-2.642 20.74806,-2.642 14.3828,0 26.8973,3.422 33.3586,8.469 0.2004,-0.337 0.3246,-0.724 0.3289,-1.142 0,-0.001 0,-0.003 0,-0.004 0,-0.002 4e-4,-0.004 4e-4,-0.006 0,-0.004 0,-0.008 0,-0.012 v 0 -1.026 h 0.9937 c 0.8278,0 1.5051,-0.677 1.5051,-1.505 v -2.626 c 0,-0.828 -0.6773,-1.505 -1.5051,-1.505 h -0.9937 v -2.771"
       style="fill:#428afd;fill-opacity:1;fill-rule:nonzero;stroke:none;stroke-width:0.1"
       id="path986-4" /><path
       d="m -66.125794,283.97877 h 10.85 v 1.23008 h -10.85 z"
       style="fill:#c92025;fill-opacity:1;fill-rule:nonzero;stroke:none;stroke-width:0.1"
       id="path988-0" /><path
       d="m -49.635194,283.97877 h 10.8504 v 1.23008 h -10.8504 z"
       style="fill:#c92025;fill-opacity:1;fill-rule:nonzero;stroke:none;stroke-width:0.1"
       id="path990-4" /><path
       d="m -32.510194,283.97877 h 10.8504 v 1.23008 h -10.8504 z"
       style="fill:#c92025;fill-opacity:1;fill-rule:nonzero;stroke:none;stroke-width:0.1"
       id="path992-1" /><path
       d="m -22.763294,272.19377 c 0,0 8.6261,5.02 9.9433,6.612 1.0235,1.237 2.418,4.12 -0.7281,6.083 -3.1695,1.977 -15.8043,-8.502 -14.7242,-12.9 0.9797,-3.989 5.509,0.205 5.509,0.205"
       style="fill:#9c67d3;fill-opacity:1;fill-rule:nonzero;stroke:none;stroke-width:0.1"
       id="path994-8" /><path
       d="m -21.441394,285.40077 c -0.2528,-0.289 -1.9946,-4.117 -3.2668,-4.239 -0.9223,-0.089 -1.9204,2.675 -1.9204,2.675 0,0 1.2543,-0.134 2.336,3.131 0.9109,2.751 2.8512,-1.567 2.8512,-1.567"
       style="fill:#7c4930;fill-opacity:1;fill-rule:nonzero;stroke:none;stroke-width:0.1"
       id="path996-6" /><path
       d="m -24.672294,283.66577 -5.4723,0.538 c -0.1207,0.029 -0.2394,0.063 -0.3519,0.126 -0.177,0.099 -0.3567,0.197 -0.5395,0.287 -0.3715,0.181 -0.7629,0.337 -1.1711,0.414 -0.3086,0.058 -0.6265,0.031 -0.9383,-0.007 -0.5472,-0.066 -1.0906,-0.162 -1.6269,-0.288 -0.1785,-0.042 -0.5129,-0.062 -0.6563,-0.186 -0.1429,-0.123 -0.08,-0.339 0.068,-0.428 0.0906,-0.055 0.1984,-0.072 0.3031,-0.088 0.386,-0.059 0.7739,-0.121 1.1625,-0.16 0.3043,-0.029 0.5325,0.021 0.8282,-0.121 l 0.1125,-0.079 v -0.126 l -0.0829,-0.032 c -0.1859,-0.034 -0.514,-0.162 -0.6308,-0.321 -0.1531,-0.207 0.1754,-0.343 0.35,-0.347 0.182,-0.005 0.357,0.064 0.5262,0.131 0.1765,0.071 0.3531,0.142 0.5296,0.213 0.1481,0.059 0.2985,0.119 0.4571,0.135 0.2496,0.026 0.4316,-0.068 0.648,-0.168 0.261,-0.121 0.5137,-0.263 0.7684,-0.396 0.375,-0.196 0.7418,-0.374 1.1367,-0.528 0.4113,-0.161 0.8266,-0.312 1.2457,-0.45 0.8613,-0.283 1.7609,-0.539 2.6707,-0.589 0.0981,-0.006 0.1957,-0.008 0.2942,-0.007 2.0707,0.028 0.3691,2.477 0.3691,2.477"
       style="fill:#7c4930;fill-opacity:1;fill-rule:nonzero;stroke:none;stroke-width:0.1"
       id="path998-5" /><path
       d="m -23.758194,291.72577 c 0.6628,1.755 3.2261,2.802 4.4296,2.353 0.6555,-0.244 0.3278,-1.728 0.3372,-2.658 0.016,-1.634 -1.025,-4.344 -2.9434,-6.758 -0.7024,-0.884 -3.5434,-0.424 -3.2758,1.489 0.3516,2.512 0.7281,3.657 1.4524,5.574"
       style="fill:#d3841c;fill-opacity:1;fill-rule:nonzero;stroke:none;stroke-width:0.1"
       id="path1000-2" /><path
       d="m -22.784394,292.87577 c 0.9879,1.688 6.8859,3.204 8.568,1.491 0,0 0.6386,-1.26 1.0625,-2.338 -0.1875,-1.14 -0.7911,-2.315 -0.7086,-3.18 0.4296,-4.5 3.5492,-3.647 3.5144,-4.728 -0.0625,-1.94 -3.9641,-3.766 -6.9133,-3.776 -1.0445,-0.003 -3.6644,1.535 -3.5363,2.068 1.123,4.673 -1.8891,2.617 -2.232,4.838 -0.1852,1.198 -0.15,4.949 0.2453,5.625"
       style="fill:#e79e30;fill-opacity:1;fill-rule:nonzero;stroke:none;stroke-width:0.1"
       id="path1002-0" /><path
       d="m -21.180894,297.07577 c 0,0 1.0879,-2.178 0.3195,-2.535 -1.648,-0.766 -2.8566,-0.395 -3.3902,1.019 -0.534,1.415 -0.1129,4.791 1.0242,6.003 1.1375,1.212 2.1016,0.013 2.1016,0.013 0,0 -3.0434,-1.948 -0.0551,-4.5"
       style="fill:#282738;fill-opacity:1;fill-rule:nonzero;stroke:none;stroke-width:0.1"
       id="path1004-1" /><path
       d="m -18.974694,298.86177 c 0,0 -2.6949,-1.427 -2.43,-1.649 0.2648,-0.222 0.1597,-0.888 0.3379,-1.437 0.1914,-0.596 0.0554,-1.342 -0.2098,-2.1 -0.1856,-0.531 0.3519,-0.863 0.9078,-0.796 2.3949,0.288 3.7469,1.639 3.0145,2.223 -1.4196,1.131 -1.6204,3.759 -1.6204,3.759"
       style="fill:#7c4930;fill-opacity:1;fill-rule:nonzero;stroke:none;stroke-width:0.1"
       id="path1006-2" /><path
       d="m -21.066794,295.77577 c -0.1782,0.549 -0.0731,1.215 -0.3379,1.437 -0.2649,0.222 2.43,1.649 2.43,1.649 0,0 -0.2246,-0.699 -0.0167,-1.591 -0.7797,-1.136 -1.3133,-1.6 -2.0145,-2.242 0.0203,0.275 0.0082,0.532 -0.0609,0.747"
       style="fill:#56301b;fill-opacity:1;fill-rule:nonzero;stroke:none;stroke-width:0.1"
       id="path1008-4" /><path
       d="m -22.339094,301.93277 c -0.8043,-1.055 -2.0754,-4.924 -0.0012,-6.28 0.8864,-0.579 2.8934,0.817 3.7414,2.761 0.3496,0.798 0.1168,2.404 -0.8015,3.675 -0.4133,0.576 -2.0176,1.079 -2.9387,-0.156"
       style="fill:#7c4930;fill-opacity:1;fill-rule:nonzero;stroke:none;stroke-width:0.1"
       id="path1010-7" /><path
       d="m -23.381694,299.85177 c 0.2531,-0.319 0.0113,0.521 0.7891,1.002 0.0945,0.059 0.2047,0.102 0.3105,0.14 0.0891,0.033 0.1848,0.057 0.2801,0.054 0.207,-0.007 0.3356,-0.161 0.3984,-0.347 0.1364,-0.405 0.4125,-0.676 0.7422,-0.931 0.3598,-0.28 0.6789,-0.572 0.8793,-0.992 0.059,-0.124 0.0922,-0.247 0.1789,-0.352 0.1067,-0.128 0.184,-0.28 0.225,-0.443 0.0395,-0.158 0.0442,-0.322 0.0711,-0.482 0.0414,-0.242 0.1309,-0.388 0.3407,-0.498 0.0835,-0.045 0.1726,-0.079 0.264,-0.103 0.1891,-0.051 0.3895,-0.06 0.5813,-0.024 0.4464,0.084 0.7867,0.407 0.9429,0.83 0.2664,0.723 0.0672,1.569 -0.1718,2.271 -0.17,0.497 -0.3887,0.978 -0.6313,1.443 -0.2258,0.432 -0.5766,0.769 -1.009,0.999 -0.5676,0.302 -1.2398,0.401 -1.8715,0.33 -0.3218,-0.037 -0.6406,-0.116 -0.939,-0.245 -2.1512,-0.93 -1.5813,-2.402 -1.3809,-2.652"
       style="fill:#282738;fill-opacity:1;fill-rule:nonzero;stroke:none;stroke-width:0.1"
       id="path1012-1" /><path
       d="m -19.507094,297.50077 c 0,0 0.1621,-2.259 1.0098,-2.231 0.8473,0.028 2.4055,0.386 2.4016,1.897 -0.0043,1.511 -1.6,4.52 -3.0946,5.252 -1.4945,0.732 -1.9695,-0.73 -1.9695,-0.73 0,0 3.5391,-0.747 1.6527,-4.188"
       style="fill:#282738;fill-opacity:1;fill-rule:nonzero;stroke:none;stroke-width:0.1"
       id="path1014-4" /><path
       d="m -19.944994,298.28377 c 0,0 0.6516,0.936 1.1536,0.829 0.5035,-0.109 0.1574,-1.526 -0.8188,-1.57 -0.9738,-0.045 -0.541,0.481 -0.3348,0.741"
       style="fill:#7c4930;fill-opacity:1;fill-rule:nonzero;stroke:none;stroke-width:0.1"
       id="path1016-4" /><path
       d="m -19.023894,297.68577 c 0.0547,-0.185 -0.0508,-0.38 -0.2359,-0.435 -0.1852,-0.054 -0.3797,0.051 -0.4344,0.236 -0.0551,0.185 0.0504,0.38 0.2356,0.435 0.1851,0.055 0.38,-0.051 0.4347,-0.236"
       style="fill:#e8d04b;fill-opacity:1;fill-rule:nonzero;stroke:none;stroke-width:0.1"
       id="path1018-6" /><path
       d="m -23.114494,286.81577 c 0.2426,-0.338 0.6313,-0.606 1.0316,-0.712 0.927,-0.247 1.7227,0.385 2.3129,1.025 0.1141,0.124 -0.098,0.277 -0.2109,0.155 -0.7918,-0.86 -2.1047,-1.453 -2.9309,-0.303 -0.098,0.137 -0.3007,-0.028 -0.2027,-0.165"
       style="fill:#d3841c;fill-opacity:1;fill-rule:nonzero;stroke:none;stroke-width:0.1"
       id="path1020-2" /><path
       d="m -19.206694,287.32677 c 1.3414,-0.814 2.7883,-0.407 3.4949,0.987 0.0762,0.15 -0.1675,0.245 -0.2433,0.096 -0.6281,-1.239 -1.9184,-1.588 -3.0969,-0.872 -0.143,0.086 -0.2984,-0.124 -0.1547,-0.211"
       style="fill:#d3841c;fill-opacity:1;fill-rule:nonzero;stroke:none;stroke-width:0.1"
       id="path1022-1" /><path
       d="m -10.419594,273.89977 c 0,0 1.9645,0.625 3.1668,-0.351 1.2024,-0.977 1.6383,-1.605 1.6914,-2.955 0.0235,-0.593 -0.8222,0.03 -1.5886,0.682 -1.9383,1.649 -3.2141,0.909 -3.2141,0.909 l -0.0555,1.715"
       style="fill:#7c4930;fill-opacity:1;fill-rule:nonzero;stroke:none;stroke-width:0.1"
       id="path1024-2" /><path
       d="m -8.988694,274.09577 c 0,0 3.2945,-1.976 2.2898,-3.197 0,0 0.6672,-0.95 1.15,-0.519 0.4832,0.431 0.0125,1.761 -0.748,2.527 -1.1348,1.144 -1.0215,1.005 -1.2461,1.155 -0.8535,0.568 -1.4457,0.034 -1.4457,0.034"
       style="fill:#282738;fill-opacity:1;fill-rule:nonzero;stroke:none;stroke-width:0.1"
       id="path1026-4" /><path
       d="m -9.638294,273.43177 c 0.4316,-0.901 -0.1399,-1.966 -1.1156,-2.18 -3.3758,-0.738 -15.1368,-2.035 -16.5829,-0.622 -2.2203,2.169 -0.475,4.735 3.35,4.871 2.4793,0.088 10.7192,-1.017 13.0079,-1.155 0.555,-0.033 1.0519,-0.353 1.3074,-0.847 l 0.0332,-0.067"
       style="fill:#9c67d3;fill-opacity:1;fill-rule:nonzero;stroke:none;stroke-width:0.1"
       id="path1028-5" /><path
       d="m -15.135594,270.92677 c 0,0 1.5406,-1.283 1.3695,-2.78 -0.1711,-1.497 -0.4578,-2.183 -1.5371,-2.933 -0.4742,-0.33 -0.4058,0.69 -0.2726,1.659 0.3375,2.452 -0.9364,3.111 -0.9364,3.111 l 1.3766,0.943"
       style="fill:#7c4930;fill-opacity:1;fill-rule:nonzero;stroke:none;stroke-width:0.1"
       id="path1030-9" /><path
       d="m -14.226194,269.85577 c 0,0 0.1047,-3.735 -1.4219,-3.55 0,0 -0.4301,-1.044 0.1762,-1.214 0.6058,-0.171 1.4496,0.911 1.6801,1.936 0.3441,1.529 0.2886,1.363 0.2937,1.625 0.0199,0.997 -0.7281,1.203 -0.7281,1.203"
       style="fill:#282738;fill-opacity:1;fill-rule:nonzero;stroke:none;stroke-width:0.1"
       id="path1032-7" /><path
       d="m -24.187894,278.44577 c 0,0 8.5172,-0.702 10.4351,-0.745 3.1996,-0.072 5.0313,3.649 2.4696,6.086 -0.8637,0.821 -16.1293,1.897 -17.1016,-1.376 -1.0566,-3.559 4.1969,-3.965 4.1969,-3.965"
       style="fill:#af75e1;fill-opacity:1;fill-rule:nonzero;stroke:none;stroke-width:0.1"
       id="path1034-3" /><path
       d="m -14.516394,270.70077 c -0.3071,-0.921 -1.427,-1.28 -2.2536,-0.77 -2.8593,1.766 -11.9597,8.808 -12.016,10.774 -0.0859,3.017 2.868,3.631 5.6352,1.141 1.7926,-1.614 6.8078,-7.956 8.3148,-9.599 0.3656,-0.399 0.4973,-0.958 0.3414,-1.476 l -0.0218,-0.07"
       style="fill:#af75e1;fill-opacity:1;fill-rule:nonzero;stroke:none;stroke-width:0.1"
       id="path1036-3" /><path
       d="m -11.809394,288.49077 c 0.1492,-0.343 3.0086,-4.208 2.5754,-5.384 -0.3141,-0.851 -3.1946,-0.592 -3.1946,-0.592 0,0 -0.4863,2.439 -1.6671,3.969 -1.7278,2.238 2.2863,2.007 2.2863,2.007"
       style="fill:#7c4930;fill-opacity:1;fill-rule:nonzero;stroke:none;stroke-width:0.1"
       id="path1038-5" /><path
       d="m -9.980094,282.62277 c -2.0024,-0.56 -8.1953,0.164 -8.1953,0.164 l 0.8308,1.295 7.0508,1.027 c 0,0 2.3152,-1.924 0.3137,-2.486"
       style="fill:#7c4930;fill-opacity:1;fill-rule:nonzero;stroke:none;stroke-width:0.1"
       id="path1040-4" /><path
       d="m -17.629294,284.19077 c -0.1211,0.095 -0.1899,0.24 -0.2793,0.37 -0.1676,0.244 -0.4059,0.423 -0.6434,0.594 -0.132,0.095 -0.298,0.451 -0.4992,0.392 -0.3293,-0.099 0.1078,-0.616 0.1613,-0.76 0.0492,-0.133 0.0391,-0.304 -0.075,-0.389 -0.075,-0.055 -0.1754,-0.059 -0.2687,-0.056 -0.2973,0.009 -0.5899,0.066 -0.8844,0.106 -0.1531,0.021 -0.3055,0.031 -0.4594,0.042 -0.1144,0.008 -0.2652,0.065 -0.3762,0.043 -0.0882,-0.016 -0.1679,-0.111 -0.1281,-0.203 l 0.1965,-0.086 c 0.1652,-0.043 0.3297,-0.089 0.4934,-0.138 l 0.2226,-0.074 c 0.0766,-0.188 -0.3812,-0.127 -0.4539,-0.121 -0.1836,0.016 -0.3758,0.026 -0.543,-0.069 l -0.0476,-0.055 0.0746,-0.081 c 0.2191,-0.082 0.4629,-0.082 0.6801,-0.17 l 0.0789,-0.075 c 0.0164,-0.152 -0.2895,-0.175 -0.3891,-0.191 l -0.1543,-0.091 0.0512,-0.106 0.118,-0.038 c 0.1207,-0.022 0.2449,-0.055 0.3671,-0.061 l 0.2477,-0.077 -0.0152,-0.044 -0.1532,-0.077 -0.1183,-0.113 0.1402,-0.141 c 0.2457,-0.078 0.5199,-0.068 0.775,-0.07 0.2727,-0.003 0.5453,0.007 0.8176,0.03 0.341,0.027 0.677,0.08 1.0133,0.14 0.2582,0.047 0.5734,0.029 0.8172,0.118 0.1808,0.066 0.3019,0.244 0.35,0.431 0.0465,0.183 0.0406,0.372 0.0683,0.558 0.0168,0.114 0.0348,0.206 -0.0554,0.285 -0.1071,0.093 -0.9215,0.076 -1.0028,0.106 l -0.1265,0.071"
       style="fill:#7c4930;fill-opacity:1;fill-rule:nonzero;stroke:none;stroke-width:0.1"
       id="path1042-5" /><path
       d="m -16.483594,291.28477 c -0.4891,1.365 -0.4453,2.837 0.7039,3.317 0.6519,0.273 1.9648,-0.265 2.5625,-0.976 1.1488,-1.366 2.5718,-3.592 2.8504,-6.652 0.1023,-1.121 -2.2934,-2.762 -3.4301,-1.204 -1.4922,2.044 -1.9981,3.593 -2.6867,5.515"
       style="fill:#d3841c;fill-opacity:1;fill-rule:nonzero;stroke:none;stroke-width:0.1"
       id="path1044-6" /><path
       d="m -20.879694,298.61077 -0.0289,-0.027 -0.1043,-0.073 c -0.1485,-0.073 -0.2575,0.001 -0.3446,0.117 l -0.1109,-0.095 c 0.1926,-0.257 0.4977,-0.237 0.7094,0 l -0.1207,0.078"
       style="fill:#201714;fill-opacity:1;fill-rule:nonzero;stroke:none;stroke-width:0.1"
       id="path1046-1" /><path
       d="m -22.503594,298.56977 -0.0957,-0.134 c -0.1254,-0.123 -0.2457,-0.063 -0.3519,0.05 l -0.1113,-0.095 c 0.1253,-0.133 0.2961,-0.231 0.4781,-0.123 0.098,0.059 0.1715,0.158 0.2191,0.257 l -0.1383,0.045"
       style="fill:#201714;fill-opacity:1;fill-rule:nonzero;stroke:none;stroke-width:0.1"
       id="path1048-5" /><path
       d="m -23.015694,299.27377 c 0.2067,0.132 0.4285,0.088 0.591,-0.093 l 0.1231,0.127 c -0.2145,0.239 -0.5289,0.294 -0.8051,0.117 -0.0957,-0.061 -0.0047,-0.212 0.091,-0.151"
       style="fill:#56301b;fill-opacity:1;fill-rule:nonzero;stroke:none;stroke-width:0.1"
       id="path1050-2" /><path
       d="m -21.484794,299.22777 c 0.1633,0.183 0.3891,0.2 0.5941,0.07 0.0961,-0.061 0.1797,0.095 0.084,0.155 -0.2711,0.172 -0.5887,0.14 -0.8066,-0.105 l 0.1285,-0.12"
       style="fill:#56301b;fill-opacity:1;fill-rule:nonzero;stroke:none;stroke-width:0.1"
       id="path1052-8" /><path
       d="m -22.037494,298.88777 c 0.0851,-0.138 0.1535,-0.305 0.1488,-0.467 -0.0063,-0.237 -0.2277,-0.4 -0.3152,-0.617 -0.1208,-0.298 0.1039,-0.397 0.4281,-0.402 l 0.0105,0.102 c -0.7269,0.011 -0.032,0.569 -0.0043,0.879 0.0176,0.194 -0.0558,0.393 -0.1578,0.557 l -0.1101,-0.052"
       style="fill:#56301b;fill-opacity:1;fill-rule:nonzero;stroke:none;stroke-width:0.1"
       id="path1054-5" /><path
       d="m -22.134394,296.85177 c 0,0 0.2062,0.416 0.5379,0.222 0.3316,-0.194 0.1566,-0.573 0.1566,-0.573 l -0.6945,0.351"
       style="fill:#faffff;fill-opacity:1;fill-rule:nonzero;stroke:none;stroke-width:0.1"
       id="path1056-3" /><path
       d="m -20.255094,297.66377 c -0.0121,-0.189 -0.1746,-0.332 -0.3633,-0.32 -0.1887,0.012 -0.332,0.175 -0.3203,0.363 0.0121,0.189 0.1746,0.332 0.3633,0.32 0.189,-0.012 0.332,-0.174 0.3203,-0.363"
       style="fill:#56301b;fill-opacity:1;fill-rule:nonzero;stroke:none;stroke-width:0.1"
       id="path1058-8" /><path
       d="m -23.116794,297.68377 c 0.1129,0.155 0.3296,0.188 0.4839,0.075 0.1543,-0.113 0.1879,-0.33 0.075,-0.484 -0.1132,-0.155 -0.33,-0.188 -0.4843,-0.075 -0.1543,0.113 -0.1879,0.33 -0.0746,0.484"
       style="fill:#56301b;fill-opacity:1;fill-rule:nonzero;stroke:none;stroke-width:0.1"
       id="path1060-5" /><path
       d="m -42.176194,302.13477 -1.3582,7.165 -3.4203,-2.079 0.8695,15.205 2.0824,-10.991 3.2266,1.882 -1.4,-11.182"
       style="fill:#ffd500;fill-opacity:1;fill-rule:nonzero;stroke:none;stroke-width:0.1"
       id="path1062-3" /><path
       d="m -49.726994,291.14477 -3.5637,8.363 4.984,0.219 -11.4472,15.144 5.4671,-12.827 -4.6472,-0.289 9.207,-10.61"
       style="fill:#ffd500;fill-opacity:1;fill-rule:nonzero;stroke:none;stroke-width:0.1"
       id="path1064-4" /><path
       d="m -43.027794,292.57477 6.7145,5.2 1.3777,-4.452 10.977,13.929 -10.2989,-7.977 -1.3609,4.132 -7.4094,-10.832"
       style="fill:#ffd500;fill-opacity:1;fill-rule:nonzero;stroke:none;stroke-width:0.1"
       id="path1066-0" /></g></g></svg>
