<?xml version="1.0" encoding="UTF-8"?>

<svg version="1.2" baseProfile="tiny" width="100mm" height="25mm" viewBox="0 0 10000 2500" preserveAspectRatio="xMidYMid" fill-rule="evenodd" stroke-width="28.222" stroke-linejoin="round" xmlns="http://www.w3.org/2000/svg" xmlns:xlink="http://www.w3.org/1999/xlink" xml:space="preserve">
 <g visibility="visible" id="MasterSlide_1_Domyślnie">
  <desc>Master slide
  </desc>
  <rect fill="none" stroke="none" x="0" y="0" width="10000" height="2500"/>
 </g>
 <g visibility="visible" id="Slide_1_page1">
  <g>
   <path fill="rgb(144,199,237)" stroke="none" d="M 921,838 C 956,838 985,867 985,902 985,936 956,965 921,965 886,965 858,936 858,902 858,867 886,838 921,838 Z M 921,1022 C 988,1022 1041,967 1041,902 1041,836 988,782 921,782 856,782 802,836 802,902 802,967 856,1022 921,1022 Z"/>
   <rect fill="none" stroke="none" x="801" y="782" width="241" height="241"/>
  </g>
  <g>
   <path fill="rgb(144,199,237)" stroke="none" d="M 1541,1842 C 1526,1846 1510,1838 1506,1823 L 1408,1485 C 1407,1485 1407,1485 1407,1485 L 1407,1484 C 1407,1483 1407,1483 1406,1483 1406,1482 1406,1482 1406,1481 L 1405,1480 1405,1479 C 1404,1478 1404,1478 1404,1478 1404,1477 1403,1477 1403,1477 1403,1476 1403,1476 1402,1476 1402,1475 1402,1475 1401,1475 1401,1474 1401,1474 1400,1473 1399,1472 1399,1472 1398,1472 1398,1471 1398,1471 1397,1471 1397,1471 1397,1470 1396,1470 1396,1470 1395,1470 1395,1469 L 1394,1469 C 1394,1468 1393,1468 1392,1468 1391,1467 1391,1467 1390,1467 L 1389,1467 C 1389,1466 1388,1466 1387,1466 L 1386,1466 1385,1466 C 1384,1466 1384,1466 1384,1465 1383,1465 1383,1465 1382,1465 L 1381,1465 1380,1465 C 1379,1465 1379,1465 1378,1465 L 1377,1466 C 1376,1466 1376,1466 1375,1466 L 1258,1489 1257,1489 C 1257,1490 1256,1490 1255,1490 L 1254,1490 1253,1491 C 1252,1491 1252,1491 1252,1491 1251,1492 1251,1492 1250,1492 L 1249,1493 1248,1493 C 1247,1494 1247,1494 1246,1495 1245,1496 1245,1496 1244,1497 1243,1498 1242,1498 1242,1499 1241,1499 1241,1500 1241,1500 1241,1501 1240,1501 1240,1501 1240,1502 1239,1502 1239,1503 L 1239,1504 C 1238,1504 1238,1505 1238,1505 L 1238,1506 C 1237,1507 1237,1507 1237,1507 1237,1508 1237,1508 1237,1509 1237,1509 1236,1509 1236,1510 L 1236,1511 C 1236,1512 1236,1512 1236,1512 1236,1513 1236,1513 1236,1514 L 1236,1515 C 1235,1515 1235,1516 1235,1517 L 1235,1518 C 1236,1518 1236,1519 1236,1519 1236,1520 1236,1521 1236,1522 1236,1523 1236,1523 1236,1524 1237,1524 1237,1525 1237,1525 1237,1526 1237,1527 1237,1527 1238,1527 1238,1528 1238,1528 1238,1528 1238,1529 1239,1529 1239,1530 1239,1530 1239,1530 1239,1531 1240,1531 1240,1532 L 1240,1533 C 1241,1533 1241,1533 1241,1534 1242,1534 1242,1534 1242,1535 L 1243,1536 1244,1536 1246,1539 1247,1539 C 1247,1540 1247,1540 1247,1540 1265,1556 1269,1581 1256,1601 L 1115,1829 C 1107,1843 1090,1846 1077,1838 1064,1829 1060,1812 1068,1799 L 1193,1597 1194,1597 C 1194,1596 1194,1596 1194,1595 1195,1595 1195,1595 1195,1594 L 1195,1593 C 1196,1593 1196,1592 1196,1592 1196,1591 1196,1591 1196,1591 1196,1590 1197,1590 1197,1589 L 1197,1588 1197,1587 C 1197,1586 1197,1586 1197,1585 L 1198,1584 C 1198,1583 1198,1583 1198,1583 1198,1582 1198,1582 1198,1581 L 1197,1580 C 1197,1579 1197,1579 1197,1579 1197,1578 1197,1578 1197,1577 L 1197,1576 C 1197,1575 1196,1575 1196,1574 L 1196,1573 C 1196,1573 1196,1572 1195,1572 L 1195,1571 C 1195,1570 1195,1570 1194,1570 1194,1569 1194,1569 1194,1568 1193,1568 1193,1568 1193,1567 L 1192,1566 C 1192,1566 1192,1565 1191,1565 1191,1565 1191,1564 1190,1564 L 1190,1563 C 1189,1563 1189,1562 1188,1562 L 1080,1466 C 1070,1457 1063,1447 1059,1435 L 973,1188 C 967,1170 951,1158 933,1158 915,1158 898,1169 892,1187 L 797,1433 C 793,1443 782,1447 772,1443 761,1439 756,1428 759,1419 L 859,1159 C 864,1146 875,1135 888,1131 L 1091,1059 C 1107,1053 1122,1044 1132,1033 1195,968 1229,883 1229,794 1230,782 1239,772 1250,772 1262,772 1271,782 1272,794 1272,898 1228,1000 1153,1072 1138,1087 1133,1109 1139,1129 L 1235,1402 C 1235,1403 1236,1405 1237,1406 1238,1408 1238,1409 1239,1411 1243,1423 1254,1430 1266,1430 1267,1430 1269,1430 1271,1430 L 1396,1405 C 1421,1400 1444,1414 1451,1438 L 1560,1807 C 1565,1822 1555,1838 1541,1842 Z M 1614,1792 L 1505,1423 C 1490,1371 1438,1340 1385,1350 L 1283,1371 1193,1112 C 1235,1070 1269,1022 1292,967 1316,912 1328,853 1328,793 L 1328,792 C 1327,750 1292,716 1250,716 1208,716 1174,750 1173,792 1173,793 1173,793 1173,793 1173,868 1145,940 1092,994 1087,999 1080,1003 1073,1006 L 869,1078 C 841,1088 818,1110 807,1139 L 707,1399 707,1400 C 693,1439 713,1480 752,1495 761,1499 770,1500 780,1500 809,1500 837,1483 849,1455 849,1454 849,1454 849,1454 L 932,1239 1006,1453 C 1013,1474 1026,1492 1043,1507 L 1133,1588 1020,1770 C 996,1809 1009,1861 1048,1886 1062,1894 1077,1898 1092,1898 1098,1898 1104,1898 1111,1896 1132,1891 1150,1878 1162,1859 L 1304,1631 C 1322,1601 1324,1566 1311,1536 L 1361,1526 1452,1840 1452,1841 C 1463,1876 1497,1899 1533,1899 1541,1899 1549,1898 1557,1896 1579,1889 1596,1875 1607,1856 1618,1837 1620,1813 1614,1792 Z"/>
   <rect fill="none" stroke="none" x="703" y="716" width="916" height="1184"/>
  </g>
  <g>
   <path fill="rgb(144,199,237)" stroke="none" d="M 966,1746 L 785,1620 C 774,1613 760,1616 753,1627 746,1638 748,1652 759,1659 L 940,1784 C 944,1787 948,1788 953,1788 960,1788 967,1785 972,1778 979,1768 976,1753 966,1746 Z"/>
   <rect fill="none" stroke="none" x="749" y="1615" width="228" height="174"/>
  </g>
  <g>
   <path fill="rgb(144,199,237)" stroke="none" d="M 952,1847 L 771,1721 C 760,1714 746,1716 739,1727 731,1737 734,1752 744,1759 L 925,1885 C 929,1887 934,1889 939,1889 946,1889 953,1885 957,1879 965,1868 962,1854 952,1847 Z"/>
   <rect fill="none" stroke="none" x="734" y="1716" width="229" height="175"/>
  </g>
  <g>
   <path fill="rgb(144,199,237)" stroke="none" d="M 3152,1779 C 3156,1771 3164,1766 3173,1765 L 3249,1755 C 3256,1755 3262,1756 3267,1759 L 3332,1799 C 3340,1804 3345,1813 3345,1823 L 3345,1846 3116,1846 3152,1779 Z M 3360,1754 L 3296,1714 C 3280,1705 3261,1701 3242,1703 L 3167,1713 C 3141,1716 3118,1731 3106,1754 L 3049,1860 C 3048,1862 3048,1863 3048,1864 3047,1865 3047,1866 3047,1866 3047,1867 3047,1867 3047,1867 3047,1868 3046,1868 3046,1869 L 3046,1870 C 3046,1871 3046,1871 3046,1871 3046,1872 3046,1873 3046,1874 3046,1875 3046,1876 3046,1876 3046,1877 3046,1877 3046,1877 3046,1878 3046,1878 3046,1879 3046,1880 3047,1880 3047,1881 3047,1882 3047,1883 3048,1883 L 3048,1884 C 3048,1884 3048,1885 3049,1885 3049,1886 3049,1886 3049,1886 3049,1887 3049,1887 3050,1887 3050,1888 3050,1888 3050,1888 3050,1889 3051,1889 3051,1889 3051,1890 3051,1890 3052,1890 3052,1891 3052,1891 3052,1891 3053,1891 3053,1892 3053,1892 3054,1892 3054,1893 3054,1893 L 3055,1894 C 3056,1895 3057,1895 3057,1896 3058,1896 3059,1896 3060,1897 3060,1897 3061,1898 3062,1898 3063,1898 3064,1899 3064,1899 3065,1899 3066,1899 3067,1899 L 3067,1900 C 3068,1900 3069,1900 3069,1900 L 3070,1900 C 3070,1900 3071,1900 3072,1900 L 3371,1900 C 3372,1900 3372,1900 3373,1900 3374,1900 3374,1900 3374,1900 3375,1900 3375,1900 3376,1900 3376,1899 3377,1899 3377,1899 L 3378,1899 C 3379,1899 3379,1899 3380,1899 3380,1898 3380,1898 3381,1898 3381,1898 3382,1898 3382,1897 L 3383,1897 C 3384,1897 3384,1896 3384,1896 3385,1896 3385,1896 3385,1896 3386,1895 3386,1895 3386,1895 3387,1895 3387,1894 3387,1894 3388,1894 3388,1894 3388,1893 3389,1893 3389,1893 3389,1892 L 3390,1892 C 3390,1891 3391,1891 3391,1891 3391,1890 3391,1890 3392,1890 3392,1889 3392,1889 3392,1889 3393,1888 3393,1888 3393,1888 3393,1887 3394,1887 3394,1886 L 3394,1885 3395,1884 3395,1883 3396,1882 C 3396,1881 3396,1881 3396,1880 L 3396,1879 C 3397,1879 3397,1878 3397,1878 3397,1877 3397,1877 3397,1877 3397,1876 3397,1876 3397,1875 L 3397,1874 3398,1824 C 3398,1795 3384,1770 3360,1754 Z"/>
   <rect fill="none" stroke="none" x="3046" y="1702" width="353" height="199"/>
  </g>
  <g>
   <path fill="rgb(144,199,237)" stroke="none" d="M 3328,902 C 3364,902 3394,931 3394,968 3394,1004 3364,1033 3328,1033 3292,1033 3263,1004 3263,968 3263,931 3292,902 3328,902 Z M 3328,1086 C 3393,1086 3446,1033 3446,968 3446,902 3393,848 3328,848 3263,848 3209,902 3209,968 3209,1033 3263,1086 3328,1086 Z"/>
   <rect fill="none" stroke="none" x="3208" y="847" width="239" height="240"/>
  </g>
  <g>
   <path fill="rgb(144,199,237)" stroke="none" d="M 3346,1279 L 3169,1203 C 3153,1196 3134,1197 3120,1207 L 2957,1315 C 2936,1328 2928,1355 2938,1377 L 3004,1527 C 3010,1541 3012,1556 3009,1571 L 2957,1817 C 2954,1832 2940,1841 2925,1838 2910,1835 2900,1820 2903,1805 L 2949,1587 C 2949,1586 2949,1586 2949,1585 2950,1585 2950,1585 2950,1584 L 2950,1583 C 2950,1582 2950,1582 2950,1582 2950,1581 2950,1581 2950,1580 L 2950,1579 2949,1578 C 2949,1577 2949,1577 2949,1576 L 2949,1575 2949,1574 C 2948,1574 2948,1573 2948,1573 2948,1572 2948,1572 2948,1571 L 2873,1402 C 2865,1384 2846,1374 2827,1378 2808,1382 2793,1398 2793,1418 L 2792,1487 C 2792,1489 2792,1490 2792,1492 2789,1522 2768,1547 2738,1555 2737,1555 2737,1555 2737,1555 L 2496,1614 C 2482,1616 2468,1607 2465,1593 2462,1578 2470,1563 2483,1559 L 2702,1507 C 2703,1507 2704,1506 2704,1506 L 2705,1506 C 2706,1506 2706,1505 2706,1505 2707,1505 2707,1505 2707,1505 2708,1505 2708,1504 2709,1504 L 2710,1503 2711,1503 2712,1502 2713,1501 2714,1500 2715,1500 C 2715,1499 2715,1499 2715,1499 2716,1498 2716,1498 2716,1498 2717,1497 2717,1497 2717,1497 2717,1496 2718,1496 2718,1496 2718,1495 2718,1495 2718,1495 2719,1494 2719,1494 2719,1493 L 2720,1492 2720,1491 C 2720,1491 2720,1490 2721,1490 L 2721,1489 C 2721,1488 2721,1488 2721,1488 2721,1487 2721,1487 2722,1486 L 2722,1485 2722,1484 C 2722,1483 2722,1483 2722,1482 L 2726,1315 C 2726,1283 2743,1254 2769,1237 L 2937,1126 C 2952,1117 2959,1098 2954,1080 2950,1063 2934,1050 2917,1050 L 2916,1050 2859,1047 C 2836,1046 2816,1034 2803,1016 L 2715,884 C 2709,875 2712,862 2721,856 2730,850 2743,852 2749,862 L 2838,995 C 2838,995 2838,996 2839,996 2839,997 2840,997 2840,998 L 2841,998 C 2842,999 2843,1001 2844,1001 2844,1002 2844,1002 2844,1002 2845,1002 2846,1003 2846,1003 2847,1003 2848,1004 2848,1004 L 2849,1004 C 2849,1005 2850,1005 2851,1005 2852,1005 2852,1006 2853,1006 2854,1006 2855,1006 2856,1006 2857,1007 2858,1007 2859,1007 L 3044,1015 C 3069,1016 3093,1027 3110,1046 L 3222,1167 C 3234,1180 3249,1191 3266,1198 L 3354,1237 3355,1237 3356,1237 C 3357,1238 3357,1238 3358,1238 L 3359,1238 C 3360,1238 3360,1238 3361,1239 L 3362,1239 C 3363,1239 3363,1239 3364,1239 3365,1239 3366,1239 3366,1239 3367,1239 3367,1239 3367,1239 3367,1239 3368,1239 3368,1238 3369,1238 3369,1238 3369,1238 3370,1238 3370,1238 3370,1238 3371,1238 3371,1238 3371,1238 3372,1238 3372,1238 3372,1238 3373,1237 3373,1237 3373,1237 3374,1237 3374,1237 3374,1237 3374,1237 3375,1237 3375,1236 L 3376,1236 3377,1236 C 3377,1235 3378,1235 3378,1235 L 3379,1235 C 3379,1234 3380,1234 3380,1233 L 3513,1132 C 3522,1125 3535,1126 3542,1135 3549,1144 3547,1158 3538,1165 L 3398,1272 C 3383,1283 3363,1286 3346,1279 Z M 3584,1103 C 3560,1072 3514,1066 3482,1090 L 3481,1090 3361,1182 3287,1150 C 3277,1146 3267,1139 3260,1132 L 3149,1011 C 3123,982 3085,964 3046,962 L 2874,955 2792,832 C 2770,799 2725,790 2692,812 2658,835 2649,880 2671,913 L 2759,1045 C 2781,1077 2818,1098 2857,1100 L 2881,1101 2740,1193 C 2699,1220 2674,1265 2673,1314 L 2670,1460 2470,1508 C 2469,1508 2469,1508 2469,1508 2469,1508 2468,1508 2468,1509 L 2467,1509 C 2427,1522 2404,1563 2414,1605 2422,1641 2455,1667 2492,1667 2496,1667 2501,1666 2505,1665 2506,1665 2506,1665 2507,1665 L 2749,1607 C 2750,1607 2750,1607 2750,1607 2805,1593 2844,1544 2845,1488 2845,1486 2845,1484 2844,1482 L 2845,1468 2896,1585 2852,1795 2851,1795 C 2843,1838 2871,1880 2914,1889 2920,1890 2925,1891 2931,1891 2967,1891 3000,1866 3008,1829 L 3008,1828 3060,1582 3060,1581 C 3066,1556 3063,1530 3052,1506 L 2987,1358 3148,1251 3325,1327 C 3338,1333 3352,1335 3366,1335 3389,1335 3411,1328 3430,1314 L 3570,1207 C 3570,1206 3570,1206 3570,1206 3602,1181 3608,1135 3584,1103 Z"/>
   <rect fill="none" stroke="none" x="2411" y="800" width="1189" height="1093"/>
  </g>
  <g>
   <path fill="rgb(144,199,237)" stroke="none" d="M 7010,1842 C 6994,1851 6975,1847 6965,1833 L 6781,1510 C 6780,1509 6780,1508 6780,1507 L 6760,1474 C 6757,1469 6754,1463 6750,1458 L 6700,1398 C 6680,1374 6674,1341 6683,1312 L 6733,1151 C 6739,1132 6731,1112 6715,1101 6698,1091 6677,1093 6663,1107 L 6473,1280 C 6464,1287 6451,1286 6443,1277 6434,1267 6434,1255 6442,1246 L 6642,1064 C 6682,1028 6738,1014 6790,1026 L 6919,1055 C 6933,1058 6943,1068 6948,1081 L 7002,1246 C 7003,1249 7004,1252 7006,1254 7011,1263 7020,1270 7030,1273 7031,1273 7031,1273 7031,1274 L 7117,1300 C 7128,1304 7134,1316 7130,1327 7127,1339 7115,1346 7103,1343 L 6987,1308 C 6978,1305 6972,1298 6969,1289 L 6952,1238 C 6945,1220 6929,1208 6911,1208 6892,1208 6876,1221 6870,1239 L 6823,1396 C 6816,1418 6819,1441 6829,1459 L 7023,1800 C 7030,1816 7024,1834 7010,1842 Z M 6485,1837 C 6474,1849 6454,1850 6441,1840 6428,1829 6423,1810 6431,1798 L 6685,1463 6708,1491 C 6710,1494 6712,1497 6715,1500 L 6726,1520 6485,1837 Z M 7070,1778 C 7070,1777 7070,1777 7070,1777 7070,1776 7070,1776 7069,1776 L 6875,1433 C 6872,1427 6871,1419 6873,1412 L 6873,1411 6912,1284 6919,1306 C 6927,1331 6947,1351 6971,1358 6972,1358 6972,1358 6972,1358 L 7089,1394 C 7090,1394 7090,1394 7090,1394 L 7091,1394 7092,1394 C 7097,1396 7103,1396 7108,1396 7141,1396 7171,1375 7181,1343 7192,1305 7173,1265 7136,1251 L 7135,1250 7134,1250 7050,1224 6998,1065 C 6988,1034 6963,1011 6931,1004 L 6802,973 C 6733,957 6659,976 6607,1025 L 6406,1208 6406,1209 6405,1209 C 6405,1209 6405,1210 6404,1210 6377,1239 6377,1282 6404,1312 6419,1329 6439,1337 6460,1337 6476,1337 6492,1332 6506,1321 L 6506,1320 C 6507,1320 6507,1320 6507,1320 6507,1319 6507,1319 6508,1319 L 6671,1170 6633,1296 C 6620,1338 6627,1384 6651,1420 L 6389,1767 C 6389,1767 6389,1768 6388,1768 6388,1769 6388,1769 6387,1769 6364,1805 6374,1855 6409,1882 6425,1893 6443,1899 6462,1899 6485,1899 6507,1890 6523,1873 6524,1873 6524,1873 6524,1873 L 6524,1872 C 6525,1872 6525,1871 6525,1871 6526,1871 6526,1871 6526,1870 L 6754,1569 6920,1861 6921,1862 C 6921,1863 6922,1863 6922,1863 L 6922,1864 C 6939,1887 6965,1899 6992,1899 7007,1899 7022,1896 7036,1888 7074,1866 7089,1819 7071,1778 L 7070,1778 Z"/>
   <rect fill="none" stroke="none" x="6375" y="967" width="811" height="933"/>
  </g>
  <g>
   <path fill="rgb(144,199,237)" stroke="none" d="M 6886,767 C 6922,767 6952,797 6952,833 6952,870 6922,899 6886,899 6848,899 6819,870 6819,833 6819,797 6848,767 6886,767 Z M 6886,953 C 6951,953 7005,899 7005,833 7005,768 6951,714 6886,714 6819,714 6766,768 6766,833 6766,899 6819,953 6886,953 Z"/>
   <rect fill="none" stroke="none" x="6765" y="713" width="241" height="241"/>
  </g>
  <g>
   <path fill="rgb(144,199,237)" stroke="none" d="M 7414,1377 L 7281,1377 7352,1333 C 7359,1329 7363,1321 7362,1313 7361,1305 7355,1298 7347,1296 L 7271,1272 7277,1158 C 7277,1150 7273,1143 7267,1139 7261,1135 7253,1135 7246,1139 L 7156,1188 C 7146,1194 7142,1206 7148,1216 7153,1226 7166,1230 7176,1224 L 7234,1193 7229,1286 C 7228,1295 7234,1304 7243,1307 L 7292,1322 7232,1359 C 7224,1364 7220,1374 7223,1384 L 7256,1470 7087,1450 C 7076,1449 7065,1457 7064,1468 7063,1480 7071,1490 7082,1491 L 7112,1495 7112,1873 C 7112,1887 7124,1899 7138,1899 7153,1899 7165,1887 7165,1873 L 7165,1501 7284,1514 C 7285,1515 7286,1515 7287,1515 7293,1515 7299,1512 7303,1507 7307,1501 7308,1494 7306,1487 L 7285,1430 7414,1430 C 7428,1430 7440,1418 7440,1403 7440,1389 7428,1377 7414,1377 Z"/>
   <rect fill="none" stroke="none" x="7064" y="1136" width="378" height="764"/>
  </g>
  <g>
   <path fill="rgb(144,199,237)" stroke="none" d="M 8549,887 C 8576,887 8599,909 8599,938 8599,965 8576,987 8549,987 8522,987 8499,965 8499,938 8499,909 8522,887 8549,887 Z M 8549,1040 C 8605,1040 8652,994 8652,938 8652,880 8605,834 8549,834 8493,834 8447,880 8447,938 8447,994 8493,1040 8549,1040 Z"/>
   <rect fill="none" stroke="none" x="8447" y="833" width="206" height="208"/>
  </g>
  <g>
   <path fill="rgb(144,199,237)" stroke="none" d="M 9204,1585 C 9201,1592 9194,1597 9186,1598 9178,1599 9171,1596 9166,1590 L 9033,1416 9032,1415 9031,1414 9030,1413 C 9030,1413 9029,1413 9029,1412 L 9028,1412 C 9028,1411 9027,1411 9027,1411 9027,1410 9026,1410 9026,1410 9026,1410 9025,1410 9025,1409 L 9024,1409 C 9023,1409 9023,1408 9023,1408 9022,1408 9022,1408 9021,1408 L 9020,1407 9019,1407 9018,1407 C 9017,1407 9017,1407 9017,1406 9016,1406 9016,1406 9015,1406 L 9014,1406 9013,1406 9012,1406 8840,1409 C 8824,1409 8809,1419 8802,1434 8795,1449 8798,1467 8809,1479 L 8906,1589 C 8916,1601 8921,1618 8917,1634 L 8875,1833 C 8872,1842 8861,1848 8850,1846 8840,1844 8831,1833 8832,1824 L 8872,1634 C 8872,1633 8872,1633 8872,1632 8873,1632 8873,1631 8873,1631 L 8873,1630 C 8873,1629 8873,1629 8873,1628 L 8873,1627 8873,1626 C 8872,1625 8872,1625 8872,1625 8872,1624 8872,1624 8872,1623 L 8872,1622 C 8872,1622 8872,1621 8871,1621 8871,1620 8871,1620 8871,1620 8871,1619 8871,1619 8871,1619 8870,1618 8870,1618 8870,1617 L 8870,1616 C 8869,1616 8869,1615 8869,1615 L 8868,1614 C 8868,1614 8868,1613 8867,1613 L 8867,1612 C 8866,1612 8866,1612 8866,1611 L 8782,1516 C 8770,1502 8755,1490 8739,1481 L 8728,1476 C 8708,1465 8692,1447 8683,1425 L 8604,1233 C 8599,1220 8588,1209 8574,1204 L 8399,1136 C 8389,1132 8380,1125 8374,1116 L 8289,992 C 8285,986 8287,978 8293,973 8299,969 8308,971 8312,977 L 8397,1100 8397,1101 C 8397,1101 8397,1102 8398,1102 L 8398,1103 C 8399,1103 8399,1104 8400,1104 8400,1105 8401,1105 8402,1106 8402,1107 8403,1107 8404,1107 L 8404,1108 C 8405,1108 8407,1109 8408,1110 L 8409,1110 8465,1132 C 8480,1138 8496,1141 8512,1141 8529,1141 8546,1137 8563,1131 L 8666,1088 C 8678,1083 8693,1082 8707,1084 L 8835,1102 8836,1103 C 8838,1103 8840,1103 8842,1103 8851,1103 8860,1100 8868,1094 L 8869,1094 C 8869,1093 8869,1093 8870,1093 L 8966,1011 C 8971,1006 8980,1007 8985,1012 8989,1018 8989,1027 8984,1032 L 8883,1117 C 8870,1128 8853,1133 8836,1131 L 8775,1121 C 8760,1119 8747,1124 8738,1135 8729,1146 8727,1161 8733,1174 8733,1175 8733,1175 8733,1175 L 8790,1315 C 8802,1345 8831,1364 8863,1364 L 8864,1364 9020,1362 C 9036,1361 9053,1369 9063,1382 L 9201,1564 C 9206,1570 9207,1578 9204,1585 Z M 9243,1532 L 9106,1351 C 9085,1324 9052,1308 9019,1309 L 8863,1312 C 8852,1312 8843,1305 8839,1295 L 8790,1177 8828,1183 8829,1183 C 8834,1184 8839,1184 8845,1184 8871,1184 8896,1175 8917,1158 L 9018,1071 C 9019,1071 9019,1071 9019,1071 9045,1047 9048,1005 9025,978 9002,951 8961,948 8933,970 L 8932,970 8839,1050 8715,1032 C 8691,1028 8667,1031 8646,1040 L 8543,1082 C 8524,1090 8503,1090 8484,1083 L 8435,1064 8355,947 C 8335,917 8293,909 8263,930 8233,951 8225,992 8245,1022 L 8331,1146 C 8343,1164 8360,1177 8380,1185 L 8555,1253 8556,1253 8634,1445 C 8648,1478 8672,1506 8703,1522 8704,1522 8704,1522 8704,1522 L 8714,1528 C 8725,1534 8735,1541 8743,1550 L 8818,1636 8780,1815 8780,1816 8780,1817 8780,1818 C 8776,1854 8802,1889 8840,1897 8845,1898 8850,1899 8856,1899 8887,1899 8916,1880 8926,1849 8926,1849 8926,1848 8926,1847 L 8969,1645 C 8976,1613 8967,1578 8945,1554 L 8863,1461 8999,1459 9124,1622 C 9138,1640 9160,1651 9183,1651 9187,1651 9190,1651 9193,1650 9219,1647 9242,1630 9252,1605 9263,1580 9259,1553 9243,1532 Z"/>
   <rect fill="none" stroke="none" x="8234" y="918" width="1026" height="982"/>
  </g>
  <g>
   <path fill="rgb(144,199,237)" stroke="none" d="M 9291,1088 L 9198,1010 9295,894 C 9300,887 9301,878 9297,871 9293,863 9284,859 9276,860 L 9152,879 9168,761 C 9169,753 9165,746 9158,741 9151,737 9143,737 9136,741 L 9019,815 8993,730 C 8991,723 8985,717 8978,716 8971,714 8964,716 8959,721 L 8881,799 8761,746 C 8753,742 8743,745 8737,751 8731,758 8730,768 8735,775 L 8825,927 C 8830,936 8843,940 8853,934 8862,928 8866,915 8860,906 L 8803,809 8878,842 C 8885,845 8895,844 8900,838 L 8964,774 8988,853 C 8990,860 8994,864 9000,867 9006,869 9013,868 9018,865 L 9121,800 9106,901 C 9105,907 9108,914 9113,918 9118,923 9124,925 9131,924 L 9228,909 9153,999 C 9149,1004 9148,1009 9148,1014 9149,1020 9151,1025 9155,1028 L 9233,1093 9100,1125 C 9089,1127 9082,1138 9085,1149 9087,1159 9095,1165 9105,1165 9106,1165 9108,1165 9110,1165 L 9282,1124 C 9290,1123 9296,1117 9298,1109 9299,1102 9297,1093 9291,1088 Z"/>
   <rect fill="none" stroke="none" x="8732" y="715" width="569" height="451"/>
  </g>
  <g>
   <path fill="rgb(144,199,237)" stroke="none" d="M 4990,1258 C 4958,1236 4914,1245 4891,1275 L 4812,1379 4812,1279 4939,1233 C 4950,1230 4956,1218 4952,1207 4948,1196 4936,1191 4925,1195 L 4801,1238 4841,1161 C 4845,1153 4843,1142 4836,1136 L 4734,1046 4793,1024 C 4803,1020 4809,1008 4805,997 L 4769,902 4826,940 C 4832,944 4840,944 4847,941 4853,938 4857,931 4858,924 L 4865,843 4910,917 C 4916,926 4929,929 4939,923 4949,917 4952,905 4946,895 L 4867,769 C 4862,761 4853,757 4845,759 4836,761 4830,769 4829,778 L 4820,886 4739,833 C 4732,828 4722,828 4715,834 4708,839 4706,849 4709,857 L 4759,993 4722,1007 4722,938 C 4722,912 4709,888 4687,875 4664,861 4636,861 4614,875 4599,884 4588,898 4583,914 4563,907 4541,909 4523,921 4501,935 4488,959 4488,984 L 4488,1001 C 4470,996 4449,999 4432,1010 4411,1023 4398,1047 4399,1073 L 4399,1316 C 4399,1319 4399,1321 4398,1324 4381,1453 4404,1591 4464,1722 4483,1763 4489,1813 4482,1871 4481,1885 4491,1898 4506,1900 4507,1900 4508,1900 4509,1900 4522,1900 4533,1890 4535,1877 4542,1810 4535,1751 4512,1700 4456,1578 4435,1450 4450,1331 4451,1325 4451,1321 4451,1316 L 4451,1073 C 4451,1072 4451,1072 4451,1072 4451,1065 4454,1058 4460,1054 4466,1051 4473,1050 4479,1054 4485,1057 4488,1064 4488,1071 L 4488,1290 C 4488,1305 4500,1316 4515,1316 4529,1316 4541,1305 4541,1290 L 4541,984 4541,983 C 4541,976 4545,969 4551,965 4556,962 4564,962 4569,965 4575,968 4579,975 4579,982 L 4579,983 4579,1265 C 4579,1280 4591,1292 4605,1292 4620,1292 4631,1280 4631,1265 L 4631,938 C 4631,930 4635,924 4641,920 4647,917 4654,917 4660,920 4666,924 4669,930 4669,938 L 4669,1253 C 4669,1268 4681,1280 4695,1280 4710,1280 4722,1268 4722,1253 L 4722,1090 4797,1156 4741,1266 C 4737,1274 4738,1283 4744,1289 4748,1294 4753,1296 4759,1296 L 4759,1390 4759,1391 C 4759,1411 4771,1429 4790,1437 4796,1439 4802,1440 4808,1440 4822,1440 4836,1434 4845,1422 L 4934,1307 C 4940,1298 4952,1296 4961,1302 4970,1308 4973,1320 4968,1331 L 4792,1668 4792,1669 C 4760,1733 4747,1805 4755,1877 4757,1890 4768,1900 4781,1900 4782,1900 4783,1900 4784,1900 4799,1898 4809,1885 4808,1871 4801,1809 4811,1747 4839,1692 L 5015,1355 C 5032,1321 5022,1279 4990,1258 Z"/>
   <rect fill="none" stroke="none" x="4393" y="758" width="632" height="1143"/>
  </g>
  <g>
   <path fill="rgb(144,199,237)" stroke="none" d="M 5381,1292 C 5358,1262 5336,1233 5313,1205 5287,1174 5260,1142 5231,1110 L 5302,1055 C 5345,1126 5389,1191 5435,1251 L 5381,1292 Z M 4938,1121 L 4883,1047 4986,986 5023,1036 4938,1121 Z M 5360,794 C 5322,796 5285,807 5251,827 5233,838 5220,855 5216,876 5212,897 5217,919 5229,935 L 5229,936 5281,1005 5189,1076 5174,1056 C 5161,1038 5140,1028 5118,1027 L 5081,1026 5080,1024 C 5079,1024 5079,1023 5078,1022 L 5018,941 5128,855 5129,855 C 5196,801 5280,780 5360,794 Z M 5574,1338 L 5565,1328 C 5558,1321 5552,1314 5546,1306 5472,1219 5404,1123 5338,1012 5340,1002 5337,992 5331,983 L 5271,904 C 5268,899 5267,892 5268,886 5269,880 5272,875 5277,872 5331,841 5397,839 5453,865 5459,868 5465,870 5471,870 5478,870 5486,868 5492,864 5505,858 5513,847 5516,834 5519,819 5513,804 5501,795 5440,754 5369,734 5296,737 5223,740 5153,766 5096,814 L 4980,904 C 4969,913 4963,925 4962,938 L 4849,1006 C 4838,1013 4831,1024 4828,1037 4826,1050 4829,1063 4836,1073 L 4901,1160 C 4909,1170 4921,1176 4934,1177 4935,1177 4936,1177 4937,1177 4949,1177 4960,1173 4968,1165 L 5059,1075 C 5064,1077 5070,1079 5076,1079 L 5077,1079 5116,1080 5117,1080 C 5123,1080 5128,1083 5132,1088 L 5155,1119 C 5161,1127 5171,1133 5181,1134 L 5182,1134 C 5213,1169 5244,1204 5272,1239 5325,1303 5375,1371 5422,1442 5427,1449 5435,1453 5444,1453 5449,1453 5454,1452 5458,1449 5471,1441 5474,1425 5466,1412 5448,1386 5430,1360 5412,1334 L 5467,1293 C 5480,1309 5493,1325 5506,1341 5512,1348 5518,1355 5524,1362 L 5533,1373 C 5539,1379 5546,1382 5553,1382 5559,1382 5567,1380 5571,1375 5583,1366 5584,1349 5574,1338 Z"/>
   <rect fill="none" stroke="none" x="4826" y="737" width="756" height="718"/>
  </g>
 </g>
</svg>