<?xml version="1.0" encoding="UTF-8"?>

<svg version="1.2" baseProfile="tiny" width="100mm" height="25mm" viewBox="0 0 10000 2500" preserveAspectRatio="xMidYMid" fill-rule="evenodd" stroke-width="28.222" stroke-linejoin="round" xmlns="http://www.w3.org/2000/svg" xmlns:xlink="http://www.w3.org/1999/xlink" xml:space="preserve">
 <g visibility="visible" id="MasterSlide_1_Domyślnie">
  <desc>Master slide
  </desc>
  <rect fill="none" stroke="none" x="0" y="0" width="10000" height="2500"/>
 </g>
 <g visibility="visible" id="Slide_1_page1">
  <g>
   <path fill="rgb(144,199,237)" stroke="none" d="M 902,1148 C 932,1148 955,1171 955,1201 955,1231 932,1255 902,1255 873,1255 849,1231 849,1201 849,1171 873,1148 902,1148 Z M 902,1307 C 961,1307 1008,1260 1008,1201 1008,1142 961,1095 902,1095 844,1095 796,1142 796,1201 796,1260 844,1307 902,1307 Z"/>
   <rect fill="none" stroke="none" x="796" y="1094" width="213" height="214"/>
  </g>
  <g>
   <path fill="rgb(144,199,237)" stroke="none" d="M 1721,1790 C 1709,1799 1692,1796 1683,1784 L 1556,1608 C 1555,1607 1555,1607 1554,1606 1553,1605 1553,1605 1553,1604 1552,1604 1552,1604 1552,1604 1552,1603 1551,1603 1551,1603 1550,1603 1550,1602 1550,1602 1550,1602 1549,1602 1549,1601 1548,1601 1548,1601 1548,1601 1547,1600 1547,1600 1546,1600 1545,1599 1544,1599 1544,1599 L 1543,1599 C 1543,1598 1542,1598 1541,1598 1540,1598 1540,1598 1539,1598 1539,1597 1539,1597 1538,1597 L 1537,1597 C 1536,1597 1536,1597 1536,1597 1535,1597 1535,1597 1534,1597 L 1533,1597 1532,1597 1362,1610 C 1327,1612 1292,1601 1264,1579 L 1122,1462 C 1095,1441 1059,1433 1026,1441 L 864,1482 C 851,1486 837,1484 824,1478 L 659,1394 C 652,1390 650,1381 654,1374 658,1367 666,1363 673,1366 L 838,1449 C 839,1450 839,1450 840,1450 840,1450 841,1451 842,1451 843,1451 843,1451 844,1451 L 844,1452 C 845,1452 845,1452 846,1452 847,1452 847,1452 848,1452 849,1452 850,1452 850,1452 851,1452 851,1452 852,1452 L 853,1452 854,1452 C 855,1452 855,1452 855,1452 856,1452 856,1452 856,1452 856,1452 857,1452 857,1451 L 931,1432 C 954,1427 975,1413 990,1394 L 1083,1277 C 1092,1265 1105,1257 1119,1251 L 1246,1205 C 1258,1201 1268,1191 1273,1179 L 1320,1056 C 1324,1048 1333,1044 1341,1047 1348,1050 1352,1059 1349,1067 L 1299,1196 C 1293,1213 1280,1226 1263,1232 L 1201,1255 C 1187,1260 1178,1271 1176,1285 1173,1299 1179,1314 1189,1323 L 1302,1416 1303,1416 1304,1417 C 1312,1423 1322,1426 1333,1426 1335,1426 1337,1426 1340,1426 1353,1424 1365,1417 1373,1405 L 1449,1294 C 1457,1283 1468,1275 1480,1271 L 1686,1210 C 1700,1206 1716,1214 1720,1228 1724,1243 1716,1258 1702,1263 L 1504,1323 1503,1323 1502,1323 C 1501,1323 1501,1324 1501,1324 1500,1324 1500,1324 1499,1324 1499,1325 1499,1325 1498,1325 L 1497,1326 1496,1326 C 1496,1327 1495,1327 1495,1327 1495,1328 1494,1328 1494,1328 L 1493,1329 C 1493,1329 1493,1330 1492,1330 1492,1330 1492,1331 1491,1331 1491,1331 1491,1332 1490,1332 L 1490,1333 1400,1464 C 1388,1481 1387,1503 1397,1522 1407,1539 1425,1549 1444,1549 1445,1549 1445,1549 1446,1549 L 1447,1549 1448,1549 1542,1542 C 1562,1540 1581,1549 1592,1565 L 1727,1752 C 1736,1765 1733,1782 1721,1790 Z M 1770,1722 L 1635,1534 C 1613,1503 1577,1486 1539,1489 L 1444,1496 C 1444,1496 1443,1496 1443,1495 L 1443,1494 1528,1370 1717,1314 1718,1314 C 1759,1299 1783,1255 1770,1213 1758,1172 1714,1148 1672,1159 L 1671,1159 1465,1221 C 1441,1228 1420,1243 1406,1264 L 1332,1372 1241,1296 1281,1282 1281,1281 C 1312,1270 1336,1246 1348,1215 L 1400,1085 1400,1084 C 1412,1049 1395,1011 1359,998 1325,984 1286,1001 1272,1035 L 1272,1036 1271,1036 1225,1157 1101,1202 C 1078,1210 1057,1225 1042,1244 L 949,1362 948,1362 C 941,1371 930,1378 918,1381 L 853,1398 696,1319 C 696,1319 696,1318 695,1318 694,1318 694,1318 693,1318 661,1303 623,1318 607,1350 591,1382 602,1421 632,1439 L 632,1440 C 633,1440 633,1440 634,1441 L 801,1525 C 816,1533 833,1537 850,1537 859,1537 868,1536 877,1533 L 1039,1492 C 1056,1488 1075,1492 1088,1503 L 1231,1620 C 1265,1648 1308,1663 1352,1663 1357,1663 1362,1663 1366,1662 L 1522,1651 1640,1815 C 1656,1837 1680,1848 1705,1848 1721,1848 1738,1843 1752,1833 1787,1807 1795,1758 1770,1722 Z"/>
   <rect fill="none" stroke="none" x="599" y="992" width="1187" height="857"/>
  </g>
  <g>
   <path fill="rgb(144,199,237)" stroke="none" d="M 1082,995 C 1093,995 1102,986 1102,975 L 1102,793 C 1102,782 1093,773 1082,773 1070,773 1061,782 1061,793 L 1061,975 C 1061,986 1070,995 1082,995 Z"/>
   <rect fill="none" stroke="none" x="1061" y="773" width="42" height="223"/>
  </g>
  <g>
   <path fill="rgb(144,199,237)" stroke="none" d="M 1240,997 C 1251,997 1259,988 1259,977 L 1259,753 C 1259,742 1251,733 1240,733 1229,733 1219,742 1219,753 L 1219,977 C 1219,988 1229,997 1240,997 Z"/>
   <rect fill="none" stroke="none" x="1219" y="733" width="41" height="266"/>
  </g>
  <g>
   <path fill="rgb(144,199,237)" stroke="none" d="M 1398,966 C 1409,966 1418,957 1418,946 L 1418,713 C 1418,702 1409,694 1398,694 1387,694 1377,702 1377,713 L 1377,946 C 1377,957 1387,966 1398,966 Z"/>
   <rect fill="none" stroke="none" x="1377" y="694" width="42" height="273"/>
  </g>
  <g>
   <path fill="rgb(144,199,237)" stroke="none" d="M 3612,1307 C 3599,1310 3586,1302 3583,1289 3566,1202 3517,1125 3444,1072 3426,1059 3402,1059 3383,1071 3365,1084 3356,1106 3361,1127 3380,1204 3379,1284 3358,1360 3353,1378 3354,1398 3359,1417 L 3455,1756 C 3458,1767 3456,1778 3449,1785 3442,1793 3431,1796 3421,1793 3411,1791 3403,1783 3400,1771 L 3302,1427 C 3296,1407 3278,1393 3257,1393 3236,1393 3218,1407 3212,1427 L 3171,1570 C 3171,1571 3171,1571 3171,1572 3171,1572 3170,1572 3170,1573 L 3170,1574 C 3170,1575 3170,1575 3170,1575 3170,1576 3170,1576 3170,1577 L 3170,1578 3170,1579 3170,1580 C 3170,1581 3170,1581 3170,1581 3171,1582 3171,1582 3171,1583 L 3215,1761 C 3217,1776 3209,1789 3194,1793 3179,1797 3164,1788 3159,1774 L 3115,1596 C 3112,1582 3112,1569 3116,1556 L 3157,1414 3157,1413 C 3160,1405 3162,1398 3165,1390 L 3253,1384 C 3260,1383 3267,1378 3270,1371 3273,1364 3272,1356 3267,1350 L 3222,1297 3299,1239 C 3306,1234 3308,1226 3306,1218 3304,1210 3297,1204 3289,1203 L 3208,1194 3228,1100 C 3229,1091 3225,1083 3218,1078 3210,1074 3201,1074 3194,1080 L 3169,1102 C 3166,1092 3164,1087 3162,1080 3161,1077 3160,1075 3159,1072 3152,1052 3138,1036 3120,1027 3008,970 2930,868 2905,745 2903,732 2912,720 2924,717 2938,715 2950,723 2953,736 2973,835 3035,921 3123,972 3147,987 3175,994 3202,994 L 3382,994 C 3401,994 3419,999 3435,1008 3537,1066 3608,1165 3631,1279 3633,1292 3625,1305 3612,1307 Z M 3683,1270 C 3657,1140 3576,1028 3461,962 3437,949 3410,942 3382,942 L 3202,942 C 3184,942 3166,936 3149,927 3074,883 3022,809 3005,724 2995,683 2955,657 2914,666 2873,674 2847,713 2853,754 L 2854,754 C 2854,755 2854,755 2854,755 2867,822 2896,887 2938,942 2980,997 3034,1043 3096,1074 3102,1077 3107,1082 3109,1089 3110,1092 3111,1095 3112,1098 3116,1107 3117,1112 3124,1141 L 3083,1176 3037,1071 C 3034,1063 3025,1058 3016,1059 3007,1060 3000,1066 2998,1075 L 2970,1207 C 2968,1218 2975,1229 2986,1231 2988,1231 2989,1231 2990,1231 3000,1231 3009,1225 3011,1215 L 3025,1146 3057,1218 C 3057,1218 3057,1219 3058,1220 3058,1221 3058,1221 3059,1221 3060,1223 3061,1225 3063,1226 3063,1226 3064,1226 3064,1227 L 3065,1227 C 3065,1227 3066,1227 3066,1228 3067,1228 3067,1228 3068,1228 3068,1229 3068,1229 3068,1229 3069,1229 3069,1229 3069,1229 3070,1229 3070,1229 3070,1229 3070,1229 3071,1229 3071,1230 L 3072,1230 3073,1230 3074,1230 C 3075,1230 3075,1230 3076,1230 3077,1230 3077,1230 3078,1230 L 3079,1230 3080,1230 C 3082,1229 3084,1228 3086,1227 L 3087,1227 3087,1226 C 3088,1226 3089,1225 3089,1225 L 3175,1151 3163,1207 C 3162,1213 3163,1219 3167,1224 3170,1228 3175,1231 3181,1232 L 3233,1238 3180,1277 C 3180,1278 3180,1278 3180,1278 3179,1278 3179,1278 3179,1278 3179,1279 3179,1279 3178,1279 L 3178,1280 C 3177,1280 3177,1280 3177,1281 L 3176,1281 C 3176,1282 3176,1282 3176,1282 3176,1283 3175,1283 3175,1283 L 3175,1284 3174,1285 3174,1286 3173,1287 3173,1288 3173,1289 3173,1290 3173,1291 C 3172,1291 3172,1291 3172,1292 L 3172,1293 3172,1294 3172,1295 3172,1296 C 3172,1297 3173,1297 3173,1298 3173,1299 3173,1299 3173,1299 3173,1300 3173,1300 3173,1300 3173,1301 3173,1301 3174,1301 3174,1302 3174,1302 3174,1302 3174,1303 3174,1303 3174,1303 3175,1303 3175,1304 3175,1304 L 3175,1305 C 3176,1305 3176,1306 3176,1306 3176,1306 3177,1306 3177,1307 L 3210,1346 3076,1356 C 3065,1356 3056,1366 3057,1378 3058,1388 3067,1397 3078,1397 L 3079,1397 3108,1394 C 3107,1395 3107,1396 3107,1397 L 3065,1541 C 3059,1563 3059,1586 3064,1608 L 3109,1788 C 3109,1789 3109,1789 3109,1789 L 3109,1790 C 3120,1825 3152,1847 3187,1847 3193,1847 3200,1847 3207,1845 3248,1835 3274,1794 3267,1752 3267,1751 3267,1751 3267,1751 3266,1750 3266,1750 3266,1750 L 3266,1749 3224,1577 3257,1460 3350,1785 3350,1786 C 3358,1816 3379,1838 3407,1845 3414,1847 3421,1848 3428,1848 3450,1848 3472,1839 3488,1822 3508,1801 3515,1770 3507,1742 3506,1742 3506,1741 3506,1741 L 3410,1403 C 3410,1402 3410,1402 3410,1402 3407,1393 3407,1383 3409,1374 3432,1290 3433,1200 3412,1116 3412,1115 3412,1115 3413,1115 3474,1160 3517,1225 3532,1300 3532,1301 3532,1301 3532,1301 3540,1336 3572,1360 3607,1360 3612,1360 3617,1360 3622,1359 3663,1351 3690,1312 3683,1270 Z"/>
   <rect fill="none" stroke="none" x="2852" y="663" width="833" height="1186"/>
  </g>
  <g>
   <path fill="rgb(144,199,237)" stroke="none" d="M 3073,1317 C 3087,1317 3099,1305 3099,1290 3099,1276 3087,1264 3073,1264 L 2605,1264 C 2591,1264 2579,1276 2579,1290 2579,1305 2591,1317 2605,1317 L 2944,1317 2944,1818 C 2944,1833 2956,1844 2971,1844 2985,1844 2997,1833 2997,1818 L 2997,1317 3073,1317 Z"/>
   <rect fill="none" stroke="none" x="2579" y="1264" width="522" height="581"/>
  </g>
  <g>
   <path fill="rgb(144,199,237)" stroke="none" d="M 3267,732 C 3303,732 3333,763 3333,799 3333,835 3303,864 3267,864 3231,864 3202,835 3202,799 3202,763 3231,732 3267,732 Z M 3267,917 C 3333,917 3386,864 3386,799 3386,733 3333,680 3267,680 3202,680 3149,733 3149,799 3149,864 3202,917 3267,917 Z"/>
   <rect fill="none" stroke="none" x="3149" y="679" width="238" height="239"/>
  </g>
  <g>
   <path fill="rgb(144,199,237)" stroke="none" d="M 4663,831 C 4704,831 4738,865 4738,907 4738,949 4704,983 4663,983 4621,983 4586,949 4586,907 4586,865 4621,831 4663,831 Z M 4663,1036 C 4733,1036 4791,978 4791,907 4791,836 4733,778 4663,778 4592,778 4534,836 4534,907 4534,978 4592,1036 4663,1036 Z"/>
   <rect fill="none" stroke="none" x="4534" y="778" width="258" height="259"/>
  </g>
  <g>
   <path fill="rgb(144,199,237)" stroke="none" d="M 5527,1520 C 5524,1533 5514,1544 5501,1548 5487,1552 5472,1549 5463,1540 L 5462,1540 5258,1352 C 5258,1351 5257,1351 5257,1351 5256,1350 5256,1350 5256,1350 5255,1350 5255,1349 5255,1349 5254,1349 5254,1349 5254,1348 5253,1348 5253,1348 5253,1348 5252,1348 5252,1347 5251,1347 L 5250,1347 5249,1346 5248,1346 C 5247,1346 5247,1346 5247,1346 5246,1346 5246,1345 5245,1345 L 5244,1345 5243,1345 C 5242,1345 5242,1345 5242,1345 5241,1345 5241,1345 5240,1345 L 5239,1345 5238,1345 C 5237,1345 5237,1345 5237,1345 5236,1345 5236,1345 5235,1345 5235,1346 5234,1346 5234,1346 L 5233,1346 C 5232,1346 5232,1346 5231,1347 L 5123,1389 C 5105,1396 5094,1414 5096,1434 5097,1453 5111,1470 5129,1474 L 5190,1488 C 5191,1488 5192,1489 5193,1489 5200,1491 5208,1495 5214,1499 5215,1500 5216,1501 5217,1502 L 5442,1699 C 5453,1708 5458,1722 5455,1736 5452,1750 5443,1761 5429,1765 5415,1770 5403,1768 5390,1758 L 5174,1567 C 5172,1566 5171,1565 5169,1564 L 5168,1564 C 5168,1563 5167,1563 5167,1563 5165,1562 5164,1562 5162,1561 L 4919,1506 C 4903,1502 4889,1492 4880,1477 L 4740,1243 C 4730,1227 4713,1217 4694,1216 4676,1215 4657,1225 4646,1241 L 4589,1323 C 4589,1324 4589,1325 4588,1325 L 4588,1326 4587,1327 C 4587,1328 4587,1328 4587,1328 4587,1329 4587,1329 4586,1329 4586,1330 4586,1330 4586,1331 L 4586,1332 4585,1333 4585,1334 C 4585,1334 4585,1335 4585,1336 4585,1337 4585,1338 4585,1338 L 4586,1523 C 4585,1537 4574,1547 4560,1547 4546,1548 4534,1537 4533,1524 L 4531,1333 C 4531,1321 4535,1308 4542,1297 L 4617,1189 C 4618,1189 4618,1189 4618,1189 4625,1178 4635,1169 4646,1162 L 4839,1048 C 4848,1043 4855,1037 4860,1032 L 4973,931 C 4974,930 4974,930 4974,930 4975,929 4975,929 4975,929 4975,928 4976,928 4976,928 4976,927 4976,927 4977,927 4977,926 4977,926 4977,926 4978,925 4978,925 4978,924 L 4979,923 4979,922 4980,921 4980,920 C 4980,919 4980,919 4981,919 4981,918 4981,918 4981,917 L 4981,916 4981,915 C 4981,914 4981,914 4981,914 4981,913 4982,913 4982,912 L 4984,740 4984,739 C 4984,730 4990,720 4998,716 5006,711 5016,711 5025,716 5033,721 5038,730 5038,740 L 5035,912 5035,913 C 5035,935 5025,955 5009,970 5009,971 5009,971 5009,971 L 4919,1052 C 4899,1070 4895,1099 4908,1122 L 5013,1299 C 5014,1300 5014,1300 5014,1300 5014,1301 5014,1301 5014,1301 5025,1317 5043,1327 5061,1327 5068,1327 5075,1325 5082,1323 L 5226,1265 C 5248,1256 5274,1261 5292,1277 L 5515,1483 C 5525,1492 5530,1506 5527,1520 Z M 5551,1443 L 5327,1239 C 5295,1209 5248,1200 5207,1216 L 5063,1274 C 5061,1274 5059,1274 5059,1272 L 4954,1095 C 4953,1094 4953,1093 4954,1091 L 5044,1009 C 5071,985 5087,950 5088,913 L 5090,741 C 5091,712 5076,686 5052,671 5027,656 4997,656 4972,670 4947,684 4932,710 4931,739 L 4929,899 4825,993 C 4820,998 4816,1001 4812,1003 L 4620,1117 C 4602,1127 4586,1142 4574,1159 L 4499,1267 C 4485,1287 4478,1310 4478,1334 L 4480,1526 4480,1527 C 4480,1528 4480,1528 4480,1528 L 4480,1529 C 4484,1569 4519,1600 4560,1600 4601,1600 4636,1568 4639,1527 L 4639,1526 4639,1525 4639,1524 4638,1346 4690,1270 C 4690,1269 4692,1269 4693,1269 4694,1269 4694,1269 4695,1271 L 4835,1504 C 4851,1531 4878,1550 4908,1557 L 5144,1611 5357,1799 5358,1799 5358,1800 5359,1800 C 5377,1814 5395,1820 5415,1820 5425,1820 5436,1819 5446,1815 5477,1805 5500,1778 5507,1746 5513,1714 5501,1681 5477,1660 L 5477,1659 5255,1466 C 5254,1464 5253,1462 5252,1461 5237,1449 5220,1440 5201,1436 5200,1435 5199,1435 5197,1435 L 5168,1428 5235,1402 5426,1578 C 5444,1594 5466,1603 5489,1603 5498,1603 5507,1601 5516,1598 5548,1589 5571,1563 5578,1531 5585,1499 5575,1466 5551,1443 Z"/>
   <rect fill="none" stroke="none" x="4478" y="659" width="1104" height="1163"/>
  </g>
  <g>
   <path fill="rgb(144,199,237)" stroke="none" d="M 5104,1632 C 5093,1630 5082,1637 5080,1648 L 5062,1730 4997,1674 C 4992,1670 4985,1668 4979,1669 4973,1671 4967,1675 4965,1681 L 4921,1784 4865,1695 C 4862,1690 4857,1687 4851,1686 4845,1685 4839,1686 4835,1690 L 4730,1773 4749,1699 C 4751,1693 4750,1686 4746,1681 4742,1676 4736,1673 4729,1673 L 4627,1675 4686,1634 C 4696,1628 4698,1615 4692,1606 4685,1595 4672,1593 4663,1599 L 4547,1680 C 4539,1685 4536,1694 4539,1703 4541,1711 4550,1717 4559,1717 L 4703,1715 4675,1822 C 4672,1831 4676,1840 4683,1845 4691,1850 4700,1849 4707,1844 L 4843,1737 4907,1838 C 4911,1844 4917,1848 4924,1848 4925,1848 4925,1848 4926,1848 4933,1847 4940,1843 4943,1836 L 4991,1723 5061,1784 C 5067,1788 5074,1790 5081,1788 5088,1785 5093,1780 5095,1772 L 5120,1657 C 5122,1646 5115,1635 5104,1632 Z"/>
   <rect fill="none" stroke="none" x="4538" y="1595" width="584" height="255"/>
  </g>
  <g>
   <path fill="rgb(144,199,237)" stroke="none" d="M 7505,1272 C 7499,1282 7488,1288 7477,1288 L 7293,1288 C 7271,1288 7251,1277 7239,1259 L 7134,1105 C 7126,1093 7116,1089 7108,1088 7098,1086 7087,1089 7078,1095 L 6900,1231 C 6890,1239 6884,1250 6885,1263 6885,1275 6892,1287 6902,1294 L 7030,1378 C 7042,1386 7048,1399 7046,1412 L 6999,1757 C 6997,1773 6987,1786 6972,1792 6957,1798 6940,1796 6928,1786 6915,1776 6909,1760 6911,1745 L 6951,1452 C 6951,1451 6951,1451 6951,1451 6951,1451 6951,1450 6951,1449 L 6951,1448 6951,1447 6951,1446 C 6951,1445 6951,1445 6951,1445 6951,1444 6951,1444 6951,1443 6951,1443 6951,1441 6950,1441 L 6950,1440 C 6950,1439 6950,1439 6950,1439 6950,1438 6949,1438 6949,1437 L 6949,1436 6948,1435 6948,1434 C 6947,1434 6947,1433 6947,1433 6947,1432 6946,1432 6946,1432 6946,1431 6946,1431 6946,1431 6945,1430 6945,1430 6945,1430 6944,1429 6944,1429 6944,1429 L 6943,1428 6942,1427 C 6942,1427 6941,1427 6941,1426 6941,1426 6940,1426 6940,1425 L 6939,1425 6780,1321 C 6779,1320 6779,1320 6778,1319 L 6753,1303 C 6727,1286 6711,1256 6710,1225 6709,1210 6712,1195 6718,1182 L 6718,1181 C 6719,1180 6719,1179 6719,1178 6726,1165 6735,1154 6747,1145 L 6989,960 C 7010,944 7037,937 7063,942 7090,946 7113,960 7128,982 L 7276,1199 7277,1199 C 7287,1215 7305,1224 7324,1224 L 7477,1224 C 7489,1224 7500,1230 7505,1239 7511,1249 7511,1262 7505,1272 Z M 6511,1773 C 6499,1793 6473,1800 6452,1789 6431,1779 6422,1754 6432,1732 L 6668,1278 C 6679,1306 6698,1330 6724,1347 L 6730,1351 6511,1773 Z M 7551,1213 C 7536,1187 7508,1171 7477,1171 L 7324,1171 C 7322,1171 7321,1170 7321,1169 L 7171,953 C 7148,919 7112,896 7072,890 7031,883 6989,894 6957,918 L 6715,1103 C 6696,1117 6681,1136 6671,1157 L 6385,1709 C 6384,1709 6384,1710 6384,1710 6384,1711 6384,1711 6383,1711 6383,1712 6383,1712 6383,1712 6363,1758 6383,1812 6428,1836 6442,1843 6458,1847 6473,1847 6506,1847 6538,1830 6556,1800 6556,1799 6557,1799 6557,1799 L 6774,1380 6897,1461 6859,1737 C 6859,1738 6859,1738 6859,1738 6854,1772 6868,1806 6895,1828 6913,1841 6934,1848 6955,1848 6968,1848 6980,1846 6992,1841 7024,1827 7046,1799 7051,1764 L 7098,1420 C 7103,1386 7087,1353 7059,1334 L 6947,1261 7098,1146 7195,1289 C 7217,1321 7254,1341 7293,1341 L 7477,1341 C 7507,1341 7536,1324 7551,1298 7566,1272 7566,1239 7551,1213 Z"/>
   <rect fill="none" stroke="none" x="6375" y="887" width="1189" height="963"/>
  </g>
  <g>
   <path fill="rgb(144,199,237)" stroke="none" d="M 6879,908 C 6879,908 6880,908 6881,908 6892,908 6901,901 6902,890 L 6918,766 C 6919,755 6911,745 6900,743 6888,742 6878,750 6876,761 L 6861,885 C 6859,896 6867,907 6879,908 Z"/>
   <rect fill="none" stroke="none" x="6861" y="743" width="59" height="167"/>
  </g>
  <g>
   <path fill="rgb(144,199,237)" stroke="none" d="M 7297,757 C 7341,757 7376,793 7376,836 7376,880 7341,917 7297,917 7253,917 7217,880 7217,836 7217,793 7253,757 7297,757 Z M 7297,970 C 7370,970 7429,910 7429,836 7429,764 7370,704 7297,704 7224,704 7164,764 7164,836 7164,910 7224,970 7297,970 Z"/>
   <rect fill="none" stroke="none" x="7164" y="704" width="266" height="267"/>
  </g>
  <g>
   <path fill="rgb(144,199,237)" stroke="none" d="M 6768,925 C 6772,930 6778,933 6784,933 6789,933 6793,932 6796,929 6806,922 6808,909 6801,900 L 6727,800 C 6720,791 6707,789 6697,795 6688,802 6686,815 6693,824 L 6768,925 Z"/>
   <rect fill="none" stroke="none" x="6689" y="791" width="118" height="144"/>
  </g>
  <g>
   <path fill="rgb(144,199,237)" stroke="none" d="M 6603,999 L 6727,1020 C 6728,1020 6729,1020 6730,1020 6740,1020 6749,1013 6751,1003 6752,992 6745,981 6734,979 L 6610,957 C 6599,955 6589,963 6587,974 6585,986 6592,997 6603,999 Z"/>
   <rect fill="none" stroke="none" x="6586" y="957" width="167" height="65"/>
  </g>
  <g>
   <path fill="rgb(144,199,237)" stroke="none" d="M 9273,855 L 8965,855 8989,830 C 8995,823 8996,814 8992,806 8988,797 8979,793 8971,794 L 8918,802 8918,688 C 8918,674 8906,662 8892,662 8877,662 8866,674 8866,688 L 8866,811 8838,815 8810,685 C 8808,676 8801,670 8793,669 8785,667 8776,671 8772,678 L 8720,766 C 8714,776 8718,788 8727,794 8737,800 8750,796 8756,787 L 8780,745 8800,843 C 8801,843 8801,844 8801,844 L 8801,845 8801,846 8802,847 8802,848 C 8802,848 8803,848 8803,849 8803,850 8804,850 8804,851 8805,852 8805,852 8805,852 L 8806,853 8807,854 8808,855 8809,855 C 8809,855 8809,856 8810,856 8811,856 8811,857 8811,857 L 8812,857 8813,858 8814,858 8815,858 8816,858 C 8816,859 8817,859 8817,859 L 8818,859 8819,859 8820,859 8821,859 8822,859 8823,859 8824,859 8918,845 8903,861 C 8901,863 8900,864 8898,866 L 8850,917 8850,918 8849,918 C 8849,919 8849,919 8849,919 8848,919 8848,920 8848,920 8848,920 8848,921 8847,921 L 8847,922 8846,923 8846,924 8846,925 8845,926 8845,927 8845,928 8845,929 8845,930 8845,931 8845,932 C 8845,933 8845,933 8845,934 8845,935 8845,935 8845,936 8845,937 8846,937 8846,938 L 8846,939 C 8846,940 8847,940 8847,940 8847,941 8847,941 8847,941 L 8848,942 8848,943 C 8848,943 8849,943 8849,944 8850,945 8850,945 8850,945 L 8851,946 8852,947 C 8853,947 8853,948 8853,948 L 8854,948 C 8854,949 8855,949 8855,949 L 8856,949 C 8856,950 8856,950 8857,950 8858,950 8858,951 8859,951 8860,951 8860,951 8861,951 L 8957,970 8856,1013 C 8845,1017 8840,1029 8845,1040 8848,1048 8856,1052 8864,1052 8866,1052 8869,1052 8872,1051 L 9035,982 C 9043,978 9049,969 9048,960 9047,951 9040,944 9031,942 L 8906,918 8916,908 C 8917,908 8918,908 8919,908 L 9273,908 C 9288,908 9300,896 9300,882 9300,867 9288,855 9273,855 Z"/>
   <rect fill="none" stroke="none" x="8717" y="662" width="584" height="391"/>
  </g>
  <g>
   <path fill="rgb(144,199,237)" stroke="none" d="M 8638,848 C 8666,848 8688,871 8688,899 8688,927 8666,949 8638,949 8610,949 8587,927 8587,899 8587,871 8610,848 8638,848 Z M 8638,1002 C 8695,1002 8741,956 8741,899 8741,842 8695,795 8638,795 8581,795 8534,842 8534,899 8534,956 8581,1002 8638,1002 Z"/>
   <rect fill="none" stroke="none" x="8534" y="794" width="208" height="209"/>
  </g>
  <g>
   <path fill="rgb(144,199,237)" stroke="none" d="M 8848,1794 C 8843,1796 8835,1796 8830,1793 8827,1791 8821,1788 8819,1781 L 8716,1452 C 8712,1438 8697,1430 8683,1435 8669,1439 8662,1454 8666,1468 L 8701,1580 C 8705,1600 8698,1621 8684,1636 L 8563,1752 C 8554,1760 8541,1759 8533,1750 8525,1742 8524,1729 8532,1721 L 8648,1610 C 8648,1609 8648,1609 8649,1609 8649,1609 8649,1608 8650,1608 L 8650,1607 C 8651,1607 8651,1606 8651,1606 8652,1606 8652,1605 8652,1605 8652,1604 8652,1604 8653,1604 8653,1603 8653,1603 8653,1602 L 8654,1602 C 8654,1601 8654,1601 8654,1600 L 8655,1599 8655,1598 C 8655,1597 8655,1597 8655,1597 8656,1596 8656,1596 8656,1595 L 8656,1594 8656,1593 C 8656,1593 8656,1592 8656,1591 L 8656,1590 8656,1589 8656,1588 C 8656,1587 8656,1587 8656,1586 8656,1586 8656,1585 8655,1585 L 8655,1584 8603,1382 C 8601,1375 8600,1368 8600,1361 L 8600,1198 C 8600,1181 8589,1166 8573,1161 8557,1157 8539,1164 8530,1179 L 8432,1345 C 8428,1351 8421,1352 8414,1348 8408,1345 8406,1338 8409,1332 L 8520,1143 C 8542,1108 8579,1085 8621,1082 L 8622,1082 8704,1076 C 8722,1074 8741,1080 8756,1090 L 8882,1174 8883,1175 8884,1175 C 8884,1176 8885,1176 8885,1176 8885,1176 8886,1176 8887,1177 8888,1177 8889,1177 8889,1178 L 8890,1178 C 8890,1178 8891,1178 8892,1178 L 9022,1201 C 9025,1202 9033,1203 9036,1209 9037,1214 9036,1219 9033,1223 9029,1228 9023,1228 9018,1227 L 9017,1227 8888,1204 C 8880,1203 8873,1200 8867,1195 L 8866,1195 8806,1156 C 8793,1147 8776,1146 8763,1153 8749,1160 8740,1175 8740,1191 L 8740,1358 C 8740,1373 8742,1387 8746,1399 L 8862,1767 C 8865,1779 8859,1790 8848,1794 Z M 9031,1149 L 8907,1127 8786,1046 C 8760,1029 8730,1021 8700,1023 L 8618,1029 C 8559,1033 8505,1066 8475,1117 L 8363,1306 C 8363,1307 8363,1307 8363,1307 8362,1307 8362,1308 8362,1308 8347,1339 8358,1376 8387,1394 8398,1400 8410,1403 8421,1403 8442,1403 8463,1393 8475,1375 8475,1375 8476,1375 8476,1374 8476,1374 8476,1373 8477,1373 L 8548,1253 8548,1361 C 8548,1372 8549,1384 8552,1395 L 8600,1582 8495,1683 8495,1684 C 8467,1712 8467,1758 8495,1787 8510,1802 8529,1810 8549,1810 8566,1810 8584,1804 8598,1791 8599,1791 8599,1791 8599,1791 8599,1790 8599,1790 8599,1790 L 8720,1674 C 8721,1674 8721,1673 8721,1673 8723,1671 8726,1668 8728,1666 L 8769,1797 C 8775,1816 8788,1831 8806,1840 8817,1845 8829,1848 8841,1848 8849,1848 8857,1847 8865,1844 8904,1831 8924,1790 8912,1752 L 8796,1384 C 8794,1376 8792,1368 8792,1358 L 8792,1210 8837,1239 C 8850,1248 8864,1253 8879,1256 L 8880,1256 9008,1279 C 9013,1280 9018,1280 9022,1280 9042,1280 9060,1272 9073,1258 9089,1239 9094,1213 9085,1190 9076,1169 9056,1154 9031,1149 Z"/>
   <rect fill="none" stroke="none" x="8355" y="1023" width="736" height="827"/>
  </g>
 </g>
</svg>