<svg id="eLoziI3lqWb1" xmlns="http://www.w3.org/2000/svg" xmlns:xlink="http://www.w3.org/1999/xlink" viewBox="0 0 12000 7500" shape-rendering="geometricPrecision" text-rendering="geometricPrecision">
<style><![CDATA[
#eLoziI3lqWb345_tr {animation: eLoziI3lqWb345_tr__tr 3000ms linear infinite normal forwards}@keyframes eLoziI3lqWb345_tr__tr { 0% {transform: translate(7969.293945px,3009.007568px) rotate(0deg)} 10% {transform: translate(7969.293945px,3009.007568px) rotate(360deg)} 100% {transform: translate(7969.293945px,3009.007568px) rotate(0deg)}} #eLoziI3lqWb359_ts {animation: eLoziI3lqWb359_ts__ts 3000ms linear infinite normal forwards}@keyframes eLoziI3lqWb359_ts__ts { 0% {transform: translate(5853px,2269.5px) scale(0,0)} 10% {transform: translate(5853px,2269.5px) scale(1,1)} 100% {transform: translate(5853px,2269.5px) scale(0.5,0.5)}} #eLoziI3lqWb359 {animation: eLoziI3lqWb359_c_o 3000ms linear infinite normal forwards}@keyframes eLoziI3lqWb359_c_o { 0% {opacity: 1} 100% {opacity: 0}} #eLoziI3lqWb360_tr {animation: eLoziI3lqWb360_tr__tr 3000ms linear infinite normal forwards}@keyframes eLoziI3lqWb360_tr__tr { 0% {transform: translate(6373px,2167px) rotate(0deg)} 10% {transform: translate(6373px,2167px) rotate(15deg)} 46.666667% {transform: translate(6373px,2167px) rotate(-15deg)} 100% {transform: translate(6373px,2167px) rotate(0deg)}}
]]></style>
<defs><path id="eLoziI3lqWb2" d="M7234,1358l282,227c0,0,17-100-48-276c0,0-25-35-93-94l-16-12c-4-4-15-12-15-12-72-55-113-71-113-71-185-26-279,12-279,12l282,226Z"/><path id="eLoziI3lqWb3" d="M7357,1204l-1-1-14-11c-69-52-108-70-111-71-167-23-260,6-276,12l280,224l280,225c2-16,10-114-49-272-1-3-27-38-93-93-1,0-9-8-14-12l-2-1Zm1-3l1,1l2,1c5,4,13,11,14,11c68,58,94,94,94,94c65,175,48,276,48,277s0,1-1,1h-1l-282-227-281-226c-1,0-1,0-1-1c0,0,0-1,1-1s96-38,280-13c0,1,40,18,112,71c0,1,9,7,14,12Z"/><path id="eLoziI3lqWb4" d="M7256,1334c152,122,266,232,255,245-11,14-143-74-296-196-151-122-266-232-255-246s143,75,296,197Z"/><path id="eLoziI3lqWb5" d="M7871,1331c-33-98-72-174-85-170-14,5,2,88,36,186c32,100,70,175,84,171c13-5-2-88-35-187Z"/><path id="eLoziI3lqWb81" d="M7114,1988l-318-172c0,0,1,101,97,263c0,0,31,30,109,75l17,10l18,9c81,40,122,49,122,49c188-8,273-63,273-63l-318-171Z"/><path id="eLoziI3lqWb82" d="M7020,2162l1,1c6,3,17,8,17,8c77,39,118,49,122,50c169-8,255-53,269-62l-316-170-315-170c1,16,10,114,97,259c2,2,34,32,108,75c0,0,10,5,16,9h1Zm0,4l-1-1-2-1c-6-3-15-9-16-9-77-45-108-75-109-75-95-160-97-263-97-264c0,0,0-1,1-1h1l318,171l318,172l1,1c0,1,0,1-1,1-1,1-87,55-274,64c0,0-43-10-123-50l-16-8Z"/><path id="eLoziI3lqWb83" d="M7097,2015c-171-93-303-181-295-196c8-16,154,48,325,140c173,93,305,180,297,195s-155-47-327-139Z"/><path id="eLoziI3lqWb84" d="M8028,1984l-352-82c0,0,28,98,163,228c0,0,38,21,125,44c0,0,13,4,19,5c6,2,19,4,19,4c89,18,132,16,132,16c178-57,245-133,245-133l-351-82Z"/><path id="eLoziI3lqWb85" d="M7983,2178h2c6,2,18,4,18,4c84,17,127,16,130,15c161-52,232-118,244-130l-349-81-350-82c6,16,40,108,161,224c3,2,41,23,125,45c0,0,11,3,18,4l1,1Zm1,3h-1l-2-1c-6-1-17-4-18-4-87-23-125-45-125-45h-1c-133-129-162-227-162-228v-2h1l353,82l351,81c0,1,1,1,1,1v2c-1,1-70,76-247,133-1,0-44,2-132-15c0,0-11-2-18-4Z"/><path id="eLoziI3lqWb86" d="M8020,2016c-190-46-341-95-337-112s161,5,352,49c189,46,340,95,336,112s-161-5-351-49Z"/><path id="eLoziI3lqWb87" d="M6868,1669l-351,85c0,0,69,75,248,131c0,0,43,1,131-19c0,0,13-2,19-4c6-1,19-5,19-5c88-24,125-45,125-45c134-132,160-230,160-230l-351,87Z"/><path id="eLoziI3lqWb88" d="M6915,1861l1-1c7-1,18-4,18-4c83-23,121-44,123-45c121-119,155-211,160-227l-349,86-348,85c12,12,84,78,245,127c3,0,46,1,130-17c1,0,12-2,18-4h2Zm2,2l-2,1h-1c-7,2-18,4-18,4-87,19-131,17-131,17h-1c-177-54-247-129-248-130v-1l1-1l350-86l352-87c0,0,1,0,1,1v1c0,1-28,101-161,231c0,0-38,22-124,45c0,0-11,4-18,5Z"/><path id="eLoziI3lqWb89" d="M6873,1699c-189,47-345,71-349,54-5-17,145-68,335-116c189-46,346-70,351-53c4,17-147,69-337,115Z"/><path id="eLoziI3lqWb90" d="M7476,2401l-354-74c0,0,30,97,168,225c0,0,38,20,126,41c0,0,13,3,19,4c6,2,20,4,20,4c89,15,131,12,131,12c177-61,243-138,243-138l-353-74Z"/><path id="eLoziI3lqWb91" d="M7436,2596h1c7,1,18,3,18,3c85,15,128,13,131,13c159-55,229-124,240-136l-350-73-352-74c6,16,43,107,167,222c3,1,42,20,125,40c0,0,12,3,18,4l2,1Zm1,3h-2l-2-1c-6-1-17-4-17-4-87-21-126-41-126-41h-1c-137-127-168-224-168-225-1-1,0-1,0-2h1l354,74l353,73c1,0,1,1,1,1c1,1,0,1,0,2-1,0-68,78-243,139h-1c0,0-44,3-132-13l-17-3Z"/><path id="eLoziI3lqWb92" d="M7469,2433c-192-40-343-86-340-103c4-18,161,1,353,41c190,40,342,86,338,104-3,17-160-2-351-42Z"/><path id="eLoziI3lqWb93" d="M6443,1615c-157,48-288,77-292,64-4-14,120-63,278-111c157-49,287-78,291-64c4,13-120,63-277,111Z"/><path id="eLoziI3lqWb94" d="M5252,1459c0,0,15,251-298,251h-22c-314,0-300-251-300-251h620Z"/><path id="eLoziI3lqWb95" d="M4792,1650v28c0,0,1,5,43,9c29,3,68,5,108,5s78-2,107-5c42-4,42-9,42-9v-28h-300Zm151,45c-61,0-154-5-154-17v-30c0-1,1-1,2-1h303c1,0,1,0,1,1v30c0,12-91,17-152,17Z"/><path id="eLoziI3lqWb96" d="M5252,1425c0,0,15,250-298,250h-22c-314,0-300-250-300-250h620Z"/><path id="eLoziI3lqWb97" d="M6855,1614c-91-50-160-100-153-113s87,17,178,66c91,50,159,100,153,113-7,12-87-17-178-66Z"/><path id="eLoziI3lqWb98" d="M8234,2446c-98-32-176-68-172-81c4-14,89,0,188,30c99,31,175,67,171,81s-88,0-187-30Z"/><path id="eLoziI3lqWb99" d="M7950,2992c-113,120-211,210-222,201-10-10,73-115,185-235s210-211,221-202c10,9-73,115-184,236Z"/></defs><g transform="translate(-11.7222 106.231873)" clip-path="url(#eLoziI3lqWb414)"><g transform="translate(159.731493 149.257297)"><path d="M11544,6750h-11120-24c-1,0,7,0,18,0h11121h23c2,0-6,0-18,0Z" fill="#27314f" fill-rule="evenodd" stroke-width="28.222" stroke-linejoin="round"/><path d="M10720,6818c0,0,880-1909-59-3048-1211-1469-2724-884-3312-920-470.339111-53-633-1234-2389-1402-1430.858139-198.999999-3627,291-3151,2594c361,1752-1302,846-911,2781l9822-5Z" transform="translate(-90.115466-20)" fill="#a0dcf7" fill-rule="evenodd" stroke-width="28.222" stroke-linejoin="round"/><path d="M4807,3345l53,384c8,31-1,67,147,67h4c146-1,136-36,145-67c6-24,39-290,53-384h-402Z" transform="translate(637 8)" fill="#e1e1df" fill-rule="evenodd" stroke-width="28.222" stroke-linejoin="round"/><path d="M11582,6827h-11120-24c-1,0,7,0,18,0h11121h23c2,0-6,0-18,0Z" fill="#27314f" fill-rule="evenodd" stroke-width="28.222" stroke-linejoin="round"/><path d="M5123,508l-543-2-2,484h543l2-482Z" fill="#d25d23" fill-rule="evenodd" stroke-width="28.222" stroke-linejoin="round"/><path d="M5286,509l-435-2-2,484l435-1l2-481Z" fill="#f19642" fill-rule="evenodd" stroke-width="28.222" stroke-linejoin="round"/><path d="M4851,507l436,2-1,154-437,328l2-484Z" fill="#d85e1e" fill-rule="evenodd" stroke-width="28.222" stroke-linejoin="round"/><path d="M8561,5790l-1138-3-3,1015h1138l3-1012Z" fill="#d25d23" fill-rule="evenodd" stroke-width="28.222" stroke-linejoin="round"/><path d="M8903,5792l-912-3-2,1014l911-1l3-1010Z" fill="#f19642" fill-rule="evenodd" stroke-width="28.222" stroke-linejoin="round"/><path d="M7991,5789l914,3-1,321-916,690l3-1014Z" fill="#d85e1e" fill-rule="evenodd" stroke-width="28.222" stroke-linejoin="round"/><path d="M5226,5992l-837-2-3,742l838,3l2-743Z" fill="#d25d23" fill-rule="evenodd" stroke-width="28.222" stroke-linejoin="round"/><path d="M5477,5993l-671-2-1,743l670,2l2-743Z" fill="#f19642" fill-rule="evenodd" stroke-width="28.222" stroke-linejoin="round"/><path d="M4806,5991l673,2-1,237-673,504l1-743Z" fill="#d85e1e" fill-rule="evenodd" stroke-width="28.222" stroke-linejoin="round"/><path d="M7147,4526l-837-3-2,747l837-1l2-743Z" fill="#d25d23" fill-rule="evenodd" stroke-width="28.222" stroke-linejoin="round"/><path d="M7398,4527l-670-2-2,745h670l2-743Z" fill="#f19642" fill-rule="evenodd" stroke-width="28.222" stroke-linejoin="round"/><path d="M6728,4525l668,2l3,237-673,503l2-742Z" fill="#d85e1e" fill-rule="evenodd" stroke-width="28.222" stroke-linejoin="round"/><path d="M5529,4061l-838-2-2,1211l837,2l3-1211Z" fill="#d25d23" fill-rule="evenodd" stroke-width="28.222" stroke-linejoin="round"/><path d="M5780,4063l-671-3-2,1209h671l2-1206Z" fill="#f19642" fill-rule="evenodd" stroke-width="28.222" stroke-linejoin="round"/><path d="M5109,4060l672,3v235l-674,505l2-743Z" fill="#d85e1e" fill-rule="evenodd" stroke-width="28.222" stroke-linejoin="round"/><path d="M6190,3068l-838-3-2,747h837l3-744Z" fill="#d25d23" fill-rule="evenodd" stroke-width="28.222" stroke-linejoin="round"/><path d="M6441,3069l-671-3-2,746h671l2-743Z" fill="#f19642" fill-rule="evenodd" stroke-width="28.222" stroke-linejoin="round"/><path d="M5770,3066l672,3v237l-674,506l2-746Z" fill="#d85e1e" fill-rule="evenodd" stroke-width="28.222" stroke-linejoin="round"/><path d="M6776,5601l-1302-4-4,1155l1303,4l3-1155Z" fill="#d25d23" fill-rule="evenodd" stroke-width="28.222" stroke-linejoin="round"/><path d="M7167,5603l-1043-4-3,1155l1043,4l3-1155Z" fill="#f19642" fill-rule="evenodd" stroke-width="28.222" stroke-linejoin="round"/><path d="M6124,5599l1046,4-1,367-1048,784l3-1155Z" fill="#d85e1e" fill-rule="evenodd" stroke-width="28.222" stroke-linejoin="round"/><path d="M4396,6728h3000v-5675h-3000v5675Zm3072,75h-3143v-5818h3143v5818Z" fill="#6c95d5" fill-rule="evenodd" stroke-width="28.222" stroke-linejoin="round"/><path d="M3898,6805h428v-5820h-428v5820Z" fill="#4969ad" fill-rule="evenodd" stroke-width="28.222" stroke-linejoin="round"/><g><path d="M4358,2512h3077v-159h-3077v159Zm0,1458h3077v-159h-3077v159Zm0,1459h3077v-160h-3077v160Z" fill="#6c95d5" fill-rule="evenodd" stroke-width="28.222" stroke-linejoin="round"/></g><path d="M3719,5645l-1303-4-3,1156l1303,4l3-1156Z" fill="#d25d23" fill-rule="evenodd" stroke-width="28.222" stroke-linejoin="round"/><path d="M4110,5647l-1043-4-3,1156l1043,4l3-1156Z" fill="#f19642" fill-rule="evenodd" stroke-width="28.222" stroke-linejoin="round"/><path d="M3067,5643l1045,4-1,368-1047,784l3-1156Z" fill="#d85e1e" fill-rule="evenodd" stroke-width="28.222" stroke-linejoin="round"/><path d="M2459,6058l-837-3-3,743l838,3l2-743Z" fill="#d25d23" fill-rule="evenodd" stroke-width="28.222" stroke-linejoin="round"/><path d="M2710,6059l-671-2-1,743l670,2l2-743Z" fill="#f19642" fill-rule="evenodd" stroke-width="28.222" stroke-linejoin="round"/><path d="M2039,6057l673,2-1,237-673,504l1-743Z" fill="#d85e1e" fill-rule="evenodd" stroke-width="28.222" stroke-linejoin="round"/><path d="M7463,1315l18-22c6-7-43-55-108-108-66-52-123-89-128-82l-18,22l236,190Z" fill="#fff" fill-rule="evenodd" stroke-width="28.222" stroke-linejoin="round"/><path d="M7463,1313l17-21c0,0,3-4-27-34-21-20-49-45-81-70-32-26-63-48-87-65-35-23-39-19-39-19l-17,21l234,188Zm-89-128c48,39,116,99,108,109l-18,22c0,1-1,1-2,1l-236-190c-1,0-1-2,0-3l18-22c7-10,81,45,130,83Z" fill="#add5d3" fill-rule="evenodd" stroke-width="28.222" stroke-linejoin="round"/><path d="M7463,1315l10-12c-8-14-20-28-31-39-18-17-36-34-55-50l-35-30c-11-9-23-16-33-26-7-7-9-13-8-20-36-25-63-39-66-35l-18,22l236,190Z" fill="#c5cbcc" fill-rule="evenodd" stroke-width="28.222" stroke-linejoin="round"/><use width="566.004883" height="474.096558" xlink:href="#eLoziI3lqWb2" fill="#fff" fill-rule="evenodd" stroke-width="28.222" stroke-linejoin="round"/><use width="568.004883" height="476.516357" xlink:href="#eLoziI3lqWb3" fill="#add5d3" fill-rule="evenodd" stroke-width="28.222" stroke-linejoin="round"/><use width="566.004883" height="474.096558" xlink:href="#eLoziI3lqWb2" fill="#fff" fill-rule="evenodd" stroke-width="28.222" stroke-linejoin="round"/><use width="568.004883" height="476.516357" xlink:href="#eLoziI3lqWb3" fill="#add5d3" fill-rule="evenodd" stroke-width="28.222" stroke-linejoin="round"/><g><path d="M7224,1187c50-4,102,7,181,87c80,80,88,168,97,203c8,34,2,63-17,43s-50-47-50-47c-34-32-180-164-231-200-50-37-29-82,20-86Zm10,171l282,227c0,0,17-100-48-276c0,0-25-35-93-94l-16-12-15-12c-72-55-113-71-113-71-185-26-278,12-278,12l281,226Z" fill="#c5cbcc" fill-rule="evenodd" stroke-width="28.222" stroke-linejoin="round"/><path d="M7018,1185c54-25,114-41,173-39c35,1,65,13,96,28c2,2,4,3,7,4c25,12,47,30,69,47c41,31,82,65,112,106-2-7-5-14-7-21c0,0-25-35-94-94c0,0-11-8-16-13l-15-12c-72-55-112-71-112-71-185-26-278,12-278,12l65,53Z" fill="#c5cbcc" fill-rule="evenodd" stroke-width="28.222" stroke-linejoin="round"/></g><path d="M7259,1330c155,125,270,239,258,255-13,16-149-72-306-197-155-125-270-240-258-256c13-16,150,72,306,198Z" fill="#fff" fill-rule="evenodd" stroke-width="28.222" stroke-linejoin="round"/><path d="M7211,1387c169,134,293,210,303,197c11-13-90-118-258-253s-292-211-302-198c-11,14,90,118,257,254Zm47-58c139,111,274,238,259,257s-168-85-308-197c-138-111-273-239-258-258c15-18,168,86,307,198Z" fill="#add5d3" fill-rule="evenodd" stroke-width="28.222" stroke-linejoin="round"/><use width="552.461426" height="444.91394" xlink:href="#eLoziI3lqWb4" fill="#fff" fill-rule="evenodd" stroke-width="28.222" stroke-linejoin="round"/><path d="M7215,1383c163,129,285,207,294,196s-94-113-256-243c-161-129-284-208-293-197-8,11,94,114,255,244Zm40-49c135,107,270,231,256,247-6,8-38-8-96-47-56-37-128-90-201-149-134-107-269-232-256-248c6-8,38,8,96,48c56,37,127,90,201,149Z" fill="#add5d3" fill-rule="evenodd" stroke-width="28.222" stroke-linejoin="round"/><use width="552.461426" height="444.91394" xlink:href="#eLoziI3lqWb4" fill="#c5cbcc" fill-rule="evenodd" stroke-width="28.222" stroke-linejoin="round"/><path d="M8079,1366c24-8,30-57,13-109-17-51-51-86-75-78-26,8-32,56-15,108c19,51,52,88,77,79Z" fill="#fff" fill-rule="evenodd" stroke-width="28.222" stroke-linejoin="round"/><path d="M8003,1287c-17-50-12-99,12-107s58,27,75,79c17,50,11,98-13,106s-57-27-74-78Zm89-29c-17-53-53-89-78-81-25,9-31,59-14,111c17,53,52,88,78,80c26-9,32-58,14-110Z" fill="#add5d3" fill-rule="evenodd" stroke-width="28.222" stroke-linejoin="round"/><g><path d="M7994,1210c3-16,10-27,21-30c14-6,32,5,47,23-24,1-46,3-68,7Zm37,132l70-33c1,29-7,52-23,57-14,5-32-4-47-24Z" fill="#c5cbcc" fill-rule="evenodd" stroke-width="28.222" stroke-linejoin="round"/></g><path d="M7923,1562c-11-22,4-43,4-43c9-4,19-9,27-13-5,11-9,28,0,40c18,22,84,1,97-69c3-15-1-31-7-38c13-16,17-25,17-25c5,10,31,55-5,109-60,88-119,66-133,39Z" fill="#fff" fill-rule="evenodd" stroke-width="28.222" stroke-linejoin="round"/><path d="M8061,1417c2,4,5,9,7,16c7,21,10,53-13,89-39,56-74,63-92,62-20-1-33-13-39-23c0-1-1-3-2-5-6-17,4-33,6-36c7-4,15-8,22-12-3,9-6,21-3,31c1,3,3,5,5,8c7,8,20,11,37,7c24-6,55-30,64-78c1-9,0-20-3-29-1-3-2-6-4-9c9-10,13-17,15-21Zm10,16c-3-9-6-15-8-18l-1-2c0,0,0-1-1-1l-1,1c0,0-4,10-17,24v2c2,2,3,5,5,9c2,9,3,19,2,27-9,47-39,70-62,76-15,4-28,2-34-6-2-2-3-5-4-7-3-10,0-24,4-32v-2h-2c-8,4-17,9-26,13-1,2-13,20-7,40l3,6c7,13,23,23,41,24c43,2,77-38,94-63c24-38,21-70,14-91Z" fill="#add5d3" fill-rule="evenodd" stroke-width="28.222" stroke-linejoin="round"/><g><path d="M8043,1529c-16,16-35,28-57,34-9,2-20,4-29,0-6-3-11-7-14-14-2-4-3-8-5-12-5-8-11-9-17-6c3-7,6-12,6-12c9-4,18-9,26-14-5,12-9,29,0,41c18,22,84,1,97-71c3-14-1-30-7-37c13-15,17-24,17-24c4,8,25,42,8,85-8,12-17,21-25,30Z" fill="#c5cbcc" fill-rule="evenodd" stroke-width="28.222" stroke-linejoin="round"/><path d="M7922,1528c2-5,5-10,5-10c10-4,19-9,27-13-2,4-4,9-5,14-8,5-18,7-27,9Zm137-82c-3,0-7,3-10,6-2-6-4-10-6-13c13-16,17-25,17-25c4,5,11,19,14,39-3-5-7-8-15-7Z" fill="#c5cbcc" fill-rule="evenodd" stroke-width="28.222" stroke-linejoin="round"/></g><path d="M7910,1529c0,0,231-68,168-259l-5-13c-64-192-290-106-290-106l127,378Z" fill="#fff" fill-rule="evenodd" stroke-width="28.222" stroke-linejoin="round"/><path d="M7785,1151c13-4,116-39,198,0c42,20,71,55,88,105l4,14c18,50,15,96-7,136-42,81-145,116-158,120l-125-375Zm293,118l-4-13c-17-51-47-87-90-107-88-43-200,0-203,0c0,0-1,1,0,2l126,378c1,1,2,1,2,1c1-1,117-36,162-122c23-42,25-88,7-139Z" fill="#add5d3" fill-rule="evenodd" stroke-width="28.222" stroke-linejoin="round"/><g><path d="M8008,1337c33-18,43-36,43-36c20-41-14-89-14-89-56-82-179-69-202-61-22,7-5,32-5,32c29,46,45,89,65,123c12,20,69,55,113,31Zm-98,192l-127-378c0,0,226-86,290,106l5,13c63,191-168,259-168,259Z" fill="#c5cbcc" fill-rule="evenodd" stroke-width="28.222" stroke-linejoin="round"/><path d="M7910,1528l-127-378h1c23,8,39,41,47,59c7,13,12,26,18,39c14,32,28,62,40,93c6,15,10,31,16,46c5,13,10,28,19,39c8,10,19,17,32,18c15,2,31-5,45-12c16-8,30-18,44-29c12-10,24-21,31-35c6-9,10-20,13-31-3,140-179,191-179,191Z" fill="#c5cbcc" fill-rule="evenodd" stroke-width="28.222" stroke-linejoin="round"/></g><path d="M7817,1350c-35-105-50-194-34-200c16-5,57,75,92,180c36,104,51,193,35,198-16,6-58-74-93-178Z" fill="#fff" fill-rule="evenodd" stroke-width="28.222" stroke-linejoin="round"/><path d="M7818,1349c-37-113-48-193-35-197c14-5,53,66,91,179c38,112,49,191,35,196-13,4-53-66-91-178Zm59-19c-32-95-75-187-95-181-19,6,2,107,33,201c31,93,76,186,95,180c20-7-1-107-33-200Z" fill="#add5d3" fill-rule="evenodd" stroke-width="28.222" stroke-linejoin="round"/><use width="129.724609" height="357.303711" xlink:href="#eLoziI3lqWb5" fill="#fff" fill-rule="evenodd" stroke-width="28.222" stroke-linejoin="round"/><path d="M8205,2154l-4,2l2-2h2Z" fill="#fff" fill-rule="evenodd" stroke-width="28.222" stroke-linejoin="round"/><path d="M6897,2072l-14,26c-4,7,52,46,126,85c73,40,137,66,141,58l14-25-267-144Z" fill="#fff" fill-rule="evenodd" stroke-width="28.222" stroke-linejoin="round"/><path d="M6897,2074l-12,24c0,0-2,4,33,28c23,16,56,36,92,56c35,19,69,36,97,46c39,17,42,13,42,12l13-24-265-142Zm111,111c-54-31-132-78-126-89l14-25c0-1,1-1,2-1l266,145c1,0,1,1,1,2l-14,25c-5,11-89-28-143-57Z" fill="#add5d3" fill-rule="evenodd" stroke-width="28.222" stroke-linejoin="round"/><path d="M6897,2072l-8,13c11,14,25,25,39,34l62,39c14,7,27,15,40,22s26,12,38,20c7,6,10,12,11,18c39,19,68,28,71,23l14-25-267-144Z" fill="#c5cbcc" fill-rule="evenodd" stroke-width="28.222" stroke-linejoin="round"/><use width="636" height="406" xlink:href="#eLoziI3lqWb81" fill="#fff" fill-rule="evenodd" stroke-width="28.222" stroke-linejoin="round"/><use width="639" height="409" xlink:href="#eLoziI3lqWb82" fill="#add5d3" fill-rule="evenodd" stroke-width="28.222" stroke-linejoin="round"/><use width="636" height="406" xlink:href="#eLoziI3lqWb81" fill="#fff" fill-rule="evenodd" stroke-width="28.222" stroke-linejoin="round"/><use width="639" height="409" xlink:href="#eLoziI3lqWb82" fill="#add5d3" fill-rule="evenodd" stroke-width="28.222" stroke-linejoin="round"/><g><path d="M7155,2155c-48,12-101,11-194-53-92-64-116-150-131-182s-14-62,8-46c23,16,58,38,58,38c39,25,207,128,263,155c56,26,44,75-4,88Zm-41-167l-318-172c0,0,1,101,97,263c0,0,31,30,109,75l17,10l18,9c81,40,122,49,122,49c188-8,273-63,273-63l-318-171Z" fill="#c5cbcc" fill-rule="evenodd" stroke-width="28.222" stroke-linejoin="round"/><path d="M7358,2118c-48,34-105,61-163,70-34,6-67-1-100-11-3,0-5-1-8-2-26-7-52-19-76-32-46-24-92-50-129-85c4,7,8,13,11,20c0,0,31,30,109,75l17,10l18,9c81,41,123,50,123,50c187-8,272-64,272-64l-74-40Z" fill="#c5cbcc" fill-rule="evenodd" stroke-width="28.222" stroke-linejoin="round"/></g><path d="M7096,2021c-175-96-309-187-300-205c10-18,160,44,335,139c177,95,311,186,301,204-9,18-159-44-336-138Z" fill="#fff" fill-rule="evenodd" stroke-width="28.222" stroke-linejoin="round"/><path d="M7132,1956c-189-102-325-154-333-139s110,100,299,203c189,101,326,154,334,138c8-15-111-99-300-202Zm-35,66c-157-85-312-185-301-206c12-22,180,53,337,137c157,86,313,186,302,207-12,21-182-53-338-138Z" fill="#add5d3" fill-rule="evenodd" stroke-width="28.222" stroke-linejoin="round"/><use width="622.69043" height="339.691772" xlink:href="#eLoziI3lqWb83" fill="#fff" fill-rule="evenodd" stroke-width="28.222" stroke-linejoin="round"/><path d="M7128,1962c-182-100-316-154-323-142-7,13,113,96,295,194s317,153,324,140c7-12-113-94-296-192Zm-29,55c-151-82-308-179-297-198c5-8,40,1,104,29c61,26,141,66,224,111c151,81,307,178,297,197-4,8-40-1-104-29-62-26-141-66-224-110Z" fill="#add5d3" fill-rule="evenodd" stroke-width="28.222" stroke-linejoin="round"/><use width="622.69043" height="339.691772" xlink:href="#eLoziI3lqWb83" fill="#c5cbcc" fill-rule="evenodd" stroke-width="28.222" stroke-linejoin="round"/><path d="M7840,2123l-7,28c-1,9,63,31,144,50s150,27,152,19l6-28-295-69Z" fill="#fff" fill-rule="evenodd" stroke-width="28.222" stroke-linejoin="round"/><path d="M7841,2124l-6,27c0,0-1,5,40,19c27,9,63,20,102,29c40,10,77,17,106,20c43,6,44,1,44,1l6-27-292-69Zm136,78c-60-14-148-40-145-52l7-28c0-1,1-1,1-1l295,70c1,0,2,1,2,1l-7,28c-3,12-94-4-153-18Z" fill="#add5d3" fill-rule="evenodd" stroke-width="28.222" stroke-linejoin="round"/><path d="M7841,2123l-5,16c15,10,32,16,47,21c23,8,47,15,70,21c15,4,30,8,45,11c14,4,28,5,41,10c9,3,13,8,16,14c43,8,72,9,74,4l6-28-294-69Z" fill="#c5cbcc" fill-rule="evenodd" stroke-width="28.222" stroke-linejoin="round"/><use width="703" height="297.066162" xlink:href="#eLoziI3lqWb84" fill="#fff" fill-rule="evenodd" stroke-width="28.222" stroke-linejoin="round"/><use width="706" height="299.07251" xlink:href="#eLoziI3lqWb85" fill="#add5d3" fill-rule="evenodd" stroke-width="28.222" stroke-linejoin="round"/><use width="703" height="297.066162" xlink:href="#eLoziI3lqWb84" fill="#fff" fill-rule="evenodd" stroke-width="28.222" stroke-linejoin="round"/><use width="706" height="299.07251" xlink:href="#eLoziI3lqWb85" fill="#add5d3" fill-rule="evenodd" stroke-width="28.222" stroke-linejoin="round"/><g><path d="M8111,2135c-42,25-94,38-200,0s-153-114-175-141c-23-28-30-56-4-46c26,9,66,21,66,21c45,14,234,68,294,79c61,11,61,63,19,87Zm-83-151l-352-82c0,0,28,98,163,228c0,0,38,21,125,44c0,0,13,4,19,5c6,2,19,4,19,4c89,18,132,16,132,16c178-57,245-133,245-133l-351-82Z" fill="#c5cbcc" fill-rule="evenodd" stroke-width="28.222" stroke-linejoin="round"/><path d="M8298,2047c-38,45-86,86-140,111-31,14-64,17-98,16-3,0-5,0-8-1-28,1-56-5-83-11-50-11-102-24-147-48c6,5,11,10,16,15c0,0,38,22,125,45c0,0,13,4,19,5c6,2,19,4,19,4c90,18,133,16,133,16c178-58,245-133,245-133l-81-19Z" fill="#c5cbcc" fill-rule="evenodd" stroke-width="28.222" stroke-linejoin="round"/></g><path d="M8020,2022c-194-46-349-99-344-119s167,1,361,46s347,99,342,119c-4,20-165-1-359-46Z" fill="#fff" fill-rule="evenodd" stroke-width="28.222" stroke-linejoin="round"/><path d="M8036,1949c-210-49-355-64-358-47-4,17,132,68,342,117c209,48,354,63,358,47c4-17-132-68-342-117Zm-16,73c-175-41-351-96-345-121c5-23,188,4,362,46c173,40,349,96,344,119-6,24-188-4-361-44Z" fill="#add5d3" fill-rule="evenodd" stroke-width="28.222" stroke-linejoin="round"/><use width="688.155762" height="172.495117" xlink:href="#eLoziI3lqWb86" fill="#fff" fill-rule="evenodd" stroke-width="28.222" stroke-linejoin="round"/><path d="M8034,1955c-202-47-346-65-349-51-4,14,133,62,335,109s346,65,350,51c3-14-134-62-336-109Zm-15,61c-167-39-342-92-337-112c2-10,38-9,107,0c66,10,153,27,246,48c167,39,342,92,338,112-3,11-39,10-108,0-66-10-153-27-246-48Z" fill="#add5d3" fill-rule="evenodd" stroke-width="28.222" stroke-linejoin="round"/><use width="688.155762" height="172.495117" xlink:href="#eLoziI3lqWb86" fill="#c5cbcc" fill-rule="evenodd" stroke-width="28.222" stroke-linejoin="round"/><path d="M6763,1876l7,29c2,8,69-1,151-21c81-21,145-44,143-52l-6-28-295,72Z" fill="#fff" fill-rule="evenodd" stroke-width="28.222" stroke-linejoin="round"/><path d="M6765,1878l6,26c0,0,2,5,44-1c30-4,67-11,106-21c39-9,76-20,103-29c40-15,39-20,39-20l-7-27-291,72Zm157,7c-60,15-150,32-153,20l-7-28c0-1,0-2,1-2l294-73c1,0,2,1,2,1l7,29c3,12-85,39-144,53Z" fill="#add5d3" fill-rule="evenodd" stroke-width="28.222" stroke-linejoin="round"/><path d="M6763,1877l4,15c16,3,34,1,50-2c24-3,48-8,72-13c16-3,31-7,47-10c13-3,27-8,41-10c9-1,15,1,20,6c42-13,69-25,67-30l-6-29-295,73Z" fill="#c5cbcc" fill-rule="evenodd" stroke-width="28.222" stroke-linejoin="round"/><use width="702" height="303.008301" xlink:href="#eLoziI3lqWb87" fill="#fff" fill-rule="evenodd" stroke-width="28.222" stroke-linejoin="round"/><use width="704" height="305.060547" xlink:href="#eLoziI3lqWb88" fill="#add5d3" fill-rule="evenodd" stroke-width="28.222" stroke-linejoin="round"/><use width="702" height="303.008301" xlink:href="#eLoziI3lqWb87" fill="#fff" fill-rule="evenodd" stroke-width="28.222" stroke-linejoin="round"/><use width="704" height="305.060547" xlink:href="#eLoziI3lqWb88" fill="#add5d3" fill-rule="evenodd" stroke-width="28.222" stroke-linejoin="round"/><g><path d="M7010,1765c-27,41-67,76-179,90-112,15-187-32-219-46-33-14-52-36-24-39c27-4,67-11,67-11c47-8,240-45,299-62c60-18,83,27,56,68Zm-142-96l-351,85c0,0,69,75,248,131c0,0,43,1,131-19c0,0,13-2,19-4c6-1,19-5,19-5c88-24,125-45,125-45c134-132,160-230,160-230l-351,87Z" fill="#c5cbcc" fill-rule="evenodd" stroke-width="28.222" stroke-linejoin="round"/><path d="M7137,1603c-13,58-37,115-74,161-22,27-51,44-82,58-2,2-5,3-7,4-25,12-52,20-79,27-49,13-101,25-151,24c6,2,14,4,21,8c0,0,43,1,131-19c0,0,13-2,19-4c6-1,19-5,19-5c87-24,125-45,125-45c134-132,160-230,160-230l-82,21Z" fill="#c5cbcc" fill-rule="evenodd" stroke-width="28.222" stroke-linejoin="round"/></g><path d="M6877,1705c-194,47-355,69-360,49-4-19,148-74,342-122s355-70,360-50-148,74-342,123Z" fill="#fff" fill-rule="evenodd" stroke-width="28.222" stroke-linejoin="round"/><path d="M6859,1633c-208,51-344,104-340,121s149,0,357-52c209-51,346-103,341-120-4-17-149,0-358,51Zm18,72c-173,43-355,73-361,50-6-24,170-82,343-125c172-42,356-72,361-49c6,24-170,82-343,124Z" fill="#add5d3" fill-rule="evenodd" stroke-width="28.222" stroke-linejoin="round"/><use width="686.199219" height="179.928345" xlink:href="#eLoziI3lqWb89" fill="#fff" fill-rule="evenodd" stroke-width="28.222" stroke-linejoin="round"/><path d="M6861,1639c-201,49-338,100-335,113c3,14,148-5,349-55c201-49,337-99,334-113s-147,6-348,55Zm15,61c-167,42-348,74-353,53-2-9,30-26,97-49c63-21,149-46,240-68c167-41,347-73,352-53c2,10-30,26-96,48-63,22-149,46-240,69Z" fill="#add5d3" fill-rule="evenodd" stroke-width="28.222" stroke-linejoin="round"/><use width="686.199219" height="179.928345" xlink:href="#eLoziI3lqWb89" fill="#c5cbcc" fill-rule="evenodd" stroke-width="28.222" stroke-linejoin="round"/><path d="M7291,2544l-6,29c-2,8,63,29,145,46c81,17,149,24,151,16l7-29-297-62Z" fill="#fff" fill-rule="evenodd" stroke-width="28.222" stroke-linejoin="round"/><path d="M7292,2546l-5,27c0,0-1,5,40,18c27,9,64,18,103,26c40,9,77,15,106,18c43,4,44-1,44-1l6-26-294-62Zm137,74c-60-12-148-35-145-47l5-30c1,0,1-1,2-1l297,63c1,0,1,1,1,2l-6,28c-2,13-94-2-154-15Z" fill="#add5d3" fill-rule="evenodd" stroke-width="28.222" stroke-linejoin="round"/><path d="M7291,2544l-3,15c13,11,30,16,46,21l72,20c15,3,30,7,45,10c13,3,28,4,41,9c9,2,13,7,16,14c43,6,73,7,74,2l6-29-297-62Z" fill="#c5cbcc" fill-rule="evenodd" stroke-width="28.222" stroke-linejoin="round"/><use width="707" height="286.244873" xlink:href="#eLoziI3lqWb90" fill="#fff" fill-rule="evenodd" stroke-width="28.222" stroke-linejoin="round"/><use width="709.888672" height="289.223145" xlink:href="#eLoziI3lqWb91" fill="#add5d3" fill-rule="evenodd" stroke-width="28.222" stroke-linejoin="round"/><use width="707" height="286.244873" xlink:href="#eLoziI3lqWb90" fill="#fff" fill-rule="evenodd" stroke-width="28.222" stroke-linejoin="round"/><use width="709.888672" height="289.223145" xlink:href="#eLoziI3lqWb91" fill="#add5d3" fill-rule="evenodd" stroke-width="28.222" stroke-linejoin="round"/><g><path d="M7562,2550c-41,25-93,40-200,5-107-36-154-111-177-138-25-26-32-55-5-46c26,9,65,20,65,20c46,13,236,63,296,73c61,9,63,61,21,86Zm-86-149l-354-74c0,0,30,97,168,225c0,0,38,20,126,41c0,0,13,3,19,4s20,4,20,4c89,16,131,12,131,12c177-61,243-138,243-138l-353-74Z" fill="#c5cbcc" fill-rule="evenodd" stroke-width="28.222" stroke-linejoin="round"/><path d="M7747,2458c-37,46-84,88-137,113-31,15-64,18-98,18h-8c-28,1-55-4-83-9-50-10-102-22-148-45l16,16c0,0,38,20,127,42c0,0,13,3,19,4s20,4,20,4c89,16,131,12,131,12c177-62,243-138,243-138l-82-17Z" fill="#c5cbcc" fill-rule="evenodd" stroke-width="28.222" stroke-linejoin="round"/></g><path d="M7468,2438c-195-40-350-90-346-111c4-20,167-3,362,38c194,41,349,91,345,111s-166,3-361-38Z" fill="#fff" fill-rule="evenodd" stroke-width="28.222" stroke-linejoin="round"/><path d="M7482,2367c-211-45-356-56-360-38-3,17,134,64,346,108c210,44,355,55,358,38c4-16-134-64-344-108Zm-15,73c-174-37-352-88-347-113c4-23,189,0,363,37s351,88,346,112c-5,25-188,0-362-36Z" fill="#add5d3" fill-rule="evenodd" stroke-width="28.222" stroke-linejoin="round"/><use width="691.121094" height="158.05249" xlink:href="#eLoziI3lqWb92" fill="#fff" fill-rule="evenodd" stroke-width="28.222" stroke-linejoin="round"/><path d="M7481,2372c-203-43-348-57-350-43-3,14,135,59,338,102c203,42,347,56,350,43c3-14-135-60-338-102Zm-12,62c-169-36-346-84-341-105c2-10,38-10,107-2c66,8,154,23,247,42c168,35,344,84,340,105-2,10-38,10-107,2-67-8-154-23-246-42Z" fill="#add5d3" fill-rule="evenodd" stroke-width="28.222" stroke-linejoin="round"/><use width="691.121094" height="158.05249" xlink:href="#eLoziI3lqWb92" fill="#c5cbcc" fill-rule="evenodd" stroke-width="28.222" stroke-linejoin="round"/><path d="M6355,1850l8,27c3,8,70-5,149-29c80-26,144-52,141-60l-9-28-289,90Z" fill="#fff" fill-rule="evenodd" stroke-width="28.222" stroke-linejoin="round"/><path d="M6356,1851l8,26c0,0,2,5,44-4c28-5,64-15,103-27c38-11,74-25,101-36c40-17,39-22,39-22l-8-26-287,89Zm156-2c-59,18-147,41-151,29l-8-28c-1-1,0-1,1-2l289-89c1,0,2,0,2,1l9,27c3,12-84,43-142,62Z" fill="#add5d3" fill-rule="evenodd" stroke-width="28.222" stroke-linejoin="round"/><path d="M6355,1850l3,9c5,2,11,2,16,2c10,0,21,0,31-1c26-3,53-9,78-15c14-3,27-6,40-12c11-3,23-8,35-12c5-2,14-5,19,1c0,1,1,2,2,3c45-17,76-32,74-37l-9-28-289,90Z" fill="#c5cbcc" fill-rule="evenodd" stroke-width="28.222" stroke-linejoin="round"/><path d="M6731,1500c0,0,87,235-214,327l-20,7c-300,91-359-152-359-152l593-182Z" fill="#fff" fill-rule="evenodd" stroke-width="28.222" stroke-linejoin="round"/><path d="M6139,1683c3,11,28,94,108,139c65,38,148,41,248,10l21-6c100-31,167-80,201-148c41-82,16-165,12-176l-590,181Zm378,146l-21,6c-101,31-185,28-251-10-86-49-109-142-109-143-1-1,0-2,1-2l592-181c1,0,2,0,2,1c1,1,33,90-11,179-34,69-103,119-203,150Z" fill="#add5d3" fill-rule="evenodd" stroke-width="28.222" stroke-linejoin="round"/><g><path d="M6576,1734c-15,41-77,72-77,72-158,74-251,9-279-18-27-27-72-77-18-87c55-9,124-29,124-29l230-70c39-11,39,78,20,132Zm155-234l-593,182c0,0,59,243,359,152l20-7c301-92,214-327,214-327Z" fill="#c5cbcc" fill-rule="evenodd" stroke-width="28.222" stroke-linejoin="round"/><path d="M6731,1500l-65,20c8,25,13,52,15,78c2,40-5,79-26,115-20,33-50,58-83,76-36,21-76,38-117,48-41,9-84,12-126,10-12,0-23-1-35-3c51,15,117,16,203-10l21-7c300-92,213-327,213-327Z" fill="#c5cbcc" fill-rule="evenodd" stroke-width="28.222" stroke-linejoin="round"/></g><path d="M6443,1622c-163,50-300,77-305,61-5-17,123-72,287-122c163-51,301-78,306-61s-124,71-288,122Z" fill="#fff" fill-rule="evenodd" stroke-width="28.222" stroke-linejoin="round"/><path d="M6425,1562c-176,54-291,106-287,120c5,14,129-7,305-62c176-54,290-105,285-119-4-14-127,7-303,61Zm19,61c-79,24-155,45-213,56-61,12-93,13-95,4-3-9,24-27,80-51c56-23,129-49,208-73s155-44,212-55c61-12,92-13,95-4s-24,26-81,50c-54,23-127,49-206,73Z" fill="#add5d3" fill-rule="evenodd" stroke-width="28.222" stroke-linejoin="round"/><use width="569.188477" height="181.633911" xlink:href="#eLoziI3lqWb93" fill="#fff" fill-rule="evenodd" stroke-width="28.222" stroke-linejoin="round"/><path d="M6429,1568c-76,24-147,49-199,70-78,31-78,39-77,40c0,1,5,8,86-10c55-11,127-31,204-54c76-23,146-49,199-70c77-31,77-39,77-40s-5-8-87,10c-55,12-127,31-203,54Zm15,49c-139,42-289,78-294,62-1-3-4-11,79-44c52-21,123-45,199-70c139-42,289-78,294-62c0,3,3,11-79,44-53,21-123,47-199,70Z" fill="#add5d3" fill-rule="evenodd" stroke-width="28.222" stroke-linejoin="round"/><use width="569.188477" height="181.633911" xlink:href="#eLoziI3lqWb93" fill="#c5cbcc" fill-rule="evenodd" stroke-width="28.222" stroke-linejoin="round"/><path d="M4791,1683v29c0,9,68,16,151,16c84,0,152-7,152-16v-29h-303Z" fill="#fff" fill-rule="evenodd" stroke-width="28.222" stroke-linejoin="round"/><path d="M4792,1684v28c0,0,1,6,43,10c29,3,68,4,108,4s78-1,107-4c42-4,42-10,42-10v-28h-300Zm151,45c-61,0-154-4-154-17v-29c0-1,1-2,2-2h303c1,0,1,1,1,2v29c0,13-91,17-152,17Z" fill="#add5d3" fill-rule="evenodd" stroke-width="28.222" stroke-linejoin="round"/><path d="M4791,1683v9c4,3,10,5,15,7c10,4,20,7,30,9c26,5,53,7,79,9c14,1,27,1,42,1c12,0,24-2,37-2c6,0,15,0,18,7c0,1,1,2,1,3c48-2,81-8,81-14v-29h-303Z" fill="#c5cbcc" fill-rule="evenodd" stroke-width="28.222" stroke-linejoin="round"/><use width="620.208496" height="251" xlink:href="#eLoziI3lqWb94" fill="#fff" fill-rule="evenodd" stroke-width="28.222" stroke-linejoin="round"/><path d="M4634,1461c0,12,0,98,62,165c52,55,131,82,236,82h22c104,0,183-27,235-82c62-67,62-153,62-165h-617Zm320,250h-22c-106,0-186-28-238-83-68-73-63-168-63-169s1-1,1-1h620c1,0,2,0,2,1s5,96-63,169c-52,55-132,83-237,83Z" fill="#add5d3" fill-rule="evenodd" stroke-width="28.222" stroke-linejoin="round"/><g><path d="M5037,1637c-26,35-94,47-94,47-173,24-244-65-263-99-18-34-46-96,8-89c56,7,128,9,128,9h240c40,1,14,87-19,132Zm215-178h-620c0,0-14,251,300,251h22c313,0,298-251,298-251Z" fill="#c5cbcc" fill-rule="evenodd" stroke-width="28.222" stroke-linejoin="round"/><path d="M5252,1459h-67c.0277,26.590676-2.992001,53.096935-9,79-9,40-29,75-59,103-29,25-65,40-102,48-40,9-83,14-124,11-42-2-84-12-124-26-11-4-22-9-33-14c44,29,107,50,197,50h22c314,0,299-251,299-251Z" fill="#c5cbcc" fill-rule="evenodd" stroke-width="28.222" stroke-linejoin="round"/></g><path d="M4791,1648v30c0,8,68,15,151,15c84,0,152-7,152-15v-30h-303Z" fill="#fff" fill-rule="evenodd" stroke-width="28.222" stroke-linejoin="round"/><use width="306" height="48" xlink:href="#eLoziI3lqWb95" fill="#add5d3" fill-rule="evenodd" stroke-width="28.222" stroke-linejoin="round"/><path d="M4791,1648v11c4,3,10,5,15,6c10,3,20,6,30,8c26,6,53,8,79,9c14,1,27,2,42,1c12,0,24-1,37-2c6,0,15,0,18,7c0,1,1,2,1,4c48-3,81-8,81-14v-30h-303Z" fill="#c5cbcc" fill-rule="evenodd" stroke-width="28.222" stroke-linejoin="round"/><use width="620.208496" height="250" xlink:href="#eLoziI3lqWb96" fill="#fff" fill-rule="evenodd" stroke-width="28.222" stroke-linejoin="round"/><path d="M4634,1426c0,12,0,98,62,165c52,55,131,83,236,83h22c104,0,183-28,235-83c62-67,62-153,62-165h-617Zm320,251h-22c-106,0-186-28-238-85-68-72-63-166-63-167s1-2,1-2h620c1,0,2,1,2,2s5,95-63,167c-52,57-132,85-237,85Z" fill="#add5d3" fill-rule="evenodd" stroke-width="28.222" stroke-linejoin="round"/><g><path d="M5037,1603c-26,35-94,46-94,46-173,25-244-65-263-99-18-34-46-95,8-89c56,7,128,10,128,10h240c40,1,14,87-19,132Zm215-178h-620c0,0-14,250,300,250h22c313,0,298-250,298-250Z" fill="#c5cbcc" fill-rule="evenodd" stroke-width="28.222" stroke-linejoin="round"/><path d="M5252,1425h-67c0,26-3,53-9,78-9,41-29,76-59,103-29,26-65,40-102,49-40,9-83,14-124,11-42-3-84-13-124-27-11-4-22-8-33-14c44,30,107,50,197,50h22c314,0,299-250,299-250Z" fill="#c5cbcc" fill-rule="evenodd" stroke-width="28.222" stroke-linejoin="round"/></g><path d="M4791,1790v29c0,9,68,16,151,16c84,0,152-7,152-16v-29h-303Z" fill="#fff" fill-rule="evenodd" stroke-width="28.222" stroke-linejoin="round"/><path d="M4792,1791v28c0,0,1,5,43,10c29,3,68,4,108,4s78-1,107-4c42-5,42-10,42-10v-28h-300Zm151,45c-61,0-154-4-154-17v-29c0-1,1-2,2-2h303c1,0,1,1,1,2v29c0,13-91,17-152,17Z" fill="#add5d3" fill-rule="evenodd" stroke-width="28.222" stroke-linejoin="round"/><path d="M4791,1790v9c4,3,10,5,15,7c10,3,20,6,30,8c26,5,53,7,79,9c14,1,27,1,42,1c12,0,24-2,37-2c6,0,15,0,18,7c0,2,1,3,1,4c48-3,81-9,81-15v-28h-303Z" fill="#c5cbcc" fill-rule="evenodd" stroke-width="28.222" stroke-linejoin="round"/><path d="M5252,1566c0,0,15,251-298,251h-22c-314,0-300-251-300-251h620Z" fill="#fff" fill-rule="evenodd" stroke-width="28.222" stroke-linejoin="round"/><path d="M4634,1568c0,12,0,98,62,165c52,55,131,82,236,82h22c104,0,183-27,235-82c62-67,62-153,62-165h-617Zm320,250h-22c-106,0-186-28-238-83-68-72-63-168-63-169s1-1,1-1h620c1,0,2,0,2,1s5,97-63,169c-52,55-132,83-237,83Z" fill="#add5d3" fill-rule="evenodd" stroke-width="28.222" stroke-linejoin="round"/><g><path d="M5037,1743c-26,35-94,48-94,48-173,24-244-66-263-100-18-34-46-95,8-88c56,7,128,9,128,9h240c40,1,14,86-19,131Zm215-177h-620c0,0-14,251,300,251h22c313,0,298-251,298-251Z" fill="#c5cbcc" fill-rule="evenodd" stroke-width="28.222" stroke-linejoin="round"/><path d="M5252,1566h-67c0,27-3,53-9,78-9,40-29,75-59,103-29,25-65,40-102,49-40,9-83,14-124,11-42-2-84-12-124-28-11-3-22-8-33-13c44,30,107,51,197,51h22c314,0,299-251,299-251Z" fill="#c5cbcc" fill-rule="evenodd" stroke-width="28.222" stroke-linejoin="round"/></g><path d="M4791,1896v29c0,10,68,17,151,17c84,0,152-7,152-17v-29h-303Z" fill="#fff" fill-rule="evenodd" stroke-width="28.222" stroke-linejoin="round"/><path d="M4792,1898v27c0,0,1,5,43,10c29,3,68,5,108,5s78-2,107-5c42-5,42-10,42-10v-27h-300Zm151,45c-61,0-154-5-154-18v-29c0,0,1-1,2-1h303c1,0,1,1,1,1v29c0,13-91,18-152,18Z" fill="#add5d3" fill-rule="evenodd" stroke-width="28.222" stroke-linejoin="round"/><path d="M4791,1896v10c4,3,10,6,15,8c10,3,20,6,30,8c26,5,53,7,79,9c14,0,27,1,42,1c12,0,24-2,37-2c6,0,15-1,18,6c0,2,1,3,1,4c48-3,81-8,81-14v-30h-303Z" fill="#c5cbcc" fill-rule="evenodd" stroke-width="28.222" stroke-linejoin="round"/><path d="M5252,1673c0,0,15,251-298,251h-22c-314,0-300-251-300-251h620Z" fill="#fff" fill-rule="evenodd" stroke-width="28.222" stroke-linejoin="round"/><path d="M4634,1675c0,12,0,97,62,164c52,55,131,83,236,83h22c104,0,183-28,235-83c62-67,62-152,62-164h-617Zm320,250h-22c-106,0-186-28-238-84-68-72-63-167-63-168s1-1,1-1h620c1,0,2,0,2,1s5,96-63,168c-52,56-132,84-237,84Z" fill="#add5d3" fill-rule="evenodd" stroke-width="28.222" stroke-linejoin="round"/><g><path d="M5037,1851c-26,35-94,46-94,46-173,25-244-64-263-98-18-35-46-96,8-89c56,7,128,9,128,9h240c40,1,14,87-19,132Zm215-178h-620c0,0-14,251,300,251h22c313,0,298-251,298-251Z" fill="#c5cbcc" fill-rule="evenodd" stroke-width="28.222" stroke-linejoin="round"/><path d="M5252,1673h-67c0,26-3,53-9,78-9,41-29,76-59,103-29,26-65,41-102,49-40,9-83,14-124,11-42-3-84-12-124-27-11-4-22-8-33-13c44,29,107,50,197,50h22c314,0,299-251,299-251Z" fill="#c5cbcc" fill-rule="evenodd" stroke-width="28.222" stroke-linejoin="round"/></g><path d="M4791,2003v30c0,9,68,16,151,16c84,0,152-7,152-16v-30h-303Z" fill="#fff" fill-rule="evenodd" stroke-width="28.222" stroke-linejoin="round"/><path d="M4792,2005v27c0,0,1,6,43,11c29,3,68,4,108,4s78-1,107-4c42-5,42-11,42-11v-27h-300Zm151,45c-61,0-154-4-154-18v-29c0,0,1-1,2-1h303c1,0,1,1,1,1v29c0,14-91,18-152,18Z" fill="#add5d3" fill-rule="evenodd" stroke-width="28.222" stroke-linejoin="round"/><path d="M4791,2003v10c4,3,10,5,15,7c10,3,20,5,30,8c26,5,53,7,79,10c14,0,27,1,42,1c12,0,24-2,37-2c6,0,15-2,18,6c0,1,1,3,1,4c48-3,81-8,81-15v-29h-303Z" fill="#c5cbcc" fill-rule="evenodd" stroke-width="28.222" stroke-linejoin="round"/><path d="M5252,1780c0,0,15,250-298,250h-22c-314,0-300-250-300-250h620Z" fill="#fff" fill-rule="evenodd" stroke-width="28.222" stroke-linejoin="round"/><path d="M4634,1781c0,12,0,99,62,166c52,54,131,82,236,82h22c104,0,183-28,235-82c62-67,62-154,62-166h-617Zm320,251h-22c-106,0-186-28-238-83-68-72-63-168-63-169s1-1,1-1h620c1,0,2,0,2,1s5,97-63,169c-52,55-132,83-237,83Z" fill="#add5d3" fill-rule="evenodd" stroke-width="28.222" stroke-linejoin="round"/><g><path d="M5037,1958c-26,35-94,46-94,46-173,25-244-64-263-98-18-34-46-95,8-88c56,7,128,9,128,9h240c40,1,14,86-19,131Zm215-178h-620c0,0-14,250,300,250h22c313,0,298-250,298-250Z" fill="#c5cbcc" fill-rule="evenodd" stroke-width="28.222" stroke-linejoin="round"/><path d="M5252,1780h-67c0,27-3,54-9,79-9,40-29,75-59,102-29,26-65,41-102,49-40,9-83,14-124,11-42-3-84-12-124-27-11-4-22-8-33-13c44,29,107,49,197,49h22c314,0,299-250,299-250Z" fill="#c5cbcc" fill-rule="evenodd" stroke-width="28.222" stroke-linejoin="round"/></g><path d="M4791,2110v29c0,10,68,17,151,17c84,0,152-7,152-17v-29h-303Z" fill="#fff" fill-rule="evenodd" stroke-width="28.222" stroke-linejoin="round"/><path d="M4792,2112v28c0,0,1,5,43,10c29,2,68,4,108,4s78-2,107-4c42-5,42-10,42-10v-28h-300Zm151,45c-61,0-154-4-154-17v-30c0-1,1-1,2-1h303c1,0,1,0,1,1v30c0,13-91,17-152,17Z" fill="#add5d3" fill-rule="evenodd" stroke-width="28.222" stroke-linejoin="round"/><path d="M4791,2110v11c4,3,10,5,15,7c10,3,20,5,30,8c26,5,53,7,79,8c14,1,27,2,42,2c12,0,24-2,37-2c6,0,15-1,18,6c0,1,1,3,1,4c48-3,81-8,81-14v-30h-303Z" fill="#c5cbcc" fill-rule="evenodd" stroke-width="28.222" stroke-linejoin="round"/><path d="M5252,1887c0,0,15,250-298,250h-22c-314,0-300-250-300-250h620Z" fill="#fff" fill-rule="evenodd" stroke-width="28.222" stroke-linejoin="round"/><path d="M4634,1888c0,12,0,98,62,165c52,55,131,83,236,83h22c104,0,183-28,235-83c62-67,62-153,62-165h-617Zm320,251h-22c-106,0-186-28-238-84-68-73-63-167-63-168s1-2,1-2h620c1,0,2,1,2,2s5,95-63,168c-52,56-132,84-237,84Z" fill="#add5d3" fill-rule="evenodd" stroke-width="28.222" stroke-linejoin="round"/><g><path d="M5037,2065c-26,35-94,46-94,46-173,25-244-64-263-99-18-34-46-95,8-88c56,6,128,9,128,9h240c40,1,14,86-19,132Zm215-178h-620c0,0-14,250,300,250h22c313,0,298-250,298-250Z" fill="#c5cbcc" fill-rule="evenodd" stroke-width="28.222" stroke-linejoin="round"/><path d="M5252,1887h-67c0,26-3,53-9,78-9,40-29,76-59,103-29,26-65,41-102,49-40,9-83,14-124,11-42-3-84-13-124-27-11-4-22-8-33-13c44,29,107,49,197,49h22c314,0,299-250,299-250Z" fill="#c5cbcc" fill-rule="evenodd" stroke-width="28.222" stroke-linejoin="round"/></g><path d="M4791,2217v30c0,8,68,15,151,15c84,0,152-7,152-15v-30h-303Z" fill="#fff" fill-rule="evenodd" stroke-width="28.222" stroke-linejoin="round"/><path d="M4792,2219v28c0,0,1,5,43,9c29,3,68,5,108,5s78-2,107-5c42-4,42-9,42-9v-28h-300Zm151,45c-61,0-154-5-154-17v-30c0-1,1-1,2-1h303c1,0,1,0,1,1v30c0,12-91,17-152,17Z" fill="#add5d3" fill-rule="evenodd" stroke-width="28.222" stroke-linejoin="round"/><path d="M4791,2217v10c4,3,10,5,15,7c10,2,20,5,30,7c26,7,53,9,79,10c14,1,27,2,42,2c12-1,24-2,37-2c6-1,15-1,18,6c0,1,1,2,1,4c48-3,81-8,81-14v-30h-303Z" fill="#c5cbcc" fill-rule="evenodd" stroke-width="28.222" stroke-linejoin="round"/><path d="M5252,1994c0,0,15,250-298,250h-22c-314,0-300-250-300-250h620Z" fill="#fff" fill-rule="evenodd" stroke-width="28.222" stroke-linejoin="round"/><path d="M4634,1995c0,12,0,98,62,166c52,54,131,82,236,82h22c104,0,183-28,235-82c62-68,62-154,62-166h-617Zm320,251h-22c-106,0-186-28-238-83-68-74-63-168-63-169s1-2,1-2h620c1,0,2,1,2,2s5,95-63,169c-52,55-132,83-237,83Z" fill="#add5d3" fill-rule="evenodd" stroke-width="28.222" stroke-linejoin="round"/><g><path d="M5037,2172c-26,35-94,46-94,46-173,25-244-65-263-98-18-34-46-96,8-89c56,6,128,10,128,10h240c40,1,14,86-19,131Zm215-178h-620c0,0-14,250,300,250h22c313,0,298-250,298-250Z" fill="#c5cbcc" fill-rule="evenodd" stroke-width="28.222" stroke-linejoin="round"/><path d="M5252,1994h-67c0,26-3,54-9,79-9,40-29,75-59,102-29,26-65,40-102,49-40,9-83,14-124,11-42-3-84-13-124-27-11-4-22-8-33-13c44,29,107,49,197,49h22c314,0,299-250,299-250Z" fill="#c5cbcc" fill-rule="evenodd" stroke-width="28.222" stroke-linejoin="round"/></g><path d="M4791,2324v29c0,8,68,16,151,16c84,0,152-8,152-16v-29h-303Z" fill="#fff" fill-rule="evenodd" stroke-width="28.222" stroke-linejoin="round"/><path d="M4792,2326v27c0,0,1,5,43,10c29,3,68,5,108,5s78-2,107-5c42-5,42-10,42-10v-27h-300Zm151,45c-61,0-154-5-154-18v-29c0-1,1-1,2-1h303c1,0,1,0,1,1v29c0,13-91,18-152,18Z" fill="#add5d3" fill-rule="evenodd" stroke-width="28.222" stroke-linejoin="round"/><path d="M4791,2324v11c4,3,10,5,15,6c10,3,20,6,30,8c26,6,53,8,79,9c14,1,27,2,42,2c12-1,24-2,37-2c6-1,15-1,18,6c0,1,1,2,1,4c48-3,81-8,81-14v-30h-303Z" fill="#c5cbcc" fill-rule="evenodd" stroke-width="28.222" stroke-linejoin="round"/><path d="M5252,2101c0,0,15,250-298,250h-22c-314,0-300-250-300-250h620Z" fill="#fff" fill-rule="evenodd" stroke-width="28.222" stroke-linejoin="round"/><path d="M4634,2102c0,12,0,98,62,165c52,54,131,82,236,82h22c104,0,183-28,235-82c62-67,62-153,62-165h-617Zm320,251h-22c-106,0-186-29-238-84-68-73-63-167-63-168s1-2,1-2h620c1,0,2,1,2,2s5,95-63,168c-52,55-132,84-237,84Z" fill="#add5d3" fill-rule="evenodd" stroke-width="28.222" stroke-linejoin="round"/><g><path d="M5037,2278c-26,36-94,47-94,47-173,25-244-66-263-100-18-33-46-94,8-88c56,7,128,10,128,10h240c40,1,14,86-19,131Zm215-177h-620c0,0-14,250,300,250h22c313,0,298-250,298-250Z" fill="#c5cbcc" fill-rule="evenodd" stroke-width="28.222" stroke-linejoin="round"/><path d="M5252,2101h-67c0,26-3,53-9,78-9,40-29,75-59,102-29,27-65,41-102,50-40,9-83,14-124,11-42-3-84-13-124-27-11-4-22-8-33-14c44,30,107,50,197,50h22c314,0,299-250,299-250Z" fill="#c5cbcc" fill-rule="evenodd" stroke-width="28.222" stroke-linejoin="round"/></g><path d="M6855,1823c-12,23-62,21-110-6-48-26-76-65-64-88c12-22,61-20,109,6s77,65,65,88Z" fill="#fff" fill-rule="evenodd" stroke-width="28.222" stroke-linejoin="round"/><path d="M6789,1736c-47-25-95-28-107-6-13,22,17,61,64,86c47,26,95,29,107,6c13-22-17-60-64-86Zm-44,83c-49-27-79-67-65-90c12-24,62-21,110,5c49,26,79,66,65,90-12,24-62,22-110-5Z" fill="#add5d3" fill-rule="evenodd" stroke-width="28.222" stroke-linejoin="round"/><g><path d="M6714,1714c-16,1-28,6-33,15-7,13-1,32,15,51c4-23,11-45,18-66Zm126,59c-15,22-31,43-45,64c28,7,52,1,60-13c7-13,1-32-15-51Z" fill="#c5cbcc" fill-rule="evenodd" stroke-width="28.222" stroke-linejoin="round"/></g><path d="M7073,1705c-19-15-43-4-43-4-6,8-11,16-17,23c12-3,29-4,39,7c19,22-13,84-85,85-15,0-30-7-36-13-16,10-26,12-26,12c8,7,48,40,107,14c97-44,86-106,61-124Z" fill="#fff" fill-rule="evenodd" stroke-width="28.222" stroke-linejoin="round"/><path d="M6908,1816c3,3,8,6,15,10c20,10,51,19,90,2c61-29,74-62,76-79c2-21-7-37-16-43-2-1-3-2-5-3-16-9-33-2-36-1l-14,20c9-2,20-2,29,4c3,1,5,3,7,5c7,9,8,22,1,37-10,23-39,49-87,50-9,0-19-3-28-7-3-2-6-4-8-6-12,7-20,10-24,11Zm13,12c-7-4-13-8-16-10l-1-1c-1-1-1-1-1-2l1-1c0,0,10-2,28-12c0-1,1-1,1,0c2,2,5,4,9,6c8,4,17,7,26,7c47-1,75-26,85-48c6-14,5-26-1-34-2-2-4-4-6-5-10-6-23-5-32-1l-1-1c-1-1-1-1,0-3c6-7,11-15,17-23c1-1,21-10,40,0c1,1,3,2,5,3c12,10,19,28,17,46-5,41-51,69-78,81-40,18-72,9-93-2Z" fill="#add5d3" fill-rule="evenodd" stroke-width="28.222" stroke-linejoin="round"/><g><path d="M7021,1818c18-13,34-29,43-50c4-10,8-20,5-30-2-6-5-12-11-16-4-2-8-4-11-7-7-6-7-12-4-18-7,2-12,4-12,4-6,8-11,16-17,23c12-3,29-4,39,7c19,22-13,84-86,85-15,0-30-7-36-13-16,10-26,12-26,12c7,6,37,31,83,22c12-5,23-12,33-19Z" fill="#c5cbcc" fill-rule="evenodd" stroke-width="28.222" stroke-linejoin="round"/><path d="M7041,1698c-6,1-10,3-10,3-6,9-11,17-18,24c4-1,10-2,15-2c5-8,10-16,13-25Zm-105,122c1-5,4-8,8-10-5-3-9-5-12-8-16,10-27,12-27,12c5,5,18,15,36,21-4-4-7-9-5-15Z" fill="#c5cbcc" fill-rule="evenodd" stroke-width="28.222" stroke-linejoin="round"/></g><path d="M7043,1685c0,0-107,217-284,122l-12-7c-178-96-55-304-55-304l351,189Z" fill="#fff" fill-rule="evenodd" stroke-width="28.222" stroke-linejoin="round"/><path d="M6693,1498c-7,12-58,109-34,196c12,44,42,79,89,104l12,8c47,25,93,30,137,16c86-28,138-124,144-137l-348-187Zm65,310l-12-7c-47-26-77-61-90-107-26-93,35-197,35-198c1-1,1-1,2-1l351,189c1,0,1,1,1,1-1,2-54,109-147,140-45,14-91,9-140-17Z" fill="#add5d3" fill-rule="evenodd" stroke-width="28.222" stroke-linejoin="round"/><g><path d="M6837,1749c-23,30-43,37-43,37-43,13-85-30-85-30-72-69-37-188-26-209c11-20,32,1,32,1c41,35,80,59,110,84c18,16,43,77,12,117Zm206-64l-351-189c0,0-123,208,55,304l12,7c177,95,284-122,284-122Z" fill="#c5cbcc" fill-rule="evenodd" stroke-width="28.222" stroke-linejoin="round"/><path d="M7043,1685l-351-189v2c4,23,33,44,50,56c12,8,24,15,36,23c27,19,56,38,85,55c13,8,28,16,42,24c12,7,25,15,35,25c9,10,14,21,13,35-2,15-11,30-20,42-11,15-23,28-36,40-12,10-25,19-40,25-10,3-21,6-32,6c138,22,218-144,218-144Z" fill="#c5cbcc" fill-rule="evenodd" stroke-width="28.222" stroke-linejoin="round"/></g><path d="M6883,1566c-97-54-182-84-190-69s64,71,161,123s182,82,190,67-63-69-161-121Z" fill="#fff" fill-rule="evenodd" stroke-width="28.222" stroke-linejoin="round"/><path d="M6882,1565c-104-56-182-80-188-68-7,13,56,63,160,120c104,56,181,81,188,68c7-12-56-63-160-120Zm-29,55c-87-48-172-107-162-124c10-18,106,20,193,66c86,48,170,107,161,125-10,17-105-20-192-67Z" fill="#add5d3" fill-rule="evenodd" stroke-width="28.222" stroke-linejoin="round"/><use width="331.856934" height="184.740234" xlink:href="#eLoziI3lqWb97" fill="#fff" fill-rule="evenodd" stroke-width="28.222" stroke-linejoin="round"/><path d="M6880,1569c-96-52-169-76-175-66-5,10,56,57,152,109c97,52,171,78,176,68c6-11-55-59-153-111Zm-24,46c-81-43-162-98-154-114c9-16,99,22,180,66c81,43,162,98,154,114s-100-23-180-66Z" fill="#add5d3" fill-rule="evenodd" stroke-width="28.222" stroke-linejoin="round"/><use width="331.856934" height="184.740234" xlink:href="#eLoziI3lqWb97" fill="#c5cbcc" fill-rule="evenodd" stroke-width="28.222" stroke-linejoin="round"/><path d="M8274,2654c-8,25-56,32-108,16-53-16-89-49-81-75c7-25,57-32,109-16c51,16,87,50,80,75Z" fill="#fff" fill-rule="evenodd" stroke-width="28.222" stroke-linejoin="round"/><path d="M8193,2580c-52-16-99-9-107,14-7,24,28,56,79,73c52,16,100,9,107-15c8-24-28-57-79-72Zm-28,90c-53-17-89-51-82-76c8-26,57-33,111-17c53,16,89,50,81,75-8,27-57,34-110,18Z" fill="#add5d3" fill-rule="evenodd" stroke-width="28.222" stroke-linejoin="round"/><g><path d="M8115,2572c-15,4-27,11-30,22-5,15,6,32,25,47c0-23,2-45,5-69Zm133,34c-10,24-21,48-31,71c29,0,51-8,57-24c4-14-7-32-26-47Z" fill="#c5cbcc" fill-rule="evenodd" stroke-width="28.222" stroke-linejoin="round"/></g><path d="M8466,2494c-22-11-44,4-44,4-4,10-8,18-12,26c11-4,28-9,40,0c23,18,4,84-68,99-15,3-30-1-37-6-15,14-24,18-24,18c10,5,55,29,108-9c86-62,64-119,37-132Z" fill="#fff" fill-rule="evenodd" stroke-width="28.222" stroke-linejoin="round"/><path d="M8324,2635c4,2,9,4,17,7c20,6,52,8,88-16c55-40,61-76,60-93-2-20-14-33-24-38-2-1-4-2-5-2-18-5-34,5-36,6-3,8-7,15-10,23c8-4,19-6,29-3c3,0,6,2,8,4c9,6,12,20,8,35-5,26-28,57-77,67-9,2-19,1-28-1-4-2-7-3-9-5-10,9-17,14-21,16Zm16,9c-9-2-15-5-18-7l-2-1c0,0-1,0-1-1s1-1,1-1s10-5,24-18h1c3,2,6,4,10,5c8,2,18,3,27,1c47-9,69-40,75-64c3-15,0-27-8-33-2-2-4-3-7-4-10-3-22,1-31,5c0,0-1,0-1-1-1,0-1-1-1-1c5-9,9-17,13-26v-1c1,0,18-13,39-7c2,1,3,1,5,2c14,7,24,23,26,41c3,41-37,78-61,96-37,25-70,22-91,15Z" fill="#add5d3" fill-rule="evenodd" stroke-width="28.222" stroke-linejoin="round"/><g><path d="M8435,2615c16-16,28-35,33-58c2-9,4-20,0-28-3-7-8-13-15-15-4-2-8-3-12-5-8-4-9-10-7-16-7,2-11,5-11,5l-13,27c12-4,29-10,40,0c23,18,4,84-68,99-15,3-30-1-37-6-15,13-24,17-24,17c8,4,42,23,85,5c11-7,21-16,29-25Z" fill="#c5cbcc" fill-rule="evenodd" stroke-width="28.222" stroke-linejoin="round"/><path d="M8432,2494c-7,2-10,5-10,5-4,10-8,18-12,26c4-1,8-3,13-4c4-9,6-18,9-27Zm-79,139c0-4,2-8,5-11-5-1-10-3-13-5-15,13-24,18-24,18c5,2,19,10,40,12-5-3-9-7-8-14Z" fill="#c5cbcc" fill-rule="evenodd" stroke-width="28.222" stroke-linejoin="round"/></g><path d="M8432,2480c0,0-62,234-255,175l-13-4c-193-60-113-288-113-288l381,117Z" fill="#fff" fill-rule="evenodd" stroke-width="28.222" stroke-linejoin="round"/><path d="M8052,2365c-4,13-36,117,5,199c20,41,56,70,107,85l13,4c50,16,96,13,137-10c80-43,112-149,116-162l-378-116Zm124,291l-13-4c-51-16-88-45-109-87-44-88-5-201-4-202c0-1,1-2,2-1l380,117c1,0,1,1,1,2s-32,118-117,165c-42,23-89,26-140,10Z" fill="#add5d3" fill-rule="evenodd" stroke-width="28.222" stroke-linejoin="round"/><g><path d="M8242,2584c-16,33-35,44-35,44-40,21-88-12-88-12-85-54-75-179-68-201s32-6,32-6c48,27,91,42,126,62c20,11,57,68,33,113Zm190-104l-381-117c0,0-80,228,113,288l13,4c193,59,255-175,255-175Z" fill="#c5cbcc" fill-rule="evenodd" stroke-width="28.222" stroke-linejoin="round"/><path d="M8432,2480l-381-117v1c8,22,41,38,60,46c13,6,26,11,39,16c32,13,63,27,94,38c15,5,31,9,46,14c14,6,28,11,40,20c10,8,17,18,19,31c1,16-4,32-11,45-8,16-18,31-29,45-9,13-20,24-33,32-10,6-20,10-31,13c140-6,187-184,187-184Z" fill="#c5cbcc" fill-rule="evenodd" stroke-width="28.222" stroke-linejoin="round"/></g><path d="M8251,2393c-106-33-195-46-200-30-5,17,76,57,182,89c105,32,194,45,199,29s-76-55-181-88Z" fill="#fff" fill-rule="evenodd" stroke-width="28.222" stroke-linejoin="round"/><path d="M8249,2394c-113-35-193-44-198-31-4,14,67,52,180,87s194,44,198,31c5-14-68-53-180-87Zm-19,58c-94-29-187-70-181-89c6-20,106-1,200,28s189,71,183,91c-6,19-108,1-202-30Z" fill="#add5d3" fill-rule="evenodd" stroke-width="28.222" stroke-linejoin="round"/><use width="359.298828" height="121.908691" xlink:href="#eLoziI3lqWb98" fill="#fff" fill-rule="evenodd" stroke-width="28.222" stroke-linejoin="round"/><path d="M8247,2398c-104-33-181-43-184-32-4,11,65,46,170,78c106,34,182,44,186,33c3-11-66-47-172-79Zm-15,49c-87-27-178-65-172-82c5-17,101,3,188,30c89,27,179,66,174,83-6,17-102-3-190-31Z" fill="#add5d3" fill-rule="evenodd" stroke-width="28.222" stroke-linejoin="round"/><use width="359.298828" height="121.908691" xlink:href="#eLoziI3lqWb98" fill="#c5cbcc" fill-rule="evenodd" stroke-width="28.222" stroke-linejoin="round"/><g id="eLoziI3lqWb345_tr" transform="translate(7969.293945,3009.007568) rotate(0)"><g transform="translate(-7969.293945,-3009.007568)"><path d="M8123,3028c8,42-30,100-30,100-99,143-213,134-251,124-37-9-101-30-59-65c42-36,93-87,93-87l165-177c27-29,72,49,82,105Zm17-280l-422,455c0,0,173,180,387-50l15-16c213-230,20-389,20-389Z" fill="#c5cbcc" fill-rule="evenodd" stroke-width="28.222" stroke-linejoin="round"/><g transform="translate(.000001 0)"><path d="M7990,3238l7,7c5-1,10-4,15-7c9-5,18-10,26-16c22-15,41-35,60-53c10.160197-9.160206,19.839794-18.839803,29-29c8-9,17-19,25-29c4-4,10-11,17-8c1,0,2,1,3,1c31-37,50-64,45-69l-21-19-206,222Z" transform="translate(0 14.841919)" fill="#c5cbcc" fill-rule="evenodd" stroke-width="28.222" stroke-linejoin="round"/><use width="407.633789" height="438.234375" xlink:href="#eLoziI3lqWb99" transform="translate(0 14.841919)" fill="#c5cbcc" fill-rule="evenodd" stroke-width="28.222" stroke-linejoin="round"/></g><g><path d="M7990,3238l21,20c6,6,57-39,114-100c58-61,98-117,92-123l-21-19-206,222Z" fill="#fff" fill-rule="evenodd" stroke-width="28.222" stroke-linejoin="round"/><path d="M7721,3203c9,8,72,66,163,66c75-1,149-40,220-117l16-15c71-77,104-154,99-230-6-91-69-149-78-157l-420,453Zm401-64l-15,15c-72,78-147,117-223,118-99,0-165-68-166-68-1-1-1-2,0-2l422-455c1-1,1-1,2,0c1,0,73,61,80,160c5,77-28,154-100,232Z" fill="#add5d3" fill-rule="evenodd" stroke-width="28.222" stroke-linejoin="round"/></g><path d="M7992,3238l20,19c0,0,4,3,36-25c21-19,48-46,76-75c28-31,53-60,70-83c26-34,22-37,22-37l-20-19-204,220Zm134-79c-42,45-107,109-116,100l-21-20c-1,0-1-1,0-2l206-222c1-1,1-1,2,0l21,19c9,9-49,79-92,125Z" fill="#add5d3" fill-rule="evenodd" stroke-width="28.222" stroke-linejoin="round"/><path d="M7912,2959c-54,58-102,114-137,159-52,66-47,73-47,73c1,1,9,5,71-51c41-38,94-91,148-149s102-115,138-160c52-66,47-73,46-74c0-1-8-4-70,52-42,38-95,92-149,150Zm37,34c-99,106-210,212-223,201-2-2-8-8,47-78c34-44,83-101,137-159c99-107,211-214,223-202c3,2,9,8-46,78-35,45-84,102-138,160Z" fill="#add5d3" fill-rule="evenodd" stroke-width="28.222" stroke-linejoin="round"/><path d="M7906,2954c-125,135-198,238-187,248s107-71,233-207c125-135,198-236,187-246s-106,70-233,205Zm48,43c-57,61-113,116-157,156-46,40-73,57-80,51-7-7,8-35,45-84c35-48,86-107,142-168c57-61,113-115,157-154c46-41,73-58,80-51c7,6-8,34-45,83-35,47-86,107-142,167Z" fill="#add5d3" fill-rule="evenodd" stroke-width="28.222" stroke-linejoin="round"/><use width="407.633789" height="438.234375" xlink:href="#eLoziI3lqWb99" transform="translate(0 2.614014)" fill="#fff" fill-rule="evenodd" stroke-width="28.222" stroke-linejoin="round"/><path d="M8140,2748l-46,49c19,18,37,39,51,61c23,34,36,72,36,112-1,39-14,75-34,108-21,35-46,70-76,99-31,29-67,53-104,72-10,6-21,11-33,15c52-13,110-45,171-111l15-16c214-229,20-389,20-389Z" fill="#c5cbcc" fill-rule="evenodd" stroke-width="28.222" stroke-linejoin="round"/><path d="M8140,2748c0,0,193,159-20,389l-15,16c-214,230-387,50-387,50l422-455Z" fill="#fff" fill-rule="evenodd" stroke-width="28.222" stroke-linejoin="round"/></g></g><g id="eLoziI3lqWb359_ts" transform="translate(5853,2269.5) scale(0,0)"><path id="eLoziI3lqWb359" d="M6121,1961L5980,894l-56,662-324-607l40,758-292-265l124,386-701-135l582,360-608,363l831,6-195,462l344-235l22,521l262-437l200,809l83-569l625,672-347-918l391,112-840-878Z" transform="translate(-5853,-2269.5)" fill="#fff" fill-rule="evenodd" stroke-width="28.222" stroke-linejoin="round"/></g><g id="eLoziI3lqWb360_tr" transform="translate(6373,2167) rotate(0)"><g transform="translate(-6373,-2167)"><path d="M6810,1988l-730-412-364,648l729,410l365-646Z" fill="#d25d23" fill-rule="evenodd" stroke-width="28.222" stroke-linejoin="round"/><path d="M7028,2110l-583-329-364,648l584,329l363-648Z" fill="#f19642" fill-rule="evenodd" stroke-width="28.222" stroke-linejoin="round"/><path d="M6445,1781l585,330-116,206-833,112l364-648Z" fill="#d85e1e" fill-rule="evenodd" stroke-width="28.222" stroke-linejoin="round"/></g></g><g><path d="M7572,4393c-57-113-136-292-136-292s-140,0-149,99c-9,100,149,456,149,456l136-263Z" fill="#f89f7a" fill-rule="evenodd" stroke-width="28.222" stroke-linejoin="round"/><path d="M7439,4117c0-111-78-426-83-443-5-16-69,3-75,36-7,33-36,485,20,556c44,58,138-149,138-149Z" fill="#f89f7a" fill-rule="evenodd" stroke-width="28.222" stroke-linejoin="round"/><path d="M7473,4586c-21-48-119-276-141-398-44-104-45-445-39-477c2-9,10-22,22-36-17,7-33,19-35,35-6,31-32,435,11,539c25,136,146,407,146,407l36-70Z" fill="#f89f7a" fill-rule="evenodd" stroke-width="28.222" stroke-linejoin="round"/></g><path d="M7562,4359c53,67,133,152,195,255c94,160-38,238-93,230-193-29-284-259-310-331-27-73,208-154,208-154Z" fill="#fff" fill-rule="evenodd" stroke-width="28.222" stroke-linejoin="round"/><path d="M7407,4436c23,63,114,324,266,408h-8c-194-29-285-259-311-332-10-27,16-55,53-80v4Z" fill="#c5c6c4" fill-rule="evenodd" stroke-width="28.222" stroke-linejoin="round"/><path d="M7801,4157l-25,9l17,80l5,24-13-20c0,0-37-22-43-27-4-4-22,9-22,9l10,29l56,35l48-20-9-56-8-47-16-16Z" fill="#e1e3e2" fill-rule="evenodd" stroke-width="28.222" stroke-linejoin="round"/><g><path d="M7797,4349c-97,95-192,278-186,282c197,155,258,120,258,120-20-130,54-217,54-217s146-50,188-87c0,0-69-164-106-174-44-12-164,88-208,76Z" fill="#f89e78" fill-rule="evenodd" stroke-width="28.222" stroke-linejoin="round"/><path d="M7944,4101c10-2,25-27,33-31c9-5,108-18,140-6c103,39,158,78,193,166c27,66-71,35-133,101-53,56-223,91-305,113-23,7-144-56-195-108-46-47-16-83,18-94c8-2,14-5,17-15c2-8,18-1,18-1c6,11,59,34,61,20c3-23-6-89-6-89s2-13,9-11c7,1,25-18,25-25c1-15-1-27,19-37c17-10,76,24,106,17Z" fill="#f89e78" fill-rule="evenodd" stroke-width="28.222" stroke-linejoin="round"/></g><path d="M7835,4144c2-32-19-43-11-12c4,16,9,29,11,12Z" fill="#a16b60" fill-rule="evenodd" stroke-width="28.222" stroke-linejoin="round"/><g><path d="M8171,3946c-15,9-10,76-10,76c12-18,35-27,35-27s5,63,56,109c48,34,96,78,112,197c3,24,2,47-1,69h2c11-4,20-12,25-22c2,18-7,35-23,43c6,10,9,21,7,33-2,13-9,23-19,30c2-3,3-6,3-10c2-10,0-21-5-30-11,32-28,59-45,79-104,119-386,41-386,41s25-25,44-35c30-15,93-28,111-58c16-28-44-54-79-44-59,17-96-15-39-42c23-11,36-20,54-30c16-9,110-56,120-102c6-43-58-92-56-163c2-101,94-114,94-114Z" fill="#d25d3c" fill-rule="evenodd" stroke-width="28.222" stroke-linejoin="round"/><path d="M8077,4440c1-2,2-4,2-6c1,6,2,11,2,17c6,35-159,83-159,83s25-25,44-36c31-15,94-28,111-58Zm138-97c0,0-11-1-24-9c13,7,24,9,24,9Zm-73-163c40,52-13,54,8,106c11,28,28,42,42,49-32-12-86-41-74-84c7-9,13-19,15-28c6-43-59-92-57-164c2-100,95-113,95-113-97,49-68,182-29,234Zm66-54c0,0-56-46-48-104c12-19,36-28,36-28-45,57,12,132,12,132Zm-249,228c24-11,36-20,54-30c5-3,21-11,39-22-5,7-11,13-16,18-30,25-120,64-36,64c61,0,73,17,78,39-10-20-53-34-80-26-59,17-96-15-39-43Z" fill="#d25d3c" fill-rule="evenodd" stroke-width="28.222" stroke-linejoin="round"/></g><path d="M8016,4484c-42,6-89-24-94-55-5-30,40-25,82-31c41-7,76,5,80,35c5,31-27,44-68,51Z" fill="#de997d" fill-rule="evenodd" stroke-width="28.222" stroke-linejoin="round"/><path d="M8021,4477c-40,7-86-23-91-53-5-29,39-24,79-30s73,5,78,34c4,30-27,43-66,49Z" fill="#f89e78" fill-rule="evenodd" stroke-width="28.222" stroke-linejoin="round"/><path d="M7960,4137c-19,1-30,13-30,13s10,28,26,40c3,3,6,8,7-12c2-19-3-41-3-41Z" fill="#eeefed" fill-rule="evenodd" stroke-width="28.222" stroke-linejoin="round"/><path d="M7949,4156c-7,3-15,0-19-7c1-1,10-10,29-12c2,9-2,16-10,19Z" fill="#5fc0ef" fill-rule="evenodd" stroke-width="28.222" stroke-linejoin="round"/><path d="M7946,4150c-4,1-9-1-11-5c0,0,6-7,18-8c1,5-1,11-7,13Z" fill="#343538" fill-rule="evenodd" stroke-width="28.222" stroke-linejoin="round"/><path d="M7967,4142c0-7-7-15-12-24c4,25,3,73,7,77c3,2,5-20,5-53Z" fill="#301b15" fill-rule="evenodd" stroke-width="28.222" stroke-linejoin="round"/><path d="M8002,4225c4-54-17-122-9-147c3-12,16-12,28-11c3,0,5,77-1,119-4,15-15,39-18,39Z" fill="#d25d3c" fill-rule="evenodd" stroke-width="28.222" stroke-linejoin="round"/><path d="M6947,6983l22-173l127,2-33,164-1,20-79,35-34-32-2-16Z" fill="#e3e1df" fill-rule="evenodd" stroke-width="28.222" stroke-linejoin="round"/><path d="M7059,7005c0,0,22,41,25,64s1,57-6,63c-19,9-42,6-129,19-87,12-95,24-159,33-30,4-68,10-97,3-35-8-31-61,27-84c57-23,84-20,130-33c46-14,164-33,164-33l45-32Z" fill="#848a8e" fill-rule="evenodd" stroke-width="28.222" stroke-linejoin="round"/><path d="M7063,6975c0,0,25,51,27,68c3,23,1,58-6,64-19,8-50,13-136,25-87,12-96,24-160,33-30,4-68,9-97,3-35-9-31-61,27-84s84-20,130-34c30-9,64-37,78-51c9-8,21-29,31-14c0,0,79,15,106-10Z" fill="#55536f" fill-rule="evenodd" stroke-width="28.222" stroke-linejoin="round"/><g transform="translate(0 0.000001)"><path d="M6870,7080c-2,2-5,1-7-2c0-12-5-21-15-28-2-2,9-4,11-2c8,7,11,14,13,25c1,3,1,6-2,7Zm33-18c-2,2-6,1-7-1-2-13-8-21-19-26-1-2,9-6,10-3c10,6,14,11,17,22c2,3,1,7-1,8Zm29-24c-2,2-6,3-8,1-4-11-12-18-23-20-2-3,7-9,9-7c10,4,15,9,21,18c3,2,3,6,1,8Z" transform="translate(0 0.000001)" fill="#c2a0af" fill-rule="evenodd" stroke-width="28.222" stroke-linejoin="round"/></g><path d="M8645,6935l-162-63l35-124l150,74l18,7l15,85-40,24-16-3Z" fill="#e3e1df" fill-rule="evenodd" stroke-width="28.222" stroke-linejoin="round"/><path d="M8694,6833c0,0,47-11,70-8s55,13,60,22c3,20-5,43-16,130-10,87,0,98-8,163-3,30-8,68-22,94-16,31-66,14-74-47s2-86,0-134s10-167,10-167l-20-53Z" fill="#848a8e" fill-rule="evenodd" stroke-width="28.222" stroke-linejoin="round"/><path d="M8667,6820c0,0,56-10,73-8c23,2,56,13,60,22c3,20-1,50-11,138-10,87-1,98-8,163-4,30-8,69-22,95-16,31-65,14-73-48-8-61,2-85,0-134-1-32-21-72-31-89-6-10-23-28-6-34c0,0,36-72,18-105Z" fill="#55536f" fill-rule="evenodd" stroke-width="28.222" stroke-linejoin="round"/><g><path d="M8719,7033c1,3-1,6-4,8-11-4-22-2-31,7-2,1-2-11,1-11c9-6,15-8,27-7c3-1,6,1,7,3Zm-9-35c2,3,0,7-3,8-11-2-22,2-29,10-3,1-4-9-1-10c8-8,16-11,26-11c3-1,6,1,7,3Zm-16-34c3,2,3,5-1,7-11,1-20,7-25,18-2,1-7-9-3-11c6-9,11-13,22-15c2-2,6-1,7,1Z" fill="#c2a0af" fill-rule="evenodd" stroke-width="28.222" stroke-linejoin="round"/></g><g><path d="M7465,5740l-79-197l234,19c51,48,305,129,317,268c19,227-688,355-778,371c91,290-52,500-79,757-5,53-138-47-138-47s-45-577-6-825c19-120,529-346,529-346Z" fill="#455a7f" fill-rule="evenodd" stroke-width="28.222" stroke-linejoin="round"/><path d="M7655,5792c19,226-476,328-566,344c91,289-50,563-77,820c33,18,65,28,67,2c27-257,170-467,79-756c90-16,797-145,778-372-11-139-265-220-316-268l-23-2c29,57,51,137,58,232Z" fill="#455a7f" fill-rule="evenodd" stroke-width="28.222" stroke-linejoin="round"/></g><g><path d="M7981,5642c195,207,39,973,36,994c153-28,293,23,631,144c61,22-54,146-54,146s-576-32-744-111c-146-70-210-781-210-781l-59-416c0,0,225-162,400,24Z" fill="#4e648d" fill-rule="evenodd" stroke-width="28.222" stroke-linejoin="round"/><path d="M7982,5642c-96,208-265,385-265,385s59,666,206,735c146,69,595,103,714,110-20,30-43,54-43,54s-575-32-744-111c-146-70-210-781-210-781l-59-416c0,0,225-162,401,24Z" fill="#4e648d" fill-rule="evenodd" stroke-width="28.222" stroke-linejoin="round"/></g><path d="M7452,4622c-201,307-67,1070-14,1219c123,348,787-99,624-275-43-45-88-96-113-163-8-22-3-55-10-79-6-21-21-24-27-46-4-19,2-58-2-78-49-250,8-422-44-514-67-121-396-92-414-64Z" fill="#fff" fill-rule="evenodd" stroke-width="28.222" stroke-linejoin="round"/><g><path d="M7927,5303c-4,1-8,1-12,2-124,18-178,30-192,34c20-6,125-43,187-132c2,21-2,53,2,70c3,12,9,19,15,26Zm-195,115l134-18c29-3,56-16,78-36c0,15,1,28,5,39c4,9,8,16,12,24-63,15-140,20-229-9Zm-326-699c58,162,55,489,156,885c55,215,149,302,364,244c6-2,11-3,17-5-168,130-431,203-504-3-49-135-161-761-33-1121Z" fill="#d0d1cf" fill-rule="evenodd" stroke-width="28.222" stroke-linejoin="round"/></g><g><path d="M7441,3575c0,0-64,91-85,151l-75-8c-6-21-34-80-35-99-1-9,11-93,12-95c7-13,39-51,44-49c8,7,8,15,4,25-2,6-12,24-13,29-2,7,2,40,11,48c7,6,29-17,43-40c14-22-4-106,7-109c18-4,28,79,28,79s-9-62-5-93c1-11,6-19,8-19c8-3,18,54,18,54s1-7,1-35c0-11,9-19,11-19c5,0,12,92,12,92s6-32,20-38c5,1-6,126-6,126Z" fill="#f89f7a" fill-rule="evenodd" stroke-width="28.222" stroke-linejoin="round"/><path d="M7249,3589c-2,14-3,27-3,30c1,19,29,78,35,99l12,1c6-38-49-89-44-130Zm143-55l-14-125c0,1,0,4-1,6-3,26,3,74,5,88-2-14-9-58-20-71l21,103-15,40l24-41Zm-1-128l20,114-11,49l17-50c0,0-13-96-13-111-1,2-1,4-1,6c0,28-1,35-1,35s-5-27-11-43Zm-86,172c-9-9-13-42-11-49c1-5,11-23,13-29c4-10,4-18-4-25c4,25-27,55-26,65s16,49,28,38Zm121-91v60c0,0,10-88,21-98-15,6-21,38-21,38Zm84,1043c-184-57-251-122-323-124-40-2-57,148-57,148c29,50,284,194,371,211c72,14,287-12,287-12-36-105-114-172-278-223Z" fill="#f89f7a" fill-rule="evenodd" stroke-width="28.222" stroke-linejoin="round"/><path d="M7141,4565c-138-111-32-579-32-579s87-8,79,12c-20,51,66,366,60,430l-107,137Z" fill="#f89f7a" fill-rule="evenodd" stroke-width="28.222" stroke-linejoin="round"/><path d="M7126,3984c-3,21-67,417,35,553c35,46,270,208,357,225c61,11,216-4,269-10c0,0,0,1,1,1c0,0-215,26-288,12-87-17-341-160-370-210v-1c-121-125-22-569-22-569s8,0,18-1Z" fill="#f89f7a" fill-rule="evenodd" stroke-width="28.222" stroke-linejoin="round"/></g><path d="M7429,4482c82,28,194,56,301,111c165,86,96,222,45,244-178,79-379-67-440-114s94-241,94-241Z" fill="#fff" fill-rule="evenodd" stroke-width="28.222" stroke-linejoin="round"/><path d="M7340,4629c53,41,269,214,443,204-3,2-5,3-7,4-179,80-380-67-440-114-23-17-16-56,2-96c1,1,1,2,2,2Z" fill="#d0d1cf" fill-rule="evenodd" stroke-width="28.222" stroke-linejoin="round"/><g><path d="M7151,3821c-14,32-53,74-60,106-5,20,16,100,16,100s65,10,76-12c19-39,62-144,62-144s16-53,19-71c2-14,4-47,3-49-1-3-9-1-15,5-5,5-11,38-11,38l-7-73c-2-5-14,1-17,6-3,6-2,11-1,15c0,4,1,8,1,8s-2-15-6-19c-3-4-16,7-15,13s1,22,2,26s3,32,3,32-25-27-31-29-8,11-5,16s16,32,16,32-2,69-13,64c-7-3-5-20-1-29c5-8,9-28,8-37-2-8-5-11-11-13-5-2-12,12-13,15Z" fill="#f89f7a" fill-rule="evenodd" stroke-width="28.222" stroke-linejoin="round"/><path d="M7201,3798v5c0,0-26-28-32-30-2-1-4,1-5,3c4.821594,5.821633,10.178367,11.178406,16,16c5,3,12,6,16,11c4,4-1,37,5,40-4-9,1-36,0-45Zm12,50c1-1,28-53,28-53l-7-74c-1-1-2-2-3-2v2c3,10-2,49-7,64c0-1-8-35-8-35s-2-15-6-19c-1-2-4,0-7,2c6,6,12,45,20,54c0,0-8,33-13,43-1,4-2,23,3,18Zm-31-26c0,0-13-28-17-33-2-2-2-7,0-11c6,7,30,62,32,66c19,43-26,83-50,109-15,18-22,54-28,77l-12-3c0,0-20-80-16-100c7-32,46-73,60-105c1-3,8-18,13-16c7,3,10,6,12,14c1,9-3,29-8,37-5,9-7,26,1,29c11,4,13-64,13-64Z" fill="#f89f7a" fill-rule="evenodd" stroke-width="28.222" stroke-linejoin="round"/></g></g><clipPath id="eLoziI3lqWb414"><path d="M0,0h12000v7500L0,7500Z" fill-rule="evenodd" stroke-width="28.222" stroke-linejoin="round"/></clipPath></g></svg>
