<svg id="e8jXDm2RitS1" xmlns="http://www.w3.org/2000/svg" xmlns:xlink="http://www.w3.org/1999/xlink" viewBox="0 0 12000 7500" shape-rendering="geometricPrecision" text-rendering="geometricPrecision">
<style><![CDATA[
#e8jXDm2RitS118_to {animation: e8jXDm2RitS118_to__to 3000ms linear infinite normal forwards}@keyframes e8jXDm2RitS118_to__to { 0% {offset-distance: 0%} 30% {offset-distance: 49.958288%} 33.333333% {offset-distance: 72.164564%} 100% {offset-distance: 100%}} #e8jXDm2RitS118_tr {animation: e8jXDm2RitS118_tr__tr 3000ms linear infinite normal forwards}@keyframes e8jXDm2RitS118_tr__tr { 0% {transform: rotate(-82.951925deg)} 46.666667% {transform: rotate(637.048075deg)} 100% {transform: rotate(277.048075deg)}} #e8jXDm2RitS118_ts {animation: e8jXDm2RitS118_ts__ts 3000ms linear infinite normal forwards}@keyframes e8jXDm2RitS118_ts__ts { 0% {transform: scale(0.57487,0.364105)} 33.333333% {transform: scale(1,1)} 100% {transform: scale(1,1)}} #e8jXDm2RitS118 {animation: e8jXDm2RitS118_c_o 3000ms linear infinite normal forwards}@keyframes e8jXDm2RitS118_c_o { 0% {opacity: 0.3} 23.333333% {opacity: 0.47} 46.666667% {opacity: 0} 100% {opacity: 0}} #e8jXDm2RitS156 {animation: e8jXDm2RitS156_c_o 3000ms linear infinite normal forwards}@keyframes e8jXDm2RitS156_c_o { 0% {opacity: 0} 10% {opacity: 1} 20% {opacity: 0} 30% {opacity: 1} 40% {opacity: 0} 50% {opacity: 1} 60% {opacity: 0} 70% {opacity: 1} 80% {opacity: 0} 90% {opacity: 1} 100% {opacity: 0}}
]]></style>
<g><g transform="translate(-.110931 0)" clip-path="url(#e8jXDm2RitS157)"><path d="M11544,6750h-11120-24c-1,0,7,0,18,0h11121h23c2,0-6,0-18,0Z" fill="#27314f" fill-rule="evenodd" stroke-width="28.222" stroke-linejoin="round"/><path d="M961,6795C569,4860,2232,5766,1871,4014C1395,1711,3665,1290,5022,1420c1454,139,1736,985,2123,1292c118-22,246-39,386-51c461-36,1036-16,1555,112c536,84,1115,335,1637,969c612,742,444,1379,258,2013c240,168,426,406,265,1036h-1281l-9004,4Z" fill="#a0dcf7" fill-rule="evenodd" stroke-width="28.222" stroke-linejoin="round"/><path d="M11582,6799h-11120-24c-1,0,7,0,18,0h11121h23c2,0-6,0-18,0Z" fill="#27314f" fill-rule="evenodd" stroke-width="28.222" stroke-linejoin="round"/><path d="M2651,3356v-436c-94,0-170,76-170,170v97c0,93,76,169,170,169Z" transform="translate(-17 4)" fill="#fff" fill-rule="evenodd" stroke-width="28.222" stroke-linejoin="round"/><path d="M9603,3870h-177v-206h177v206Z" transform="translate(-65-5.79599)" fill="#fcfcfc" fill-rule="evenodd" stroke-width="28.222" stroke-linejoin="round"/><g><path d="M3575,3760c228,0,413,184,413,412v731h-826v-731c0-228,186-412,413-412Z" fill="#37383a" fill-rule="evenodd" stroke-width="28.222" stroke-linejoin="round"/><path d="M3179,4596h777c169,0,306,138,306,307h-1083v-307Z" fill="#37383a" fill-rule="evenodd" stroke-width="28.222" stroke-linejoin="round"/></g><path d="M4096,3115c-7,0-13-3-16-9-2-4-49-89-162-89s-149,78-150,79c-4,8-14,12-23,8s-12-14-8-23c1-4,46-99,181-99s191,103,193,107c5,9,1,19-7,24-3,1-5,2-8,2Z" fill="#e5e6e3" fill-rule="evenodd" stroke-width="28.222" stroke-linejoin="round"/><g><path d="M4259,3845c0-58-47-105-105-105s-106,47-106,105v590h211v-590Z" fill="#fcfcfc" fill-rule="evenodd" stroke-width="28.222" stroke-linejoin="round"/><path d="M4207,3908v995h-687v-995c0-144,108-261,242-261h203c44,0,86,13,122,35c72,46,120,130,120,226Z" fill="#fcfcfc" fill-rule="evenodd" stroke-width="28.222" stroke-linejoin="round"/></g><g><path d="M3870,3927v976h-350v-995c0-144,108-261,243-261h28c21,43,79,171,79,280Zm337-20v996h-121v-1221c73,45,121,129,121,225Z" fill="#c2c3c1" fill-rule="evenodd" stroke-width="28.222" stroke-linejoin="round"/></g><path d="M3682,3271c0,111,93,202,207,202c116,0,208-91,208-202c0-112-92-204-208-204-114,0-207,92-207,204Z" fill="#37383a" fill-rule="evenodd" stroke-width="28.222" stroke-linejoin="round"/><g><path d="M4016,3550c-31,0-56,26-56,57v-57h71-15Z" fill="#f78d39" fill-rule="evenodd" stroke-width="28.222" stroke-linejoin="round"/><path d="M4033,3553h-57c-139,0-253-113-253-252v-13c0-98,79-177,177-177h31c98,0,177,79,177,177v190c0,41-34,75-75,75Z" fill="#f78d39" fill-rule="evenodd" stroke-width="28.222" stroke-linejoin="round"/><path d="M3961,3728l-178-80v-184h178v264Zm170-283h-24v-78l35,58c5,9-1,20-11,20Z" fill="#f78d39" fill-rule="evenodd" stroke-width="28.222" stroke-linejoin="round"/></g><path d="M3783,3524c-108-157-100-241-100-241l115-87c81,0,145,22,145,102l-24,4c24,244-136,222-136,222Z" fill="#37383a" fill-rule="evenodd" stroke-width="28.222" stroke-linejoin="round"/><path d="M3920,3447h-44c-24,0-44-20-44-44v-33c0-25,20-45,44-45s44,20,44,45v77Z" fill="#f78d39" fill-rule="evenodd" stroke-width="28.222" stroke-linejoin="round"/><g><path d="M3958,3469h-40v-192h40v192Z" fill="#37383a" fill-rule="evenodd" stroke-width="28.222" stroke-linejoin="round"/><path d="M4111,3444v112c0,19-15,35-34,35h-55c-57,0-104-46-104-103v-44h40v20c0,11,8,20,19,20h34c10,0,19-9,19-20c0-12,9-20,20-20h61Zm-44-269h-42c-38,0-69,31-68,70l1,34-235,52l7-182c0,0,209-134,337,26Zm164,1163c-60,107-15,245,99,308c114,65,254,30,315-78c59-106,15-244-100-307-114-65-255-29-314,77Z" fill="#37383a" fill-rule="evenodd" stroke-width="28.222" stroke-linejoin="round"/></g><g><path d="M4282,4355h-78c-77,0-139,62-139,140h77c78,0,140-64,140-140Zm316,0c69,0,125,55,125,125v15c-69,0-125-57-125-126v-14Z" fill="#f78d39" fill-rule="evenodd" stroke-width="28.222" stroke-linejoin="round"/></g><g><path d="M4069,4405h-582v39c0,65,52,118,117,118h465v-157Z" fill="#fcfcfc" fill-rule="evenodd" stroke-width="28.222" stroke-linejoin="round"/><path d="M3698,3845c0-58-47-105-106-105-58,0-105,47-105,105v590h211v-590Zm161,200h-110v-68h110v68Z" fill="#fcfcfc" fill-rule="evenodd" stroke-width="28.222" stroke-linejoin="round"/></g><path d="M3816,3993h-17v-39h17v39Z" fill="#37383a" fill-rule="evenodd" stroke-width="28.222" stroke-linejoin="round"/><path d="M4087,3682v462c0-42-3-138-18-278-18-175-104-219-104-219c45,0,86,13,122,35Z" fill="#c2c3c1" fill-rule="evenodd" stroke-width="28.222" stroke-linejoin="round"/><path d="M4086,4168v-25v25Z" fill="#f68818" fill-rule="evenodd" stroke-width="28.222" stroke-linejoin="round"/><g><path d="M4163,3298h-512c-11,0-19-10-19-21c0-10,8-19,19-19h512c11,0,19,9,19,19c0,11-8,21-19,21Z" fill="#fcfcfc" fill-rule="evenodd" stroke-width="28.222" stroke-linejoin="round"/><path d="M3894,3000c-131,0-237,105-237,236v23h473v-23c0-131-105-236-236-236Z" fill="#fcfcfc" fill-rule="evenodd" stroke-width="28.222" stroke-linejoin="round"/></g><path d="M4038,3130c-8,0-15-5-18-14-2-4-44-100-154-100-143-1-184,101-184,101s-10-6-6-16c1-1,52-125,190-125c137,0,188,120,191,125c4,10-1,23-11,27-3,1-5,2-8,2Z" fill="#e5e6e3" fill-rule="evenodd" stroke-width="28.222" stroke-linejoin="round"/><path d="M6519,5378L5649,2864h-1496v-250h1675l927,2682-236,82Z" fill="#37383a" fill-rule="evenodd" stroke-width="28.222" stroke-linejoin="round"/><path d="M4849,5309h1538c0-348-281-628-628-628h-910v628Z" fill="#f6e844" fill-rule="evenodd" stroke-width="28.222" stroke-linejoin="round"/><path d="M4955,4902h-1968v758h2020v-706c0-28-23-52-52-52Z" transform="translate(-1.5 0)" fill="#787c7c" fill-rule="evenodd" stroke-width="28.222" stroke-linejoin="round"/><g><path d="M3510,6524c0-216,111-401,268-481v-42h175c243,0,423,234,423,523c0,290-180,525-423,525h-175v-43c-157-80-268-266-268-482Z" fill="#37383a" fill-rule="evenodd" stroke-width="28.222" stroke-linejoin="round"/><path d="M3363,6524c0,290,197,524,441,524c243,0,442-234,442-524c0-289-199-523-442-523-244,0-441,234-441,523Zm2986-210c0-303,165-562,402-675v-59h261c365,0,637,329,637,734c0,406-272,735-637,735h-261v-60c-237-112-402-371-402-675Z" fill="#37383a" fill-rule="evenodd" stroke-width="28.222" stroke-linejoin="round"/><path d="M6127,6314c0,406,297,734,663,734s663-328,663-734c0-405-297-734-663-734s-663,329-663,734Z" fill="#37383a" fill-rule="evenodd" stroke-width="28.222" stroke-linejoin="round"/></g><path d="M5505,6656h2715v-1398h-2715v1398Z" fill="#434547" fill-rule="evenodd" stroke-width="28.222" stroke-linejoin="round"/><g><path d="M1792,6681h1232v-1022h-1232v1022Z" fill="#37383a" fill-rule="evenodd" stroke-width="28.222" stroke-linejoin="round"/><path d="M1768,6524c0-216,111-401,268-481v-42h174c244,0,424,234,424,523c0,290-180,524-424,524h-174v-42c-157-80-268-266-268-482Z" fill="#37383a" fill-rule="evenodd" stroke-width="28.222" stroke-linejoin="round"/></g><path d="M1621,6524c0,290,197,524,440,524c244,0,443-234,443-524c0-289-199-523-443-523-243,0-440,234-440,523Z" fill="#5b5f60" fill-rule="evenodd" stroke-width="28.222" stroke-linejoin="round"/><g><path d="M1680,6525c0,250,171,453,381,453c211,0,383-203,383-453c0-251-172-454-383-454-210,0-381,203-381,454Z" fill="#434547" fill-rule="evenodd" stroke-width="28.222" stroke-linejoin="round"/><path d="M1621,6524c0,289,197,524,440,524c244,0,443-235,443-524h-883Z" fill="#434547" fill-rule="evenodd" stroke-width="28.222" stroke-linejoin="round"/></g><path d="M1782,6525c0,183,125,332,279,332c155,0,281-149,281-332c0-184-126-333-281-333-154,0-279,149-279,333Z" fill="#5b5f60" fill-rule="evenodd" stroke-width="28.222" stroke-linejoin="round"/><path d="M1858,6524c0,133,91,242,203,242c114,0,205-109,205-242s-91-242-205-242c-112,0-203,109-203,242Z" fill="#f78d39" fill-rule="evenodd" stroke-width="28.222" stroke-linejoin="round"/><path d="M2631,5659h2344v1022h-2344v-1022Z" fill="#f6e844" fill-rule="evenodd" stroke-width="28.222" stroke-linejoin="round"/><path d="M4997,5378L4128,2864h-1497v-250h1675l927,2682-236,82Z" fill="#37383a" fill-rule="evenodd" stroke-width="28.222" stroke-linejoin="round"/><path d="M4139,6681h1873v-1423h-449c-787,0-1424,637-1424,1423Z" fill="#dbdcd9" fill-rule="evenodd" stroke-width="28.222" stroke-linejoin="round"/><g><path d="M4216,6681h1796v-1345h-451c-743,0-1345,603-1345,1345Z" fill="#37383a" fill-rule="evenodd" stroke-width="28.222" stroke-linejoin="round"/><path d="M4607,6314c0-303,165-563,403-675v-59h260c366,0,637,328,637,734s-271,734-637,734h-260v-59c-238-112-403-372-403-675Z" fill="#37383a" fill-rule="evenodd" stroke-width="28.222" stroke-linejoin="round"/></g><path d="M4385,6314c0,406,297,734,662,734c367,0,664-328,664-734s-297-734-664-734c-365,0-662,328-662,734Z" fill="#5b5f60" fill-rule="evenodd" stroke-width="28.222" stroke-linejoin="round"/><g><path d="M4474,6314c0,351,257,635,574,635s574-284,574-635-257-635-574-635-574,284-574,635Z" fill="#434547" fill-rule="evenodd" stroke-width="28.222" stroke-linejoin="round"/><path d="M4385,6314c0,406,297,734,662,734c367,0,664-328,664-734h-1326Z" fill="#434547" fill-rule="evenodd" stroke-width="28.222" stroke-linejoin="round"/></g><path d="M4627,6314c0,257,188,466,420,466c233,0,422-209,422-466c0-258-189-466-422-466-232,0-420,208-420,466Z" fill="#5b5f60" fill-rule="evenodd" stroke-width="28.222" stroke-linejoin="round"/><path d="M4741,6314c0,187,137,339,306,339c170,0,307-152,307-339s-137-339-307-339c-169,0-306,152-306,339Z" fill="#f6e844" fill-rule="evenodd" stroke-width="28.222" stroke-linejoin="round"/><path d="M6761,1601h119v5145h-119v-5145Z" fill="#5b5f60" fill-rule="evenodd" stroke-width="28.222" stroke-linejoin="round"/><path d="M6762,1601h-191v5145h191v-5145Z" fill="#37383a" fill-rule="evenodd" stroke-width="28.222" stroke-linejoin="round"/><path d="M7839,1601h119v5145h-119v-5145Z" fill="#5b5f60" fill-rule="evenodd" stroke-width="28.222" stroke-linejoin="round"/><path d="M7840,1601h-191v5145h191v-5145Z" fill="#37383a" fill-rule="evenodd" stroke-width="28.222" stroke-linejoin="round"/><g><path d="M6318,1855h349v-143h-349v143Zm0,292h349v-143h-349v143Z" fill="#5b5f60" fill-rule="evenodd" stroke-width="28.222" stroke-linejoin="round"/></g><g><path d="M7650,1712h-771v143h771v-143Zm0,292h-771v143h771v-143Z" fill="#37383a" fill-rule="evenodd" stroke-width="28.222" stroke-linejoin="round"/></g><g><path d="M2293,4868h339v792h-1131c0-437,355-792,792-792Z" fill="#f78d39" fill-rule="evenodd" stroke-width="28.222" stroke-linejoin="round"/><path d="M1501,5659h1131v1022c0-565-457-1022-1022-1022h-109Z" fill="#f78d39" fill-rule="evenodd" stroke-width="28.222" stroke-linejoin="round"/><path d="M2631,6192h1509v489h-1509v-489Z" fill="#f78d39" fill-rule="evenodd" stroke-width="28.222" stroke-linejoin="round"/></g><g><path d="M2988,2739h-357v2921h357v-2921ZM4367,4479h162l292,973h-162l-292-973Zm1558,800h2454v-1497c0-148-121-268-269-268h-1917c-148,0-268,120-268,268v1497Zm2594,140h-2734v-1637c0-225,183-408,408-408h1917c226,0,409,183,409,408v1637Z" fill="#37383a" fill-rule="evenodd" stroke-width="28.222" stroke-linejoin="round"/></g><g><path d="M5972,5149h2594v200h-2594v-200Zm0-467h2594v200h-2594v-200Z" fill="#5b5f60" fill-rule="evenodd" stroke-width="28.222" stroke-linejoin="round"/></g><g><path d="M8566,4148h-1125v-70h1125v70Z" fill="#606364" fill-rule="evenodd" stroke-width="28.222" stroke-linejoin="round"/><path d="M8566,4079h-1125v-69h1125v69Z" fill="#606364" fill-rule="evenodd" stroke-width="28.222" stroke-linejoin="round"/></g><g><path d="M7442,4148h-1124v-70h1124v70Z" fill="#5e6162" fill-rule="evenodd" stroke-width="28.222" stroke-linejoin="round"/><path d="M7442,4079h-1124v-69h1124v69Z" fill="#5e6162" fill-rule="evenodd" stroke-width="28.222" stroke-linejoin="round"/></g><path d="M6319,4148h-347v-138h347v138Z" fill="#5c5f61" fill-rule="evenodd" stroke-width="28.222" stroke-linejoin="round"/><path d="M6042,5279h2454v-1497c0-148-121-268-269-268h-1917c-148,0-268,120-268,268v1497Zm2594,140h-2735v-1637c0-225,184-408,409-408h1917c225,0,409,183,409,408v1637Z" fill="#5b5f60" fill-rule="evenodd" stroke-width="28.222" stroke-linejoin="round"/><path d="M7852,3921h203v1507h-203v-1507Z" fill="#f6e844" fill-rule="evenodd" stroke-width="28.222" stroke-linejoin="round"/><g><path d="M7755,5428h98v-1507h-98v1507Z" fill="#f78d39" fill-rule="evenodd" stroke-width="28.222" stroke-linejoin="round"/><path d="M8992,5272h-1188v156h1188v-156Z" fill="#f78d39" fill-rule="evenodd" stroke-width="28.222" stroke-linejoin="round"/></g><path d="M8992,5272h-359v156h359v-156Z" fill="#f6e844" fill-rule="evenodd" stroke-width="28.222" stroke-linejoin="round"/><path d="M7659,3921h97v90h-97v-90Z" fill="#f78d39" fill-rule="evenodd" stroke-width="28.222" stroke-linejoin="round"/><path d="M6777,3921h202v1507h-202v-1507Z" fill="#f6e844" fill-rule="evenodd" stroke-width="28.222" stroke-linejoin="round"/><g><path d="M6680,5428h98v-1507h-98v1507Z" fill="#f78d39" fill-rule="evenodd" stroke-width="28.222" stroke-linejoin="round"/><path d="M7648,5272h-920v156h920v-156Z" fill="#f78d39" fill-rule="evenodd" stroke-width="28.222" stroke-linejoin="round"/></g><path d="M7648,5272h-359v156h359v-156Z" fill="#f6e844" fill-rule="evenodd" stroke-width="28.222" stroke-linejoin="round"/><path d="M6584,3921h97v90h-97v-90Z" fill="#f78d39" fill-rule="evenodd" stroke-width="28.222" stroke-linejoin="round"/><path d="M9717,2380h-2153v1285h2153v-1285Z" fill="#bf7339" fill-rule="evenodd" stroke-width="28.222" stroke-linejoin="round"/><path d="M8701,3665h1016v-1285h-1016v1285Z" fill="#f9a722" fill-rule="evenodd" stroke-width="28.222" stroke-linejoin="round"/><path d="M9340,2635h-180v-255h180v255Z" fill="#fcfcfc" fill-rule="evenodd" stroke-width="28.222" stroke-linejoin="round"/><path d="M8625,2380h-2153v1285h2153v-1285Z" fill="#bf7339" fill-rule="evenodd" stroke-width="28.222" stroke-linejoin="round"/><path d="M7609,3665h1016v-1285h-1016v1285Z" fill="#f9a722" fill-rule="evenodd" stroke-width="28.222" stroke-linejoin="round"/><path d="M8248,2635h-180v-255h180v255Z" fill="#fcfcfc" fill-rule="evenodd" stroke-width="28.222" stroke-linejoin="round"/><path d="M9935,3664h-2453v1609h2453v-1609Z" fill="#da7836" fill-rule="evenodd" stroke-width="28.222" stroke-linejoin="round"/><path d="M9935,3664h-1158v1609h1158v-1609Z" fill="#fab72c" fill-rule="evenodd" stroke-width="28.222" stroke-linejoin="round"/><path d="M9603,3870h-177v-206h177v206Z" transform="translate(-65-5.79599)" fill="#fcfcfc" fill-rule="evenodd" stroke-width="28.222" stroke-linejoin="round"/><path d="M9603,3870h-177v-206h177v206Z" transform="translate(-963.155 17.388)" fill="#fcfcfc" fill-rule="evenodd" stroke-width="28.222" stroke-linejoin="round"/><path d="M8667,3664h-2453v1609h2453v-1609Z" fill="#da7836" fill-rule="evenodd" stroke-width="28.222" stroke-linejoin="round"/><path d="M8667,3664h-1158v1609h1158v-1609Z" fill="#fab72c" fill-rule="evenodd" stroke-width="28.222" stroke-linejoin="round"/><g transform="translate(.000001-5.979736)"><g id="e8jXDm2RitS118_to" style="offset-path:path('M8595.29773,4381.543577Q9302.593922,4397.593303,9547.074391,4403.436238Q9598.128643,4404.299478,9968.570444,4440.760319L9449.499999,4331.5');offset-rotate:0deg"><g id="e8jXDm2RitS118_tr" transform="rotate(-82.951925)"><g id="e8jXDm2RitS118_ts" transform="scale(0.57487,0.364105)"><polygon id="e8jXDm2RitS118" points="0,-831.281541 244.307515,-336.260447 790.595726,-256.880123 395.297863,128.440062 488.61503,672.520894 0,415.64077 -488.61503,672.520894 -395.297863,128.440062 -790.595726,-256.880123 -244.307515,-336.260447 0,-831.281541" transform="translate(-118.412315,69.766675)" opacity="0.3" fill="#fff" stroke-width="0"/></g></g></g><path d="M9586,4232l299-346l64,478l687-315-494,649l547,527-614-145-36,258-260-10-142,637-244-637-369,159l73-407-727-33l660-349-326-525l519,191-60-694l423,562ZM4104,3503c0,20-8,35-17,35-10,0-17-15-17-35c0-19,7-35,17-35c9,0,17,16,17,35Z" transform="matrix(0 0 0 0 7353.93 4716.5)" fill="#fcfcfc" fill-rule="evenodd" stroke-width="28.222" stroke-linejoin="round"/></g><path d="M4285,4801h-765v102h866c0-56-45-102-101-102Z" fill="#5d6061" fill-rule="evenodd" stroke-width="28.222" stroke-linejoin="round"/><path d="M9409,5046l16-33c36-78,3-171-75-208l-16,34c-37,78-4,171,75,207Z" fill="#f78d39" fill-rule="evenodd" stroke-width="28.222" stroke-linejoin="round"/><path d="M10646,3826c42,99-4,212-102,254-99,41-212-5-254-103-41-99,5-212,103-253c99-42,212,4,253,102Z" transform="translate(.000001 0)" fill="#c83524" fill-rule="evenodd" stroke-width="28.222" stroke-linejoin="round"/><path d="M9688,6868l459-710c0,0-42-236-156-287l-35-16-383,962l115,51Z" fill="#bd4020" fill-rule="evenodd" stroke-width="28.222" stroke-linejoin="round"/><path d="M9695,6863l-119-54-38,84l269,122c0,0,38-84-112-152Z" transform="translate(.000001 0)" fill="#666" fill-rule="evenodd" stroke-width="28.222" stroke-linejoin="round"/><path d="M10147,6159l-264-123-141-707l392-55l13,885Z" fill="#bd4020" fill-rule="evenodd" stroke-width="28.222" stroke-linejoin="round"/><path d="M11206,5064l-466-49c-69,0-125-59-118-128c6-68,67-116,134-107l461,91-11,193Z" fill="#37383a" fill-rule="evenodd" stroke-width="28.222" stroke-linejoin="round"/><path d="M11390,4892l-38-8c-83-18-166,35-184,119l36,8c84,19,168-35,186-119Z" fill="#f78d39" fill-rule="evenodd" stroke-width="28.222" stroke-linejoin="round"/><path d="M10633,4946l194-154-332-457c-42-54-121-63-175-20-53,42-62,121-20,175l333,456Z" fill="#37383a" fill-rule="evenodd" stroke-width="28.222" stroke-linejoin="round"/><g><path d="M10533,4631l-291,577-108,210-378-338l369-773c23-74,104-115,178-91l32,10l38,12c178,57,217,215,160,393Z" fill="#c2c3c1" fill-rule="evenodd" stroke-width="28.222" stroke-linejoin="round"/><path d="M10564,4649l-292,576-104-27l81-148c0,0,198-354,238-509c40-154-123-297-123-297l2-1l38,12c179,57,217,215,160,394Z" fill="#c2c3c1" fill-rule="evenodd" stroke-width="28.222" stroke-linejoin="round"/></g><path d="M10533,4631l-292,577-105-28l81-147c0,0,197-355,238-509c40-154-123-298-123-298h2l38,12c179,57,218,215,161,393Z" fill="#37383a" fill-rule="evenodd" stroke-width="28.222" stroke-linejoin="round"/><g><path d="M10476,4357l-144-130l56-173l168,53-80,250Z" fill="#f78d39" fill-rule="evenodd" stroke-width="28.222" stroke-linejoin="round"/><path d="M10607,4175l-82,7c-127,12-241-84-252-211-8-90,57-169,147-177l56-5c90-9,170,57,178,147l15,163c3,39-24,72-62,76Z" fill="#f78d39" fill-rule="evenodd" stroke-width="28.222" stroke-linejoin="round"/><path d="M10686,4048l-23,2-7-76l40,54c6,8,1,19-10,20Z" fill="#f78d39" fill-rule="evenodd" stroke-width="28.222" stroke-linejoin="round"/></g><g transform="translate(.000001 0)"><path d="M10351,4169c-72-147-112-198-112-198l98-128c80-7,145,9,153,88l-23,6c45,240-116,232-116,232Z" fill="#c83524" fill-rule="evenodd" stroke-width="28.222" stroke-linejoin="round"/><path d="M10457,3964l-12-131l97-9l3,36c5,53-35,100-88,104Z" transform="translate(.000001 0)" fill="#c83524" fill-rule="evenodd" stroke-width="28.222" stroke-linejoin="round"/><path d="M10512,4026l-38,4-7-75l38-3l7,74Z" fill="#c83524" fill-rule="evenodd" stroke-width="28.222" stroke-linejoin="round"/></g><path d="M10479,4080l-43,4c-24,2-45-15-47-39l-3-34c-2-24,15-45,39-47c23-2,45,15,47,39l7,77Z" fill="#f78d39" fill-rule="evenodd" stroke-width="28.222" stroke-linejoin="round"/><path d="M10542,3824l17-69-194,18c0,0-159,2-142,121c4,30,16,78,16,78l277-71l26-77Z" fill="#c83524" fill-rule="evenodd" stroke-width="28.222" stroke-linejoin="round"/><path d="M10995,6167l-284-736c-48-125-188-184-300-128l102,347l369,574l113-57Z" fill="#ce681d" fill-rule="evenodd" stroke-width="28.222" stroke-linejoin="round"/><path d="M10999,6164l-117,59l41,83l264-133c0,0-41-82-188-9Z" fill="#666" fill-rule="evenodd" stroke-width="28.222" stroke-linejoin="round"/><path d="M10577,5297l-63,354-580-132c-145-33-237-178-204-323l27-117l820,218Z" fill="#ce681d" fill-rule="evenodd" stroke-width="28.222" stroke-linejoin="round"/><path d="M10605,3714c-6,1-12-1-17-6-2-3-66-76-177-52-111,26-129,108-130,109-2,10-11,16-20,14-10-2-16-12-14-21c1-4,24-107,156-136s209,60,212,63c6,8,5,19-2,25-2,2-5,3-8,4Z" fill="#e5e6e3" fill-rule="evenodd" stroke-width="28.222" stroke-linejoin="round"/><g><path d="M9328,4794l251-461c24-45,82-61,127-35c47,28,60,98,27,142l-272,429-133-75Z" fill="#37383a" fill-rule="evenodd" stroke-width="28.222" stroke-linejoin="round"/><path d="M9673,4535l-44-244l563-81c61-12,120,29,132,91l3,20c12,62-29,121-91,132l-563,82Z" fill="#37383a" fill-rule="evenodd" stroke-width="28.222" stroke-linejoin="round"/></g><g><path d="M10710,3877l-500,110c-10,2-21-4-23-15-2-10,4-21,15-23l500-111c10-2,21,4,23,16c2,10-4,21-15,23Z" fill="#fcfcfc" fill-rule="evenodd" stroke-width="28.222" stroke-linejoin="round"/><path d="M10384,3644c-127,29-208,155-180,283l5,22l462-102-5-22c-28-128-154-209-282-181Z" fill="#fcfcfc" fill-rule="evenodd" stroke-width="28.222" stroke-linejoin="round"/></g><path d="M10552,3739c-7,1-16-2-20-8-3-4-64-89-172-66-140,30-158,139-158,139s-11-3-9-14c0-1,23-134,159-164c133-30,209,77,212,82c7,9,4,21-5,28-2,1-4,2-7,3Z" transform="translate(0 0.000001)" fill="#e5e6e3" fill-rule="evenodd" stroke-width="28.222" stroke-linejoin="round"/><path d="M10651,4100c0,15-5,28-12,28-6,0-11-13-11-28c0-16,5-30,11-30c7,0,12,14,12,30Z" fill="#fcfcfc" fill-rule="evenodd" stroke-width="28.222" stroke-linejoin="round"/><path d="M9603,3870h-177v-206h177v206Z" transform="translate(-1266.5 1)" fill="#fcfcfc" fill-rule="evenodd" stroke-width="28.222" stroke-linejoin="round"/><path id="e8jXDm2RitS156" d="M2651,3356v-436c-94,0-170,76-170,170v97c0,93,76,169,170,169Z" transform="translate(-17 11)" opacity="0" fill="#ff3030" fill-rule="evenodd" stroke-width="28.222" stroke-linejoin="round"/><clipPath id="e8jXDm2RitS157"><path d="M0,0h12000v7500L0,7500Z" fill-rule="evenodd" stroke-width="28.222" stroke-linejoin="round"/></clipPath></g></g></svg>
