<?xml version="1.0" encoding="UTF-8" standalone="no"?>
<svg
   id="eLoziI3lqWb1"
   viewBox="0 0 12000 7500"
   shape-rendering="geometricPrecision"
   text-rendering="geometricPrecision"
   version="1.1"
   sodipodi:docname="intro-1.svg"
   inkscape:version="1.2 (dc2aedaf03, 2022-05-15)"
   xmlns:inkscape="http://www.inkscape.org/namespaces/inkscape"
   xmlns:sodipodi="http://sodipodi.sourceforge.net/DTD/sodipodi-0.dtd"
   xmlns="http://www.w3.org/2000/svg"
   xmlns:svg="http://www.w3.org/2000/svg">
  <sodipodi:namedview
     id="namedview17072"
     pagecolor="#ffffff"
     bordercolor="#000000"
     borderopacity="0.25"
     inkscape:showpageshadow="2"
     inkscape:pageopacity="0.0"
     inkscape:pagecheckerboard="0"
     inkscape:deskcolor="#d1d1d1"
     showgrid="false"
     inkscape:zoom="0.071712415"
     inkscape:cx="8708.3945"
     inkscape:cy="3165.4212"
     inkscape:window-width="1920"
     inkscape:window-height="1057"
     inkscape:window-x="-8"
     inkscape:window-y="-8"
     inkscape:window-maximized="1"
     inkscape:current-layer="eLoziI3lqWb1" />
  <style
     id="style16411"><![CDATA[
#eLoziI3lqWb345_tr {animation: eLoziI3lqWb345_tr__tr 3000ms linear infinite normal forwards}@keyframes eLoziI3lqWb345_tr__tr { 0% {transform: translate(7969.293945px,3009.007568px) rotate(0deg)} 10% {transform: translate(7969.293945px,3009.007568px) rotate(360deg)} 100% {transform: translate(7969.293945px,3009.007568px) rotate(0deg)}} #eLoziI3lqWb359_ts {animation: eLoziI3lqWb359_ts__ts 3000ms linear infinite normal forwards}@keyframes eLoziI3lqWb359_ts__ts { 0% {transform: translate(5853px,2269.5px) scale(0,0)} 10% {transform: translate(5853px,2269.5px) scale(1,1)} 100% {transform: translate(5853px,2269.5px) scale(0.5,0.5)}} #eLoziI3lqWb359 {animation: eLoziI3lqWb359_c_o 3000ms linear infinite normal forwards}@keyframes eLoziI3lqWb359_c_o { 0% {opacity: 1} 100% {opacity: 0}} #eLoziI3lqWb360_tr {animation: eLoziI3lqWb360_tr__tr 3000ms linear infinite normal forwards}@keyframes eLoziI3lqWb360_tr__tr { 0% {transform: translate(6373px,2167px) rotate(0deg)} 10% {transform: translate(6373px,2167px) rotate(15deg)} 46.666667% {transform: translate(6373px,2167px) rotate(-15deg)} 100% {transform: translate(6373px,2167px) rotate(0deg)}}
]]></style>
  <defs
     id="defs16436">
    <path
       id="eLoziI3lqWb2"
       d="M7234,1358l282,227c0,0,17-100-48-276c0,0-25-35-93-94l-16-12c-4-4-15-12-15-12-72-55-113-71-113-71-185-26-279,12-279,12l282,226Z" />
    <path
       id="eLoziI3lqWb3"
       d="M7357,1204l-1-1-14-11c-69-52-108-70-111-71-167-23-260,6-276,12l280,224l280,225c2-16,10-114-49-272-1-3-27-38-93-93-1,0-9-8-14-12l-2-1Zm1-3l1,1l2,1c5,4,13,11,14,11c68,58,94,94,94,94c65,175,48,276,48,277s0,1-1,1h-1l-282-227-281-226c-1,0-1,0-1-1c0,0,0-1,1-1s96-38,280-13c0,1,40,18,112,71c0,1,9,7,14,12Z" />
    <path
       id="eLoziI3lqWb4"
       d="M7256,1334c152,122,266,232,255,245-11,14-143-74-296-196-151-122-266-232-255-246s143,75,296,197Z" />
    <path
       id="eLoziI3lqWb5"
       d="M7871,1331c-33-98-72-174-85-170-14,5,2,88,36,186c32,100,70,175,84,171c13-5-2-88-35-187Z" />
    <path
       id="eLoziI3lqWb81"
       d="M7114,1988l-318-172c0,0,1,101,97,263c0,0,31,30,109,75l17,10l18,9c81,40,122,49,122,49c188-8,273-63,273-63l-318-171Z" />
    <path
       id="eLoziI3lqWb82"
       d="M7020,2162l1,1c6,3,17,8,17,8c77,39,118,49,122,50c169-8,255-53,269-62l-316-170-315-170c1,16,10,114,97,259c2,2,34,32,108,75c0,0,10,5,16,9h1Zm0,4l-1-1-2-1c-6-3-15-9-16-9-77-45-108-75-109-75-95-160-97-263-97-264c0,0,0-1,1-1h1l318,171l318,172l1,1c0,1,0,1-1,1-1,1-87,55-274,64c0,0-43-10-123-50l-16-8Z" />
    <path
       id="eLoziI3lqWb83"
       d="M7097,2015c-171-93-303-181-295-196c8-16,154,48,325,140c173,93,305,180,297,195s-155-47-327-139Z" />
    <path
       id="eLoziI3lqWb84"
       d="M8028,1984l-352-82c0,0,28,98,163,228c0,0,38,21,125,44c0,0,13,4,19,5c6,2,19,4,19,4c89,18,132,16,132,16c178-57,245-133,245-133l-351-82Z" />
    <path
       id="eLoziI3lqWb85"
       d="M7983,2178h2c6,2,18,4,18,4c84,17,127,16,130,15c161-52,232-118,244-130l-349-81-350-82c6,16,40,108,161,224c3,2,41,23,125,45c0,0,11,3,18,4l1,1Zm1,3h-1l-2-1c-6-1-17-4-18-4-87-23-125-45-125-45h-1c-133-129-162-227-162-228v-2h1l353,82l351,81c0,1,1,1,1,1v2c-1,1-70,76-247,133-1,0-44,2-132-15c0,0-11-2-18-4Z" />
    <path
       id="eLoziI3lqWb86"
       d="M8020,2016c-190-46-341-95-337-112s161,5,352,49c189,46,340,95,336,112s-161-5-351-49Z" />
    <path
       id="eLoziI3lqWb87"
       d="M6868,1669l-351,85c0,0,69,75,248,131c0,0,43,1,131-19c0,0,13-2,19-4c6-1,19-5,19-5c88-24,125-45,125-45c134-132,160-230,160-230l-351,87Z" />
    <path
       id="eLoziI3lqWb88"
       d="M6915,1861l1-1c7-1,18-4,18-4c83-23,121-44,123-45c121-119,155-211,160-227l-349,86-348,85c12,12,84,78,245,127c3,0,46,1,130-17c1,0,12-2,18-4h2Zm2,2l-2,1h-1c-7,2-18,4-18,4-87,19-131,17-131,17h-1c-177-54-247-129-248-130v-1l1-1l350-86l352-87c0,0,1,0,1,1v1c0,1-28,101-161,231c0,0-38,22-124,45c0,0-11,4-18,5Z" />
    <path
       id="eLoziI3lqWb89"
       d="M6873,1699c-189,47-345,71-349,54-5-17,145-68,335-116c189-46,346-70,351-53c4,17-147,69-337,115Z" />
    <path
       id="eLoziI3lqWb90"
       d="M7476,2401l-354-74c0,0,30,97,168,225c0,0,38,20,126,41c0,0,13,3,19,4c6,2,20,4,20,4c89,15,131,12,131,12c177-61,243-138,243-138l-353-74Z" />
    <path
       id="eLoziI3lqWb91"
       d="M7436,2596h1c7,1,18,3,18,3c85,15,128,13,131,13c159-55,229-124,240-136l-350-73-352-74c6,16,43,107,167,222c3,1,42,20,125,40c0,0,12,3,18,4l2,1Zm1,3h-2l-2-1c-6-1-17-4-17-4-87-21-126-41-126-41h-1c-137-127-168-224-168-225-1-1,0-1,0-2h1l354,74l353,73c1,0,1,1,1,1c1,1,0,1,0,2-1,0-68,78-243,139h-1c0,0-44,3-132-13l-17-3Z" />
    <path
       id="eLoziI3lqWb92"
       d="M7469,2433c-192-40-343-86-340-103c4-18,161,1,353,41c190,40,342,86,338,104-3,17-160-2-351-42Z" />
    <path
       id="eLoziI3lqWb93"
       d="M6443,1615c-157,48-288,77-292,64-4-14,120-63,278-111c157-49,287-78,291-64c4,13-120,63-277,111Z" />
    <path
       id="eLoziI3lqWb94"
       d="M5252,1459c0,0,15,251-298,251h-22c-314,0-300-251-300-251h620Z" />
    <path
       id="eLoziI3lqWb95"
       d="M4792,1650v28c0,0,1,5,43,9c29,3,68,5,108,5s78-2,107-5c42-4,42-9,42-9v-28h-300Zm151,45c-61,0-154-5-154-17v-30c0-1,1-1,2-1h303c1,0,1,0,1,1v30c0,12-91,17-152,17Z" />
    <path
       id="eLoziI3lqWb96"
       d="M5252,1425c0,0,15,250-298,250h-22c-314,0-300-250-300-250h620Z" />
    <path
       id="eLoziI3lqWb97"
       d="M6855,1614c-91-50-160-100-153-113s87,17,178,66c91,50,159,100,153,113-7,12-87-17-178-66Z" />
    <path
       id="eLoziI3lqWb98"
       d="M8234,2446c-98-32-176-68-172-81c4-14,89,0,188,30c99,31,175,67,171,81s-88,0-187-30Z" />
    <path
       id="eLoziI3lqWb99"
       d="M7950,2992c-113,120-211,210-222,201-10-10,73-115,185-235s210-211,221-202c10,9-73,115-184,236Z" />
  </defs>
  <path
     d="m 10769.894,7053.4892 c 0,0 880,-1909 -59,-3048 -1211,-1469 -2724.0002,-884 -3312.0002,-920 -470.3391,-53 -633,-1234 -2389,-1402 -1430.8581,-199 -3627,291 -3151,2594 361,1752 -1302,846 -911,2781 z"
     fill="#a0dcf7"
     fill-rule="evenodd"
     stroke-width="28.222"
     stroke-linejoin="round"
     id="path16440" />
  <path
     d="m 7358.3909,6829.0531 c -1464.4687,45.4837 -2890.4742,277.8488 -3632.3875,-958.1203 -741.9953,-1235.9693 -318.6111,-2810.8529 945.4823,-3517.6884 853.5848,-477.2357 3292.4871,-478.6977 3215.9902,1247.1713 -68.7591,1552.3944 898.4351,940.6624 1139.3753,1342.1223 741.9951,1235.9632 36.1845,1833.484 -1668.4603,1886.5151"
     style="fill:#e7f4fa;fill-opacity:1;fill-rule:nonzero;stroke:none;stroke-width:8.26731"
     id="path1068" />
  <path
     d="m 9250.0304,3739.7055 c 173.1911,322.3521 71.1069,705.13 -228.0643,854.897 -299.1714,149.7609 -682.161,9.7461 -855.4342,-312.606 -173.1912,-322.4374 -216.4447,-907.3614 82.7266,-1057.1284 299.1713,-149.7669 827.4925,192.4062 1000.7719,514.8374"
     style="fill:#e7f4fa;fill-opacity:1;fill-rule:nonzero;stroke:none;stroke-width:8.26731"
     id="path1070" />
  <path
     d="M 7516.4339,4972.5865 H 6080.4119 V 3956.477 h 1436.022 v 1016.1095"
     style="fill:#d98853;fill-opacity:1;fill-rule:nonzero;stroke:none;stroke-width:8.26731"
     id="path1072" />
  <path
     d="m 5430.9894,4972.5865 h 808.223 V 3956.477 h -808.223 v 1016.1095"
     style="fill:#c16d3e;fill-opacity:1;fill-rule:nonzero;stroke:none;stroke-width:8.26731"
     id="path1074" />
  <path
     d="m 6599.6508,4715.3687 h -220.0677 v -649.5771 h 220.0677 v 649.5771"
     style="fill:#f3a277;fill-opacity:1;fill-rule:nonzero;stroke:none;stroke-width:8.26731"
     id="path1076" />
  <path
     d="m 7415.1133,4123.7017 h -679.5541 v -57.9101 h 679.5541 v 57.9101"
     style="fill:#f3a277;fill-opacity:1;fill-rule:nonzero;stroke:none;stroke-width:8.26731"
     id="path1078" />
  <path
     d="m 7415.1133,4200.8603 h -679.5541 v -57.8309 h 679.5541 v 57.8309"
     style="fill:#f3a277;fill-opacity:1;fill-rule:nonzero;stroke:none;stroke-width:8.26731"
     id="path1080" />
  <path
     d="M 7582.7503,4010.6469 H 5811.1136 V 2702.8003 h 1771.6367 v 1307.8466"
     style="fill:#d98853;fill-opacity:1;fill-rule:nonzero;stroke:none;stroke-width:8.26731"
     id="path1082" />
  <path
     d="m 5009.8774,4010.6469 h 997.0669 V 2702.8003 h -997.0669 v 1307.8466"
     style="fill:#c16d3e;fill-opacity:1;fill-rule:nonzero;stroke:none;stroke-width:8.26731"
     id="path1084" />
  <path
     d="m 6451.6176,3679.6026 h -271.4819 v -836.0505 h 271.4819 v 836.0505"
     style="fill:#f3a277;fill-opacity:1;fill-rule:nonzero;stroke:none;stroke-width:8.26731"
     id="path1086" />
  <path
     d="m 7457.78,2918.0306 h -838.437 v -74.4785 h 838.437 v 74.4785"
     style="fill:#f3a277;fill-opacity:1;fill-rule:nonzero;stroke:none;stroke-width:8.26731"
     id="path1088" />
  <path
     d="m 7457.78,3017.3554 h -838.437 v -74.4722 h 838.437 v 74.4722"
     style="fill:#f3a277;fill-opacity:1;fill-rule:nonzero;stroke:none;stroke-width:8.26731"
     id="path1090" />
  <path
     d="M 7591.0817,5961.4922 H 6086.1365 v -1004.743 h 1504.9452 v 1004.743"
     style="fill:#d98853;fill-opacity:1;fill-rule:nonzero;stroke:none;stroke-width:8.26731"
     id="path1092" />
  <path
     d="m 5405.4904,5961.4922 h 847.0206 v -1004.743 h -847.0206 v 1004.743"
     style="fill:#af5b31;fill-opacity:1;fill-rule:nonzero;stroke:none;stroke-width:8.26731"
     id="path1094" />
  <path
     d="M 7833.0253,5313.3769 H 6494.4548 L 6252.511,4956.7492 h 1338.5707 l 241.9436,356.6277"
     style="fill:#f3a277;fill-opacity:1;fill-rule:nonzero;stroke:none;stroke-width:8.26731"
     id="path1096" />
  <path
     d="m 5102.5321,5313.3769 h 915.016 l 242.0321,-356.6277 h -915.1044 l -241.9437,356.6277"
     style="fill:#f3a277;fill-opacity:1;fill-rule:nonzero;stroke:none;stroke-width:8.26731"
     id="path1098" />
  <path
     d="M 7505.3254,5745.4517 H 6381.0159 v -327.225 h 1124.3095 v 327.225"
     style="fill:#f3a277;fill-opacity:1;fill-rule:nonzero;stroke:none;stroke-width:8.26731"
     id="path1100" />
  <path
     d="M 7720.5078,7056.9532 H 6009.9741 V 5881.3306 h 1710.5337 v 1175.6226"
     style="fill:#d98853;fill-opacity:1;fill-rule:nonzero;stroke:none;stroke-width:8.26731"
     id="path1102" />
  <path
     d="m 5236.3387,7056.9532 h 962.7319 V 5881.3306 h -962.7319 v 1175.6226"
     style="fill:#c16d3e;fill-opacity:1;fill-rule:nonzero;stroke:none;stroke-width:8.26731"
     id="path1104" />
  <path
     d="m 6628.4318,6759.2893 h -262.1473 v -751.5031 h 262.1473 v 751.5031"
     style="fill:#f3a277;fill-opacity:1;fill-rule:nonzero;stroke:none;stroke-width:8.26731"
     id="path1106" />
  <path
     d="m 7599.8296,6074.7906 h -809.4855 v -67.0044 h 809.4855 v 67.0044"
     style="fill:#f3a277;fill-opacity:1;fill-rule:nonzero;stroke:none;stroke-width:8.26731"
     id="path1108" />
  <path
     d="m 7599.8296,6164.0465 h -809.4855 v -67.0043 h 809.4855 v 67.0043"
     style="fill:#f3a277;fill-opacity:1;fill-rule:nonzero;stroke:none;stroke-width:8.26731"
     id="path1110" />
  <path
     d="M 5095.1223,1877.1477 3774.4769,2231.9056 3520.2442,1350.2069 4840.8078,995.44901 5095.1223,1877.1477"
     style="fill:#d98853;fill-opacity:1;fill-rule:nonzero;stroke:none;stroke-width:8.26731"
     id="path1112" />
  <path
     d="m 3177.2326,2392.308 743.2574,-199.6305 -254.2325,-881.6987 -743.2577,199.7158 254.2328,881.6134"
     style="fill:#af5b31;fill-opacity:1;fill-rule:nonzero;stroke:none;stroke-width:8.26731"
     id="path1114" />
  <path
     d="M 5143.4315,1251.3632 3968.875,1566.893 3666.2575,1310.9788 4840.8078,995.44901 5143.4315,1251.3632"
     style="fill:#f3a277;fill-opacity:1;fill-rule:nonzero;stroke:none;stroke-width:8.26731"
     id="path1116" />
  <path
     d="m 2747.3661,1895.0136 803.01,-215.6325 122.0226,-370.0287 -802.9213,215.7177 -122.1113,369.9435"
     style="fill:#f3a277;fill-opacity:1;fill-rule:nonzero;stroke:none;stroke-width:8.26731"
     id="path1118" />
  <path
     d="m 4965.1909,1707.8094 -986.5518,265.0084 -82.8085,-287.1809 986.5519,-265.0145 82.8084,287.187"
     style="fill:#f3a277;fill-opacity:1;fill-rule:nonzero;stroke:none;stroke-width:8.26731"
     id="path1120" />
  <path
     d="m 6412.3217,2509.182 -1449.8258,389.5149 -279.1445,-967.9457 1449.8258,-389.5209 279.1445,967.9517"
     style="fill:#d98853;fill-opacity:1;fill-rule:nonzero;stroke:none;stroke-width:8.26731"
     id="path1122" />
  <path
     d="m 4306.8439,3074.8575 815.9675,-219.2019 -279.1445,-967.9517 -815.9674,219.1227 279.1444,968.0309"
     style="fill:#af5b31;fill-opacity:1;fill-rule:nonzero;stroke:none;stroke-width:8.26731"
     id="path1124" />
  <path
     d="m 6465.4214,1822.2406 -1289.5923,346.3945 -332.1622,-280.9312 1289.5103,-346.4736 332.2442,281.0103"
     style="fill:#f3a277;fill-opacity:1;fill-rule:nonzero;stroke:none;stroke-width:8.26731"
     id="path1126" />
  <path
     d="m 3834.9044,2528.8325 881.5199,-236.7447 134.0591,-406.2539 -881.6084,236.8301 -133.9706,406.1685"
     style="fill:#f3a277;fill-opacity:1;fill-rule:nonzero;stroke:none;stroke-width:8.26731"
     id="path1128" />
  <path
     d="m 6269.7608,2323.2752 -1083.1577,290.9208 -90.8875,-315.2069 1083.0756,-291.0001 90.9696,315.2862"
     style="fill:#f3a277;fill-opacity:1;fill-rule:nonzero;stroke:none;stroke-width:8.26731"
     id="path1130" />
  <path
     d="m 4704.7289,3768.0485 c 32.2338,-1.2183 439.2896,73.6682 514.1897,-1.401 54.2801,-54.4198 -73.8902,-261.3599 -73.8902,-261.3599 0,0 -207.4443,51.7335 -370.3665,18.4384 -238.4091,-48.7305 -69.933,244.298 -69.933,244.298"
     style="fill:#e9b79c;fill-opacity:1;fill-rule:nonzero;stroke:none;stroke-width:8.26731"
     id="path1132" />
  <path
     d="M 5228.424,3693.0887 C 5196.7836,3522.4469 4908.298,3083.629 4908.298,3083.629 l -69.2575,109.2415 184.8864,566.65 c 0,0 236.0551,104.2041 204.4971,-66.4318"
     style="fill:#e9b79c;fill-opacity:1;fill-rule:nonzero;stroke:none;stroke-width:8.26731"
     id="path1134" />
  <path
     d="m 4819.9351,3175.4067 c -11.9478,-5.604 -25.7514,-5.5431 -39.2142,-7.5532 -25.2465,-3.7157 -48.0504,-15.1857 -70.1851,-26.8017 -12.3709,-6.4996 -46.2014,-6.0914 -49.1486,-23.3116 -4.734,-28.3428 51.8435,-14.2109 65.0537,-15.4292 12.1185,-1.1574 24.9942,-8.0405 27.2665,-19.6567 1.5147,-7.6324 -1.9568,-15.3501 -5.7438,-22.2516 -11.8658,-22.0078 -27.2662,-41.9081 -41.4043,-62.5393 -7.3215,-10.7208 -13.7971,-21.8436 -20.4495,-32.9724 -4.9864,-8.3633 -14.9776,-17.6221 -17.5023,-26.7225 -2.0196,-7.2244 2.3353,-16.6476 10.9379,-16.9704 7.8265,-0.6092 9.8464,6.8222 14.1383,11.61 9.4294,10.8852 19.2757,21.6059 29.1216,32.0829 l 14.0498,14.0527 c 17.5086,-1.0356 -4.3548,-33.222 -7.5738,-38.4179 -8.1611,-13.2364 -16.0696,-27.289 -14.9777,-43.2909 l 2.3353,-5.604 9.0888,2.6801 c 14.643,13.4863 23.8202,31.7602 38.7156,44.9174 l 8.8362,3.2284 c 12.3708,-4.3249 2.714,-28.0993 0,-36.1398 l 1.3255,-14.8628 h 10.0986 l 7.4036,7.468 c 6.1222,8.2842 13.3806,16.4099 18.5121,25.3398 l 15.2363,15.8375 2.777,-2.7411 v -14.2111 l 4.355,-12.9989 16.1578,5.4214 c 15.3184,15.5936 24.7416,36.5477 34.5058,55.6319 10.433,20.3876 19.9446,41.2564 28.3581,62.4541 10.6856,26.6435 19.1871,53.6889 27.0956,81.1363 6.1225,21.1185 19.3581,44.1864 21.6302,65.6277 1.7039,15.9957 -7.6562,31.5896 -20.3676,41.9083 -12.3709,10.0689 -27.2664,16.483 -40.7291,25.3397 -8.1609,5.3604 -14.643,10.0689 -24.1546,6.0914 -11.1906,-4.6294 -40.4766,-66.4379 -45.8603,-71.3901 l -10.187,-6.9867"
     style="fill:#e9b79c;fill-opacity:1;fill-rule:nonzero;stroke:none;stroke-width:8.26731"
     id="path1136" />
  <path
     d="m 4312.7325,3518.0611 c -124.2129,12.6699 -236.7239,69.1972 -230.9173,172.914 3.3452,58.7994 94.422,137.9073 171.9288,157.0766 149.0365,36.8706 375.075,63.185 622.8317,-26.5581 90.7171,-32.8931 128.0819,-272.1597 -35.3452,-301.1544 -214.5132,-38.095 -353.6217,-20.0647 -528.498,-2.2538"
     style="fill:#56a0fd;fill-opacity:1;fill-rule:nonzero;stroke:none;stroke-width:8.26731"
     id="path1138" />
  <path
     d="m 4270.4067,6695.9397 c 0,0 -85.674,128.892 -27.5187,230.7388 58.0669,101.8466 101.4029,143.4319 210.3036,169.9902 47.7981,11.6952 12.1182,-58.8848 -27.2662,-124.3481 -99.7239,-165.44 -17.0036,-243.4879 -17.0036,-243.4879 l -138.5151,-32.893"
     style="fill:#e9b79c;fill-opacity:1;fill-rule:nonzero;stroke:none;stroke-width:8.26731"
     id="path1140" />
  <path
     d="m 4229.1667,6794.2107 c 0,0 102.2484,267.2866 219.3922,216.5278 0,0 65.3884,63.4287 21.8003,90.4741 -43.5945,26.9663 -143.4002,-28.9092 -192.2964,-95.8345 -72.8805,-99.8975 -63.5391,-89.4996 -71.7003,-108.0171 -31.1351,-70.1719 22.8042,-103.1503 22.8042,-103.1503"
     style="fill:#282738;fill-opacity:1;fill-rule:nonzero;stroke:none;stroke-width:8.26731"
     id="path1142" />
  <path
     d="m 4635.888,5676.0109 c 0,0 -522.6028,-601.9859 -578.5618,-750.6138 -43.5945,-115.4913 -184.8048,-441.9853 114.9536,-483.1626 302.0305,-41.4209 1093.9318,1141.9985 883.7987,1412.0507 -190.6112,244.8706 -420.1905,-178.2743 -420.1905,-178.2743"
     style="fill:#af75e1;fill-opacity:1;fill-rule:nonzero;stroke:none;stroke-width:8.26731"
     id="path1144" />
  <path
     d="m 4245.4128,6767.2505 c 51.9195,57.8249 152.4889,55.6319 203.7393,-0.9136 177.3127,-195.5736 699.2404,-918.9775 645.5535,-1059.6442 -82.4741,-215.9552 -337.8868,-186.8021 -486.248,57.9102 -96.1072,158.6176 -310.873,731.6027 -383.1599,885.2682 -17.5906,37.2788 -11.5315,80.0824 16.3279,112.9755 l 3.7872,4.3858"
     style="fill:#af75e1;fill-opacity:1;fill-rule:nonzero;stroke:none;stroke-width:8.26731"
     id="path1146" />
  <path
     d="m 3176.5571,6611.0695 c 0,0 -119.6685,100.7075 -93.4121,214.1703 26.1742,113.3776 55.7126,164.9527 152.571,219.7745 42.5025,24.0363 28.7812,-53.2807 9.846,-126.6992 -47.7158,-185.6631 54.4506,-238.4565 54.4506,-238.4565 l -123.4555,-68.7891"
     style="fill:#e9b79c;fill-opacity:1;fill-rule:nonzero;stroke:none;stroke-width:8.26731"
     id="path1148" />
  <path
     d="m 3108.3916,6694.3132 c 0,0 20.62,284.184 147.7741,266.9639 0,0 44.4338,78.4561 -5.3018,92.6671 -49.6472,14.2171 -129.3443,-66.2734 -156.7809,-143.6696 -41.0634,-115.5766 -35.0926,-103.0651 -37.5288,-122.9654 -9.5937,-75.7758 51.8374,-92.996 51.8374,-92.996"
     style="fill:#282738;fill-opacity:1;fill-rule:nonzero;stroke:none;stroke-width:8.26731"
     id="path1150" />
  <path
     d="m 3823.6255,5730.0224 c 0,0 -299.9288,-722.4291 -337.6281,-876.259 -100.904,-411.5289 69.1755,-419.5695 368.9338,-378.4714 302.0304,41.421 600.5327,1336.0251 320.3783,1538.8292 -254.0622,183.8722 -351.684,-284.0988 -351.684,-284.0988"
     style="fill:#af75e1;fill-opacity:1;fill-rule:nonzero;stroke:none;stroke-width:8.26731"
     id="path1152" />
  <path
     d="m 3131.7887,6672.8718 c 33.1551,69.441 130.3542,94.3787 195.9131,53.8472 227.0483,-140.1001 938.2426,-694.4091 927.4687,-843.9264 -16.4103,-229.5206 -270.1378,-270.1313 -483.635,-75.045 -138.3509,126.3703 -510.9074,618.8769 -624.9398,746.9528 -27.6828,31.1084 -34.3352,73.8267 -17.1675,112.9756 l 2.3352,5.1775"
     style="fill:#af75e1;fill-opacity:1;fill-rule:nonzero;stroke:none;stroke-width:8.26731"
     id="path1154" />
  <path
     d="m 4353.2154,3608.1332 c -107.7207,-125.3164 -631.7565,-170.5566 -751.2544,-7.4739 0,0 -36.86,111.9217 -57.9849,206.0507 31.8105,90.9615 99.6417,179.3281 104.6089,251.2848 26.0858,374.9809 -209.7986,382.7778 -191.7915,470.98 32.3977,158.2948 346.4643,204.4242 600.1099,181.119 281.4985,-25.9126 337.3754,-170.0695 319.0338,-212.1421 -160.8203,-368.3231 78.2641,-244.8706 76.5789,-431.6728 -0.9466,-100.7868 -56.2174,-407.9533 -99.3007,-458.1457"
     style="fill:#56a0fd;fill-opacity:1;fill-rule:nonzero;stroke:none;stroke-width:8.26731"
     id="path1156" />
  <path
     d="m 4465.7266,4100.7984 c -15.9875,31.023 -45.3555,58.2329 -78.0118,72.2855 -75.5693,32.6494 -152.2366,-8.4487 -211.4776,-53.1162 -11.4491,-8.6131 4.5444,-24.0424 15.817,-15.5145 79.5266,59.9385 199.7,90.9614 254.0685,-14.4548 6.4756,-12.5115 26.0859,-1.7055 19.6039,10.8"
     style="fill:#3f8fd8;fill-opacity:1;fill-rule:nonzero;stroke:none;stroke-width:8.26731"
     id="path1158" />
  <path
     d="m 4125.4918,4111.2754 c -103.0059,84.7911 -232.104,70.7384 -311.7127,-34.1113 -8.5836,-11.2872 10.8561,-22.3369 19.358,-11.1288 70.8543,93.1604 185.7261,104.5269 276.1968,30.0544 11.0202,-9.0151 27.1779,6.0914 16.1579,15.1857"
     style="fill:#3f8fd8;fill-opacity:1;fill-rule:nonzero;stroke:none;stroke-width:8.26731"
     id="path1160" />
  <path
     d="m 3679.1332,4733.7279 c 11.02,25.742 17.4201,54.8218 17.5845,82.5982 0.631,73.8267 -50.6575,111.8364 -122.3574,124.2628 -19.6923,3.3501 -11.3611,32.4058 8.3313,28.9945 127.9114,-22.1723 174.5356,-132.224 126.4851,-243.8167 -7.574,-17.6222 -37.7878,-9.9106 -30.0435,7.9612"
     style="fill:#9c67d3;fill-opacity:1;fill-rule:nonzero;stroke:none;stroke-width:8.26731"
     id="path1162" />
  <path
     d="m 4218.6515,5002.3913 c 46.8701,46.6229 34.0828,112.3237 -1.01,161.5414 -11.4491,16.0019 15.5645,31.0291 26.8434,15.1918 43.2538,-60.6695 53.1881,-141.3184 -3.7869,-198.0102 -13.9677,-13.8882 -36.0206,7.3888 -22.0465,21.277"
     style="fill:#9c67d3;fill-opacity:1;fill-rule:nonzero;stroke:none;stroke-width:8.26731"
     id="path1164" />
  <path
     d="m 4177.4996,2863.6108 c 0,0 -218.4706,-134.2524 -353.4514,49.7051 -368.5992,502.4964 36.6895,567.1436 215.1006,616.6841 17.0793,4.8121 -102.5009,-330.228 -75.9101,-392.7675 l 10.5214,-19.0049 2.9666,-15.1065 c 3.0294,-13.1573 6.9868,-26.2292 11.6134,-38.8991 8.7542,-24.7733 20.1972,-48.6513 33.6662,-71.4754 21.1187,-35.0859 47.293,-68.5456 79.861,-95.0244 12.4529,-10.2334 25.8336,-19.4922 40.7289,-26.0709 l 34.9287,-8.0405"
     style="fill:#282738;fill-opacity:1;fill-rule:nonzero;stroke:none;stroke-width:8.26731"
     id="path1166" />
  <path
     d="m 3922.0049,3181.0898 c 0,0 252.4652,75.9404 233.1895,98.1919 -19.2696,22.1725 0,75.045 -6.8987,122.7217 -7.3215,51.6542 15.7348,110.6973 50.0703,168.7719 23.9841,40.6899 -16.9973,75.9342 -65.5527,78.9434 -209.3821,12.749 -292.0202,-136.2017 -292.0202,-136.2017 92.825,-87.8793 81.2118,-332.4272 81.2118,-332.4272"
     style="fill:#e9b79c;fill-opacity:1;fill-rule:nonzero;stroke:none;stroke-width:8.26731"
     id="path1168" />
  <path
     d="m 4148.2957,3402.0034 c 6.8166,-47.6767 -12.3709,-100.5492 6.8987,-122.7217 19.2757,-22.2515 -233.1895,-98.1919 -233.1895,-98.1919 0,0 29.9549,53.8472 25.7514,130.0313 84.1528,81.1362 136.9182,111.0262 206.7689,152.9345 -5.996,-22.1724 -8.9246,-43.3702 -6.2483,-62.0522"
     style="fill:#c58063;fill-opacity:1;fill-rule:nonzero;stroke:none;stroke-width:8.26731"
     id="path1170" />
  <path
     d="m 4176.7421,2887.8968 c 75.5693,77.4815 229.0682,395.9352 62.0181,515.5686 -71.1951,51.2461 -251.1143,-45.563 -336.536,-192.4855 -35.0926,-60.2613 -26.3386,-187.9351 42.8371,-293.4367 31.2235,-47.841 144.9968,-120.3642 231.6808,-29.6464"
     style="fill:#e9b79c;fill-opacity:1;fill-rule:nonzero;stroke:none;stroke-width:8.26731"
     id="path1172" />
  <path
     d="m 4176.067,2956.6861 c 0,0 -105.1959,253.4837 -310.0274,226.353 0,0 -47.6339,-238.3712 156.0235,-338.1895 0,0 290.2529,-70.8176 316.3388,291.9808 0,0 -141.0461,5.0558 -162.3349,-180.1443"
     style="fill:#282738;fill-opacity:1;fill-rule:nonzero;stroke:none;stroke-width:8.26731"
     id="path1174" />
  <path
     d="m 3988.8196,3193.437 c 0,0 -45.6078,-71.7131 -85.838,-66.84 -40.224,4.8121 -21.2891,109.7227 55.2077,118.6587 76.2446,8.8508 45.4438,-31.8392 30.6303,-51.8187"
     style="fill:#e9b79c;fill-opacity:1;fill-rule:nonzero;stroke:none;stroke-width:8.26731"
     id="path1176" />
  <path
     d="m 3925.1984,3411.9932 -1.0728,-14.0528 0.6311,7.066 -7.41,-1.2183 c 0.6314,-3.6547 2.9666,-49.5407 5.1125,-89.9869 1.3254,-25.7479 2.777,-52.2208 3.8502,-72.1211 l 7.8264,-6.6578 v 0 l 7.0689,7.468 c -1.0729,19.821 -2.4614,46.2939 -3.8499,72.0418 -5.1124,96.8092 -5.1124,96.8092 -11.9543,97.4611"
     style="fill:#e8a32b;fill-opacity:1;fill-rule:nonzero;stroke:none;stroke-width:8.26731"
     id="path1178" />
  <path
     d="m 3878.4104,3402.4114 -4.4813,-1.7054 -0.8207,-9.9107 c 14.3086,-15.7582 23.7319,-35.4087 29.709,-61.9668 2.3352,-10.5623 3.9765,-21.1978 5.6175,-31.76 1.9566,-12.1828 3.9762,-24.8526 6.9869,-37.3582 l 7.4035,-19.3276 10.2689,-2.4365 2.7141,9.5816 -5.8066,15.4293 c -2.9666,11.8597 -4.8601,24.2069 -6.7282,36.1458 -1.7043,10.8791 -3.4716,21.7643 -5.8069,32.5641 -6.4819,28.9947 -17.0033,50.6798 -32.9909,68.308 l -6.059,2.4364"
     style="fill:#e8a32b;fill-opacity:1;fill-rule:nonzero;stroke:none;stroke-width:8.26731"
     id="path1180" />
  <path
     d="m 3978.2162,3386.0868 -8.4136,-11.6161 4.0396,5.8477 -7.1511,1.9491 -2.2091,-5.5431 c -9.0067,-22.0078 -36.3549,-89.0914 -40.0598,-128.5631 l 6.8166,-7.6386 8.0788,6.4203 c 2.3352,24.8525 15.4888,66.84 39.1321,124.75 3.2189,7.8761 4.5443,11.208 0,14.3755"
     style="fill:#e8a32b;fill-opacity:1;fill-rule:nonzero;stroke:none;stroke-width:8.26731"
     id="path1182" />
  <path
     d="m 3956.8452,3243.142 c 0.757,-14.2962 -10.9446,-26.3937 -26.0925,-27.0454 -15.1479,-0.7309 -28.0237,10.3126 -28.7809,24.5297 -0.7576,14.2903 10.9442,26.3937 26.0921,27.0454 15.23,0.731 28.1057,-10.3187 28.7813,-24.5297"
     style="fill:#e8a32b;fill-opacity:1;fill-rule:nonzero;stroke:none;stroke-width:8.26731"
     id="path1184" />
  <path
     d="m 4082.1499,3193.3578 2.5876,1.2791 8.9246,2.863 c 12.1184,1.9492 18.3417,-5.1167 22.1287,-14.6192 l 9.8461,4.2031 c -8.3313,21.0331 -30.4598,25.6625 -50.575,13.8089 l 7.0689,-7.5532"
     style="fill:#1e100c;fill-opacity:1;fill-rule:nonzero;stroke:none;stroke-width:8.26731"
     id="path1186" />
  <path
     d="m 4198.7066,3164.4423 9.6758,7.066 c 11.4429,5.8477 18.7644,-0.6093 24.0662,-10.1542 l 9.8461,4.1421 c -6.1222,11.3725 -16.3218,21.283 -31.558,17.5429 -8.1611,-1.9493 -15.4826,-7.1451 -20.9548,-12.9135 l 8.9247,-5.665"
     style="fill:#1e100c;fill-opacity:1;fill-rule:nonzero;stroke:none;stroke-width:8.26731"
     id="path1188" />
  <path
     d="m 4222.9433,3114.0064 c -17.5084,-4.8731 -32.4038,2.4364 -40.2303,17.7866 l -11.4431,-6.0914 c 10.3514,-20.2232 31.6404,-30.0484 55.0376,-23.6343 8.0787,2.2537 4.7337,14.211 -3.3454,11.9391"
     style="fill:#552b19;fill-opacity:1;fill-rule:nonzero;stroke:none;stroke-width:8.26731"
     id="path1190" />
  <path
     d="m 4114.7178,3146.9786 c -15.4003,-9.0944 -31.8927,-5.8477 -43.8467,6.9075 l -9.1711,-8.7715 c 15.7351,-16.812 39.0501,-20.875 59.6638,-8.6922 l -6.646,10.5562"
     style="fill:#552b19;fill-opacity:1;fill-rule:nonzero;stroke:none;stroke-width:8.26731"
     id="path1192" />
  <path
     d="m 4158.8991,3152.2597 c -3.2189,10.8852 -4.5445,23.3907 -0.9467,34.1905 5.365,15.6791 24.5775,22.3369 35.3452,35.1712 14.7314,17.6222 0.7575,28.6658 -22.2168,35.3296 l -2.8402,-6.6638 c 51.5847,-14.8629 -9.5938,-38.82 -18.0072,-59.0432 -5.2387,-12.5906 -4.1027,-27.3682 0,-40.367 l 8.9183,1.401"
     style="fill:#bd7c64;fill-opacity:1;fill-rule:nonzero;stroke:none;stroke-width:8.26731"
     id="path1194" />
  <path
     d="m 4197.0213,3325.4966 c 0,0 21.7122,-36.7916 -11.8658,-52.3854 -33.6597,-15.5936 -54.1096,16.9765 -54.1096,16.9765 l 65.9754,35.4089"
     style="fill:#f8ffff;fill-opacity:1;fill-rule:nonzero;stroke:none;stroke-width:8.26731"
     id="path1196" />
  <path
     d="m 4057.2378,3269.0484 c 4.7968,12.4262 19.3575,18.8465 32.568,14.3755 13.2165,-4.4467 20.0331,-18.1886 15.2364,-30.615 -4.7339,-12.4262 -19.358,-18.8465 -32.5681,-14.3754 -13.2167,4.5685 -20.033,18.1885 -15.2363,30.6149"
     style="fill:#c0775d;fill-opacity:1;fill-rule:nonzero;stroke:none;stroke-width:8.26731"
     id="path1198" />
  <path
     d="m 4269.1444,3205.9425 c -11.2788,-8.1198 -27.4367,-6.1705 -36.1023,4.4465 -8.6723,10.5564 -6.5641,25.742 4.7335,33.8678 11.279,8.1988 27.4367,6.1704 36.1024,-4.3858 8.6723,-10.6415 6.5644,-25.8271 -4.7336,-33.953"
     style="fill:#c0775d;fill-opacity:1;fill-rule:nonzero;stroke:none;stroke-width:8.26731"
     id="path1200" />
  <path
     d="m 3375.5818,3351.9754 c -10.0103,-29.4819 -223.9368,-372.057 -176.9782,-465.8633 34.0829,-67.979 279.6492,-23.7194 279.6492,-23.7194 0,0 21.6301,205.7277 110.4979,341.6005 130.1017,198.9056 -213.1689,147.9822 -213.1689,147.9822"
     style="fill:#e9b79c;fill-opacity:1;fill-rule:nonzero;stroke:none;stroke-width:8.26731"
     id="path1202" />
  <path
     d="m 3201.8858,2887.5741 c 70.3557,-159.5131 453.011,-525.1562 453.011,-525.1562 l 42.3256,121.4242 -311.2014,512.48 c 0,0 -254.3206,50.759 -184.1352,-108.748"
     style="fill:#e9b79c;fill-opacity:1;fill-rule:nonzero;stroke:none;stroke-width:8.26731"
     id="path1204" />
  <path
     d="m 3719.8621,2470.9285 c 12.9579,-2.9238 26.4268,0 39.9718,1.0356 25.4167,1.7664 50.3289,-4.4467 74.6474,-11.0435 13.4628,-3.6549 46.3719,4.0811 53.1882,-12.1827 11.1904,-26.5581 -47.1288,-24.9378 -59.7522,-28.9946 -11.6133,-3.6549 -22.5513,-13.2426 -22.0464,-25.017 0,-7.797 5.4912,-14.5401 10.6854,-20.4669 16.6629,-18.9256 36.2732,-34.9215 54.7851,-52.0624 9.6757,-8.9298 18.6002,-18.2739 27.6006,-27.6911 6.8167,-7.0659 18.6826,-13.9735 23.227,-22.3367 3.5974,-6.5787 1.5778,-16.7329 -6.7283,-18.9258 l -16.4103,8.3695 c -11.7837,8.607 -23.8199,16.812 -35.8501,25.0109 l -17.0035,10.6415 c -16.7448,-4.8121 12.0363,-31.4312 16.3282,-35.896 11.0266,-11.1288 22.0466,-23.147 24.6594,-38.9052 l -1.0727,-6.0304 -9.5055,0.67 c -17.3379,10.0689 -30.5481,25.9064 -48.1387,35.4941 l -9.259,1.2182 c -11.1088,-6.8222 3.8499,-27.9408 8.1671,-35.2503 l 2.2092,-14.7838 -9.9282,-2.1928 -8.9184,5.7868 c -7.9147,6.6578 -16.9153,13.0779 -23.9024,20.7104 l -18.5117,12.1034 -2.083,-3.2284 3.0297,-13.9673 -1.1994,-13.6445 -17.0853,1.8882 c -18.5122,11.939 -32.5682,30.2921 -46.4536,46.7813 -14.8956,17.6222 -28.9516,35.9753 -42.1618,54.8218 -16.4923,23.6343 -31.0532,48.2431 -45.1092,73.2541 -10.856,19.2484 -29.0334,38.9052 -36.1847,59.3719 -5.3648,15.1856 0,32.4058 10.0985,45.155 9.7643,12.5115 22.8043,22.0139 33.8305,33.4655 6.7345,7.066 11.9479,12.9928 22.1349,11.2081 12.03,-2.132 54.7848,-56.0401 61.1787,-59.7801 l 11.6134,-4.5685"
     style="fill:#e9b79c;fill-opacity:1;fill-rule:nonzero;stroke:none;stroke-width:8.26731"
     id="path1206" />
  <path
     d="m 3754.45,3620.1514 c 30.7187,116.7947 14.8133,238.3774 -87.94,268.9923 -58.3195,17.3845 -166.7974,-37.6017 -212.3231,-101.1158 -87.4413,-122.149 -191.457,-317.6374 -190.1062,-573.0703 0.631,-93.4773 220.0611,-210.2721 304.8894,-72.444 111.4255,181.0337 142.138,313.1726 185.4799,477.6378"
     style="fill:#56a0fd;fill-opacity:1;fill-rule:nonzero;stroke:none;stroke-width:8.26731"
     id="path1208" />
  <path
     d="m 4563.0139,4782.9457 c -26.8495,10.3127 -57.0571,16.0811 -85.8381,15.9166 -76.4969,-0.6091 -115.2125,-50.4359 -127.0785,-119.7125 -3.2819,-19.09 -33.4073,-11.4516 -30.1254,7.6324 21.2071,123.6962 134.6461,170.1486 250.8686,125.2375 18.4298,-7.066 10.7674,-36.3042 -7.8266,-29.074"
     style="fill:#9c67d3;fill-opacity:1;fill-rule:nonzero;stroke:none;stroke-width:8.26731"
     id="path1210" />
  <path
     d="m 3705.4717,2851.9156 -305.6532,-396.6662 -152.3186,227.9796 -411.6005,-952.8452 468.8281,608.4851 146.1772,-210.2719 254.567,723.3186"
     style="fill:#ffd500;fill-opacity:1;fill-rule:nonzero;stroke:none;stroke-width:8.26731"
     id="path1212" />
  <path
     d="m 3846.682,2785.3192 40.2301,-317.0708 -176.5617,41.092 247.5865,-622.6902 -61.7719,486.3301 165.4529,-35.5732 -214.9359,447.9121"
     style="fill:#ffd500;fill-opacity:1;fill-rule:nonzero;stroke:none;stroke-width:8.26731"
     id="path1214" />
  <path
     d="m 3634.1061,2913.3159 -312.8865,104.2041 115.7112,135.0625 -688.4727,58.3974 479.9363,-159.6714 -105.6124,-128.0028 511.3241,-9.9898"
     style="fill:#ffd500;fill-opacity:1;fill-rule:nonzero;stroke:none;stroke-width:8.26731"
     id="path1216" />
</svg>
