<?xml version="1.0" encoding="UTF-8" standalone="no"?>
<svg
   id="eOkYnIVEzX01"
   viewBox="0 0 12000 7500"
   shape-rendering="geometricPrecision"
   text-rendering="geometricPrecision"
   version="1.1"
   sodipodi:docname="intro-3.svg"
   inkscape:version="1.2 (dc2aedaf03, 2022-05-15)"
   xmlns:inkscape="http://www.inkscape.org/namespaces/inkscape"
   xmlns:sodipodi="http://sodipodi.sourceforge.net/DTD/sodipodi-0.dtd"
   xmlns="http://www.w3.org/2000/svg"
   xmlns:svg="http://www.w3.org/2000/svg">
  <sodipodi:namedview
     id="namedview22622"
     pagecolor="#ffffff"
     bordercolor="#000000"
     borderopacity="0.25"
     inkscape:showpageshadow="2"
     inkscape:pageopacity="0.0"
     inkscape:pagecheckerboard="0"
     inkscape:deskcolor="#d1d1d1"
     showgrid="false"
     inkscape:zoom="0.071712413"
     inkscape:cx="5961.3111"
     inkscape:cy="3667.4265"
     inkscape:window-width="1920"
     inkscape:window-height="1057"
     inkscape:window-x="-8"
     inkscape:window-y="-8"
     inkscape:window-maximized="1"
     inkscape:current-layer="eOkYnIVEzX01" />
  <style
     id="style21766"><![CDATA[
#eOkYnIVEzX085 {animation: eOkYnIVEzX085_c_o 3000ms linear infinite normal forwards}@keyframes eOkYnIVEzX085_c_o { 0% {opacity: 1} 10% {opacity: 0.1} 20% {opacity: 1} 30% {opacity: 0.2} 40% {opacity: 1} 50% {opacity: 0.3} 60% {opacity: 1} 70% {opacity: 0.4} 80% {opacity: 1} 90% {opacity: 0.5} 100% {opacity: 1}} #eOkYnIVEzX0135_tr {animation: eOkYnIVEzX0135_tr__tr 3000ms linear infinite normal forwards}@keyframes eOkYnIVEzX0135_tr__tr { 0% {transform: translate(3413px,5916px) rotate(0deg)} 10% {transform: translate(3413px,5916px) rotate(5400deg)} 100% {transform: translate(3413px,5916px) rotate(0deg)}} #eOkYnIVEzX0393_tr {animation: eOkYnIVEzX0393_tr__tr 3000ms linear infinite normal forwards}@keyframes eOkYnIVEzX0393_tr__tr { 0% {transform: translate(3201px,4651px) rotate(0deg)} 10% {transform: translate(3201px,4651px) rotate(-360deg)} 100% {transform: translate(3201px,4651px) rotate(0deg)}} #eOkYnIVEzX0393_ts {animation: eOkYnIVEzX0393_ts__ts 3000ms linear infinite normal forwards}@keyframes eOkYnIVEzX0393_ts__ts { 0% {transform: scale(0,0.5)} 10% {transform: scale(1,1)} 100% {transform: scale(0.5,0)}} #eOkYnIVEzX0393 {animation: eOkYnIVEzX0393_c_o 3000ms linear infinite normal forwards}@keyframes eOkYnIVEzX0393_c_o { 0% {opacity: 0.45} 20% {opacity: 1} 100% {opacity: 0.46}} #eOkYnIVEzX0419_tr {animation: eOkYnIVEzX0419_tr__tr 3000ms linear infinite normal forwards}@keyframes eOkYnIVEzX0419_tr__tr { 0% {transform: translate(3707px,5094px) rotate(0deg)} 10% {transform: translate(3707px,5094px) rotate(-5400deg)} 100% {transform: translate(3707px,5094px) rotate(0deg)}}
]]></style>
  <defs
     id="defs21774">
    <path
       id="eOkYnIVEzX02"
       d="M5482,6130c0-19,14-34,33-34c18,0,33,15,33,34s-15,34-33,34c-19,0-33-15-33-34Z" />
    <path
       id="eOkYnIVEzX03"
       d="M5365,6130c0-19,16-34,34-34s32,15,32,34-14,34-32,34-34-15-34-34Z" />
    <path
       id="eOkYnIVEzX04"
       d="M5631,6070c14,0,27,5,37,13h43c10-8,22-13,37-13c33,0,59,26,59,60c0,33-26,60-59,60-15,0-27-5-37-14h-43c-10,9-23,14-37,14-32,0-58-27-58-60c0-34,26-60,58-60Z" />
    <path
       id="eOkYnIVEzX05"
       d="M5864,6070c14,0,27,5,37,13h43c10-8,23-13,38-13c32,0,58,26,58,60c0,33-26,60-58,60-15,0-28-5-38-14h-43c-10,9-23,14-37,14-32,0-58-27-58-60c0-34,26-60,58-60Z" />
    <path
       id="eOkYnIVEzX06"
       d="M6298,6130c0-19,14-34,32-34s34,15,34,34-16,34-34,34-32-15-32-34Z" />
    <path
       id="eOkYnIVEzX07"
       d="M7049,2835h33v-195h-33v195Z" />
  </defs>
  <path
     d="m 1290,6792 c 0,0 -881,-1909 59,-3048 1211,-1469 2723,-884 3311,-920 588,-35 634,-1234 2390,-1402 1357,-130 3627,291 3151,2594 -361,1752 1302,846 910,2781 z"
     fill="#a0dcf7"
     fill-rule="evenodd"
     stroke-width="28.222"
     stroke-linejoin="round"
     id="path21778" />
  <path
     d="M 6897.5258,7030.2103 C 5695.7143,6260.1094 5530.8872,6249.613 4448.6547,6729.6041 3276.2282,7249.5595 2576.1021,6773.4089 2494.0703,5956.9115 2354.4067,4566.1286 4650.4598,5014.0817 4411.5758,3240.0422 c -176.0654,-1307.0137 455.2916,-1886.562 1304.497,-2026.1269 840.1788,-138.2149 2016.4449,127.2349 1950.9391,1367.1047 -36.2144,685.8697 -789.9454,1241.9273 -107.4834,1560.8409 705.9902,329.9298 1790.6217,220.8941 2008.9456,1530.9182 216.4076,1298.322 -1547.5089,2077.2229 -2670.9483,1357.4312"
     style="fill:#e5f2f8;fill-opacity:1;fill-rule:nonzero;stroke:none;stroke-width:9.61529"
     id="path12" />
  <path
     d="m 8281.0793,2665.7999 c 381.9984,-205.2938 840.4598,-93.8469 1023.9236,249.0121 183.4638,342.7579 22.57,787.181 -359.4283,992.4676 C 8563.5691,4112.6095 7866.13,4172.0869 7682.6662,3829.3 7499.2024,3486.4699 7899.1674,2871.1226 8281.0793,2665.7999"
     style="fill:#e7f4fa;fill-opacity:1;fill-rule:nonzero;stroke:none;stroke-width:9.61529"
     id="path14" />
  <path
     d="m 7795.8191,6826.4613 -169.0558,-1.0106 0.8644,-169.3793 169.0559,0.9384 -0.8645,169.4227"
     style="fill:#e8a32b;fill-opacity:1;fill-rule:nonzero;stroke:none;stroke-width:9.61529"
     id="path16" />
  <path
     d="m 7323.5261,6721.2589 864.1896,4.6202 7.204,-1340.7843 -605.9989,-3.2485 -265.3947,1339.4631"
     style="fill:#e9ca55;fill-opacity:1;fill-rule:nonzero;stroke:none;stroke-width:9.61529"
     id="path18" />
  <path
     d="m 8069.5704,5558.7767 -406.5927,-2.1657 0.7204,-103.0945 406.6936,2.2379 -0.7204,103.0584"
     style="fill:#ffffff;fill-opacity:1;fill-rule:nonzero;stroke:none;stroke-width:9.61529"
     id="path20" />
  <path
     d="m 8194.9197,5385.066 279.8963,1342.3579 -287.1003,-1.5882 z"
     style="fill:#e8a32b;fill-opacity:1;fill-rule:nonzero;stroke:none;stroke-width:9.61529"
     id="path22" />
  <path
     d="m 7560.5803,6825.1042 -168.955,-0.8663 0.8645,-169.4154 169.0558,1.0106 -0.9365,169.3072"
     style="fill:#e9ca55;fill-opacity:1;fill-rule:nonzero;stroke:none;stroke-width:9.61529"
     id="path24" />
  <path
     d="m 8148.5261,6828.2589 -169.0559,-0.8663 0.9365,-169.3865 168.9622,0.9384 -0.8645,169.2999"
     style="fill:#e9ca55;fill-opacity:1;fill-rule:nonzero;stroke:none;stroke-width:9.61529"
     id="path26" />
  <path
     d="m 8442.4485,6829.9192 -169.0558,-1.0106 0.9365,-169.3072 169.0558,0.8663 -0.9365,169.4154"
     style="fill:#e8a32b;fill-opacity:1;fill-rule:nonzero;stroke:none;stroke-width:9.61529"
     id="path28" />
  <path
     d="m 7937.9753,6328.8054 -279.0318,-1.4438 c -60.2253,0 -98.9395,-63.9892 -71.7517,-117.7202 l 141.0035,-278.9492 c 30.1631,-59.5495 115.2637,-59.1742 144.7496,0.794 l 138.0283,280.3714 c 26.6115,54.1064 -12.8663,117.352 -72.9979,116.9406"
     style="fill:#e8a32b;fill-opacity:1;fill-rule:nonzero;stroke:none;stroke-width:9.61529"
     id="path30" />
  <path
     d="m 7707.4479,4472.2022 c 39.2833,-2.2379 320.2386,58.4233 516.3814,17.3328 93.3636,-19.6645 36.5026,-267.1029 36.5026,-267.1029 0,0 -168.9622,35.6835 -500.7272,-84.1446 -279.5145,-101.0659 -52.1568,333.9147 -52.1568,333.9147"
     style="fill:#e9b79c;fill-opacity:1;fill-rule:nonzero;stroke:none;stroke-width:9.61529"
     id="path32" />
  <path
     d="m 8054.1971,4503.742 c 248.9696,16.1705 999.7254,-244.7601 999.7254,-244.7601 l -114.8819,-87.4942 -748.0615,56.1349 c 0,0 -354.8177,262.1001 -136.782,276.1194"
     style="fill:#e9b79c;fill-opacity:1;fill-rule:nonzero;stroke:none;stroke-width:9.61529"
     id="path34" />
  <path
     d="m 8904.0797,4155.6925 c 8.8321,-12.5899 10.561,-31.4676 15.9424,-45.6024 10.5682,-28.1252 29.774,-51.5147 48.9871,-74.1102 10.7555,-12.5177 18.5358,-51.6952 39.7659,-50.6485 34.7737,1.7326 4.1063,63.3539 2.3773,78.8459 -1.6569,14.2503 3.458,30.9045 16.6196,36.4776 8.7385,3.6095 18.7304,1.6604 27.8578,-0.8663 29.1041,-8.0853 56.4793,-20.7907 84.5244,-31.7708 14.5016,-5.7752 29.2985,-10.3809 44.0883,-15.1888 11.1446,-3.6817 24.5872,-12.8209 36.0199,-13.3912 9.1275,-0.7219 19.213,7.0024 17.5777,17.0368 -1.6569,8.9444 -10.4673,9.6229 -17.2895,13.1964 -15.2725,8.1502 -30.3504,16.7264 -45.241,25.4108 l -20.1712,12.7127 c -3.0977,20.3792 40.5368,3.3207 47.64,0.9384 17.5777,-5.9917 36.308,-11.5431 55.0384,-6.2083 l 6.0513,4.187 -5.403,9.8612 c -19.6956,13.3479 -43.6129,19.3252 -62.9195,33.0774 l -5.9793,9.327 c 2.0171,15.4197 32.7493,10.3015 42.8348,9.4424 l 17.4841,5.2699 -2.5934,11.6514 -10.6619,6.6415 c -11.3319,4.9811 -22.7646,11.3483 -34.6728,14.8928 l -22.4764,13.5717 2.5934,3.9705 16.8069,3.8982 14.408,8.3452 -10.3738,17.2606 c -22.3827,13.5789 -49.5634,19.2531 -74.6332,25.613 -26.7988,6.7137 -53.8858,12.4095 -81.1673,16.7264 -51.2923,8.1936 -104.6018,5.4865 -154.9288,18.2713 l -22.9591,4.187 c -14.7898,0 -28.4341,-8.3885 -39.2833,-18.5023 -20.4593,-18.9498 -33.9092,-47.6381 -31.4094,-75.8355 0.7925,-8.9516 1.0806,-27.3384 8.7385,-32.1534 l 24.8753,-3.2486 c 9.4156,-1.2994 18.8312,-2.671 28.0523,-5.2699 15.6543,-4.4757 31.4094,-12.9003 43.8002,-27.9447"
     style="fill:#e9b79c;fill-opacity:1;fill-rule:nonzero;stroke:none;stroke-width:9.61529"
     id="path36" />
  <path
     d="m 7113.0689,4091.8188 c -152.3354,1.1551 -296.1268,58.8782 -301.7964,189.9824 -3.2418,74.2979 97.3979,184.6186 189.1262,217.9198 176.3534,63.9242 612.9147,130.6999 924.8976,47.1545 114.3056,-30.6085 189.4143,-326.9628 -5.4751,-382.8017 -255.7917,-73.3523 -592.1673,-73.9081 -806.7523,-72.255"
     style="fill:#e8a32b;fill-opacity:1;fill-rule:nonzero;stroke:none;stroke-width:9.61529"
     id="path38" />
  <path
     d="m 4837.2879,3325.248 c 0,0 61.277,-203.785 50.0388,-239.0931 -33.5201,-105.3108 -386.2271,-196.5661 -519.263,-156.0386 -18.5358,5.703 -42.1649,33.691 -14.5016,80.9538 27.6633,47.1545 216.8903,140.3156 185.8627,223.6012 -30.9267,83.2422 297.8631,90.5767 297.8631,90.5767"
     style="fill:#e8a32b;fill-opacity:1;fill-rule:nonzero;stroke:none;stroke-width:9.61529"
     id="path40" />
  <path
     d="m 4659.1046,4529.7737 c 0,0 982.0468,-361.9316 1186.1644,-378.2899 299.9738,-24.2558 513.3053,342.8302 396.7953,669.7136 -80.1083,224.8356 -1902.7157,543.9441 -2134.3957,215.8191 -210.0681,-297.5165 551.436,-507.2428 551.436,-507.2428"
     style="fill:#56a0fd;fill-opacity:1;fill-rule:nonzero;stroke:none;stroke-width:9.61529"
     id="path42" />
  <path
     d="m 4383.437,3235.8408 c -129.1962,345.53 -415.432,1471.7657 -306.5078,1737.071 117.8571,286.7313 509.3719,66.0177 591.7855,-333.727 53.4031,-259.097 222.5526,-1138.9483 251.7503,-1380.7486 7.132,-58.6182 -140.7153,-114.3344 -232.6381,-124.4555 -2.3053,0 -267.03,1.9491 -304.3899,101.8601"
     style="fill:#56a0fd;fill-opacity:1;fill-rule:nonzero;stroke:none;stroke-width:9.61529"
     id="path44" />
  <path
     d="m 4512.7197,5536.4772 c 0,0 -158.7758,-141.2902 -195.5593,-145.8454 -109.3132,-13.7666 -340.1288,268.756 -359.241,406.7832 -2.6655,19.2531 12.7727,52.5688 67.2348,47.1473 54.3684,-5.3421 218.1365,-138.4026 280.5735,-75.157 62.336,63.0507 206.992,-232.9281 206.992,-232.9281"
     style="fill:#e8a32b;fill-opacity:1;fill-rule:nonzero;stroke:none;stroke-width:9.61529"
     id="path46" />
  <path
     d="m 5520.319,6159.9097 c 0,0 84.4307,-1045.1374 155.2242,-1237.7258 104.0255,-282.898 525.9843,-322.9346 773.225,-79.8204 170.0139,167.1991 -306.0252,1958.9829 -700.4216,2031.9237 -357.6056,66.2126 -228.0276,-714.3775 -228.0276,-714.3775"
     style="fill:#56a0fd;fill-opacity:1;fill-rule:nonzero;stroke:none;stroke-width:9.61529"
     id="path48" />
  <path
     d="m 4241.2736,5911.7567 c 258.6734,262.591 1152.0608,964.3713 1438.1093,976.5931 309.1949,13.1963 280.2853,-404.2638 -47.2581,-647.0387 -212.1789,-157.3597 -938.2466,-680.5059 -1144.9505,-808.5276 -50.1397,-31.0633 -162.6226,80.0009 -210.3562,159.4099 -1.1527,1.9491 -110.365,243.6123 -35.5445,319.5633"
     style="fill:#56a0fd;fill-opacity:1;fill-rule:nonzero;stroke:none;stroke-width:9.61529"
     id="path50" />
  <path
     d="m 7215.8481,4649.1037 c 266.3529,-371.9299 72.9043,-689.2553 -129.4771,-954.2647 -136.4939,-178.5474 -285.854,-239.4686 -635.8739,-33.8715 -137.6465,80.8383 -568.6319,306.9517 -746.7143,492.7326 -31.9857,33.4672 -35.4436,110.2774 -45.8173,155.4394 -59.0727,259.5735 615.89,1115.5588 813.1854,958.7694 0,0 393.5247,-128.4043 744.6972,-618.8052"
     style="fill:#e9ca55;fill-opacity:1;fill-rule:nonzero;stroke:none;stroke-width:9.61529"
     id="path52" />
  <path
     d="m 7503.4311,3573.4732 c 0,0 93.8463,318.0113 61.0898,315.6073 -32.6557,-2.4544 -65.6067,51.8902 -112.0003,78.6582 -50.1398,29.1359 -85.8715,91.443 -112.8576,163.5175 -18.9249,50.4536 -91.8292,20.1121 -127.9427,-22.8986 -155.606,-185.0951 -147.8257,-361.0582 -53.7922,-355.8316 211.2208,11.5432 345.503,-179.0528 345.503,-179.0528"
     style="fill:#e9b79c;fill-opacity:1;fill-rule:nonzero;stroke:none;stroke-width:9.61529"
     id="path54" />
  <path
     d="m 7452.5206,3967.7387 c 46.3936,-26.768 79.3446,-81.1415 112.0003,-78.6582 32.7565,2.3823 -68.5819,-340.65 -68.5819,-340.65 0,0 -23.4346,73.6627 -92.881,122.658 -31.5102,135.1252 -18.9248,256.6859 -7.3985,350.4534 15.2725,-20.9062 38.8079,-43.314 56.8611,-53.8032"
     style="fill:#c58063;fill-opacity:1;fill-rule:nonzero;stroke:none;stroke-width:9.61529"
     id="path56" />
  <path
     d="m 8052.0864,3652.5068 c -27.1807,170.556 -292.4817,450.8552 -514.458,411.6705 -121.9922,-21.4693 -170.403,-319.6572 -51.9695,-538.1545 15.3733,-28.3851 130.9251,-141.2902 313.8054,-161.785 82.7017,-9.6229 280.8617,110.8766 252.6221,288.269"
     style="fill:#e9b79c;fill-opacity:1;fill-rule:nonzero;stroke:none;stroke-width:9.61529"
     id="path58" />
  <path
     d="m 7875.0629,3930.597 c -19.883,10.7491 179.6169,-134.988 129.6717,-259.2125 -20.272,-50.533 -65.8948,-11.1678 -100.5676,-63.6499 -29.4931,-44.8661 -9.7038,-239.548 -268.759,-24.6312 -12.4845,10.2943 -35.8254,6.7136 -51.775,7.5149 -19.4939,0.8663 -41.4949,44.2597 -58.9718,53.5072 -16.8141,8.9516 7.4922,-67.8657 -8.5511,-57.6364 -25.7398,16.351 -39.2833,47.7103 -64.8358,64.7399 -46.7755,31.2078 -41.8768,-24.8117 -27.8578,-54.063 19.213,-40.1593 38.5197,-80.2753 57.8263,-120.4345 9.7975,-20.4154 18.9249,-39.4374 35.6381,-54.7417 l 42.1649,-42.6787 c -2.3052,-16.8419 -8.7384,-33.0774 -18.6367,-46.8441 42.3595,-23.801 88.0831,-42.6426 136.1121,-49.6667 48.1226,-6.9302 98.7377,-1.3716 141.7743,21.2816 -10.2801,-15.0444 -19.3066,-30.9045 -26.8996,-47.5659 l -1.729,-8.8794 15.5606,-5.2699 c 43.1302,6.2084 85.2952,19.1376 124.5857,38.0153 23.7227,11.3482 92.5927,43.0107 96.2452,73.807 -1.3688,-11.6226 1.0806,-23.6494 6.8437,-33.9582 40.5369,63.4261 73.8697,131.559 98.8387,202.5795 9.2211,-21.5415 20.5601,-42.029 33.7146,-61.3976 17.7722,63.2457 20.8483,131.9705 -0.8645,193.8662 -24.7817,70.4574 -77.0321,113.396 -143.9787,140.922 -14.408,5.8474 -13.6444,12.0991 -20.272,22.8987 -9.0266,14.734 -22.5701,27.8148 -34.7665,40.3397 -26.8996,27.5188 -56.58,52.641 -90.482,71.1432"
     style="fill:#552b19;fill-opacity:1;fill-rule:nonzero;stroke:none;stroke-width:9.61529"
     id="path60" />
  <path
     d="m 7579.7933,3652.0159 c 0,0 30.6385,-129.3716 -18.0604,-164.1167 -48.9871,-34.7378 -145.6141,106.0688 -72.9979,193.4836 72.5225,87.1982 84.5243,8.836 91.0583,-29.3669"
     style="fill:#e9b79c;fill-opacity:1;fill-rule:nonzero;stroke:none;stroke-width:9.61529"
     id="path62" />
  <path
     d="m 7653.2739,3675.8963 0.7925,4.8368 4.3944,15.1093 c 8.6448,18.4662 24.8753,19.744 42.1649,15.3043 10.8564,-2.8876 14.1198,14.9289 3.3859,17.7154 -38.3252,9.9983 -66.183,-15.4992 -68.2938,-54.7922 -0.7204,-11.5359 17.0014,-9.5074 17.5777,1.877"
     style="fill:#201714;fill-opacity:1;fill-rule:nonzero;stroke:none;stroke-width:9.61529"
     id="path64" />
  <path
     d="m 7806.3801,3805.1597 -1.1526,20.4153 c 2.5934,21.5487 18.8312,25.0066 37.7489,22.3356 11.1445,-1.516 14.5088,16.1633 3.3858,17.7154 -22.3827,3.1764 -46.1991,-0.7219 -55.4202,-25.1654 -4.9707,-13.153 -4.3944,-28.3851 -1.3687,-41.5814 2.5934,-11.1245 19.3066,-4.6924 16.8068,6.2805"
     style="fill:#201714;fill-opacity:1;fill-rule:nonzero;stroke:none;stroke-width:9.61529"
     id="path66" />
  <path
     d="m 7902.1499,3786.8523 c -9.6101,-28.6594 -34.3918,-41.5453 -63.9714,-36.6653 -13.8316,2.3101 -15.7551,-19.4335 -2.0171,-21.6569 38.9952,-6.5693 73.4806,12.4094 86.4478,50.8433 4.3944,13.2686 -15.9496,20.7908 -20.4593,7.4789"
     style="fill:#4d2f20;fill-opacity:1;fill-rule:nonzero;stroke:none;stroke-width:9.61529"
     id="path68" />
  <path
     d="m 7751.3417,3673.182 c -1.5128,-30.2981 -21.9001,-49.4718 -51.6741,-52.742 -13.9253,-1.516 -9.992,-22.8986 3.8181,-21.361 39.3841,4.3314 67.4292,31.8502 69.5472,72.3849 0.7204,13.9471 -20.942,15.6796 -21.7128,1.7325"
     style="fill:#4d2f20;fill-opacity:1;fill-rule:nonzero;stroke:none;stroke-width:9.61529"
     id="path70" />
  <path
     d="m 7786.0217,3738.6439 c -18.8312,6.6414 -38.2315,17.5205 -50.3342,33.5105 -17.5777,23.1947 -8.8393,56.0917 -17.0951,83.726 -11.4327,38.0152 -40.6304,30.2259 -72.2343,5.703 l 6.8438,-10.6841 c 70.7863,55.1603 46.9699,-52.3739 68.1929,-84.3251 13.2553,-20.0111 35.6381,-33.5106 58.0208,-41.4804 l 6.6277,13.5717"
     style="fill:#c58063;fill-opacity:1;fill-rule:nonzero;stroke:none;stroke-width:9.61529"
     id="path72" />
  <path
     d="m 7522.7378,3713.9116 c -13.349,19.1303 -8.7385,45.523 10.2801,58.9142 19.1121,13.4562 45.4283,8.8361 58.7844,-10.3015 13.349,-19.1809 8.7385,-45.4219 -10.28,-58.9142 -19.1122,-13.3913 -45.4356,-8.7711 -58.7845,10.3015"
     style="fill:#dea296;fill-opacity:1;fill-rule:nonzero;stroke:none;stroke-width:9.61529"
     id="path74" />
  <path
     d="m 7813.4905,3943.1869 c 1.0806,-23.5772 -17.1959,-43.6172 -40.825,-44.5556 -23.5282,-1.0829 -43.4112,17.2173 -44.4702,40.8017 -1.0806,23.6783 17.2896,43.61 40.825,44.6567 23.5282,1.0107 43.512,-17.3328 44.4702,-40.9028"
     style="fill:#dea296;fill-opacity:1;fill-rule:nonzero;stroke:none;stroke-width:9.61529"
     id="path76" />
  <path
     d="m 6497.3734,4449.6789 c -5.1148,39.0692 -116.5172,304.5551 -112.3821,505.2215 1.9451,95.5723 255.1146,85.3863 255.1146,85.3863 0,0 -3.7461,-172.996 175.1072,-477.616 150.7073,-256.6209 -317.8397,-112.9918 -317.8397,-112.9918"
     style="fill:#e9b79c;fill-opacity:1;fill-rule:nonzero;stroke:none;stroke-width:9.61529"
     id="path78" />
  <path
     d="m 6402.2809,4785.2179 c -61.767,242.2478 55.3265,1029.9126 55.3265,1029.9126 l 107.0008,-97.045 83.1844,-747.1012 c 0,0 -191.3378,-397.8317 -245.5117,-185.7664"
     style="fill:#e9b79c;fill-opacity:1;fill-rule:nonzero;stroke:none;stroke-width:9.61529"
     id="path80" />
  <path
     d="m 6586.6019,5686.5313 c 10.6619,11.0595 28.9168,16.2499 41.7831,24.1403 25.6462,15.723 45.0537,38.8021 63.5896,61.9967 10.3737,12.9004 47.3518,27.7137 42.3594,48.4395 -8.1621,33.9437 -62.8187,-7.5294 -77.7093,-12.1496 -13.7308,-4.3314 -31.0204,-2.3101 -38.9016,9.6229 -5.1868,7.9698 -5.1148,18.2063 -4.2503,27.6344 2.5214,30.1176 9.8911,59.4845 15.5606,89.0391 2.8816,15.3764 4.6826,30.789 6.6997,46.2882 1.4408,11.6514 7.9748,26.5731 6.4115,37.9286 -1.2246,9.0309 -10.3737,17.7154 -19.9766,14.142 l -9.7038,-19.4408 c -5.1868,-16.5387 -10.8492,-32.9403 -16.6123,-49.2913 l -8.7457,-22.1479 c -19.4003,-6.7136 -10.7555,39.2858 -9.6965,46.6997 2.5934,18.459 4.6105,37.9359 -4.1063,55.3481 l -5.1869,5.1977 -8.6447,-7.0747 c -9.5093,-21.7725 -10.8492,-46.5047 -20.8412,-68.0607 l -8.0684,-7.5943 c -15.467,-0.7941 -16.1369,30.3125 -17.1959,40.4985 l -8.4503,16.0912 -10.9501,-4.6202 -4.3944,-11.7309 c -2.8816,-12.034 -6.9158,-24.559 -8.263,-36.889 l -9.1274,-24.6312 -4.3224,1.7325 -6.9878,15.9829 -10.7556,12.5971 -15.0851,-13.4634 c -9.2211,-24.4435 -9.6029,-52.2583 -11.2382,-78.1673 -1.729,-27.6343 -2.2333,-55.3481 -1.4408,-83.0618 1.4408,-51.9912 13.9325,-103.9535 10.6619,-155.9159 v -23.3823 c 2.8095,-14.669 13.4498,-26.4721 25.358,-35.3442 22.3827,-16.5459 53.0213,-24.4363 80.3028,-16.8419 l 29.774,14.539 -1.3687,25.1221 c -0.7204,9.5147 -0.8645,19.0582 0,28.5801 1.4408,16.1633 6.8437,33.3012 19.3066,48.2301"
     style="fill:#e9b79c;fill-opacity:1;fill-rule:nonzero;stroke:none;stroke-width:9.61529"
     id="path82" />
  <path
     d="m 6980.2275,3934.5025 c 26.9933,-150.249 -3.0977,-302.411 -130.5361,-332.341 -72.328,-16.9502 -199.0172,61.773 -248.6815,146.1125 -95.2799,161.7922 -241.4775,579.4328 -217.1712,902.0714 8.8321,118.211 285.6595,246.9113 376.4296,65.3896 119.1035,-238.3423 181.9222,-569.5499 219.9592,-781.2325"
     style="fill:#e8a32b;fill-opacity:1;fill-rule:nonzero;stroke:none;stroke-width:9.61529"
     id="path84" />
  <path
     d="m 5632.7011,4614.929 c -97.7796,-26.6526 -340.6979,-103.8525 -298.2448,-245.1499 5.6911,-18.9427 36.308,-13.7522 30.5448,5.4142 -35.1554,117.3448 190.7615,186.6472 273.0814,209.1704 19.1121,5.1977 13.9253,35.9001 -5.403,30.6014"
     style="fill:#3989e2;fill-opacity:1;fill-rule:nonzero;stroke:none;stroke-width:9.61529"
     id="path86" />
  <path
     d="m 6161.3797,5265.1296 c -13.3562,100.575 -36.5962,354.893 109.8824,370.5727 19.5948,2.0935 26.7988,-28.3057 6.8437,-30.4136 -121.5095,-13.0159 -97.686,-248.5284 -86.3541,-333.3155 2.5934,-19.6646 -27.6633,-26.7681 -30.3504,-6.8581"
     style="fill:#3989e2;fill-opacity:1;fill-rule:nonzero;stroke:none;stroke-width:9.61529"
     id="path88" />
  <path
     d="m 5652.6777,5078.4824 c 64.6486,-12.0341 101.4321,-79.8926 114.0175,-138.0922 4.3944,-20.3503 -26.8925,-28.0097 -31.3157,-7.6377 -10.3738,47.7537 -38.0371,104.6394 -91.5338,114.6377 -20.4593,3.8982 -11.4328,34.8533 8.832,31.0922"
     style="fill:#3989e2;fill-opacity:1;fill-rule:nonzero;stroke:none;stroke-width:9.61529"
     id="path90" />
  <path
     d="m 7603.4224,3902.9482 c -8.7385,17.7876 -30.3504,25.1221 -48.1226,16.3655 -17.7723,-8.8722 -25.0699,-30.4136 -16.3315,-48.2446 8.7457,-17.7876 30.2568,-25.1076 48.1226,-16.351 17.7723,8.7567 25.0699,30.3415 16.3315,48.2301"
     style="fill:#faffff;fill-opacity:1;fill-rule:nonzero;stroke:none;stroke-width:9.61529"
     id="path92" />
</svg>
