<svg id="eOkYnIVEzX01" xmlns="http://www.w3.org/2000/svg" xmlns:xlink="http://www.w3.org/1999/xlink" viewBox="0 0 12000 7500" shape-rendering="geometricPrecision" text-rendering="geometricPrecision">
<style><![CDATA[
#eOkYnIVEzX085 {animation: eOkYnIVEzX085_c_o 3000ms linear infinite normal forwards}@keyframes eOkYnIVEzX085_c_o { 0% {opacity: 1} 10% {opacity: 0.1} 20% {opacity: 1} 30% {opacity: 0.2} 40% {opacity: 1} 50% {opacity: 0.3} 60% {opacity: 1} 70% {opacity: 0.4} 80% {opacity: 1} 90% {opacity: 0.5} 100% {opacity: 1}} #eOkYnIVEzX0135_tr {animation: eOkYnIVEzX0135_tr__tr 3000ms linear infinite normal forwards}@keyframes eOkYnIVEzX0135_tr__tr { 0% {transform: translate(3413px,5916px) rotate(0deg)} 10% {transform: translate(3413px,5916px) rotate(5400deg)} 100% {transform: translate(3413px,5916px) rotate(0deg)}} #eOkYnIVEzX0393_tr {animation: eOkYnIVEzX0393_tr__tr 3000ms linear infinite normal forwards}@keyframes eOkYnIVEzX0393_tr__tr { 0% {transform: translate(3201px,4651px) rotate(0deg)} 10% {transform: translate(3201px,4651px) rotate(-360deg)} 100% {transform: translate(3201px,4651px) rotate(0deg)}} #eOkYnIVEzX0393_ts {animation: eOkYnIVEzX0393_ts__ts 3000ms linear infinite normal forwards}@keyframes eOkYnIVEzX0393_ts__ts { 0% {transform: scale(0,0.5)} 10% {transform: scale(1,1)} 100% {transform: scale(0.5,0)}} #eOkYnIVEzX0393 {animation: eOkYnIVEzX0393_c_o 3000ms linear infinite normal forwards}@keyframes eOkYnIVEzX0393_c_o { 0% {opacity: 0.45} 20% {opacity: 1} 100% {opacity: 0.46}} #eOkYnIVEzX0419_tr {animation: eOkYnIVEzX0419_tr__tr 3000ms linear infinite normal forwards}@keyframes eOkYnIVEzX0419_tr__tr { 0% {transform: translate(3707px,5094px) rotate(0deg)} 10% {transform: translate(3707px,5094px) rotate(-5400deg)} 100% {transform: translate(3707px,5094px) rotate(0deg)}}
]]></style>
<defs><path id="eOkYnIVEzX02" d="M5482,6130c0-19,14-34,33-34c18,0,33,15,33,34s-15,34-33,34c-19,0-33-15-33-34Z"/><path id="eOkYnIVEzX03" d="M5365,6130c0-19,16-34,34-34s32,15,32,34-14,34-32,34-34-15-34-34Z"/><path id="eOkYnIVEzX04" d="M5631,6070c14,0,27,5,37,13h43c10-8,22-13,37-13c33,0,59,26,59,60c0,33-26,60-59,60-15,0-27-5-37-14h-43c-10,9-23,14-37,14-32,0-58-27-58-60c0-34,26-60,58-60Z"/><path id="eOkYnIVEzX05" d="M5864,6070c14,0,27,5,37,13h43c10-8,23-13,38-13c32,0,58,26,58,60c0,33-26,60-58,60-15,0-28-5-38-14h-43c-10,9-23,14-37,14-32,0-58-27-58-60c0-34,26-60,58-60Z"/><path id="eOkYnIVEzX06" d="M6298,6130c0-19,14-34,32-34s34,15,34,34-16,34-34,34-32-15-32-34Z"/><path id="eOkYnIVEzX07" d="M7049,2835h33v-195h-33v195Z"/></defs><g clip-path="url(#eOkYnIVEzX0428)"><g><path d="M11545,6750h-11120-24c-1,0,7,0,18,0h11121h23c2,0-6,0-18,0Z" fill="#27314f" fill-rule="evenodd" stroke-width="28.222" stroke-linejoin="round"/><path d="M970,6792c0,0-881-1909,59-3048c1211-1469,2723-884,3311-920c588-35,634-1234,2390-1402c1357-130,3627,291,3151,2594-361,1752,1302,846,910,2781l-9821-5Z" fill="#a0dcf7" fill-rule="evenodd" stroke-width="28.222" stroke-linejoin="round"/><path d="M5935,1100l54,46v330l-54,47h-105v-423h105Z" fill="#bbbdbb" fill-rule="evenodd" stroke-width="28.222" stroke-linejoin="round"/><g><path d="M5570,1100h261v423h-261l-55-47v-330l55-46Z" fill="#dadbd7" fill-rule="evenodd" stroke-width="28.222" stroke-linejoin="round"/><path d="M5935,735h-366v1153h366v-1153Z" fill="#dadbd7" fill-rule="evenodd" stroke-width="28.222" stroke-linejoin="round"/></g><path d="M5935,735h-105v1153h105v-1153Z" fill="#bbbdbb" fill-rule="evenodd" stroke-width="28.222" stroke-linejoin="round"/><path d="M5616,1817h53v-1012h-53v1012Z" fill="#fff" fill-rule="evenodd" stroke-width="28.222" stroke-linejoin="round"/><path d="M5569,735h261h105v366L5569,735Z" fill="#dfe0de" fill-rule="evenodd" stroke-width="28.222" stroke-linejoin="round"/><path d="M5482,664h540v72h-540v-72Z" fill="#e8e8e5" fill-rule="evenodd" stroke-width="28.222" stroke-linejoin="round"/><g><path d="M5501,767h48v-32h-48v32Zm502,0h-49v-32h49v32Zm-91,0h-48v-32h48v32Zm-91,0h-48v-32h48v32Zm-90,0h-49v-32h49v32Zm-91,0h-48v-32h48v32ZM5515,610h20v55h-20v-55Zm91,0h20v55h-20v-55Zm90,0h21v55h-21v-55Zm91,0h20v55h-20v-55Zm91,0h20v55h-20v-55Zm90,0h21v55h-21v-55Z" fill="#d0d2d0" fill-rule="evenodd" stroke-width="28.222" stroke-linejoin="round"/></g><g><path d="M5482,709h540v27h-540v-27Zm0,1249h540v-71h-540v71Z" fill="#e8e8e5" fill-rule="evenodd" stroke-width="28.222" stroke-linejoin="round"/></g><g><path d="M5501,1855h48v33h-48v-33Zm502,0h-49v33h49v-33Zm-91,0h-48v33h48v-33Zm-91,0h-48v33h48v-33Zm-90,0h-49v33h49v-33Zm-91,0h-48v33h48v-33Zm-125,157h20v-55h-20v55Zm91,0h20v-55h-20v55Zm90,0h21v-55h-21v55Zm91,0h20v-55h-20v55Zm91,0h20v-55h-20v55Zm90,0h21v-55h-21v55Z" fill="#d0d2d0" fill-rule="evenodd" stroke-width="28.222" stroke-linejoin="round"/></g><path d="M5482,1913h540v-26h-540v26Z" fill="#e8e8e5" fill-rule="evenodd" stroke-width="28.222" stroke-linejoin="round"/><g><path d="M5777,1006v229c53,11,92,58,92,114c0,12-2,24-6,35l126,72v20l-27,24-125-72c-21,23-52,38-86,38s-64-15-85-38l-124,72-27-24v-20l125-72c-4-11-6-23-6-35c0-56,39-102,92-114v-229c-58,5-111,23-157,53v-70c55-28,117-44,182-44c66,0,128,16,183,44v70c-46-30-99-48-157-53Zm-26,686c68,0,131-20,184-54v70c-55,28-118,44-184,44-65,0-127-16-182-44v-70c53,34,115,54,182,54Z" fill="#dfe0de" fill-rule="evenodd" stroke-width="28.222" stroke-linejoin="round"/></g><path d="M5408,1480l319-184v-367h51v367l318,184-26,45-318-185-318,185-26-45Z" fill="#e8e8e5" fill-rule="evenodd" stroke-width="28.222" stroke-linejoin="round"/><g><path d="M5726,1297v-143c8-1,17-2,25-2c9,0,19,1,27,2v143l123,70c-6,17-15,32-26,45l-124-71-122,71c-11-13-20-28-26-45l123-70Zm370,182l-26,46-82-48c10-14,19-29,26-45l82,47Zm-370-456v-94h52v94c-8-1-17-1-27-1-8,0-17,0-25,1Zm-318,456l81-47c7,16,16,31,27,45l-82,48-26-46Z" fill="#dfe0de" fill-rule="evenodd" stroke-width="28.222" stroke-linejoin="round"/></g><g><path d="M5751,1654c190,0,344-153,344-343s-154-343-344-343c-189,0-342,153-342,343s153,343,342,343Zm0-746c224,0,405,180,405,403s-181,404-405,404c-222,0-403-181-403-404s181-403,403-403Zm-117,404c0-65,53-119,117-119c66,0,119,54,119,119c0,64-53,117-119,117-64,0-117-53-117-117Z" fill="#cbccca" fill-rule="evenodd" stroke-width="28.222" stroke-linejoin="round"/></g><path d="M5693,1311c0-33,26-59,58-59c34,0,60,26,60,59c0,32-26,59-60,59-32,0-58-27-58-59Z" fill="#dfe0de" fill-rule="evenodd" stroke-width="28.222" stroke-linejoin="round"/><path d="M5648,5034h3046v-156h-3046v156Z" fill="#aaada9" fill-rule="evenodd" stroke-width="28.222" stroke-linejoin="round"/><path d="M7452,5164h-1804v48h1804v-48Z" fill="#d4d6d3" fill-rule="evenodd" stroke-width="28.222" stroke-linejoin="round"/><path d="M5621,5862h1598v-650h-1598v650Z" fill="#bcbeba" fill-rule="evenodd" stroke-width="28.222" stroke-linejoin="round"/><g><path d="M7779,1938h-2255c-208,0-377,169-377,377v845c0,208,169,377,377,377h2255c208,0,377-169,377-377v-845c0-208-169-377-377-377Z" fill="#dadbd7" fill-rule="evenodd" stroke-width="28.222" stroke-linejoin="round"/><path d="M4427,1938h-1562c-399,0-723,324-723,725v150c0,400,324,724,723,724h1562c399,0,723-324,723-724v-150c0-401-324-725-723-725Z" fill="#dadbd7" fill-rule="evenodd" stroke-width="28.222" stroke-linejoin="round"/></g><path d="M5005,2738h67c0-397-323-722-720-722h-1411c-216,0-418,96-556,263l52,44c125-153,308-240,504-240h1411c360,0,653,295,653,655Z" fill="#ebeae8" fill-rule="evenodd" stroke-width="28.222" stroke-linejoin="round"/><path d="M7648,2208h-1993v1059h1993v-1059Z" fill="#aaada9" fill-rule="evenodd" stroke-width="28.222" stroke-linejoin="round"/><g><path d="M2968,3854h2681v2706h-2681v-2706Z" transform="translate(0-.802289)" fill="#ebeae8" fill-rule="evenodd" stroke-width="28.222" stroke-linejoin="round"/><path d="M5500,4671h-1162v748h1162v-748Z" fill="#ebeae8" fill-rule="evenodd" stroke-width="28.222" stroke-linejoin="round"/></g><path d="M2824,6559h2969v207h-2969v-207Z" fill="#bcbeba" fill-rule="evenodd" stroke-width="28.222" stroke-linejoin="round"/><path d="M4195,1513v272h-174v-445c96,0,174,77,174,173Z" fill="#d0d2d0" fill-rule="evenodd" stroke-width="28.222" stroke-linejoin="round"/><path d="M3848,1513c0-96,78-173,174-173v445h-174v-272Z" fill="#e8e8e5" fill-rule="evenodd" stroke-width="28.222" stroke-linejoin="round"/><path d="M3694,1939h655v-104h-655v104Z" fill="#dfe0de" fill-rule="evenodd" stroke-width="28.222" stroke-linejoin="round"/><path d="M3762,1836h519v-52h-519v52Z" fill="#cecdcb" fill-rule="evenodd" stroke-width="28.222" stroke-linejoin="round"/><path d="M4021,1340c75,0,134,77,134,173v272h-267v-272c0-96,59-173,133-173Z" fill="#e8e8e5" fill-rule="evenodd" stroke-width="28.222" stroke-linejoin="round"/><path d="M4021,1375c39,0,71,71,71,159v251h-141v-251c0-88,31-159,70-159Z" fill="#f5f4f3" fill-rule="evenodd" stroke-width="28.222" stroke-linejoin="round"/><path d="M3397,1513v272h-174v-445c97,0,174,77,174,173Z" fill="#b6b6b4" fill-rule="evenodd" stroke-width="28.222" stroke-linejoin="round"/><path d="M3050,1513c0-96,78-173,174-173v445h-174v-272Z" fill="#cbccca" fill-rule="evenodd" stroke-width="28.222" stroke-linejoin="round"/><path d="M2896,1939h656v-104h-656v104Z" fill="#dfe0de" fill-rule="evenodd" stroke-width="28.222" stroke-linejoin="round"/><path d="M2964,1836h520v-52h-520v52Z" fill="#cecdcb" fill-rule="evenodd" stroke-width="28.222" stroke-linejoin="round"/><path d="M3223,1340c75,0,135,77,135,173v272h-268v-272c0-96,60-173,133-173Z" fill="#cbccca" fill-rule="evenodd" stroke-width="28.222" stroke-linejoin="round"/><path d="M3223,1375c40,0,71,71,71,159v251h-141v-251c0-88,32-159,70-159Z" fill="#ddded9" fill-rule="evenodd" stroke-width="28.222" stroke-linejoin="round"/><path d="M3223,1588v0Z" fill="#f4f3f2" fill-rule="evenodd" stroke-width="28.222" stroke-linejoin="round"/><path d="M2674,2877h1944v-701h-1944v701Z" fill="#dfe0de" fill-rule="evenodd" stroke-width="28.222" stroke-linejoin="round"/><g><path d="M4508,2255c0-16,13-30,29-30c17,0,30,14,30,30s-13,29-30,29c-16,0-29-13-29-29Zm0,543c0,17,13,30,29,30c17,0,30-13,30-30c0-16-13-29-30-29-16,0-29,13-29,29ZM2784,2255c0-16-14-30-30-30-15,0-28,14-28,30s13,29,28,29c16,0,30-13,30-29Zm0,543c0,17-14,30-30,30-15,0-28-13-28-30c0-16,13-29,28-29c16,0,30,13,30,29Zm1276-458c104-103,270-103,373,0c103,104,103,270,0,373s-269,103-373,0c-103-103-103-269,0-373Z" fill="#cecdcb" fill-rule="evenodd" stroke-width="28.222" stroke-linejoin="round"/></g><path d="M4024,2527c0-123,100-223,223-223c122,0,222,100,222,223c0,122-100,222-222,222-123,0-223-100-223-222Z" fill="#fff" fill-rule="evenodd" stroke-width="28.222" stroke-linejoin="round"/><path d="M4113,2661l49-49c-49-47-49-125,0-172l-49-48c-75,74-75,194,0,269Z" fill="#b6b6b4" fill-rule="evenodd" stroke-width="28.222" stroke-linejoin="round"/><path d="M4381,2661c36-37,55-84,55-135s-19-98-55-134l-49,48c24,23,37,53,37,86s-13,63-37,86l49,49Z" fill="#e8e8e5" fill-rule="evenodd" stroke-width="28.222" stroke-linejoin="round"/><path d="M4160,2441c23-23,53-36,86-36s64,13,87,36l48-48c-36-37-84-56-135-56s-98,19-134,56l48,48Z" fill="#d0d2d0" fill-rule="evenodd" stroke-width="28.222" stroke-linejoin="round"/><g><path d="M4240,2549l157,22-145-66c-11-5-25,0-30,12-5,11,0,25,12,31c2,1,4,1,6,1Zm-780-209c102-103,270-103,373,0c102,104,102,270,0,373-103,103-271,103-373,0-103-103-103-269,0-373Z" fill="#cecdcb" fill-rule="evenodd" stroke-width="28.222" stroke-linejoin="round"/></g><path d="M3424,2527c0-123,99-223,222-223s222,100,222,223c0,122-99,222-222,222s-222-100-222-222Z" fill="#fff" fill-rule="evenodd" stroke-width="28.222" stroke-linejoin="round"/><path d="M3512,2661l48-49c-24-23-37-53-37-86s13-63,37-86l-48-48c-36,36-56,83-56,134s20,98,56,135Z" fill="#b6b6b4" fill-rule="evenodd" stroke-width="28.222" stroke-linejoin="round"/><path d="M3780,2661c75-75,75-195,0-269l-48,48c49,47,49,125,0,172l48,49Z" fill="#e8e8e5" fill-rule="evenodd" stroke-width="28.222" stroke-linejoin="round"/><path d="M3559,2441c23-23,54-36,87-36c32,0,63,13,86,36l48-48c-36-37-84-56-134-56-51,0-98,19-134,56l47,48Z" fill="#d0d2d0" fill-rule="evenodd" stroke-width="28.222" stroke-linejoin="round"/><g><path d="M3668,2533l18-158-62,146c-5,12,1,25,12,30c12,5,26-1,31-12c1-2,1-4,1-6Zm-809-193c103-103,270-103,373,0c103,104,103,270,0,373s-270,103-373,0-103-269,0-373Z" fill="#cecdcb" fill-rule="evenodd" stroke-width="28.222" stroke-linejoin="round"/></g><path d="M2824,2527c0-123,100-223,222-223c123,0,222,100,222,223c0,122-99,222-222,222-122,0-222-100-222-222Z" fill="#fff" fill-rule="evenodd" stroke-width="28.222" stroke-linejoin="round"/><path d="M2911,2661l49-49c-49-47-49-125,0-172l-49-48c-73,74-73,194,0,269Z" fill="#b6b6b4" fill-rule="evenodd" stroke-width="28.222" stroke-linejoin="round"/><path d="M3179,2661c75-75,75-195,0-269l-47,48c47,47,47,125,0,172l47,49Z" fill="#e8e8e5" fill-rule="evenodd" stroke-width="28.222" stroke-linejoin="round"/><path d="M2959,2441c48-48,126-48,174,0l47-48c-74-75-194-75-269,0l48,48Z" fill="#d0d2d0" fill-rule="evenodd" stroke-width="28.222" stroke-linejoin="round"/><path d="M3040,2504l-150,66l162-21c13-2,21-14,20-27-2-12-13-21-26-19-2,0-4,1-6,1Z" fill="#cecdcb" fill-rule="evenodd" stroke-width="28.222" stroke-linejoin="round"/><path d="M2674,2525l185-185c-102,103-102,270,0,373c103,103,269,103,372,0c60-60,84-141,75-219l154-154c-103,103-103,270,0,373s270,103,373,0c59-60,84-141,74-219l154-154c-103,103-103,270,0,373s269,103,372,0l-165,164h-1594v-352Z" fill="#dfe0de" fill-rule="evenodd" stroke-width="28.222" stroke-linejoin="round"/><path d="M7063,6559h1821v207h-1821v-207Z" fill="#bcbeba" fill-rule="evenodd" stroke-width="28.222" stroke-linejoin="round"/><path d="M2674,3299h1944v-302h-1944v302Z" fill="#cecdcb" fill-rule="evenodd" stroke-width="28.222" stroke-linejoin="round"/><path d="M4384,3082c37-39,97-39,135,0c38,38,38,98,0,135s-98,37-135,0-37-97,0-135Z" fill="#dfe0de" fill-rule="evenodd" stroke-width="28.222" stroke-linejoin="round"/><path d="M4452,3221c40,0,73-33,73-73s-33-73-73-73-74,33-74,73s34,73,74,73Z" fill="#f5f4f3" fill-rule="evenodd" stroke-width="28.222" stroke-linejoin="round"/><path id="eOkYnIVEzX085" d="M4452,3221c40,0,73-33,73-73s-33-73-73-73-74,33-74,73s34,73,74,73Z" fill="#f00" fill-rule="evenodd" stroke-width="28.222" stroke-linejoin="round"/><path d="M4390,3149h22c0-22,18-40,39-40c23,0,40,18,40,40h23c0-34-28-63-63-63-34,0-61,29-61,63Z" fill="#fff" fill-rule="evenodd" stroke-width="28.222" stroke-linejoin="round"/><path d="M4036,3149c0-53,42-96,95-96s96,43,96,96c0,52-43,95-96,95s-95-43-95-95Z" fill="#dfe0de" fill-rule="evenodd" stroke-width="28.222" stroke-linejoin="round"/><path d="M4132,3221c40,0,73-33,73-73s-33-73-73-73c-41,0-74,33-74,73s33,73,74,73Z" fill="#e8e8e5" fill-rule="evenodd" stroke-width="28.222" stroke-linejoin="round"/><path d="M4069,3149h24c0-22,17-40,39-40c21,0,39,18,39,40h22c0-34-27-63-61-63s-63,29-63,63Z" fill="#fff" fill-rule="evenodd" stroke-width="28.222" stroke-linejoin="round"/><g><path d="M3715,3149c0-53,44-96,96-96c53,0,96,43,96,96c0,52-43,95-96,95-52,0-96-43-96-95Z" fill="#dfe0de" fill-rule="evenodd" stroke-width="28.222" stroke-linejoin="round"/><path d="M2754,3053h191v131l130-131h190v131l131-131h190v185l157-158c-38,38-38,99,0,136c37,37,97,37,134,0l-83,83h-208-61-260-115-205-116-155v-166l80-80Z" fill="#dfe0de" fill-rule="evenodd" stroke-width="28.222" stroke-linejoin="round"/></g><path d="M3811,3221c41,0,73-33,73-73s-32-73-73-73-73,33-73,73s32,73,73,73Z" fill="#d0d2d0" fill-rule="evenodd" stroke-width="28.222" stroke-linejoin="round"/><path d="M3749,3149h22c0-22,18-40,40-40c21,0,40,18,40,40h22c0-34-28-63-62-63s-62,29-62,63Z" fill="#fff" fill-rule="evenodd" stroke-width="28.222" stroke-linejoin="round"/><path d="M3395,3053h191v191h-191v-191Z" fill="#dfe0de" fill-rule="evenodd" stroke-width="28.222" stroke-linejoin="round"/><path d="M3564,3075h-147v146h147v-146Z" fill="#ddded9" fill-rule="evenodd" stroke-width="28.222" stroke-linejoin="round"/><path d="M3075,3053h191v191h-191v-191Z" fill="#dfe0de" fill-rule="evenodd" stroke-width="28.222" stroke-linejoin="round"/><path d="M3244,3075h-147v146h147v-146Z" fill="#cbccca" fill-rule="evenodd" stroke-width="28.222" stroke-linejoin="round"/><path d="M2754,3053h192v191h-192v-191Z" fill="#dfe0de" fill-rule="evenodd" stroke-width="28.222" stroke-linejoin="round"/><path d="M2923,3075h-146v146h146v-146Z" fill="#b6b6b4" fill-rule="evenodd" stroke-width="28.222" stroke-linejoin="round"/><g><path d="M3434,3115h113v-23h-113v23Zm-320,0h113v-23h-113v23Zm-321,0h114v-23h-114v23Z" fill="#fff" fill-rule="evenodd" stroke-width="28.222" stroke-linejoin="round"/></g><g><path d="M4385,3080c-37,39-37,99,0,136s97,37,134,0l-83,83h-270l219-219Zm-321,0c-37,39-37,99,0,136s97,37,134,0l-83,83h-270l219-219Z" fill="#dfe0de" fill-rule="evenodd" stroke-width="28.222" stroke-linejoin="round"/></g><path d="M7605,5118h69v-195h-69v195Z" fill="#cecdcb" fill-rule="evenodd" stroke-width="28.222" stroke-linejoin="round"/><g><path d="M7674,4923v74c-11,1-23,2-34,2-13,0-24-1-35-2v-74h69Z" fill="#dfe0de" fill-rule="evenodd" stroke-width="28.222" stroke-linejoin="round"/><path d="M7320,4639c0-176,143-319,319-319c177,0,319,143,319,319s-142,319-319,319c-176,0-319-143-319-319Z" fill="#dfe0de" fill-rule="evenodd" stroke-width="28.222" stroke-linejoin="round"/></g><path d="M7360,4640c0-154,125-280,279-280c155,0,280,126,280,280s-125,278-280,278c-154,0-279-124-279-278Z" fill="#fff" fill-rule="evenodd" stroke-width="28.222" stroke-linejoin="round"/><g><path d="M7719,4569l88-87-12-14-88,88l12,13Zm27,77h124v-18h-124v18Zm-263,164l88-88-13-12-87,88l12,12Zm315-3l12-12-88-88-12,12l88,88Zm-389-157h124v-18h-124v18Zm149-81l14-13-88-88-13,14l87,87Zm74-36h18v-125h-18v125Z" fill="#cecdcb" fill-rule="evenodd" stroke-width="28.222" stroke-linejoin="round"/></g><path d="M7484,4819c7,0,14-3,19-8c4.8-4.76,7.5-11.24,7.5-18s-2.7-13.24-7.5-18c-77-76-77-200,0-275c10-10,10-27,0-37-10-11-27-11-37,0-96,96-96,253,0,348c5,5,12,8,18,8Z" fill="#b6b6b4" fill-rule="evenodd" stroke-width="28.222" stroke-linejoin="round"/><path d="M7796,4819c7,0,13-3,18-8c97-95,97-252,0-348-10-11-26-11-37,0-11,10-11,27,0,37c77,75,77,199,0,275-11,10-11,26,0,36c5,5,13,8,19,8Z" fill="#e8e8e5" fill-rule="evenodd" stroke-width="28.222" stroke-linejoin="round"/><path d="M7777,4500l36-37c-46-46-108-72-173-72-67,0-128,26-175,72l37,37c36-37,86-57,138-57s100,20,137,57Z" fill="#d0d2d0" fill-rule="evenodd" stroke-width="28.222" stroke-linejoin="round"/><path d="M7521,5117h237v48h-237v-48Z" fill="#dfe0de" fill-rule="evenodd" stroke-width="28.222" stroke-linejoin="round"/><path d="M7451,5164h376v49h-376v-49Z" fill="#cecdcb" fill-rule="evenodd" stroke-width="28.222" stroke-linejoin="round"/><path d="M8040,6481l57-97-57-99h-114l-56,99l56,97h114Z" fill="#dadbd7" fill-rule="evenodd" stroke-width="28.222" stroke-linejoin="round"/><path d="M7870,6384l4-7l91-92h18v20c-43,0-78,35-78,79c0,42,35,77,78,77c21,0,40-9,55-23l-43,43h-69l-56-97Z" fill="#dfe0de" fill-rule="evenodd" stroke-width="28.222" stroke-linejoin="round"/><path d="M7905,6384c0-44,35-79,79-79c42,0,77,35,77,79c0,42-35,77-77,77-44,0-79-35-79-77Z" fill="#bbbdbb" fill-rule="evenodd" stroke-width="28.222" stroke-linejoin="round"/><path d="M7983,6305v33c-12,0-24,4-33,13-18,18-18,47,0,65s48,18,66,0l-45,44c-37-6-66-38-66-76c0-43,35-79,78-79Z" fill="#dfe0de" fill-rule="evenodd" stroke-width="28.222" stroke-linejoin="round"/><g><path d="M7937,6383c0-26,20-46,47-46c25,0,46,20,46,46c0,25-21,46-46,46-27,0-47-21-47-46Z" fill="#e8e8e5" fill-rule="evenodd" stroke-width="28.222" stroke-linejoin="round"/><path d="M7983,6215c12,0,22,9,22,21l-10,148h-23l-10-148c0-12,9-21,21-21Z" fill="#e8e8e5" fill-rule="evenodd" stroke-width="28.222" stroke-linejoin="round"/><path d="M7936,6383c0-21,14-38,33-44l3,44-27,27c-5-8-9-17-9-27Z" fill="#e8e8e5" fill-rule="evenodd" stroke-width="28.222" stroke-linejoin="round"/></g><path d="M7739,6481l57-97-57-99h-113l-57,99l57,97h113Z" fill="#dadbd7" fill-rule="evenodd" stroke-width="28.222" stroke-linejoin="round"/><path d="M7605,6384c0-44,34-79,78-79c43,0,78,35,78,79c0,42-35,77-78,77-44,0-78-35-78-77Z" fill="#bbbdbb" fill-rule="evenodd" stroke-width="28.222" stroke-linejoin="round"/><g><path d="M7683,6305v33c-12,0-23,4-33,13-18,18-18,47,0,65c19,18,48,18,66,0l-44,44c-39-6-67-38-67-76c0-43,34-79,78-79Z" fill="#dfe0de" fill-rule="evenodd" stroke-width="28.222" stroke-linejoin="round"/><path d="M7569,6384l4-7l91-92h18v20c-43,0-77,35-77,79c0,42,34,77,77,77c23,0,42-9,56-23l-44,43h-68l-57-97Z" fill="#dfe0de" fill-rule="evenodd" stroke-width="28.222" stroke-linejoin="round"/></g><path d="M7636,6383c0-26,21-46,46-46c26,0,47,20,47,46c0,25-21,46-47,46-25,0-46-21-46-46Z" fill="#cbccca" fill-rule="evenodd" stroke-width="28.222" stroke-linejoin="round"/><path d="M7682,6215c13,0,22,9,22,21l-10,148h-23l-10-148c0-12,10-21,21-21Z" fill="#b6b6b4" fill-rule="evenodd" stroke-width="28.222" stroke-linejoin="round"/><g><path d="M7636,6383c0-21,14-38,33-44l3,44-27,27c-6-8-9-17-9-27Z" fill="#cbccca" fill-rule="evenodd" stroke-width="28.222" stroke-linejoin="round"/><path d="M7682,6215c13,0,22,9,22,21l-10,148h-23l-10-148c0-12,10-21,21-21Z" fill="#cbccca" fill-rule="evenodd" stroke-width="28.222" stroke-linejoin="round"/></g><g id="eOkYnIVEzX0135_tr" transform="translate(3413,5916) rotate(0)"><g transform="translate(-3413,-5916)"><path d="M3412,6122c114,0,206-92,206-205c0-114-92-206-206-206-113,0-205,92-205,206c0,113,92,205,205,205Zm0-473c147,0,268,121,268,268c0,146-121,266-268,266-146,0-266-120-266-266c0-147,120-268,266-268Z" fill="#5f6263" fill-rule="evenodd" stroke-width="28.222" stroke-linejoin="round"/><path d="M3385,6028c-42-10-75-43-85-85h-93c-22,0-38,20-32,40c24,83,88,147,170,171c20,6,40-10,40-32v-94Zm27,135h1-1Zm207-220h-93c-10,42-44,75-86,85v94c0,22,20,38,40,32c83-24,147-88,171-171c5-20-10-40-32-40Zm-179-140c42,10,76,43,86,85h93c22,0,37-20,32-40-24-82-88-146-171-170-20-6-40,10-40,32v93Zm-46,167c2,1,3,1,5,2h4c3,1,6,1,9,1c4,0,7,0,10-1h4c2-1,3-1,5-2c3-1,7-3,10-4c9-6,16-13,21-22c2-3,4-7,5-10c1-2,1-3,2-5v-4c1-3,1-6,1-10c0-3,0-6-1-9v-4c-1-2-1-3-2-5-1-3-3-7-5-10-5-9-12-16-21-21-3-2-7-4-10-5-2-1-3-1-5-2h-4c-3-1-6-1-10-1-3,0-6,0-9,1h-4c-2,1-3,1-5,2-3,1-7,3-10,5-9,5-16,12-22,21-1,3-3,7-4,10-1,2-1,3-2,5c0,1,0,2-1,4c0,3-1,6-1,9c0,4,1,7,1,10c1,2,1,3,1,4c1,2,1,3,2,5c1,3,3,7,4,10c6,9,13,16,22,22c3,1,7,3,10,4Zm-94-82c10-42,43-75,85-85v-93c0-22-20-38-40-32-81.956281,23.956527-146.043473,88.043719-170,170-6,20,10,40,32,40h93Zm-226,47v-39l56-15c1-2,1-3,1-5l-51-29l10-38h59c1-1,1-3,2-5l-42-41l20-34l56,16c2-2,3-3,4-5l-30-50l28-28l50,30c2-1,3-2,5-4l-16-56l34-20l41,42c2-1,4-1,5-2v-59l38-10l29,51c1,0,3,0,5-1l15-56h39l15,56c2,1,3,1,5,1l29-51l39,10v59c1,1,3,1,5,2l41-42l34,20-16,56c2,2,3,3,5,4l50-30l28,28-30,50c1,2,2,3,3,5l57-16l20,34-42,41c1,2,1,4,2,5h59l10,38-51,29c0,2,0,3,1,5l56,15v39l-56,15c-1,2-1,3-1,5l51,29-10,38h-59c-1,1-1,3-2,5l42,42-20,34-57-16c-1,2-2,3-3,5l30,50-28,28-50-30c-2,1-3,2-5,4l16,56-34,20-41-42c-2,1-4,1-5,2v59l-39,10-29-51c-2,0-3,0-5,1l-15,56h-39l-15-56c-2-1-4-1-5-1l-29,51-38-10v-59c-1-1-3-1-5-2l-41,42-34-20l16-56c-2-2-3-3-5-4l-50,30-28-28l30-50c-1-2-2-3-4-5l-56,16-20-34l42-42c-1-2-1-4-2-5h-59l-10-38l51-29c0-2,0-3-1-5l-56-15Z" fill="#46484a" fill-rule="evenodd" stroke-width="28.222" stroke-linejoin="round"/></g></g><path d="M4594,3604h787v-47h-787v47Z" fill="#cbccca" fill-rule="evenodd" stroke-width="28.222" stroke-linejoin="round"/><path d="M4930,3823h115v-64h-115v64Z" fill="#b6b6b4" fill-rule="evenodd" stroke-width="28.222" stroke-linejoin="round"/><g><path d="M4873,3855h229v-64h-229v64Z" fill="#ddded9" fill-rule="evenodd" stroke-width="28.222" stroke-linejoin="round"/><path d="M5049,3792h52l222-189h-52l-222,189Z" fill="#ddded9" fill-rule="evenodd" stroke-width="28.222" stroke-linejoin="round"/></g><path d="M5270,3603h53l-33,29h-53l33-29Z" fill="#cbccca" fill-rule="evenodd" stroke-width="28.222" stroke-linejoin="round"/><path d="M4926,3792h-52l-222-189h53l221,189Z" fill="#ddded9" fill-rule="evenodd" stroke-width="28.222" stroke-linejoin="round"/><path d="M4705,3603h-53l33,29h53l-33-29Z" fill="#cbccca" fill-rule="evenodd" stroke-width="28.222" stroke-linejoin="round"/><path d="M5013,3824h-51v-221h51v221Z" fill="#ddded9" fill-rule="evenodd" stroke-width="28.222" stroke-linejoin="round"/><path d="M4962,3603h51v29h-51v-29Z" fill="#cbccca" fill-rule="evenodd" stroke-width="28.222" stroke-linejoin="round"/><g><path d="M4664,3527h131v31h-131v-31Zm22-269h87v31h-87v-31Z" fill="#ddded9" fill-rule="evenodd" stroke-width="28.222" stroke-linejoin="round"/></g><g><path d="M4704,3528h51v-240h-51v240Zm-39,29h130l-45,47h-132l47-47Z" fill="#cbccca" fill-rule="evenodd" stroke-width="28.222" stroke-linejoin="round"/></g><path d="M4704,3288h51v28h-51v-28Z" fill="#cecdcb" fill-rule="evenodd" stroke-width="28.222" stroke-linejoin="round"/><path d="M7604,5540c-13-3-23-11-30-22l-40-10c-11,6-24,8-37,5-31-7-49-39-41-71s39-52,69-45c13,3,24,11,31,22l39,9c12-6,25-8,38-5c29,8,47,40,39,72s-38,53-68,45Z" fill="#dfe0de" fill-rule="evenodd" stroke-width="28.222" stroke-linejoin="round"/><g><path d="M7541,5465c-4,18-21,30-38,26-18-5-28-22-23-40c4-19,21-31,39-27c17,5,26,22,22,41Zm108,25c-5,18-22,30-40,26-16-5-26-23-22-41c5-18,22-30,38-25c18,4,28,22,24,40Z" fill="#cecdcb" fill-rule="evenodd" stroke-width="28.222" stroke-linejoin="round"/></g><path d="M7389,5489c-13-4-23-12-31-22l-39-10c-12,6-25,8-37,5-31-7-49-39-41-71c8-33,39-53,69-46c13,3,23,11,31,22l39,10c12-6,25-9,38-5c29,7,47,40,39,72s-38,52-68,45Z" fill="#dfe0de" fill-rule="evenodd" stroke-width="28.222" stroke-linejoin="round"/><g><path d="M7326,5412c-5,18-23,29-39,25-17-4-27-22-22-40c4-19,21-30,38-26s27,23,23,41Zm107,25c-4,19-21,30-38,26-16-4-27-23-23-41c5-18,23-29,39-25c17,4,27,22,22,40Z" fill="#cecdcb" fill-rule="evenodd" stroke-width="28.222" stroke-linejoin="round"/></g><path d="M7174,5436c-13-3-23-11-31-22l-39-10c-12,6-25,9-38,5-30-7-48-40-40-72s39-52,69-45c13,4,23,12,31,22l39,10c12-6,24-8,37-5c30,7,48,39,40,72-8,32-38,52-68,45Z" fill="#dfe0de" fill-rule="evenodd" stroke-width="28.222" stroke-linejoin="round"/><g><path d="M7111,5358c-5,18-22,30-38,26-18-5-28-23-24-41c5-18,23-30,40-25c16,4,26,22,22,40Zm107,27c-4,18-21,29-39,25-16-4-26-22-22-41c4-18,22-29,39-25s27,22,22,41Z" fill="#cecdcb" fill-rule="evenodd" stroke-width="28.222" stroke-linejoin="round"/></g><path d="M6959,5382c-13-3-24-11-31-22l-40-9c-11,6-24,8-37,5-30-8-48-40-40-72s39-53,69-44c13,3,23,11,30,21l40,10c11-6,24-8,37-5c30,7,48,39,40,71s-38,53-68,45Z" fill="#dfe0de" fill-rule="evenodd" stroke-width="28.222" stroke-linejoin="round"/><g><path d="M6896,5305c-5,19-23,30-40,26-16-4-26-23-22-41c5-18,22-29,38-25c18,4,28,22,24,40Zm107,28c-4,18-21,30-38,26-17-5-27-22-23-40c5-19,22-31,39-27c17,5,28,22,22,41Z" fill="#cecdcb" fill-rule="evenodd" stroke-width="28.222" stroke-linejoin="round"/></g><path d="M6744,5329c-13-3-24-11-31-21l-40-10c-11,6-24,8-37,5-31-7-48-39-40-72c7-32,39-52,69-45c13,3,23,11,30,21l40,10c11-6,24-8,37-5c30,7,48,40,40,72-8,33-39,53-68,45Z" fill="#dfe0de" fill-rule="evenodd" stroke-width="28.222" stroke-linejoin="round"/><g><path d="M6681,5253c-5,18-22,29-39,25s-27-22-23-41c5-18,23-29,39-25c17,4,27,22,23,41Zm107,27c-4,18-21,29-39,25-17-4-27-22-22-40c4-19,21-30,39-26c17,4,26,23,22,41Z" fill="#cecdcb" fill-rule="evenodd" stroke-width="28.222" stroke-linejoin="round"/></g><path d="M6530,5277c-13-3-24-11-31-21l-40-10c-11,6-24,8-37,5-31-7-48-40-41-72c8-32,40-52,69-45c13,3,24,11,31,22l40,9c11-5,24-8,37-5c30,8,47,40,40,72-8,33-39,53-68,45Z" fill="#dfe0de" fill-rule="evenodd" stroke-width="28.222" stroke-linejoin="round"/><g><path d="M6465,5200c-4,18-22,30-39,26-16-4-26-22-22-40c4-19,22-31,38-26c18,4,28,21,23,40Zm109,26c-5,18-23,30-39,26-17-5-28-23-22-41c4-18,21-30,38-25c16,4,27,22,23,40Z" fill="#cecdcb" fill-rule="evenodd" stroke-width="28.222" stroke-linejoin="round"/></g><path d="M6347,5252c-13,4-26,2-37-3l-38,11c-7,11-17,20-29,24-30,8-61-10-71-42-9-32,6-65,35-74c12-4,25-2,38,3l38-11c7-11,16-20,29-23c29-9,60,9,69,41c10,31-5,65-34,74Z" fill="#dfe0de" fill-rule="evenodd" stroke-width="28.222" stroke-linejoin="round"/><g><path d="M6254,5217c6,18-3,37-19,42s-35-5-40-24c-5-17,3-36,21-41c16-5,33,6,38,23Zm105-31c5,18-4,36-20,41-17,5-34-6-40-23-5-18,4-37,20-42c17-5,34,5,40,24Z" fill="#cecdcb" fill-rule="evenodd" stroke-width="28.222" stroke-linejoin="round"/></g><path d="M6139,5316c-13,4-26,2-37-3l-39,12c-6,11-16,19-29,23-29,9-60-10-70-41-10-32,6-65,35-73c12-4,26-3,38,3l38-13c6-11,16-19,29-23c29-9,60,10,69,42c10,32-6,64-34,73Z" fill="#dfe0de" fill-rule="evenodd" stroke-width="28.222" stroke-linejoin="round"/><g><path d="M6045,5280c6,18-3,37-19,42-17,5-35-6-40-24s3-36,19-41s35,5,40,23Zm104-31c6,19-4,37-20,42s-34-5-39-23c-5-19,3-37,19-42c17-5,34,5,40,23Z" fill="#cecdcb" fill-rule="evenodd" stroke-width="28.222" stroke-linejoin="round"/></g><path d="M5930,5380c-12,3-25,2-36-5l-39,13c-6,11-16,19-29,23-29,9-61-10-70-42-10-32,6-64,34-73c13-4,27-2,38,3l39-12c6-10,16-19,29-23c28-9,59,10,69,42c10,31-6,64-35,74Z" fill="#dfe0de" fill-rule="evenodd" stroke-width="28.222" stroke-linejoin="round"/><g><path d="M5838,5344c6,18-3,36-19,42-16,5-34-6-40-24s4-36,20-41s34,5,39,23Zm104-31c6,18-3,37-19,41-16,5-35-5-40-23-6-18,3-37,19-42c17-5,35,6,40,24Z" fill="#cecdcb" fill-rule="evenodd" stroke-width="28.222" stroke-linejoin="round"/></g><path d="M5722,5442c-12,4-25,2-37-3l-38,11c-7,11-16,20-29,24-30,8-61-10-70-42-10-31,6-65,34-74c13-4,27-2,38,3l39-11c6-11,16-20,28-23c29-9,60,9,70,41c9,33-6,65-35,74Z" fill="#dfe0de" fill-rule="evenodd" stroke-width="28.222" stroke-linejoin="round"/><g><path d="M5630,5409c5,17-3,36-20,41s-34-6-40-24c-5-17,4-36,20-41c17-6,34,6,40,24Zm104-34c5,19-3,37-20,42s-34-6-39-23c-6-19,3-37,19-42s35,5,40,23Z" fill="#cecdcb" fill-rule="evenodd" stroke-width="28.222" stroke-linejoin="round"/></g><path d="M5515,5505c-13,4-25,2-37-3l-38,12c-7,11-17,20-29,24-30,9-61-10-71-42-9-32,6-65,35-73c14-4,26-3,38,3l38-12c7-11,17-19,29-23c29-9,60,10,70,41c9,32-6,65-35,73Z" fill="#dfe0de" fill-rule="evenodd" stroke-width="28.222" stroke-linejoin="round"/><g><path d="M5422,5472c5,18-4,36-21,41-16,6-33-6-39-23-5-18,4-36,20-41c16-6,34,5,40,23Zm104-33c5,19-4,37-20,42s-34-5-40-23c-5-19,4-37,21-42c16-5,33,6,39,23Z" fill="#cecdcb" fill-rule="evenodd" stroke-width="28.222" stroke-linejoin="round"/></g><path d="M5398,6070c14,0,26,5,36,13h44c10-8,22-13,37-13c33,0,59,26,59,60c0,33-26,60-59,60-15,0-27-5-37-14h-44c-10,9-22,14-36,14-33,0-59-27-59-60c0-34,26-60,59-60Z" fill="#dfe0de" fill-rule="evenodd" stroke-width="28.222" stroke-linejoin="round"/><g><use width="66" height="68" xlink:href="#eOkYnIVEzX02" fill="#cecdcb" fill-rule="evenodd" stroke-width="28.222" stroke-linejoin="round"/><use width="66" height="68" xlink:href="#eOkYnIVEzX03" fill="#cecdcb" fill-rule="evenodd" stroke-width="28.222" stroke-linejoin="round"/></g><use width="234" height="120" xlink:href="#eOkYnIVEzX04" fill="#dfe0de" fill-rule="evenodd" stroke-width="28.222" stroke-linejoin="round"/><g><path d="M5715,6130c0-19,14-34,32-34c20,0,34,15,34,34s-14,34-34,34c-18,0-32-15-32-34Zm-117,0c0-19,15-34,33-34c19,0,34,15,34,34s-15,34-34,34c-18,0-33-15-33-34Z" fill="#cecdcb" fill-rule="evenodd" stroke-width="28.222" stroke-linejoin="round"/></g><use width="234" height="120" xlink:href="#eOkYnIVEzX05" fill="#dfe0de" fill-rule="evenodd" stroke-width="28.222" stroke-linejoin="round"/><g><path d="M5948,6130c0-19,16-34,34-34s32,15,32,34-14,34-32,34-34-15-34-34Zm-117,0c0-19,15-34,33-34s34,15,34,34-16,34-34,34-33-15-33-34Z" fill="#cecdcb" fill-rule="evenodd" stroke-width="28.222" stroke-linejoin="round"/></g><path d="M6097,6070c14,0,27,5,37,13h43c10-8,23-13,38-13c32,0,58,26,58,60c0,33-26,60-58,60-15,0-28-5-38-14h-43c-10,9-23,14-37,14-32,0-58-27-58-60c0-34,26-60,58-60Z" fill="#dfe0de" fill-rule="evenodd" stroke-width="28.222" stroke-linejoin="round"/><g><path d="M6181,6130c0-19,15-34,33-34c19,0,34,15,34,34s-15,34-34,34c-18,0-33-15-33-34Zm-116,0c0-19,14-34,33-34c18,0,33,15,33,34s-15,34-33,34c-19,0-33-15-33-34Z" fill="#cecdcb" fill-rule="evenodd" stroke-width="28.222" stroke-linejoin="round"/></g><path d="M6330,6070c14,0,27,5,37,13h43c10-8,23-13,38-13c32,0,58,26,58,60c0,33-26,60-58,60-15,0-28-5-38-14h-43c-10,9-23,14-37,14-32,0-58-27-58-60c0-34,26-60,58-60Z" fill="#dfe0de" fill-rule="evenodd" stroke-width="28.222" stroke-linejoin="round"/><g><path d="M6414,6130c0-19,15-34,33-34s34,15,34,34-16,34-34,34-33-15-33-34Z" fill="#cecdcb" fill-rule="evenodd" stroke-width="28.222" stroke-linejoin="round"/><use width="66" height="68" xlink:href="#eOkYnIVEzX06" fill="#cecdcb" fill-rule="evenodd" stroke-width="28.222" stroke-linejoin="round"/></g><path d="M6564,6070c14,0,26,5,36,13h43c10-8,23-13,38-13c32,0,58,26,58,60c0,33-26,60-58,60-15,0-28-5-38-14h-43c-10,9-22,14-36,14-33,0-59-27-59-60c0-34,26-60,59-60Z" fill="#dfe0de" fill-rule="evenodd" stroke-width="28.222" stroke-linejoin="round"/><g><path d="M6648,6130c0-19,14-34,33-34c18,0,33,15,33,34s-15,34-33,34c-19,0-33-15-33-34Zm-117,0c0-19,16-34,34-34s32,15,32,34-14,34-32,34-34-15-34-34Z" fill="#cecdcb" fill-rule="evenodd" stroke-width="28.222" stroke-linejoin="round"/></g><path d="M6797,6070c14,0,27,5,37,13h43c10-8,22-13,37-13c33,0,59,26,59,60c0,33-26,60-59,60-15,0-27-5-37-14h-43c-10,9-23,14-37,14-32,0-58-27-58-60c0-34,26-60,58-60Z" fill="#dfe0de" fill-rule="evenodd" stroke-width="28.222" stroke-linejoin="round"/><g><path d="M6881,6130c0-19,14-34,32-34s34,15,34,34-16,34-34,34-32-15-32-34Zm-117,0c0-19,15-34,33-34c19,0,33,15,33,34s-14,34-33,34c-18,0-33-15-33-34Z" fill="#cecdcb" fill-rule="evenodd" stroke-width="28.222" stroke-linejoin="round"/></g><path d="M7030,6070c14,0,27,5,37,13h43c10-8,23-13,38-13c32,0,58,26,58,60c0,33-26,60-58,60-15,0-28-5-38-14h-43c-10,9-23,14-37,14-32,0-58-27-58-60c0-34,26-60,58-60Z" fill="#dfe0de" fill-rule="evenodd" stroke-width="28.222" stroke-linejoin="round"/><g><path d="M7114,6130c0-19,16-34,34-34s32,15,32,34-14,34-32,34-34-15-34-34Zm-117,0c0-19,16-34,34-34s33,15,33,34-15,34-33,34-34-15-34-34Z" fill="#cecdcb" fill-rule="evenodd" stroke-width="28.222" stroke-linejoin="round"/></g><path d="M7263,6070c14,0,27,5,37,13h43c10-8,23-13,38-13c32,0,58,26,58,60c0,33-26,60-58,60-15,0-28-5-38-14h-43c-10,9-23,14-37,14-32,0-58-27-58-60c0-34,26-60,58-60Z" fill="#dfe0de" fill-rule="evenodd" stroke-width="28.222" stroke-linejoin="round"/><g><path d="M7347,6130c0-19,15-34,33-34c19,0,33,15,33,34s-14,34-33,34c-18,0-33-15-33-34Zm-117,0c0-19,15-34,34-34c18,0,33,15,33,34s-15,34-33,34c-19,0-34-15-34-34Z" fill="#cecdcb" fill-rule="evenodd" stroke-width="28.222" stroke-linejoin="round"/></g><path d="M7496,6070c14,0,27,5,37,13h43c10-8,23-13,38-13c32,0,58,26,58,60c0,33-26,60-58,60-15,0-28-5-38-14h-43c-10,9-23,14-37,14-32,0-58-27-58-60c0-34,26-60,58-60Z" fill="#dfe0de" fill-rule="evenodd" stroke-width="28.222" stroke-linejoin="round"/><g><path d="M7580,6130c0-19,16-34,34-34s33,15,33,34-15,34-33,34-34-15-34-34Zm-116,0c0-19,14-34,32-34s34,15,34,34-16,34-34,34-32-15-32-34Z" fill="#cecdcb" fill-rule="evenodd" stroke-width="28.222" stroke-linejoin="round"/></g><g><path d="M7310,5813c0-200,163-362,362-362c200,0,362,162,362,362h-724Zm-727-476c0-111-91-203-203-203-111,0-202,92-202,203c0,112,91,202,202,202c112,0,203-90,203-202ZM4978,5813c0-200,162-362,362-362s362,162,362,362h-724Z" fill="#dfe0de" fill-rule="evenodd" stroke-width="28.222" stroke-linejoin="round"/><path d="M5340,6175c-200,0-362-163-362-363h724c0,200-162,363-362,363Zm2332,0c-199,0-362-163-362-363h724c0,200-162,363-362,363Z" fill="#dfe0de" fill-rule="evenodd" stroke-width="28.222" stroke-linejoin="round"/></g><path d="M7725,6164h-97v-69c-18-3-34-7-51-13l-34,59-84-49l34-58c-13-12-26-24-37-37l-59,34-48-84l59-35c-6-16-11-33-14-50h-68v-97h68c3-17,8-34,14-50l-59-35l48-85l59,34c11-13,24-25,37-37l-34-59l84-48l34,59c17-6,33-11,51-13v-69h97v69c17,2,34,7,50,13l34-59l85,48-34,59c14,12,26,24,37,37l59-34l49,85-59,35c6,16,10,33,13,50h69v97h-69c-3,17-7,34-13,50l59,35-49,84-59-34c-11,13-23,25-37,37l34,58-85,49-34-59c-16,6-33,10-50,13v69Z" fill="#bcbeba" fill-rule="evenodd" stroke-width="28.222" stroke-linejoin="round"/><path d="M7671,6065c-139,0-251-113-251-252c0-140,112-252,251-252s253,112,253,252c0,139-114,252-253,252Z" fill="#d4d6d3" fill-rule="evenodd" stroke-width="28.222" stroke-linejoin="round"/><path d="M7671,5971c-87,0-157-71-157-159c0-86,70-157,157-157c88,0,159,71,159,157c0,88-71,159-159,159Z" fill="#ebeae8" fill-rule="evenodd" stroke-width="28.222" stroke-linejoin="round"/><g><path d="M7672,5881c-37,0-68-30-68-68s31-68,68-68s68,30,68,68-31,68-68,68ZM5389,6164h-97v-68c-18-3-34-8-51-14l-34,59-84-48l34-59c-13-12-26-24-37-37l-59,34-49-84l60-35c-6-16-11-33-14-50h-69v-97h69c3-17,8-34,14-51l-60-34l49-85l59,34c11.313074-13.313053,23.686947-25.686926,37-37l-34-59l84-48l34,59c17-6,33-11,51-14v-68h97v68c17,3,34,8,50,14l35-59l84,48-34,59c13,11,25,24,37,37l59-34l48,85-59,34c6,17,10,34,13,51h69v97h-69c-3,17-7,34-13,50l59,35-48,84-59-34c-12,13-24,25-37,37l34,59-84,48-35-59c-16,6-33,11-50,14v68Z" fill="#bcbeba" fill-rule="evenodd" stroke-width="28.222" stroke-linejoin="round"/></g><path d="M5339,6065c-139,0-251-113-251-252c0-140,112-252,251-252c140,0,253,112,253,252c0,139-113,252-253,252Z" fill="#d4d6d3" fill-rule="evenodd" stroke-width="28.222" stroke-linejoin="round"/><path d="M5366,6006h-53v-38c-10-1-19-4-28-7l-19,32-46-26l19-33c-8-6-14-14-21-21l-32,20-27-47l33-19c-3-9-6-18-7-28h-38v-53h38c1-10,4-19,7-28l-33-19l27-46l32,19c7-7,13-14,21-20l-19-33l46-26l19,32c9-3,18-6,28-7v-38h53v38c10,1,19,4,28,7l19-32l47,26-19,33c7.157284,6.1573,13.8427,12.842716,20,20l33-19l26,46-32,19c3,9,6,18,7,28h38v53h-38c-1,10-4,19-7,28l32,19-26,47-33-20c-6,7-13,15-20,21l19,33-47,26-19-32c-9,3-18,6-28,7v38Z" fill="#ebeae8" fill-rule="evenodd" stroke-width="28.222" stroke-linejoin="round"/><path d="M5340,5881c-38,0-68-30-68-68s30-68,68-68s68,30,68,68-30,68-68,68Z" fill="#bcbeba" fill-rule="evenodd" stroke-width="28.222" stroke-linejoin="round"/><path d="M6380,5494c-86,0-157-70-157-157s71-158,157-158c87,0,159,71,159,158s-72,157-159,157Z" fill="#ebeae8" fill-rule="evenodd" stroke-width="28.222" stroke-linejoin="round"/><path d="M6380,5405c-37,0-67-31-67-68s30-68,67-68c39,0,69,31,69,68s-30,68-69,68Z" fill="#d4d6d3" fill-rule="evenodd" stroke-width="28.222" stroke-linejoin="round"/><path d="M6582,2208h139v1059h-139v-1059Z" fill="#ddded9" fill-rule="evenodd" stroke-width="28.222" stroke-linejoin="round"/><path d="M6721,2950h-139v-425h139v425Z" fill="#dfe0de" fill-rule="evenodd" stroke-width="28.222" stroke-linejoin="round"/><path d="M6182,2835h938v-195h-938v195Z" fill="#ddded9" fill-rule="evenodd" stroke-width="28.222" stroke-linejoin="round"/><g><use width="33" height="195" xlink:href="#eOkYnIVEzX07" fill="#cbccca" fill-rule="evenodd" stroke-width="28.222" stroke-linejoin="round"/><path d="M6980,2835h33v-195h-33v195Zm-69,0h33v-195h-33v195Zm-69,0h33v-195h-33v195Zm-69,0h33v-195h-33v195Zm-69,0h33v-195h-33v195Zm-69,0h33v-195h-33v195Zm-69,0h33v-195h-33v195Zm-69,0h33v-195h-33v195Zm-69,0h33v-195h-33v195Zm-69,0h33v-195h-33v195Zm-69,0h33v-195h-33v195Zm-36,0h-33v-195h33v195Z" fill="#cbccca" fill-rule="evenodd" stroke-width="28.222" stroke-linejoin="round"/><path d="M6444,2641h415v-63h-415v63Z" fill="#cbccca" fill-rule="evenodd" stroke-width="28.222" stroke-linejoin="round"/></g><g><path d="M7383,3267h-91v-794h91v794Z" fill="#e8e8e5" fill-rule="evenodd" stroke-width="28.222" stroke-linejoin="round"/><path d="M7383,2909h-91v-344h91v344Z" fill="#e8e8e5" fill-rule="evenodd" stroke-width="28.222" stroke-linejoin="round"/><path d="M7555,2640h-436v195h436v-195Z" fill="#e8e8e5" fill-rule="evenodd" stroke-width="28.222" stroke-linejoin="round"/></g><g><path d="M7181,2640h-33v195h33v-195Zm276,0h-33v195h33v-195Zm-207,0h-33v195h33v-195Zm69,0h-33v195h33v-195Zm36,0h33v195h-33v-195Zm138,0h33v195h-33v-195Z" fill="#d0d2d0" fill-rule="evenodd" stroke-width="28.222" stroke-linejoin="round"/><path d="M7441,2834h-208v36h208v-36Zm0-230h-208v37h208v-37Z" fill="#d0d2d0" fill-rule="evenodd" stroke-width="28.222" stroke-linejoin="round"/></g><g><path d="M5920,2208h91v794h-91v-794Z" fill="#e8e8e5" fill-rule="evenodd" stroke-width="28.222" stroke-linejoin="round"/><path d="M5920,2565h91v344h-91v-344Z" fill="#e8e8e5" fill-rule="evenodd" stroke-width="28.222" stroke-linejoin="round"/><path d="M5747,2835h436v-195h-436v195Z" fill="#e8e8e5" fill-rule="evenodd" stroke-width="28.222" stroke-linejoin="round"/></g><g><path d="M6121,2835h34v-195h-34v195Zm-276,0h34v-195h-34v195Zm207,0h34v-195h-34v195Zm-69,0h34v-195h-34v195Zm-35,0h-34v-195h34v195Zm-139,0h-33v-195h33v195Z" fill="#d0d2d0" fill-rule="evenodd" stroke-width="28.222" stroke-linejoin="round"/><path d="M5861,2641h208v-37h-208v37Zm0,229h208v-36h-208v36Z" fill="#d0d2d0" fill-rule="evenodd" stroke-width="28.222" stroke-linejoin="round"/></g><path d="M6444,2897h415v-64h-415v64Z" fill="#cbccca" fill-rule="evenodd" stroke-width="28.222" stroke-linejoin="round"/><g><path d="M6444,2641h415v-32h-415v32Zm0,225h415v-32h-415v32Z" fill="#dfe0de" fill-rule="evenodd" stroke-width="28.222" stroke-linejoin="round"/></g><path d="M6620,4567h108v-605h-108v605Z" fill="#818484" fill-rule="evenodd" stroke-width="28.222" stroke-linejoin="round"/><path d="M6727,4567l491-183v-240l-491-182v605Z" fill="#adadac" fill-rule="evenodd" stroke-width="28.222" stroke-linejoin="round"/><g><path d="M6714,4250l-1,28l518,5v-28l-517-5Z" fill="#828484" fill-rule="evenodd" stroke-width="28.222" stroke-linejoin="round"/><path d="M7230,4279l-517,34l1,27l518-34-2-27Z" fill="#828484" fill-rule="evenodd" stroke-width="28.222" stroke-linejoin="round"/><path d="M7229,4302l-517,72l3,27l518-70-4-29Z" fill="#828484" fill-rule="evenodd" stroke-width="28.222" stroke-linejoin="round"/><path d="M7228,4326l-517,110l6,26l517-109-6-27Z" fill="#828484" fill-rule="evenodd" stroke-width="28.222" stroke-linejoin="round"/><path d="M7227,4350l-517,147l8,27l516-147-7-27Z" fill="#828484" fill-rule="evenodd" stroke-width="28.222" stroke-linejoin="round"/><path d="M7226,4374l-516,185l9,26l516-185-9-26Zm-511-185l-3,28l518,43l2-28-517-43Z" fill="#828484" fill-rule="evenodd" stroke-width="28.222" stroke-linejoin="round"/><path d="M6716,4127l-4,27l517,82l4-28-517-81Z" fill="#828484" fill-rule="evenodd" stroke-width="28.222" stroke-linejoin="round"/><path d="M6717,4066l-6,27l517,119l6-27-517-119Z" fill="#828484" fill-rule="evenodd" stroke-width="28.222" stroke-linejoin="round"/><path d="M6718,4005l-8,26l517,157l8-26-517-157Z" fill="#828484" fill-rule="evenodd" stroke-width="28.222" stroke-linejoin="round"/><path d="M6719,3944l-9,26l516,194l9-26-516-194Z" fill="#828484" fill-rule="evenodd" stroke-width="28.222" stroke-linejoin="round"/></g><path d="M7396,3266h-116v589h116v-589Z" fill="#adadac" fill-rule="evenodd" stroke-width="28.222" stroke-linejoin="round"/><path d="M6727,3963h1222v-109h-1222v109Z" fill="#989a9a" fill-rule="evenodd" stroke-width="28.222" stroke-linejoin="round"/><path d="M7280,3735h116v120h-116v-120Z" fill="#a2a3a2" fill-rule="evenodd" stroke-width="28.222" stroke-linejoin="round"/><path d="M6727,3962l492,183h240l490-183h-1222Z" fill="#adadac" fill-rule="evenodd" stroke-width="28.222" stroke-linejoin="round"/><g><path d="M7367,3951h-57l9,196l27,1l21-197Z" fill="#828484" fill-rule="evenodd" stroke-width="28.222" stroke-linejoin="round"/><path d="M7324,4147l-86-197-56,2l115,196l27-1Z" fill="#828484" fill-rule="evenodd" stroke-width="28.222" stroke-linejoin="round"/><path d="M7301,4147l-191-197-54,3l217,195l28-1Z" fill="#828484" fill-rule="evenodd" stroke-width="28.222" stroke-linejoin="round"/><path d="M7277,4147l-296-198-51,4l321,195l26-1Z" fill="#828484" fill-rule="evenodd" stroke-width="28.222" stroke-linejoin="round"/><path d="M7253,4147l-402-199-46,6l423,194l25-1Z" fill="#828484" fill-rule="evenodd" stroke-width="28.222" stroke-linejoin="round"/><path d="M7229,4147l-507-199-41,7l524,193l24-1Zm266-195l-56-2-96,197l27,1l125-196Z" fill="#828484" fill-rule="evenodd" stroke-width="28.222" stroke-linejoin="round"/><path d="M7621,3953l-55-4-200,198l27,1l228-195Z" fill="#828484" fill-rule="evenodd" stroke-width="28.222" stroke-linejoin="round"/><path d="M7747,3954l-51-5-306,198l26,1l331-194Z" fill="#828484" fill-rule="evenodd" stroke-width="28.222" stroke-linejoin="round"/><path d="M7872,3955l-46-7-412,199l25,1l433-193Z" fill="#828484" fill-rule="evenodd" stroke-width="28.222" stroke-linejoin="round"/><path d="M7996,3955l-40-7-518,198l24,2l534-193Z" fill="#828484" fill-rule="evenodd" stroke-width="28.222" stroke-linejoin="round"/></g><path d="M6727,3962h394l98,183-492-183Z" fill="#a2a3a2" fill-rule="evenodd" stroke-width="28.222" stroke-linejoin="round"/><path d="M6727,3854h395v109h-395v-109Z" fill="#989a9a" fill-rule="evenodd" stroke-width="28.222" stroke-linejoin="round"/><path d="M4483,5238h866c6,0,11-4,11-11c0-6-5-10-11-10h-866c-6,0-11,4-11,10c0,7,5,11,11,11Z" fill="#bcbeba" fill-rule="evenodd" stroke-width="28.222" stroke-linejoin="round"/><path d="M4821,5238h154v-21h-154v21Z" fill="#cecdcb" fill-rule="evenodd" stroke-width="28.222" stroke-linejoin="round"/><path d="M4882,5182h30c17,0,31,13,31,30v31c0,17-14,30-31,30h-30c-16,0-30-13-30-30v-31c0-17,14-30,30-30Z" fill="#bbbdbb" fill-rule="evenodd" stroke-width="28.222" stroke-linejoin="round"/><path d="M4923,5236v-17c0-9-8-17-17-17h-15c-11,0-18,8-18,17v17c0,9,7,16,18,16h15c9,0,17-7,17-16Z" fill="#aaada9" fill-rule="evenodd" stroke-width="28.222" stroke-linejoin="round"/><path d="M4483,5326h866c6,0,11-5,11-11s-5-11-11-11h-866c-6,0-11,5-11,11s5,11,11,11Z" fill="#bcbeba" fill-rule="evenodd" stroke-width="28.222" stroke-linejoin="round"/><path d="M4602,5326h138v-22h-138v22Z" fill="#cecdcb" fill-rule="evenodd" stroke-width="28.222" stroke-linejoin="round"/><path d="M4626,5315c0-25,20-45,44-45c26,0,45,20,45,45s-19,44-45,44c-24,0-44-19-44-44Z" fill="#aaada9" fill-rule="evenodd" stroke-width="28.222" stroke-linejoin="round"/><g><path d="M4641,5314c0-16,13-29,29-29c17,0,31,13,31,29s-14,30-31,30c-16,0-29-14-29-30Zm-158-163h866c6,0,11-5,11-11c0-5-5-11-11-11h-866c-6,0-11,6-11,11c0,6,5,11,11,11Z" fill="#bcbeba" fill-rule="evenodd" stroke-width="28.222" stroke-linejoin="round"/></g><path d="M5065,5151h142v-22h-142v22Z" fill="#cecdcb" fill-rule="evenodd" stroke-width="28.222" stroke-linejoin="round"/><path d="M5091,5140c-.050779-11.950237,4.673971-23.42569,13.124141-31.875859s19.925622-13.17492,31.875859-13.124141c25,0,44,20,44,45s-19,45-44,45c-11.950237.050779-23.42569-4.673971-31.875859-13.124141s-13.17492-19.925622-13.124141-31.875859Z" fill="#bcbeba" fill-rule="evenodd" stroke-width="28.222" stroke-linejoin="round"/><path d="M5106,5140c0-17,13-30,29-30c18,0,31,13,31,30s-13,30-31,30c-16,0-29-13-29-30Z" fill="#ebeae8" fill-rule="evenodd" stroke-width="28.222" stroke-linejoin="round"/><path d="M5710,4557h79v-584h-79v584Z" fill="#bcbeba" fill-rule="evenodd" stroke-width="28.222" stroke-linejoin="round"/><path d="M5599,4557h112v-584h-112v584Z" fill="#aaada9" fill-rule="evenodd" stroke-width="28.222" stroke-linejoin="round"/><g><path d="M5788,4482h102v-434h-102v434Z" fill="#d4d6d3" fill-rule="evenodd" stroke-width="28.222" stroke-linejoin="round"/><path d="M5788,4482h30v-434h-30v434Zm-188-434h-101v434h101v-434Z" fill="#d4d6d3" fill-rule="evenodd" stroke-width="28.222" stroke-linejoin="round"/><path d="M5600,4048h-29v434h29v-434Z" fill="#d4d6d3" fill-rule="evenodd" stroke-width="28.222" stroke-linejoin="round"/></g><g><path d="M5825,4540h-37v-29h37v29Zm0-550h-37v29h37v-29Zm0,58h-37v29h37v-29Zm0,58h-37v29h37v-29Zm0,57h-37v30h37v-30Zm0,58h-37v29h37v-29Zm0,58h-37v29h37v-29Zm0,58h-37v29h37v-29Zm0,58h-37v29h37v-29Zm0,58h-37v29h37v-29Z" fill="#aaada9" fill-rule="evenodd" stroke-width="28.222" stroke-linejoin="round"/></g><g><path d="M5802,4540h-14v-29h14v29Zm0-550h-14v29h14v-29Zm0,58h-14v29h14v-29Zm0,58h-14v29h14v-29Zm0,57h-14v30h14v-30Zm0,58h-14v29h14v-29Zm0,58h-14v29h14v-29Zm0,58h-14v29h14v-29Zm0,58h-14v29h14v-29Zm0,58h-14v29h14v-29Zm182-261h637v146h-637v-146Z" fill="#bcbeba" fill-rule="evenodd" stroke-width="28.222" stroke-linejoin="round"/><path d="M5889,4148h96v234h-96v-234Z" fill="#bcbeba" fill-rule="evenodd" stroke-width="28.222" stroke-linejoin="round"/></g><g><path d="M5889,4148h38v234h-38v-234Zm95,44h64v146h-64v-146Zm572,0h65v146h-65v-146Z" fill="#d4d6d3" fill-rule="evenodd" stroke-width="28.222" stroke-linejoin="round"/></g><g><path d="M5405,4338h-444v-146h444v146Z" fill="#bcbeba" fill-rule="evenodd" stroke-width="28.222" stroke-linejoin="round"/><path d="M5500,4382h-96v-234h96v234Z" fill="#bcbeba" fill-rule="evenodd" stroke-width="28.222" stroke-linejoin="round"/></g><g><path d="M5500,4382h-38v-234h38v234Zm-95-44h-65v-146h65v146Zm-380,0h-64v-146h64v146Z" fill="#d4d6d3" fill-rule="evenodd" stroke-width="28.222" stroke-linejoin="round"/></g><g><path d="M6064,4238h475v-32h-475v32Zm-1028,0h288v-32h-288v32Z" fill="#fff" fill-rule="evenodd" stroke-width="28.222" stroke-linejoin="round"/></g><path d="M8227,6422h226c41,0,73-32,73-71v-408c0-39-32-71-73-71h-226c-39,0-71,32-71,71v408c0,39,32,71,71,71Z" fill="#bcbeba" fill-rule="evenodd" stroke-width="28.222" stroke-linejoin="round"/><path d="M8496,6358v-421c0-20-16-35-35-35h-239c-21,0-36,15-36,35v421c0,19,15,35,36,35h239c19,0,35-16,35-35Z" fill="#d4d6d3" fill-rule="evenodd" stroke-width="28.222" stroke-linejoin="round"/><g><path d="M8236,6032c0-58,47-104,105-104s104,46,104,104c0,57-46,105-104,105s-105-48-105-105Zm0,230c0-58,47-104,105-104s104,46,104,104c0,57-46,105-104,105s-105-48-105-105Z" fill="#dfe0de" fill-rule="evenodd" stroke-width="28.222" stroke-linejoin="round"/></g><path d="M8255,6032c0-48,38-86,85-86c48,0,87,38,87,86s-39,86-87,86c-47,0-85-38-85-86Z" fill="#cbccca" fill-rule="evenodd" stroke-width="28.222" stroke-linejoin="round"/><path d="M8274,6033c0-38,30-67,67-67s66,29,66,67c0,36-29,65-66,65s-67-29-67-65Z" fill="#ddded9" fill-rule="evenodd" stroke-width="28.222" stroke-linejoin="round"/><path d="M8255,6263c0-49,38-87,85-87c48,0,87,38,87,87c0,47-39,85-87,85-47,0-85-38-85-85Z" fill="#bbbdbb" fill-rule="evenodd" stroke-width="28.222" stroke-linejoin="round"/><path d="M8274,6262c0-37,30-66,67-66s66,29,66,66-29,67-66,67-67-30-67-67Z" fill="#dadbd7" fill-rule="evenodd" stroke-width="28.222" stroke-linejoin="round"/><path d="M8267,5958c-41,41-41,107,0,147c40,41,107,41,148,0l-55,55c-33-6-68,3-93,28-41,42-41,108,0,148c40,41,107,41,148,0l-57,57h-144c-16,0-28-13-28-29v-325l81-81Z" fill="#dfe0de" fill-rule="evenodd" stroke-width="28.222" stroke-linejoin="round"/><g><path d="M2415,4197h2547v136h-2547v-136Z" fill="#a0a3a1" fill-rule="evenodd" stroke-width="28.222" stroke-linejoin="round"/><path d="M2790,4197h1834v136h-1834v-136Z" fill="#a0a3a1" fill-rule="evenodd" stroke-width="28.222" stroke-linejoin="round"/><path d="M2845,4160h1724v209h-1724v-209Z" fill="#a0a3a1" fill-rule="evenodd" stroke-width="28.222" stroke-linejoin="round"/><path d="M2921,4160h1572v209h-1572v-209Z" fill="#a0a3a1" fill-rule="evenodd" stroke-width="28.222" stroke-linejoin="round"/><path d="M2968,4111h1478v308h-1478v-308Z" fill="#a0a3a1" fill-rule="evenodd" stroke-width="28.222" stroke-linejoin="round"/><path d="M3051,4111h1311v308h-1311v-308Z" fill="#a0a3a1" fill-rule="evenodd" stroke-width="28.222" stroke-linejoin="round"/><path d="M3115,3992h1184v546h-1184v-546Z" fill="#a0a3a1" fill-rule="evenodd" stroke-width="28.222" stroke-linejoin="round"/></g><g><path d="M4250,4559h4c12-2,20-14,18-26l-93-546c-2-12-13-20-25-18-13,2-21,13-19,25l93,547c2,11,11,18,22,18Zm-121,0h3c13-2,21-14,19-26l-93-546c-2-12-13-20-26-18-12,2-20,13-18,25l93,547c1,11,11,18,22,18Zm-123,0h4c12-2,20-14,18-26l-91-546c-2-12-15-20-27-18s-20,13-18,25l92,547c2,11,12,18,22,18Zm-120,0h4c12-2,20-14,18-26l-92-546c-2-12-13-20-26-18s-21,13-19,25l93,547c2,11,11,18,22,18Zm-121,0h3c13-2,21-14,19-26l-92-546c-2-12-13-20-26-18s-21,13-19,25l93,547c2,11,11,18,22,18Zm-124,0h4c13-2,22-14,20-26l-93-546c-2-12-14-20-26-18s-20,13-18,25l91,547c2,11,12,18,22,18Zm-119,0h4c12-2,20-14,18-26l-92-546c-3-12-14-20-26-18s-21,13-19,25l92,547c2,11,11,18,23,18Zm-121,0h4c12-2,20-14,18-26l-93-546c-2-12-13-20-26-18-12,2-20,13-18,25l92,547c2,11,12,18,23,18Zm-122,0h3c12-2,21-14,19-26l-93-546c-2-12-14-20-26-18s-20,13-18,25l92,547c2,11,12,18,23,18Zm-123,0h4c13-2,21-14,19-26l-35-206c-2-12-14-20-26-18s-20,13-18,25l34,207c2,11,11,18,22,18Z" fill="#747777" fill-rule="evenodd" stroke-width="28.222" stroke-linejoin="round"/></g><path d="M6081,1840h1681v99h-1681v-99Z" fill="#bcbeba" fill-rule="evenodd" stroke-width="28.222" stroke-linejoin="round"/><path d="M6562,1226h360h359c180,0,326,146,326,326v289h-685-685v-289c0-180,146-326,325-326Z" fill="#dadbd7" fill-rule="evenodd" stroke-width="28.222" stroke-linejoin="round"/><g><path d="M7184,1841h74v-615h-74v615Zm-524,0h-74v-615h74v615Z" fill="#bbbdbb" fill-rule="evenodd" stroke-width="28.222" stroke-linejoin="round"/></g><g><path d="M7204,1259c0-9,7-17,16-17c10,0,18,8,18,17s-8,18-18,18c-9,0-16-9-16-18Zm0,68c0-9,7-16,16-16c10,0,18,7,18,16c0,10-8,18-18,18-9,0-16-8-16-18Zm0,69c0-9,7-17,16-17c10,0,18,8,18,17s-8,18-18,18c-9,0-16-9-16-18Zm0,68c0-9,7-16,16-16c10,0,18,7,18,16c0,11-8,18-18,18-9,0-16-7-16-18Zm0,69c0-9,7-17,16-17c10,0,18,8,18,17c0,10-8,18-18,18-9,0-16-8-16-18Zm0,68c0-9,7-16,16-16c10,0,18,7,18,16c0,11-8,18-18,18-9,0-16-7-16-18Zm0,70c0-10,7-18,16-18c10,0,18,8,18,18c0,9-8,17-18,17-9,0-16-8-16-17Zm0,68c0-10,7-17,16-17c10,0,18,7,18,17s-8,17-18,17c-9,0-16-7-16-17Zm0,69c0-10,7-18,16-18c10,0,18,8,18,18c0,9-8,17-18,17-9,0-16-8-16-17Zm-564-549c0-9-7-17-17-17-9,0-17,8-17,17s8,18,17,18c10,0,17-9,17-18Zm0,68c0-9-7-16-17-16-9,0-17,7-17,16c0,10,8,18,17,18c10,0,17-8,17-18Zm0,69c0-9-7-17-17-17-9,0-17,8-17,17s8,18,17,18c10,0,17-9,17-18Zm0,68c0-9-7-16-17-16-9,0-17,7-17,16c0,11,8,18,17,18c10,0,17-7,17-18Zm0,69c0-9-7-17-17-17-9,0-17,8-17,17c0,10,8,18,17,18c10,0,17-8,17-18Zm0,68c0-9-7-16-17-16-9,0-17,7-17,16c0,11,8,18,17,18c10,0,17-7,17-18Zm0,70c0-10-7-18-17-18-9,0-17,8-17,18c0,9,8,17,17,17c10,0,17-8,17-17Zm0,68c0-10-7-17-17-17-9,0-17,7-17,17s8,17,17,17c10,0,17-7,17-17Zm0,69c0-10-7-18-17-18-9,0-17,8-17,18c0,9,8,17,17,17c10,0,17-8,17-17Z" fill="#e8e8e5" fill-rule="evenodd" stroke-width="28.222" stroke-linejoin="round"/></g><path d="M6237,1571h1370v73h-1370v-73Z" fill="#bbbdbb" fill-rule="evenodd" stroke-width="28.222" stroke-linejoin="round"/><g><path d="M7563,1590c10,0,18,8,18,18c0,9-8,17-18,17-9,0-17-8-17-17c0-10,8-18,17-18Zm-69,0c11,0,18,8,18,18c0,9-7,17-18,17-9,0-16-8-16-17c0-10,7-18,16-18Zm-68,0c10,0,18,8,18,18c0,9-8,17-18,17-9,0-17-8-17-17c0-10,8-18,17-18Zm-69,0c10,0,18,8,18,18c0,9-8,17-18,17-9,0-16-8-16-17c0-10,7-18,16-18Zm-68,0c9,0,18,8,18,18c0,9-9,17-18,17s-17-8-17-17c0-10,8-18,17-18Zm-69,0c10,0,18,8,18,18c0,9-8,17-18,17-9,0-16-8-16-17c0-10,7-18,16-18Zm-67,0c9,0,17,8,17,18c0,9-8,17-17,17s-18-8-18-17c0-10,9-18,18-18Zm-69,0c10,0,17,8,17,18c0,9-7,17-17,17-9,0-18-8-18-17c0-10,9-18,18-18Zm-68,0c9,0,17,8,17,18c0,9-8,17-17,17-10,0-18-8-18-17c0-10,8-18,18-18Zm-735,0c-11,0-18,8-18,18c0,9,7,17,18,17c9,0,16-8,16-17c0-10-7-18-16-18Zm68,0c-10,0-18,8-18,18c0,9,8,17,18,17c9,0,17-8,17-17c0-10-8-18-17-18Zm69,0c-11,0-18,8-18,18c0,9,7,17,18,17c9,0,17-8,17-17c0-10-8-18-17-18Zm68,0c-10,0-18,8-18,18c0,9,8,17,18,17s17-8,17-17c0-10-7-18-17-18Zm69,0c-10,0-18,8-18,18c0,9,8,17,18,17c9,0,17-8,17-17c0-10-8-18-17-18Zm68,0c-9,0-17,8-17,18c0,9,8,17,17,17c10,0,17-8,17-17c0-10-7-18-17-18Zm69,0c-9,0-18,8-18,18c0,9,9,17,18,17s18-8,18-17c0-10-9-18-18-18Zm67,0c-9,0-16,8-16,18c0,9,7,17,16,17c10,0,18-8,18-17c0-10-8-18-18-18Zm69,0c-9,0-17,8-17,18c0,9,8,17,17,17s18-8,18-17c0-10-9-18-18-18Z" fill="#e8e8e5" fill-rule="evenodd" stroke-width="28.222" stroke-linejoin="round"/></g><path d="M6824,1504h195c17,0,31,13,31,30v147c0,17-14,30-31,30h-195c-17,0-31-13-31-30v-147c0-17,14-30,31-30Z" fill="#ebeae8" fill-rule="evenodd" stroke-width="28.222" stroke-linejoin="round"/><g><path d="M6949,1608c0-16,12-29,28-29c15,0,29,13,29,29c0,15-14,28-29,28-16,0-28-13-28-28Zm-54,0c0-16-13-29-29-29-15,0-28,13-28,29c0,15,13,28,28,28c16,0,29-13,29-28ZM4715,4333h-29v-136h29v136Z" fill="#d4d6d3" fill-rule="evenodd" stroke-width="28.222" stroke-linejoin="round"/></g><path d="M4776,4124h124v282h-124v-282Z" fill="#bcbeba" fill-rule="evenodd" stroke-width="28.222" stroke-linejoin="round"/><g><path d="M4714,4145h63v240h-63v-240Zm185,0h63v240h-63v-240Z" fill="#d4d6d3" fill-rule="evenodd" stroke-width="28.222" stroke-linejoin="round"/><path d="M4752,4145h25v240h-25v-240Zm172,0h-25v240h25v-240Z" fill="#d4d6d3" fill-rule="evenodd" stroke-width="28.222" stroke-linejoin="round"/></g><path d="M7443,3329h-210v-124h210v124Z" fill="#bcbeba" fill-rule="evenodd" stroke-width="28.222" stroke-linejoin="round"/><g><path d="M7428,3206h-180v-63h180v63Zm0,184h-180v-62h180v62Z" fill="#d4d6d3" fill-rule="evenodd" stroke-width="28.222" stroke-linejoin="round"/><path d="M7428,3206h-180v-25h180v25Zm-45-62h-91v-25h91v25Zm45,184h-180v24h180v-24Z" fill="#d4d6d3" fill-rule="evenodd" stroke-width="28.222" stroke-linejoin="round"/></g><path d="M7396,3389h-116v33h116v-33Z" fill="#ebeae8" fill-rule="evenodd" stroke-width="28.222" stroke-linejoin="round"/><path d="M2674,2176v700h1944l-121,121h-1823v302h1522l-237,238h-1017c-443,0-800-358-800-800c0-10,0-20,1-30l531-531Z" fill="#dadbd7" fill-rule="evenodd" stroke-width="28.222" stroke-linejoin="round"/><g><path d="M4617,2876v0ZM2674,2176v0Z" fill="#dfe0de" fill-rule="evenodd" stroke-width="28.222" stroke-linejoin="round"/></g><path d="M5191,4753c67-67,174-67,242,0c66,67,66,176,0,242-68,66-175,66-242,0s-67-175,0-242Z" fill="#bcbeba" fill-rule="evenodd" stroke-width="28.222" stroke-linejoin="round"/><path d="M5168,4874c0-80,64-145,144-145s144,65,144,145c0,79-64,143-144,143s-144-64-144-143Z" fill="#fff" fill-rule="evenodd" stroke-width="28.222" stroke-linejoin="round"/><path d="M5226,4960l30-31c-30-31-30-81,0-112l-30-31c-23.4961,22.847393-36.751995,54.226991-36.751995,87s13.255895,64.152607,36.751995,87Z" fill="#b6b6b4" fill-rule="evenodd" stroke-width="28.222" stroke-linejoin="round"/><path d="M5398,4960c24-24,37-55,37-87c0-33-13-64-37-87l-31,31c15,15,23,35,23,56s-8,41-23,56l31,31Z" fill="#e8e8e5" fill-rule="evenodd" stroke-width="28.222" stroke-linejoin="round"/><path d="M5256,4818c15-15,35-23,56-23c22,0,41,8,56,23l31-32c-23-23-54-36-87-36-32,0-63,13-87,36l31,32Z" fill="#d0d2d0" fill-rule="evenodd" stroke-width="28.222" stroke-linejoin="round"/><path d="M5307,4888l102,14-94-43c-7-4-16,0-19,7s0,17,7,20c2,1,3,1,4,2Z" fill="#cecdcb" fill-rule="evenodd" stroke-width="28.222" stroke-linejoin="round"/><path d="M4803,4753c66-67,174-67,240,0c68,67,68,176,0,242-66,66-174,66-240,0-67-66-67-175,0-242Z" fill="#bcbeba" fill-rule="evenodd" stroke-width="28.222" stroke-linejoin="round"/><path d="M4779,4874c0-80,65-145,144-145c80,0,144,65,144,145c0,79-64,143-144,143-79,0-144-64-144-143Z" fill="#fff" fill-rule="evenodd" stroke-width="28.222" stroke-linejoin="round"/><path d="M4837,4960l31-31c-15-15-23-35-23-56s8-41,23-56l-31-31c-23,23-37,54-37,87c0,32,14,63,37,87Z" fill="#b6b6b4" fill-rule="evenodd" stroke-width="28.222" stroke-linejoin="round"/><path d="M5010,4960c48-48,48-126,0-174l-31,31c32,31,32,81,0,112l31,31Z" fill="#e8e8e5" fill-rule="evenodd" stroke-width="28.222" stroke-linejoin="round"/><path d="M4867,4818c15-15,36-23,57-23s41,8,56,23l30-32c-23-23-53-36-86-36-34,0-65,13-88,36l31,32Z" fill="#d0d2d0" fill-rule="evenodd" stroke-width="28.222" stroke-linejoin="round"/><path d="M4938,4877l11-102-40,95c-3,8,0,16,8,19s17,0,20-8c0-1,1-2,1-4Z" fill="#cecdcb" fill-rule="evenodd" stroke-width="28.222" stroke-linejoin="round"/><path d="M4415,4753c66-67,174-67,241,0s67,176,0,242-175,66-241,0c-68-66-68-175,0-242Z" fill="#bcbeba" fill-rule="evenodd" stroke-width="28.222" stroke-linejoin="round"/><path d="M4391,4874c0-80,65-145,144-145s145,65,145,145c0,79-66,143-145,143s-144-64-144-143Z" fill="#fff" fill-rule="evenodd" stroke-width="28.222" stroke-linejoin="round"/><path d="M4449,4960l30-31c-30-31-30-81,0-112l-30-31c-23.4961,22.847393-36.751995,54.226991-36.751995,87s13.255895,64.152607,36.751995,87Z" fill="#b6b6b4" fill-rule="evenodd" stroke-width="28.222" stroke-linejoin="round"/><path d="M4622,4960c48-48,48-126,0-174l-32,31c32,31,32,81,0,112l32,31Z" fill="#e8e8e5" fill-rule="evenodd" stroke-width="28.222" stroke-linejoin="round"/><path d="M4478,4818c31-32,82-32,113,0l31-32c-48-48-127-48-174,0l30,32Z" fill="#d0d2d0" fill-rule="evenodd" stroke-width="28.222" stroke-linejoin="round"/><path d="M4530,4859l-97,43l105-14c9-1,15-9,14-18-1-8-9-13-18-12-1,0-2,0-4,1Z" fill="#cecdcb" fill-rule="evenodd" stroke-width="28.222" stroke-linejoin="round"/><g><path d="M5549,3536h100v319h-100v-319Zm-2581,0h100v319h-100v-319Zm1290,0h101v319h-101v-319Z" fill="#bcbeba" fill-rule="evenodd" stroke-width="28.222" stroke-linejoin="round"/></g><path d="M3845,6434h1068v-701h-1068v701Z" fill="#aaada9" fill-rule="evenodd" stroke-width="28.222" stroke-linejoin="round"/><path d="M3979,6084c0-124,101-225,224-225c125,0,225,101,225,225s-100,224-225,224c-123,0-224-100-224-224Z" fill="#dadbd7" fill-rule="evenodd" stroke-width="28.222" stroke-linejoin="round"/><path d="M4025,6084c0-98,80-178,178-178c99,0,179,80,179,178s-80,178-179,178c-98,0-178-80-178-178Z" fill="#bbbdbb" fill-rule="evenodd" stroke-width="28.222" stroke-linejoin="round"/><path d="M4092,6083c0-61,51-111,112-111s111,50,111,111c0,63-50,112-111,112s-112-49-112-112Z" fill="#dadbd7" fill-rule="evenodd" stroke-width="28.222" stroke-linejoin="round"/><path d="M4156,6084c0-27,21-48,48-48c26,0,48,21,48,48c0,26-22,48-48,48-27,0-48-22-48-48Z" fill="#aaada9" fill-rule="evenodd" stroke-width="28.222" stroke-linejoin="round"/><g><path d="M4914,5859h-88v25h-89v-25h-88v25h-89v-25h-88v25h-89v-25h-89v25h-88v-25c0,0-6,1-14,1s-19,2-30,3c-22,4-43,13-43,13l10,22c0,0-2,1-4,1-2,1-4,3-8,4-7,3-15,8-23,13-17,11-31,25-31,25l-17-17c0,0-16,16-28,34-13,19-21,39-21,39l22,9c0,0-8,20-12,39-1,10-3,19-3,27v12h-25c0,0,0,22,5,44c4,22,13,42,13,42l22-9c0,0,8,18,19,35c11,16,25,30,25,30l-34,35c0,0-18-18-31-38-14-20-24-43-24-43s-9-23-14-47-5-49-5-49s0-24,5-49s14-47,14-47s10-23,24-44c13-20,31-37,31-37s17-17,38-31c10-6,21-13,29-16c9-5,14-7,14-7s23-9,47-13c13-2,25-4,34-4c5,0,8-1,11-1h4h88h89h89h88h89h88h89" fill="#bcbeba" fill-rule="evenodd" stroke-width="28.222" stroke-linejoin="round"/><path d="M4914,6332h-176-89-89-88-89-89-88-4-11c-9,0-21-2-34-4-24-5-47-14-47-14s-5-2-14-6c-8-4-19-10-29-17-21-13-38-31-38-31l17-18c0,0,16,16,34,28c10,7,19,13,27,16c4,2,7,3,9,4s3,2,3,2l10-24c0,0,18,9,37,12c10,2,20,3,27,3c4,0,7,1,9,1h4v24h88v-24h89v24h89v-24h88v24h89v-24h89v24h89v-24" fill="#bcbeba" fill-rule="evenodd" stroke-width="28.222" stroke-linejoin="round"/></g><path d="M1882,2987l26,51c38,77,6,171-72,209l-14,7-26-52c-37-78-6-170,71-208l15-7Z" fill="#f89e78" fill-rule="evenodd" stroke-width="28.222" stroke-linejoin="round"/><path d="M2456,3130c-61,100-28,231,73,291c100,62,232,28,292-72c61-101,28-232-73-292-101-62-232-29-292,73Z" fill="#954f4a" fill-rule="evenodd" stroke-width="28.222" stroke-linejoin="round"/><path d="M3023,6597l138-41l28,99-313,90c0,0-28-97,147-148Z" fill="#000080" fill-rule="evenodd" stroke-width="28.222" stroke-linejoin="round"/><path d="M1651,4395l518,19c76,11,144-45,148-122c4-74-55-136-129-137l-519,27-18,213Z" fill="#2f4772" fill-rule="evenodd" stroke-width="28.222" stroke-linejoin="round"/><path d="M1477,4178l57-5c85-6,161,59,167,144l1,16-58,5c-85,6-160-58-166-144l-1-16Z" fill="#f89e78" fill-rule="evenodd" stroke-width="28.222" stroke-linejoin="round"/><g id="eOkYnIVEzX0393_tr" transform="translate(3201,4651) rotate(0)"><g id="eOkYnIVEzX0393_ts" transform="scale(0,0.5)"><path id="eOkYnIVEzX0393" d="M3286,3758l452-528l96,729l1037-480-746,990l826,803-927-221-54,394-392-15-215,971-368-971-557,242l110-621-1097-50l996-532-492-801l783,291-90-1058l638,857Z" transform="translate(-3201,-4651)" opacity="0.45" fill="#fcfcfc" fill-rule="evenodd" stroke-width="28.222" stroke-linejoin="round"/></g></g><path d="M2294,4356l-188-198l434-448c55-52,141-50,193,5c53,55,51,141-5,193l-434,448Z" fill="#2f4772" fill-rule="evenodd" stroke-width="28.222" stroke-linejoin="round"/><path d="M2455,4054l228,671l84,244c0,0,175-458,854-292-287-266-671-924-671-924-14-85-94-141-179-124l-37,7-43,8c-204,40-270,208-236,410Z" fill="#f89c2f" fill-rule="evenodd" stroke-width="28.222" stroke-linejoin="round"/><path d="M2416,4042l229,675l119-14-66-173c0,0-160-418-180-594-19-175,180-306,180-306l-2-1-44,7c-204,35-270,201-236,406Z" fill="#b57629" fill-rule="evenodd" stroke-width="28.222" stroke-linejoin="round"/><path d="M2454,4028l229,675l119-14-66-173c0,0-160-418-180-594-19-175,180-306,180-306l-2-1-43,7c-204,35-271,202-237,406Z" fill="#2f4772" fill-rule="evenodd" stroke-width="28.222" stroke-linejoin="round"/><g><path d="M2559,3736l177-120-33-198-193,33l49,285Z" fill="#f89e78" fill-rule="evenodd" stroke-width="28.222" stroke-linejoin="round"/><path d="M2444,3516l87,21c139,33,277-53,310-191c23-96-37-194-133-217l-61-14c-96-23-194,37-217,134l-42,176c-9,41,16,82,56,91Z" fill="#f89e78" fill-rule="evenodd" stroke-width="28.222" stroke-linejoin="round"/><path d="M2377,3366l25,6l19-83-52,53c-8,8-4,21,8,24Z" fill="#f89e78" fill-rule="evenodd" stroke-width="28.222" stroke-linejoin="round"/></g><g><path d="M2725,3550c101-148,153-198,153-198l-87-156c-86-20-160-13-181,74l24,9c-86,254,91,271,91,271Z" fill="#954f4a" fill-rule="evenodd" stroke-width="28.222" stroke-linejoin="round"/><path d="M2630,3308l10,2l34-141-104-25-11,47c-13,52,20,104,71,117Z" fill="#954f4a" fill-rule="evenodd" stroke-width="28.222" stroke-linejoin="round"/><path d="M2571,3368l41,11l19-80-41-10-19,79Z" fill="#954f4a" fill-rule="evenodd" stroke-width="28.222" stroke-linejoin="round"/></g><path d="M2598,3432l47,11c26,6,52-10,58-35l8-36c6-26-10-52-35-58-27-6-52,9-58,36l-20,82Z" fill="#f89e78" fill-rule="evenodd" stroke-width="28.222" stroke-linejoin="round"/><path d="M2570,3144l-8-79l210,50c0,0,173,27,136,154-10,32-30,83-30,83l-292-121-16-87Z" fill="#c83524" fill-rule="evenodd" stroke-width="28.222" stroke-linejoin="round"/><path d="M1709,5634l426-761c72-128,233-172,347-93l-165,363-493,570-115-79Z" fill="#6c95d5" fill-rule="evenodd" stroke-width="28.222" stroke-linejoin="round"/><path d="M1706,5630l118,83-57,83-268-186c0,0,59-83,207,20Z" fill="#000080" fill-rule="evenodd" stroke-width="28.222" stroke-linejoin="round"/><g><path d="M1797,3266l284,504c28,50,93,66,142,36c51-31,64-109,27-156l-307-469-146,85Z" fill="#2f4772" fill-rule="evenodd" stroke-width="28.222" stroke-linejoin="round"/><path d="M2182,3547l-45,270l623,80c68,11,132-35,144-103l4-22c11-69-35-134-103-145l-623-80Z" fill="#2f4772" fill-rule="evenodd" stroke-width="28.222" stroke-linejoin="round"/></g><path d="M2519,3011c7,2,14,1,20-4c3-3,84-71,201-27c117,43,125,138,125,138c1,11,10,19,21,18c10,0,18-10,17-20c0-5-9-120-150-173-139-52-236,32-240,35-8,7-9,20-2,28c3,2,5,4,8,5Z" fill="#fab72c" fill-rule="evenodd" stroke-width="28.222" stroke-linejoin="round"/><g transform="translate(.000001 0)"><path d="M2378,3173l529,199c11,4,23-1,28-13c4-11-2-23-13-27l-529-199c-11-4-24,1-28,12s2,24,13,28Z" fill="#f9a722" fill-rule="evenodd" stroke-width="28.222" stroke-linejoin="round"/><path d="M2749,2962l46,17c122,46,183,182,138,305l-18,46-488-183l17-47c47-122,183-184,305-138Z" fill="#f9a722" fill-rule="evenodd" stroke-width="28.222" stroke-linejoin="round"/></g><path d="M2560,3056c8,3,17,1,24-6c3-4,84-88,197-46c149,55,152,177,152,177s12-2,12-14c0-2-5-150-148-204-142-53-241,52-245,56-9,10-8,24,1,32c2,2,4,4,7,5Z" fill="#fab72c" fill-rule="evenodd" stroke-width="28.222" stroke-linejoin="round"/><path d="M2408,3427c-3,18,1,33,9,34c6,1,14-13,16-31c3-17-1-32-8-33-6-1-15,12-17,30Z" fill="#fcfcfc" fill-rule="evenodd" stroke-width="28.222" stroke-linejoin="round"/><g id="eOkYnIVEzX0419_tr" transform="translate(3707,5094) rotate(0)"><g transform="translate(-3707,-5094)"><path d="M3550,5472l103,28h107l104-28l92-53l75-76l54-92l27-103v-107l-27-103-54-92-75-77-92-53-104-27h-107l-103,27-92,53-76,77-53,92-28,103v107l28,103l53,92l76,76l92,53Zm-370-414l99-20-90-45l18-70l101,7-76-67l37-63l96,32-56-85l51-51l84,56-32-96l62-36l67,76-6-101l70-19l45,91l20-100h72l20,100l46-91l70,19-6,101l67-76l63,36-33,96l85-56l51,51-56,85l96-32l36,63-76,67l101-7l19,70-91,45l100,20v73l-100,20l91,45-19,70-101-7l76,67-36,63-96-32l56,84-51,51-85-56l33,96-63,36-67-76l6,102-70,18-46-90-20,99h-72l-20-99-45,90-70-18l6-102-67,76-62-36l32-96-84,56-51-51l56-84-96,32-37-63l76-67-101,7-18-70l90-45-99-20v-73Z" fill="#6f6c6d" fill-rule="evenodd" stroke-width="28.222" stroke-linejoin="round"/><path d="M3386,5155c33,0,60-27,60-60c0-34-27-61-60-61-34,0-61,27-61,61c0,33,27,60,61,60Zm-10,130c17,29,54,39,83,22c29-16,39-54,22-83-16-29-54-38-83-22-29,17-39,54-22,83Zm140,140c29,16,66,6,83-23c16-29,6-66-23-82-29-17-66-7-82,22-17,29-7,66,22,83Zm190-591c34,0,62-27,62-61c0-33-28-61-62-61-33,0-60,28-60,61c0,34,27,61,60,61Zm0,642c34,0,62-27,62-61c0-33-28-61-62-61-33,0-60,28-60,61c0,34,27,61,60,61Zm131-607c29,16,66,6,83-23s7-66-22-82c-29-17-66-7-83,22s-7,66,22,83Zm-22,533c17,29,54,39,83,23c29-17,39-54,22-83s-54-39-83-22c-29,16-39,53-22,82Zm139-95c29,17,67,7,83-22c17-29,7-66-22-83-29-16-66-7-83,22-16,29-7,67,22,83Zm134-212c0-34-27-61-60-61-34,0-61,27-61,61c0,33,27,60,61,60c33,0,60-27,60-60Zm-51-192c-16-29-54-39-83-22s-38,55-22,84c17,29,54,39,83,22s39-54,22-84Zm-438-117c-17-29-54-39-83-22-29,16-39,53-22,82c16,29,53,39,82,23c29-17,39-54,23-83Zm-140,95c-29-17-66-7-83,22-17,30-7,67,22,84s67,7,83-22c17-29,7-67-22-84Zm247-210c235,0,424,189,424,424c0,233-189,422-424,422-233,0-423-189-423-422c0-235,190-424,423-424Z" fill="#aeadad" fill-rule="evenodd" stroke-width="28.222" stroke-linejoin="round"/><path d="M3489,5095c0-120,98-218,218-218s217,98,217,218c0,119-97,216-217,216s-218-97-218-216Z" fill="#4f4c4d" fill-rule="evenodd" stroke-width="28.222" stroke-linejoin="round"/><path d="M3607,5094c0-55,44-100,99-100s101,45,101,100-46,100-101,100-99-45-99-100Z" fill="#aeadad" fill-rule="evenodd" stroke-width="28.222" stroke-linejoin="round"/></g></g><path d="M11585,6801h-11120-24c-1,0,7,0,18,0h11121h23c2,0-6,0-18,0Z" fill="#27314f" fill-rule="evenodd" stroke-width="28.222" stroke-linejoin="round"/><path d="M2638,5757l307-93l264-751-420-121-151,965Z" fill="#5e83ba" fill-rule="evenodd" stroke-width="28.222" stroke-linejoin="round"/><path d="M2303,4747l13,397l655-53c164-14,286-158,273-322l-11-132-930,110Z" fill="#6c95d5" fill-rule="evenodd" stroke-width="28.222" stroke-linejoin="round"/><path d="M3029,6604l-391-847c0,0,82-252,215-291l40-12l269,1111-133,39Z" fill="#5e83ba" fill-rule="evenodd" stroke-width="28.222" stroke-linejoin="round"/></g><clipPath id="eOkYnIVEzX0428"><path d="M0,0h12000v7500L0,7500Z" fill-rule="evenodd" stroke-width="28.222" stroke-linejoin="round"/></clipPath></g></svg>
