<?xml version="1.0" encoding="UTF-8" standalone="no"?>
<svg
   id="eAMRNXQb2CD1"
   viewBox="0 0 12000 7500"
   shape-rendering="geometricPrecision"
   text-rendering="geometricPrecision"
   version="1.1"
   sodipodi:docname="intro-2.svg"
   inkscape:version="1.2 (dc2aedaf03, 2022-05-15)"
   xmlns:inkscape="http://www.inkscape.org/namespaces/inkscape"
   xmlns:sodipodi="http://sodipodi.sourceforge.net/DTD/sodipodi-0.dtd"
   xmlns="http://www.w3.org/2000/svg"
   xmlns:svg="http://www.w3.org/2000/svg">
  <defs
     id="defs19320" />
  <sodipodi:namedview
     id="namedview19318"
     pagecolor="#ffffff"
     bordercolor="#000000"
     borderopacity="0.25"
     inkscape:showpageshadow="2"
     inkscape:pageopacity="0.0"
     inkscape:pagecheckerboard="0"
     inkscape:deskcolor="#d1d1d1"
     showgrid="false"
     inkscape:zoom="0.10141667"
     inkscape:cx="8366.4747"
     inkscape:cy="4358.2579"
     inkscape:window-width="1920"
     inkscape:window-height="1057"
     inkscape:window-x="-8"
     inkscape:window-y="-8"
     inkscape:window-maximized="1"
     inkscape:current-layer="eAMRNXQb2CD1" />
  <style
     id="style19009"><![CDATA[
#eAMRNXQb2CD8 {animation: eAMRNXQb2CD8_c_o 3000ms linear infinite normal forwards}@keyframes eAMRNXQb2CD8_c_o { 0% {opacity: 1} 10% {opacity: 0} 20% {opacity: 1} 30% {opacity: 0} 40% {opacity: 1} 50% {opacity: 0} 60% {opacity: 1} 70% {opacity: 0} 80% {opacity: 1} 90% {opacity: 0} 100% {opacity: 1}} #eAMRNXQb2CD117_ts {animation: eAMRNXQb2CD117_ts__ts 3000ms linear infinite normal forwards}@keyframes eAMRNXQb2CD117_ts__ts { 0% {transform: translate(7379.5px,4716.5px) scale(0,0)} 33.333333% {transform: translate(7379.5px,4716.5px) scale(1,1)} 100% {transform: translate(7379.5px,4716.5px) scale(1,1)}} #eAMRNXQb2CD117 {animation: eAMRNXQb2CD117_c_o 3000ms linear infinite normal forwards}@keyframes eAMRNXQb2CD117_c_o { 0% {opacity: 0} 33.333333% {opacity: 1} 100% {opacity: 0}}
]]></style>
  <path
     d="M 887,6795 C 495,4860 2158,5766 1797,4014 1321,1711 3591,1290 4948,1420 c 1454,139 1736,985 2123,1292 118,-22 246,-39 386,-51 461,-36 1036,-16 1555,112 536,84 1115,335 1637,969 612,742 444,1379 258,2013 240,168 426,406 265,1036 H 9891 Z"
     fill="#a0dcf7"
     fill-rule="evenodd"
     stroke-width="28.222"
     stroke-linejoin="round"
     id="path19013"
     style="fill:#cfebf8;fill-opacity:0.32871974" />
  <path
     d="M 7333.2484,7195.4328 C 6202.8276,6450.68 6047.8564,6440.4521 5029.9201,6904.7451 3927.1852,7407.7089 3268.5571,6947.0899 3191.4199,6157.3007 3060.0424,4812.0624 5219.7168,5245.4025 4995.0084,3529.4498 4829.4154,2265.2273 5423.1821,1704.5767 6221.9812,1569.5482 c 790.3542,-133.5885 1896.6589,123.1857 1835.0185,1322.4476 -34.0412,663.3804 -742.9924,1201.2402 -101.0796,1509.7864 664.0262,319.0366 1684.3132,213.6152 1889.6068,1480.711 203.4651,1255.7912 -1455.5127,2009.3319 -2512.2785,1312.9396"
     style="fill:#cfebf8;fill-opacity:0.32871974;fill-rule:nonzero;stroke:none;stroke-width:8.83803"
     id="path800" />
  <path
     d="m 8634.6603,2973.9133 c 359.3069,-198.5492 790.4411,-90.7054 962.9994,240.894 172.6451,331.5993 21.243,761.4404 -338.0645,959.9828 -359.3069,198.5492 -1015.237,256.1484 -1187.8821,-75.451 -172.5576,-331.5118 203.6396,-926.7892 562.9472,-1125.4258"
     style="fill:#cfebf8;fill-opacity:0.32871974;fill-rule:nonzero;stroke:none;stroke-width:8.83803"
     id="path802" />
  <path
     d="m 6495.1836,3350.4615 h -204.6837 v -942.8511 h 204.6837 v 942.8511"
     style="fill:#64b4d7;fill-opacity:1;fill-rule:nonzero;stroke:none;stroke-width:8.83803"
     id="path804" />
  <path
     d="m 6495.1836,6198.2124 h -204.6837 v -942.8511 h 204.6837 v 942.8511"
     style="fill:#64b4d7;fill-opacity:1;fill-rule:nonzero;stroke:none;stroke-width:8.83803"
     id="path806" />
  <path
     d="M 4120.6385,6796.5446 H 2856.9252 V 2001.7242 h 1263.7133 v 4794.8204"
     style="fill:#64b4d7;fill-opacity:1;fill-rule:nonzero;stroke:none;stroke-width:8.83803"
     id="path808" />
  <path
     d="M 6351.879,6796.5446 H 4120.6385 V 2001.7242 H 6351.879 v 4794.8204"
     style="fill:#c1e4fa;fill-opacity:1;fill-rule:nonzero;stroke:none;stroke-width:8.83803"
     id="path810" />
  <path
     d="M 6433.8045,6796.5446 H 7797.6403 V 2001.7242 H 6433.8045 v 4794.8204"
     style="fill:#c1e4fa;fill-opacity:1;fill-rule:nonzero;stroke:none;stroke-width:8.83803"
     id="path812" />
  <path
     d="M 3785.4478,6575.1173 H 3192.2034 V 5544.0774 h 593.2444 v 1031.0399"
     style="fill:#848fb7;fill-opacity:1;fill-rule:nonzero;stroke:none;stroke-width:8.83803"
     id="path814" />
  <path
     d="m 3712.1408,5698.7475 h -446.6311 v -44.8547 h 446.6311 v 44.8547"
     style="fill:#464f72;fill-opacity:1;fill-rule:nonzero;stroke:none;stroke-width:8.83803"
     id="path816" />
  <path
     d="m 3712.1408,5776.9843 h -446.6311 v -44.8615 h 446.6311 v 44.8615"
     style="fill:#464f72;fill-opacity:1;fill-rule:nonzero;stroke:none;stroke-width:8.83803"
     id="path818" />
  <path
     d="m 3712.1408,5857.1926 h -446.6311 v -44.949 h 446.6311 v 44.949"
     style="fill:#464f72;fill-opacity:1;fill-rule:nonzero;stroke:none;stroke-width:8.83803"
     id="path820" />
  <path
     d="m 3712.1408,5935.4293 h -446.6311 v -44.774 h 446.6311 v 44.774"
     style="fill:#464f72;fill-opacity:1;fill-rule:nonzero;stroke:none;stroke-width:8.83803"
     id="path822" />
  <path
     d="m 3712.1408,6015.0993 h -446.6311 v -44.774 h 446.6311 v 44.774"
     style="fill:#464f72;fill-opacity:1;fill-rule:nonzero;stroke:none;stroke-width:8.83803"
     id="path824" />
  <path
     d="m 3712.1408,6093.4235 h -446.6311 v -44.8615 h 446.6311 v 44.8615"
     style="fill:#464f72;fill-opacity:1;fill-rule:nonzero;stroke:none;stroke-width:8.83803"
     id="path826" />
  <path
     d="m 3712.1408,6173.5375 h -446.6311 v -44.8547 h 446.6311 v 44.8547"
     style="fill:#464f72;fill-opacity:1;fill-rule:nonzero;stroke:none;stroke-width:8.83803"
     id="path828" />
  <path
     d="m 3712.1408,6251.8617 h -446.6311 v -44.8547 h 446.6311 v 44.8547"
     style="fill:#464f72;fill-opacity:1;fill-rule:nonzero;stroke:none;stroke-width:8.83803"
     id="path830" />
  <path
     d="m 3712.1408,6347.0552 h -446.6311 v -44.8614 h 446.6311 v 44.8614"
     style="fill:#464f72;fill-opacity:1;fill-rule:nonzero;stroke:none;stroke-width:8.83803"
     id="path832" />
  <path
     d="m 3712.1408,6427.1761 h -446.6311 v -44.8615 h 446.6311 v 44.8615"
     style="fill:#464f72;fill-opacity:1;fill-rule:nonzero;stroke:none;stroke-width:8.83803"
     id="path834" />
  <path
     d="m 3712.1408,6505.5003 h -446.6311 v -44.8615 h 446.6311 v 44.8615"
     style="fill:#464f72;fill-opacity:1;fill-rule:nonzero;stroke:none;stroke-width:8.83803"
     id="path836" />
  <path
     d="m 3792.9347,3294.9213 h -608.2189 l 304.1095,-626.7685 z"
     style="fill:#6d76a1;fill-opacity:1;fill-rule:nonzero;stroke:none;stroke-width:8.83803"
     id="path838" />
  <path
     d="m 3243.5699,3252.489 245.2554,-492.2851 245.3421,492.2851 z"
     style="fill:#ffcf03;fill-opacity:1;fill-rule:nonzero;stroke:none;stroke-width:8.83803"
     id="path840" />
  <path
     d="m 3439.0252,3211.5774 -4.7013,-222.3223 55.5461,77.4225 15.0621,-195.6759 1.0447,254.9843 -45.0118,-64.3281 -21.9398,149.9195"
     style="fill:#6d76a1;fill-opacity:1;fill-rule:nonzero;stroke:none;stroke-width:8.83803"
     id="path842" />
  <path
     d="M 6101.1387,3131.5441 H 4397.0621 v -733.4483 h 1704.0766 v 733.4483"
     style="fill:#6d76a1;fill-opacity:1;fill-rule:nonzero;stroke:none;stroke-width:8.83803"
     id="path844" />
  <path
     d="M 6014.25,2851.4476 H 4779.6153 V 2484.7638 H 6014.25 v 366.6838"
     style="fill:#464f72;fill-opacity:1;fill-rule:nonzero;stroke:none;stroke-width:8.83803"
     id="path846" />
  <path
     d="M 6101.1387,3511.2348 H 4397.0621 v -199.0875 h 1704.0766 v 199.0875"
     style="fill:#6d76a1;fill-opacity:1;fill-rule:nonzero;stroke:none;stroke-width:8.83803"
     id="path848" />
  <path
     d="m 4524.696,4478.2224 h -127.6339 v -729.8618 h 127.6339 v 729.8618"
     style="fill:#6d76a1;fill-opacity:1;fill-rule:nonzero;stroke:none;stroke-width:8.83803"
     id="path850" />
  <path
     d="m 4751.6682,4478.2224 h -127.6339 v -729.8618 h 127.6339 v 729.8618"
     style="fill:#6d76a1;fill-opacity:1;fill-rule:nonzero;stroke:none;stroke-width:8.83803"
     id="path852" />
  <path
     d="m 4978.7273,4478.2224 h -127.7209 v -729.8618 h 127.7209 v 729.8618"
     style="fill:#6d76a1;fill-opacity:1;fill-rule:nonzero;stroke:none;stroke-width:8.83803"
     id="path854" />
  <path
     d="m 5205.6995,4478.2224 h -127.8077 v -729.8618 h 127.8077 v 729.8618"
     style="fill:#6d76a1;fill-opacity:1;fill-rule:nonzero;stroke:none;stroke-width:8.83803"
     id="path856" />
  <path
     d="m 5397.1501,4478.2224 h -127.7208 v -729.8618 h 127.7208 v 729.8618"
     style="fill:#6d76a1;fill-opacity:1;fill-rule:nonzero;stroke:none;stroke-width:8.83803"
     id="path858" />
  <path
     d="M 5624.1223,4478.2224 H 5496.489 v -729.8618 h 127.6333 v 729.8618"
     style="fill:#6d76a1;fill-opacity:1;fill-rule:nonzero;stroke:none;stroke-width:8.83803"
     id="path860" />
  <path
     d="m 5851.0945,4478.2224 h -127.6333 v -729.8618 h 127.6333 v 729.8618"
     style="fill:#6d76a1;fill-opacity:1;fill-rule:nonzero;stroke:none;stroke-width:8.83803"
     id="path862" />
  <path
     d="m 6078.0667,4478.2224 h -127.6333 v -729.8618 h 127.6333 v 729.8618"
     style="fill:#6d76a1;fill-opacity:1;fill-rule:nonzero;stroke:none;stroke-width:8.83803"
     id="path864" />
  <path
     d="m 6022.26,5857.1926 h -16.0199 V 4399.0907 h 16.0199 v 1458.1019"
     style="fill:#6d76a1;fill-opacity:1;fill-rule:nonzero;stroke:none;stroke-width:8.83803"
     id="path866" />
  <path
     d="m 5795.2878,5857.1926 h -16.0199 V 4399.0907 h 16.0199 v 1458.1019"
     style="fill:#6d76a1;fill-opacity:1;fill-rule:nonzero;stroke:none;stroke-width:8.83803"
     id="path868" />
  <path
     d="m 5568.3156,5857.1926 h -16.0199 V 4399.0907 h 16.0199 v 1458.1019"
     style="fill:#6d76a1;fill-opacity:1;fill-rule:nonzero;stroke:none;stroke-width:8.83803"
     id="path870" />
  <path
     d="m 5341.3434,5857.1926 h -16.0199 V 4399.0907 h 16.0199 v 1458.1019"
     style="fill:#6d76a1;fill-opacity:1;fill-rule:nonzero;stroke:none;stroke-width:8.83803"
     id="path872" />
  <path
     d="M 5149.8928,5857.1926 H 5133.786 V 4399.0907 h 16.1068 v 1458.1019"
     style="fill:#6d76a1;fill-opacity:1;fill-rule:nonzero;stroke:none;stroke-width:8.83803"
     id="path874" />
  <path
     d="m 4922.8331,5857.1926 h -16.1062 V 4399.0907 h 16.1062 v 1458.1019"
     style="fill:#6d76a1;fill-opacity:1;fill-rule:nonzero;stroke:none;stroke-width:8.83803"
     id="path876" />
  <path
     d="m 4695.8609,5857.1926 h -16.1061 V 4399.0907 h 16.1061 v 1458.1019"
     style="fill:#6d76a1;fill-opacity:1;fill-rule:nonzero;stroke:none;stroke-width:8.83803"
     id="path878" />
  <path
     d="m 4468.8887,5857.1926 h -16.1061 V 4399.0907 h 16.1061 v 1458.1019"
     style="fill:#6d76a1;fill-opacity:1;fill-rule:nonzero;stroke:none;stroke-width:8.83803"
     id="path880" />
  <path
     d="M 6101.1387,5929.777 H 4397.0621 v -88.2829 h 1704.0766 v 88.2829"
     style="fill:#6d76a1;fill-opacity:1;fill-rule:nonzero;stroke:none;stroke-width:8.83803"
     id="path882" />
  <path
     d="m 4455.3069,3836.3744 h -32.2129 l 0.9599,-127.8488 c 0.3264,-49.0737 37.0886,-88.8213 82.0998,-88.8213 h 0.5224 l 212.52,1.615 h 0.3265 c 11.7534,0 22.9845,-5.114 31.5168,-14.4469 8.8804,-9.6896 13.843,-22.6966 13.9298,-36.6926 l 1.1297,-158.62 h 32.2136 l -1.1297,158.62 c -0.1959,22.3399 -8.2705,43.334 -22.8102,59.2141 -14.8008,16.1494 -36.1307,25.6573 -55.4586,24.7623 l -212.52,-1.6149 h -0.2612 c -27.3379,0 -49.7125,25.0314 -49.9737,55.9843 l -0.8685,127.8488"
     style="fill:#6d76a1;fill-opacity:1;fill-rule:nonzero;stroke:none;stroke-width:8.83803"
     id="path884" />
  <path
     d="m 4913.5178,3836.1927 h -32.2136 l 0.9599,-127.9362 c 0.1959,-23.6857 8.706,-45.9381 24.1161,-62.6258 15.4976,-16.8625 36.0439,-26.108 57.8969,-26.108 h 0.6986 l 212.4326,1.5476 c 12.0146,-1.0093 23.2457,-5.0466 31.8649,-14.3527 8.9672,-9.7838 13.9298,-22.7907 14.0173,-36.7868 l 1.1296,-158.62 h 32.1261 l -1.1296,158.62 c -0.1959,22.4274 -8.2712,43.4215 -22.7234,59.2142 -14.714,15.9676 -34.1287,24.7623 -54.8494,24.7623 h -0.6987 l -212.4325,-1.5477 h -0.3265 c -13.0594,0 -25.3352,5.585 -34.6505,15.7927 -9.7514,10.5845 -15.1489,24.8498 -15.3232,40.1042 l -0.8685,127.9362"
     style="fill:#6d76a1;fill-opacity:1;fill-rule:nonzero;stroke:none;stroke-width:8.83803"
     id="path886" />
  <path
     d="m 5343.8678,3836.0178 h -32.1261 l 0.9599,-127.8488 c 0.3265,-49.2554 33.6064,-89.3596 77.2247,-88.8213 l 194.8461,1.5477 h 0.1959 c 22.1141,0 40.3104,-22.9657 40.5716,-51.227 l 1.1296,-158.7142 h 32.1261 l -1.1296,158.7142 c -0.3265,46.4764 -32.9097,84.0639 -72.6977,84.0639 h -0.3265 l -194.9329,-1.5476 h -0.3265 c -24.2905,0 -44.2276,25.1189 -44.4888,55.9843 l -0.9598,127.8488"
     style="fill:#6d76a1;fill-opacity:1;fill-rule:nonzero;stroke:none;stroke-width:8.83803"
     id="path888" />
  <path
     d="m 5788.6706,3836.1927 h -32.1261 l 0.8685,-127.943 c 0.1959,-22.9657 6.8777,-44.6798 18.8923,-61.1857 12.8851,-17.5826 30.907,-27.6355 49.6257,-27.6355 h 0.5224 l 168.7273,1.2785 h 0.1959 c 10.4475,0 18.022,-8.1622 21.5911,-13.1012 7.1396,-9.777 11.3186,-23.6857 11.4054,-38.1258 l 1.1296,-158.6267 h 32.1261 l -1.1296,158.5325 c -0.1959,21.7141 -6.4448,42.2573 -17.8476,57.8684 -12.189,16.7818 -29.4274,26.2897 -47.275,26.2897 h -0.3265 l -168.8141,-1.2785 h -0.1959 c -11.7535,0 -20.024,9.0638 -24.0293,14.4469 -7.7482,10.6788 -12.3627,25.8389 -12.4495,41.5374 l -0.8685,127.8488"
     style="fill:#6d76a1;fill-opacity:1;fill-rule:nonzero;stroke:none;stroke-width:8.83803"
     id="path890" />
  <path
     d="M 6101.1387,6347.0552 H 4397.0621 v -276.0658 h 1704.0766 v 276.0658"
     style="fill:#6d76a1;fill-opacity:1;fill-rule:nonzero;stroke:none;stroke-width:8.83803"
     id="path892" />
  <path
     d="m 4524.696,4961.4436 h -127.6339 v -189.8419 h 127.6339 v 189.8419"
     style="fill:#6d76a1;fill-opacity:1;fill-rule:nonzero;stroke:none;stroke-width:8.83803"
     id="path894" />
  <path
     d="m 4751.6682,5499.3977 h -127.6339 v -189.9362 h 127.6339 v 189.9362"
     style="fill:#6d76a1;fill-opacity:1;fill-rule:nonzero;stroke:none;stroke-width:8.83803"
     id="path896" />
  <path
     d="m 4978.7273,5056.368 h -127.7209 v -189.8487 h 127.7209 v 189.8487"
     style="fill:#6d76a1;fill-opacity:1;fill-rule:nonzero;stroke:none;stroke-width:8.83803"
     id="path898" />
  <path
     d="m 5205.6126,5771.2445 h -127.7208 v -189.8487 h 127.7208 v 189.8487"
     style="fill:#6d76a1;fill-opacity:1;fill-rule:nonzero;stroke:none;stroke-width:8.83803"
     id="path900" />
  <path
     d="m 5397.1501,4866.5193 h -127.6333 v -189.842 h 127.6333 v 189.842"
     style="fill:#6d76a1;fill-opacity:1;fill-rule:nonzero;stroke:none;stroke-width:8.83803"
     id="path902" />
  <path
     d="m 5836.3811,4961.4436 h -127.6339 v -189.8419 h 127.6339 v 189.8419"
     style="fill:#6d76a1;fill-opacity:1;fill-rule:nonzero;stroke:none;stroke-width:8.83803"
     id="path904" />
  <path
     d="M 6078.0667,5676.3202 H 5950.4334 V 5486.384 h 127.6333 v 189.9362"
     style="fill:#6d76a1;fill-opacity:1;fill-rule:nonzero;stroke:none;stroke-width:8.83803"
     id="path906" />
  <path
     d="m 4100.2659,6795.1989 h 814.5579 V 2000.3784 h -814.5579 v 4794.8205"
     style="fill:#4ca1bf;fill-opacity:1;fill-rule:nonzero;stroke:none;stroke-width:8.83803"
     id="path908" />
  <path
     d="m 4182.1045,3623.385 h -81.8386 V 2464.308 h 81.8386 v 1159.077"
     style="fill:#c1e4fa;fill-opacity:1;fill-rule:nonzero;stroke:none;stroke-width:8.83803"
     id="path910" />
  <path
     d="m 4182.1045,6281.1997 h -81.8386 V 5122.1294 h 81.8386 v 1159.0703"
     style="fill:#c1e4fa;fill-opacity:1;fill-rule:nonzero;stroke:none;stroke-width:8.83803"
     id="path912" />
  <path
     d="m 5998.6656,3377.7337 530.3856,-431.5434 112.9199,364.0729 863.1388,-1150.639 -813.5999,661.9471 -111.3529,-337.7024 -581.4915,893.8648"
     style="fill:#ffd500;fill-opacity:1;fill-rule:nonzero;stroke:none;stroke-width:8.83803"
     id="path914" />
  <path
     d="m 5823.4961,3200.2729 94.4625,-587.0278 274.5083,163.1081 -96.3782,-1238.747 -144.9593,900.5938 -258.8371,-147.5846 131.2038,909.6575"
     style="fill:#ffd500;fill-opacity:1;fill-rule:nonzero;stroke:none;stroke-width:8.83803"
     id="path916" />
  <path
     d="m 8314.7053,3610.4656 c 0,0 -296.7094,-418.9874 -498.695,-458.0149 -201.985,-39.115 -269.7195,119.3233 -269.7195,119.3233 0,0 435.5737,216.4009 546.7529,414.7683 111.1791,198.28 221.6616,-76.0767 221.6616,-76.0767"
     style="fill:#e9b79c;fill-opacity:1;fill-rule:nonzero;stroke:none;stroke-width:8.83803"
     id="path918" />
  <path
     d="m 7954.701,3734.277 -50.7573,16.6877 c -55.285,18.39 -108.0449,45.6622 -166.8122,50.7761 -27.5984,2.4224 -56.0678,-0.6729 -81.2294,-12.4686 -14.8002,-6.9106 -28.0339,-16.7751 -40.8321,-27.0972 l -16.9772,-5.585 -5.1389,14.891 c 2.6119,14.0836 15.0621,23.5982 23.4201,35.0777 5.2237,7.1797 13.8429,20.2809 11.8403,29.9704 -1.8283,9.0571 -13.0594,15.4294 -20.4595,18.6592 -23.8549,10.4096 -49.8,14.0836 -75.4833,17.0443 -20.6338,2.4224 -45.0111,0.8075 -44.9243,28.6247 0.065,10.3153 -4.2639,17.2259 -7.5744,26.5521 l -0.5224,13.727 3.6566,5.3831 6.1836,13.0136 2.958,9.2388 10.2732,5.6523 c 10.0126,1.1439 20.1989,2.0859 30.4721,1.9513 11.9278,0 23.8549,1.615 35.8696,0.6729 9.8383,-0.8075 18.893,-3.5663 28.905,-4.3065 43.7927,-3.1625 136.4268,-25.5697 139.9966,-26.5589 31.0814,-8.6129 108.2186,-40.1041 133.9894,-55.3585 25.7707,-15.2476 83.1445,-156.5542 83.1445,-156.5542"
     style="fill:#e9b79c;fill-opacity:1;fill-rule:nonzero;stroke:none;stroke-width:8.83803"
     id="path920" />
  <path
     d="m 8297.0313,3747.284 c -127.2853,107.0363 -559.4642,198.9058 -559.4642,198.9058 l 36.1307,-126.5905 451.7681,-273.556 c 0,0 198.7639,94.0294 71.5654,201.2407"
     style="fill:#e9b79c;fill-opacity:1;fill-rule:nonzero;stroke:none;stroke-width:8.83803"
     id="path922" />
  <path
     d="m 8028.9658,3209.33 c 0,0 65.7318,13.9086 46.5783,54.9076 -19.1536,41.0059 -54.0659,27.1847 -54.0659,27.1847 0,0 34.2156,32.1237 -1.0447,66.3939 -24.726,23.9548 -50.5836,-1.5476 -50.5836,-1.5476 0,0 34.9123,26.0206 3.5717,64.9606 -21.1562,26.283 -53.0211,-1.9514 -53.0211,-1.9514 0,0 41.1808,26.5589 12.7982,60.1159 -28.2951,33.6444 -58.2449,-15.611 -58.2449,-15.611 0,0 32.4741,44.9489 4.3553,72.4902 -28.1214,27.723 -54.7626,-45.6689 -54.7626,-45.6689 l 204.4232,-281.2673"
     style="fill:#fbfcfb;fill-opacity:1;fill-rule:nonzero;stroke:none;stroke-width:8.83803"
     id="path924" />
  <path
     d="m 8036.9751,3212.2032 c 0,0 -384.6421,-321.6406 -521.2433,-148.0354 -154.362,196.2142 323.7854,456.6691 323.7854,456.6691 0,0 184.486,-159.34 197.4579,-308.6337"
     style="fill:#3f8fd8;fill-opacity:1;fill-rule:nonzero;stroke:none;stroke-width:8.83803"
     id="path926" />
  <path
     d="m 9010.422,6350.8234 c 0,0 121.9747,139.1533 125.6314,171.7211 10.9698,97.1651 -238.029,307.3754 -358.8721,326.6671 -16.8897,2.6916 -45.7947,-10.4971 -40.5709,-59.0392 5.1389,-48.5354 122.9326,-196.5709 68.3443,-251.2094 -54.5882,-54.4569 205.4673,-188.1396 205.4673,-188.1396"
     style="fill:#e8a32b;fill-opacity:1;fill-rule:nonzero;stroke:none;stroke-width:8.83803"
     id="path928" />
  <path
     d="m 7803.0384,3965.8381 c 0,0 311.597,-35.3468 438.6211,356.18 284.5204,876.2822 783.2154,1796.706 900.9236,2053.9242 11.4054,24.7623 9.9251,52.4853 -3.1343,76.3527 -37.611,68.7221 -140.9539,202.0482 -393.0876,257.225 -46.0559,10.0462 -93.5053,-13.1886 -114.2259,-56.7918 L 7375.474,4083.1023 7803.0384,3965.8381"
     style="fill:#af75e1;fill-opacity:1;fill-rule:nonzero;stroke:none;stroke-width:8.83803"
     id="path930" />
  <path
     d="m 6915.6091,6587.9493 c 0,0 26.6412,176.115 13.6686,204.1072 -38.8295,83.5323 -333.6236,118.5225 -436.4448,69.5363 -14.3653,-6.8231 -30.2978,-32.837 -2.6119,-68.8163 27.5991,-35.9794 190.6671,-91.4254 174.9958,-164.0973 -15.7581,-72.5777 250.3923,-40.7299 250.3923,-40.7299"
     style="fill:#e8a32b;fill-opacity:1;fill-rule:nonzero;stroke:none;stroke-width:8.83803"
     id="path932" />
  <path
     d="m 7846.7436,4122.2173 c 0,0 306.9825,300.1082 63.7298,618.1623 -151.1409,197.6475 -497.0404,445.6271 -627.7211,773.9966 -202.3337,508.616 -163.8523,1115.023 -218.005,1289.8865 -11.7534,37.9509 -45.1855,62.444 -82.7097,61.4549 -101.8632,-2.7589 -305.6765,-22.6091 -466.4814,-128.7438 -35.7827,-23.6856 -50.2349,-71.5953 -33.6932,-112.776 0,0 134.7729,-1126.3276 277.7301,-1464.5684 124.5866,-294.9942 713.5651,-1001.7019 713.5651,-1001.7019 l 373.5854,-35.7102"
     style="fill:#af75e1;fill-opacity:1;fill-rule:nonzero;stroke:none;stroke-width:8.83803"
     id="path934" />
  <path
     d="m 6870.598,2750.7835 c 2.6967,98.06 96.2907,454.96 267.8043,387.7586 73.1326,-28.6179 139.6486,-222.0531 100.2093,-363.3597 -15.8457,-58.225 -98.6422,-116.9009 -203.9877,-117.7958 -47.5362,-0.6729 -168.205,-20.1867 -164.0259,93.3969"
     style="fill:#e9b79c;fill-opacity:1;fill-rule:nonzero;stroke:none;stroke-width:8.83803"
     id="path936" />
  <path
     d="m 7009.2887,3040.3946 c 0,0 147.1355,72.4028 94.0276,213.4402 -53.1086,140.9432 272.1577,-67.383 272.1577,-67.383 l -192.4954,-328.5445 -173.6899,182.4873"
     style="fill:#e9b79c;fill-opacity:1;fill-rule:nonzero;stroke:none;stroke-width:8.83803"
     id="path938" />
  <path
     d="m 7049.6853,3268.3692 c 169.772,-136.2868 361.7451,-190.2928 513.4083,-197.1159 283.5631,-12.5561 238.4645,487.1711 243.3402,561.7271 25.3352,388.0345 253.8745,282.344 248.4764,375.0276 -9.4896,166.5129 -380.8986,371.8785 -623.8032,394.5817 -94.9856,8.9696 -185.7921,-5.9887 -181.9611,-52.9361 27.1635,-334.2034 -142.6954,-459.7173 -213.1292,-639.0622 -72.1747,-183.7456 -126.4149,-329.8095 13.6686,-442.2222"
     style="fill:#56a0fd;fill-opacity:1;fill-rule:nonzero;stroke:none;stroke-width:8.83803"
     id="path940" />
  <path
     d="m 7462.6232,4457.4974 c -47.7974,82.1798 -176.3018,283.5955 -290.3533,208.8645 -15.3233,-10.0529 -3.1343,-36.6051 12.3626,-26.4714 94.7243,61.9999 211.9977,-125.9647 252.3074,-195.2251 9.3159,-16.0618 35.086,-3.499 25.6833,12.832"
     style="fill:#9c67d3;fill-opacity:1;fill-rule:nonzero;stroke:none;stroke-width:8.83803"
     id="path942" />
  <path
     d="m 7875.8223,4559.9514 c 12.0146,98.78 -21.5911,202.9431 -80.9683,279.5649 -13.0593,16.8693 10.0995,41.0933 23.3333,23.9548 64.6002,-83.4381 103.7784,-195.4942 90.5446,-303.5197 -2.6119,-21.3508 -35.6084,-21.6199 -32.9096,0"
     style="fill:#9c67d3;fill-opacity:1;fill-rule:nonzero;stroke:none;stroke-width:8.83803"
     id="path944" />
  <path
     d="m 6939.2028,4235.4443 c 0,0 270.2426,-437.5591 231.848,-645.6162 -38.3946,-208.0571 -206.2516,-215.2368 -206.2516,-215.2368 0,0 -36.6531,496.8608 -175.257,675.9432 -138.6032,178.9883 149.6606,184.9098 149.6606,184.9098"
     style="fill:#e9b79c;fill-opacity:1;fill-rule:nonzero;stroke:none;stroke-width:8.83803"
     id="path946" />
  <path
     d="m 6610.1062,4015.181 -49.0158,-21.3508 c -53.631,-23.1473 -110.8311,-37.7692 -158.8022,-73.3919 -22.4621,-16.5934 -42.1387,-38.0384 -53.7178,-63.8773 -6.7909,-15.2543 -10.7087,-31.5786 -13.843,-47.9971 l -9.4027,-15.5235 -13.3206,7.718 c -6.9652,12.5561 -3.4803,28.0796 -4.3553,42.3449 -0.5877,8.9696 -2.3507,24.7623 -9.9251,30.7712 l -27.3373,0.6728 c -24.7259,-8.1621 -46.7526,-22.7907 -68.0831,-37.6817 -17.2384,-12.112 -34.6512,-29.6071 -52.1507,-8.4313 -6.5297,7.8055 -14.191,10.1337 -22.549,15.0727 l -9.0548,10.0462 -0.5876,6.527 -3.5718,13.9961 -3.5717,8.9763 4.179,11.3046 21.9398,21.8016 c 9.1415,7.8929 17.064,17.3134 26.8148,24.5806 8.01,5.9214 16.6292,9.9587 24.6392,16.1493 35.2603,26.9155 119.7108,72.0461 123.1063,73.7485 28.9918,14.3527 107.5225,42.0757 136.6012,47.8222 29.253,5.8541 162.0232,-63.0765 162.0232,-63.0765"
     style="fill:#e9b79c;fill-opacity:1;fill-rule:nonzero;stroke:none;stroke-width:8.83803"
     id="path948" />
  <path
     d="m 6861.8044,4254.6418 c -164.2871,-4.0374 -550.3227,-224.2064 -550.3227,-224.2064 l 107.3482,-71.8645 515.7591,95.3685 c 0,0 91.4157,204.7397 -72.7846,200.7024"
     style="fill:#e9b79c;fill-opacity:1;fill-rule:nonzero;stroke:none;stroke-width:8.83803"
     id="path950" />
  <path
     d="m 7197.3439,3814.9294 c 0,0 11.4047,68.0963 -32.6485,64.6915 -44.0539,-3.4317 -44.3151,-41.9007 -44.3151,-41.9007 0,0 -16.5417,44.4981 -60.2475,23.1473 -30.7327,-14.9852 -17.1509,-49.1679 -17.1509,-49.1679 0,0 -10.7087,43.0648 -57.4613,27.1847 -31.4301,-10.6721 -17.4996,-51.5837 -17.4996,-51.5837 0,0 -8.9679,49.1613 -49.7132,34.2702 -40.6578,-14.891 -7.0521,-61.6365 -7.0521,-61.6365 0,0 -28.7306,47.553 -63.991,30.6837 -35.1728,-16.8693 21.3306,-69.1729 21.3306,-69.1729 l 328.7486,93.4843"
     style="fill:#fbfcfb;fill-opacity:1;fill-rule:nonzero;stroke:none;stroke-width:8.83803"
     id="path952" />
  <path
     d="m 7197.6051,3823.6366 c 0,0 150.2698,-486.4579 -56.4166,-554.1033 -233.5894,-76.5276 -294.3586,477.2998 -294.3586,477.2998 0,0 211.1265,118.7917 350.7752,76.8035"
     style="fill:#3f8fd8;fill-opacity:1;fill-rule:nonzero;stroke:none;stroke-width:8.83803"
     id="path954" />
  <path
     d="m 6966.3664,2520.6557 c -126.3274,106.8546 -110.9173,260.5423 -70.3464,312.9334 90.1098,116.3693 68.2569,238.115 147.9191,331.0611 95.5948,111.612 189.1,161.8565 218.6142,228.6945 34.39,78.1425 7.1396,281.449 59.7252,348.0179 52.4119,66.3938 156.7127,45.5747 226.1886,153.0619 46.5783,72.0394 116.3154,113.3144 200.0699,106.9421 83.8412,-6.2579 189.3611,-67.558 235.7657,-139.6916 23.2457,-36.2485 38.5683,-79.4883 34.0413,-122.6474 -4.9626,-47.0079 -32.1261,-87.7446 -55.4587,-128.2929 -39.1782,-68.1905 -10.9699,-167.6837 -32.3873,-243.8547 -22.8977,-81.4666 -124.9353,-128.1179 -153.7528,-207.6129 -43.2703,-119.505 -53.3691,-234.4343 -169.2496,-329.177 -90.1967,-73.6544 -153.0561,-191.1878 -244.6462,-270.7703 -100.9921,-87.7446 -249.8692,-162.6572 -396.483,-38.6641"
     style="fill:#282738;fill-opacity:1;fill-rule:nonzero;stroke:none;stroke-width:8.83803"
     id="path956" />
  <path
     d="m 6265.5127,4250.7861 110.5693,251.566 -146.7876,10.1405 347.5541,452.2684 -169.6852,-385.9688 136.7756,-12.0177 -278.4262,-315.9884"
     style="fill:#ffd500;fill-opacity:1;fill-rule:nonzero;stroke:none;stroke-width:8.83803"
     id="path958" />
</svg>
